999
dxfrw 0.6.3
  0
SECTION
  2
HEADER
  9
$ACADVER
  1
AC1021
  9
$DWGCODEPAGE
  3
ANSI_1252
  9
$INSBASE
 10
0
 20
0
 30
0
  9
$EXTMIN
 10
-158.2015159157458
 20
-100.325889506165
 30
0
  9
$EXTMAX
 10
371.25
 20
183.125
 30
0
  9
$LIMMIN
 10
0
 20
0
  9
$LIMMAX
 10
420
 20
297
  9
$ORTHOMODE
 70
    0
  9
$REGENMODE
 70
    1
  9
$FILLMODE
 70
    1
  9
$QTEXTMODE
 70
    0
  9
$MIRRTEXT
 70
    0
  9
$LTSCALE
 40
1
  9
$ATTMODE
 70
    0
  9
$TEXTSIZE
 40
2.5
  9
$TRACEWID
 40
15.68
  9
$TEXTSTYLE
  7
STANDARD
  9
$CLAYER
  8
dim
  9
$CELTYPE
  6
BYLAYER
  9
$CECOLOR
 62
  256
  9
$CELTSCALE
 40
1
  9
$DISPSILH
 70
    0
  9
$DIMSCALE
 40
1
  9
$DIMASZ
 40
2.5
  9
$DIMEXO
 40
0.625
  9
$DIMDLI
 40
3.75
  9
$DIMRND
 40
0
  9
$DIMDLE
 40
0
  9
$DIMEXE
 40
1.25
  9
$DIMTP
 40
0
  9
$DIMTM
 40
0
  9
$DIMTXT
 40
2.5
  9
$DIMCEN
 40
2.5
  9
$DIMTSZ
 40
0
  9
$DIMTOL
 70
    0
  9
$DIMLIM
 70
    0
  9
$DIMTIH
 70
    0
  9
$DIMTOH
 70
    0
  9
$DIMSE1
 70
    0
  9
$DIMSE2
 70
    0
  9
$DIMTAD
 70
    1
  9
$DIMZIN
 70
    8
  9
$DIMBLK
  1

  9
$DIMASO
 70
    1
  9
$DIMSHO
 70
    1
  9
$DIMPOST
  1

  9
$DIMAPOST
  1

  9
$DIMALT
 70
    0
  9
$DIMALTD
 70
    3
  9
$DIMALTF
 40
0.03937
  9
$DIMLFAC
 40
1
  9
$DIMTOFL
 70
    1
  9
$DIMTVP
 40
0
  9
$DIMTIX
 70
    0
  9
$DIMSOXD
 70
    0
  9
$DIMSAH
 70
    0
  9
$DIMBLK1
  1

  9
$DIMBLK2
  1

  9
$DIMSTYLE
  2
STANDARD
  9
$DIMCLRD
 70
    0
  9
$DIMCLRE
 70
    0
  9
$DIMCLRT
 70
    0
  9
$DIMTFAC
 40
1
  9
$DIMGAP
 40
0.625
  9
$DIMJUST
 70
    0
  9
$DIMSD1
 70
    0
  9
$DIMSD2
 70
    0
  9
$DIMTOLJ
 70
    0
  9
$DIMTZIN
 70
    8
  9
$DIMALTZ
 70
    0
  9
$DIMALTTZ
 70
    0
  9
$DIMUPT
 70
    0
  9
$DIMDEC
 70
    2
  9
$DIMTDEC
 70
    2
  9
$DIMALTU
 70
    2
  9
$DIMALTTD
 70
    3
  9
$DIMTXSTY
  7
STANDARD
  9
$DIMAUNIT
 70
    0
  9
$DIMADEC
 70
    0
  9
$DIMALTRND
 40
0
  9
$DIMAZIN
 70
    0
  9
$DIMDSEP
 70
   44
  9
$DIMATFIT
 70
    3
  9
$DIMFRAC
 70
    0
  9
$DIMLDRBLK
  1
STANDARD
  9
$DIMLUNIT
 70
    2
  9
$DIMLWD
 70
   -2
  9
$DIMLWE
 70
   -2
  9
$DIMTMOVE
 70
    0
  9
$DIMFXL
 40
1
  9
$DIMFXLON
 70
    0
  9
$DIMJOGANG
 40
0.7854
  9
$DIMTFILL
 70
    0
  9
$DIMTFILLCLR
 70
    0
  9
$DIMARCSYM
 70
    0
  9
$DIMLTYPE
  6

  9
$DIMLTEX1
  6

  9
$DIMLTEX2
  6

  9
$LUNITS
 70
    2
  9
$LUPREC
 70
    4
  9
$SKETCHINC
 40
1
  9
$FILLETRAD
 40
0
  9
$AUNITS
 70
    0
  9
$AUPREC
 70
    2
  9
$MENU
  1
.
  9
$ELEVATION
 40
0
  9
$PELEVATION
 40
0
  9
$THICKNESS
 40
0
  9
$LIMCHECK
 70
    0
  9
$CHAMFERA
 40
0
  9
$CHAMFERB
 40
0
  9
$CHAMFERC
 40
0
  9
$CHAMFERD
 40
0
  9
$SKPOLY
 70
    0
  9
$USRTIMER
 70
    1
  9
$ANGBASE
 50
0
  9
$ANGDIR
 70
    0
  9
$PDMODE
 70
   34
  9
$PDSIZE
 40
0
  9
$PLINEWID
 40
0
  9
$SPLFRAME
 70
    0
  9
$SPLINETYPE
 70
    2
  9
$SPLINESEGS
 70
    8
  9
$HANDSEED
  5
20000
  9
$SURFTAB1
 70
    6
  9
$SURFTAB2
 70
    6
  9
$SURFTYPE
 70
    6
  9
$SURFU
 70
    6
  9
$SURFV
 70
    6
  9
$UCSBASE
  2

  9
$UCSNAME
  2

  9
$UCSORG
 10
0
 20
0
 30
0
  9
$UCSXDIR
 10
1
 20
0
 30
0
  9
$UCSYDIR
 10
0
 20
1
 30
0
  9
$UCSORTHOREF
  2

  9
$UCSORTHOVIEW
 70
    0
  9
$UCSORGTOP
 10
0
 20
0
 30
0
  9
$UCSORGBOTTOM
 10
0
 20
0
 30
0
  9
$UCSORGLEFT
 10
0
 20
0
 30
0
  9
$UCSORGRIGHT
 10
0
 20
0
 30
0
  9
$UCSORGFRONT
 10
0
 20
0
 30
0
  9
$UCSORGBACK
 10
0
 20
0
 30
0
  9
$PUCSBASE
  2

  9
$PUCSNAME
  2

  9
$PUCSORG
 10
0
 20
0
 30
0
  9
$PUCSXDIR
 10
1
 20
0
 30
0
  9
$PUCSYDIR
 10
0
 20
1
 30
0
  9
$PUCSORTHOREF
  2

  9
$PUCSORTHOVIEW
 70
    0
  9
$PUCSORGTOP
 10
0
 20
0
 30
0
  9
$PUCSORGBOTTOM
 10
0
 20
0
 30
0
  9
$PUCSORGLEFT
 10
0
 20
0
 30
0
  9
$PUCSORGRIGHT
 10
0
 20
0
 30
0
  9
$PUCSORGFRONT
 10
0
 20
0
 30
0
  9
$PUCSORGBACK
 10
0
 20
0
 30
0
  9
$USERI1
 70
    0
  9
$USERI2
 70
    0
  9
$USERI3
 70
    0
  9
$USERI4
 70
    0
  9
$USERI5
 70
    0
  9
$USERR1
 40
0
  9
$USERR2
 40
0
  9
$USERR3
 40
0
  9
$USERR4
 40
0
  9
$USERR5
 40
0
  9
$WORLDVIEW
 70
    1
  9
$SHADEDGE
 70
    3
  9
$SHADEDIF
 70
   70
  9
$TILEMODE
 70
    1
  9
$MAXACTVP
 70
   64
  9
$PINSBASE
 10
0
 20
0
 30
0
  9
$PLIMCHECK
 70
    0
  9
$PEXTMIN
 10
0
 20
0
 30
0
  9
$PEXTMAX
 10
0
 20
0
 30
0
  9
$GRIDMODE
 70
    1
  9
$SNAPSTYLE
 70
    0
  9
$PLIMMIN
 10
0
 20
0
  9
$PLIMMAX
 10
210
 20
297
  9
$UNITMODE
 70
    0
  9
$VISRETAIN
 70
    1
  9
$PLINEGEN
 70
    0
  9
$PSLTSCALE
 70
    1
  9
$TREEDEPTH
 70
 3020
  9
$CMLSTYLE
  2
Standard
  9
$CMLJUST
 70
    0
  9
$CMLSCALE
 40
20
  9
$PROXYGRAPHICS
 70
    1
  9
$MEASUREMENT
 70
    1
  9
$CELWEIGHT
370
   -1
  9
$ENDCAPS
280
    0
  9
$JOINSTYLE
280
    0
  9
$LWDISPLAY
290
    0
  9
$INSUNITS
 70
    4
  9
$HYPERLINKBASE
  1

  9
$STYLESHEET
  1

  9
$XEDIT
290
    1
  9
$CEPSNTYPE
380
    0
  9
$PSTYLEMODE
290
    1
  9
$EXTNAMES
290
    1
  9
$PSVPSCALE
 40
1
  9
$OLESTARTUP
290
    0
  9
$SORTENTS
280
  127
  9
$INDEXCTL
280
    0
  9
$HIDETEXT
280
    1
  9
$XCLIPFRAME
290
    0
  9
$HALOGAP
280
    0
  9
$OBSCOLOR
 70
  257
  9
$OBSLTYPE
280
    0
  9
$INTERSECTIONDISPLAY
280
    0
  9
$INTERSECTIONCOLOR
 70
  257
  9
$DIMASSOC
280
    1
  9
$PROJECTNAME
  1

  9
$CAMERADISPLAY
290
    0
  9
$LENSLENGTH
 40
50
  9
$CAMERAHEIGHT
 40
0
  9
$STEPSPERSEC
 40
2
  9
$STEPSIZE
 40
50
  9
$3DDWFPREC
 40
2
  9
$PSOLWIDTH
 40
5
  9
$PSOLHEIGHT
 40
80
  9
$LOFTANG1
 40
1.570796326794897
  9
$LOFTANG2
 40
1.570796326794897
  9
$LOFTMAG1
 40
0
  9
$LOFTMAG2
 40
0
  9
$LOFTPARAM
 70
    7
  9
$LOFTNORMALS
280
    1
  9
$LATITUDE
 40
1
  9
$LONGITUDE
 40
1
  9
$NORTHDIRECTION
 40
0
  9
$TIMEZONE
 70
-8000
  9
$LIGHTGLYPHDISPLAY
280
    1
  9
$TILEMODELIGHTSYNCH
280
    1
  9
$SOLIDHIST
280
    1
  9
$SHOWHIST
280
    1
  9
$DWFFRAME
280
    2
  9
$DGNFRAME
280
    0
  9
$REALWORLDSCALE
290
    1
  9
$INTERFERECOLOR
 62
    1
  9
$CSHADOW
280
    0
  9
$SHADOWPLANELOCATION
 40
0
  0
ENDSEC
  0
SECTION
  2
CLASSES
  0
ENDSEC
  0
SECTION
  2
TABLES
  0
TABLE
  2
VPORT
  5
8
330
0
100
AcDbSymbolTable
 70
    1
  0
VPORT
  5
31
330
2
100
AcDbSymbolTableRecord
100
AcDbViewportTableRecord
  2
*ACTIVE
 70
    0
 10
0
 20
0
 11
1
 21
1
 12
215.3245542787863
 22
100.2045627279742
 13
0
 23
0
 14
10
 24
10
 15
10
 25
10
 16
0
 26
0
 36
1
 17
0
 27
0
 37
0
 40
208.0024346748477
 41
1.697522816166884
 42
50
 43
0
 44
0
 50
0
 51
0
 71
    0
 72
  100
 73
    1
 74
    3
 75
    0
 76
    1
 77
    0
 78
    0
281
    0
 65
    1
110
0
120
0
130
0
111
1
121
0
131
0
112
0
122
1
132
0
 79
    0
146
0
348
10020
 60
    7
 61
    5
292
1
282
    1
141
0
142
0
 63
  250
421
3358443
  0
ENDTAB
  0
TABLE
  2
LTYPE
  5
5
330
0
100
AcDbSymbolTable
 70
    4
  0
LTYPE
  5
14
330
5
100
AcDbSymbolTableRecord
100
AcDbLinetypeTableRecord
  2
ByBlock
 70
    0
  3

 72
   65
 73
    0
 40
0
  0
LTYPE
  5
15
330
5
100
AcDbSymbolTableRecord
100
AcDbLinetypeTableRecord
  2
ByLayer
 70
    0
  3

 72
   65
 73
    0
 40
0
  0
LTYPE
  5
16
330
5
100
AcDbSymbolTableRecord
100
AcDbLinetypeTableRecord
  2
Continuous
 70
    0
  3
Solid line
 72
   65
 73
    0
 40
0
  0
LTYPE
  5
32
330
5
100
AcDbSymbolTableRecord
100
AcDbLinetypeTableRecord
  2
DOT
 70
    0
  3
Dot . . . . . . . . . . . . . . . . . . . . . .
 72
   65
 73
    2
 40
6.35
 49
0
 74
    0
 49
-6.35
 74
    0
  0
LTYPE
  5
33
330
5
100
AcDbSymbolTableRecord
100
AcDbLinetypeTableRecord
  2
DOTTINY
 70
    0
  3
Dot (.15x) .....................................
 72
   65
 73
    2
 40
0.9525
 49
0
 74
    0
 49
-0.9525
 74
    0
  0
LTYPE
  5
34
330
5
100
AcDbSymbolTableRecord
100
AcDbLinetypeTableRecord
  2
DOT2
 70
    0
  3
Dot (.5x) .....................................
 72
   65
 73
    2
 40
3.175
 49
0
 74
    0
 49
-3.175
 74
    0
  0
LTYPE
  5
35
330
5
100
AcDbSymbolTableRecord
100
AcDbLinetypeTableRecord
  2
DOTX2
 70
    0
  3
Dot (2x) .  .  .  .  .  .  .  .  .  .  .  .  .
 72
   65
 73
    2
 40
12.7
 49
0
 74
    0
 49
-12.7
 74
    0
  0
LTYPE
  5
36
330
5
100
AcDbSymbolTableRecord
100
AcDbLinetypeTableRecord
  2
DASHED
 70
    0
  3
Dashed _ _ _ _ _ _ _ _ _ _ _ _ _ _ _ _ _
 72
   65
 73
    2
 40
19.05
 49
12.7
 74
    0
 49
-6.35
 74
    0
  0
LTYPE
  5
37
330
5
100
AcDbSymbolTableRecord
100
AcDbLinetypeTableRecord
  2
DASHEDTINY
 70
    0
  3
Dashed (.15x) _ _ _ _ _ _ _ _ _ _ _ _ _ _ _ _ _
 72
   65
 73
    2
 40
2.8575
 49
1.905
 74
    0
 49
-0.9525
 74
    0
  0
LTYPE
  5
38
330
5
100
AcDbSymbolTableRecord
100
AcDbLinetypeTableRecord
  2
DASHED2
 70
    0
  3
Dashed (.5x) _ _ _ _ _ _ _ _ _ _ _ _ _ _ _ _ _
 72
   65
 73
    2
 40
9.524999999999999
 49
6.35
 74
    0
 49
-3.175
 74
    0
  0
LTYPE
  5
39
330
5
100
AcDbSymbolTableRecord
100
AcDbLinetypeTableRecord
  2
DASHEDX2
 70
    0
  3
Dashed (2x) ____  ____  ____  ____  ____  ___
 72
   65
 73
    2
 40
38.09999999999999
 49
25.4
 74
    0
 49
-12.7
 74
    0
  0
LTYPE
  5
3A
330
5
100
AcDbSymbolTableRecord
100
AcDbLinetypeTableRecord
  2
DASHDOT
 70
    0
  3
Dash dot __ . __ . __ . __ . __ . __ . __ . __
 72
   65
 73
    4
 40
25.4
 49
12.7
 74
    0
 49
-6.35
 74
    0
 49
0
 74
    0
 49
-6.35
 74
    0
  0
LTYPE
  5
3B
330
5
100
AcDbSymbolTableRecord
100
AcDbLinetypeTableRecord
  2
DASHDOTTINY
 70
    0
  3
Dash dot (.15x) _._._._._._._._._._._._._._._.
 72
   65
 73
    4
 40
3.81
 49
1.905
 74
    0
 49
-0.9525
 74
    0
 49
0
 74
    0
 49
-0.9525
 74
    0
  0
LTYPE
  5
3C
330
5
100
AcDbSymbolTableRecord
100
AcDbLinetypeTableRecord
  2
DASHDOT2
 70
    0
  3
Dash dot (.5x) _._._._._._._._._._._._._._._.
 72
   65
 73
    4
 40
12.7
 49
6.35
 74
    0
 49
-3.175
 74
    0
 49
0
 74
    0
 49
-3.175
 74
    0
  0
LTYPE
  5
3D
330
5
100
AcDbSymbolTableRecord
100
AcDbLinetypeTableRecord
  2
DASHDOTX2
 70
    0
  3
Dash dot (2x) ____  .  ____  .  ____  .  ___
 72
   65
 73
    4
 40
50.8
 49
25.4
 74
    0
 49
-12.7
 74
    0
 49
0
 74
    0
 49
-12.7
 74
    0
  0
LTYPE
  5
3E
330
5
100
AcDbSymbolTableRecord
100
AcDbLinetypeTableRecord
  2
DIVIDE
 70
    0
  3
Divide ____ . . ____ . . ____ . . ____ . . ____
 72
   65
 73
    6
 40
31.75
 49
12.7
 74
    0
 49
-6.35
 74
    0
 49
0
 74
    0
 49
-6.35
 74
    0
 49
0
 74
    0
 49
-6.35
 74
    0
  0
LTYPE
  5
3F
330
5
100
AcDbSymbolTableRecord
100
AcDbLinetypeTableRecord
  2
DIVIDETINY
 70
    0
  3
Divide (.15x) __..__..__..__..__..__..__..__.._
 72
   65
 73
    6
 40
4.7625
 49
1.905
 74
    0
 49
-0.9525
 74
    0
 49
0
 74
    0
 49
-0.9525
 74
    0
 49
0
 74
    0
 49
-0.9525
 74
    0
  0
LTYPE
  5
40
330
5
100
AcDbSymbolTableRecord
100
AcDbLinetypeTableRecord
  2
DIVIDE2
 70
    0
  3
Divide (.5x) __..__..__..__..__..__..__..__.._
 72
   65
 73
    6
 40
15.875
 49
6.35
 74
    0
 49
-3.175
 74
    0
 49
0
 74
    0
 49
-3.175
 74
    0
 49
0
 74
    0
 49
-3.175
 74
    0
  0
LTYPE
  5
41
330
5
100
AcDbSymbolTableRecord
100
AcDbLinetypeTableRecord
  2
DIVIDEX2
 70
    0
  3
Divide (2x) ________  .  .  ________  .  .  _
 72
   65
 73
    6
 40
63.5
 49
25.4
 74
    0
 49
-12.7
 74
    0
 49
0
 74
    0
 49
-12.7
 74
    0
 49
0
 74
    0
 49
-12.7
 74
    0
  0
LTYPE
  5
42
330
5
100
AcDbSymbolTableRecord
100
AcDbLinetypeTableRecord
  2
BORDER
 70
    0
  3
Border __ __ . __ __ . __ __ . __ __ . __ __ .
 72
   65
 73
    6
 40
44.45
 49
12.7
 74
    0
 49
-6.35
 74
    0
 49
12.7
 74
    0
 49
-6.35
 74
    0
 49
0
 74
    0
 49
-6.35
 74
    0
  0
LTYPE
  5
43
330
5
100
AcDbSymbolTableRecord
100
AcDbLinetypeTableRecord
  2
BORDERTINY
 70
    0
  3
Border (.15x) __.__.__.__.__.__.__.__.__.__.__.
 72
   65
 73
    6
 40
6.6675
 49
1.905
 74
    0
 49
-0.9525
 74
    0
 49
1.905
 74
    0
 49
-0.9525
 74
    0
 49
0
 74
    0
 49
-0.9525
 74
    0
  0
LTYPE
  5
44
330
5
100
AcDbSymbolTableRecord
100
AcDbLinetypeTableRecord
  2
BORDER2
 70
    0
  3
Border (.5x) __.__.__.__.__.__.__.__.__.__.__.
 72
   65
 73
    6
 40
22.225
 49
6.35
 74
    0
 49
-3.175
 74
    0
 49
6.35
 74
    0
 49
-3.175
 74
    0
 49
0
 74
    0
 49
-3.175
 74
    0
  0
LTYPE
  5
45
330
5
100
AcDbSymbolTableRecord
100
AcDbLinetypeTableRecord
  2
BORDERX2
 70
    0
  3
Border (2x) ____  ____  .  ____  ____  .  ___
 72
   65
 73
    6
 40
88.89999999999999
 49
25.4
 74
    0
 49
-12.7
 74
    0
 49
25.4
 74
    0
 49
-12.7
 74
    0
 49
0
 74
    0
 49
-12.7
 74
    0
  0
LTYPE
  5
46
330
5
100
AcDbSymbolTableRecord
100
AcDbLinetypeTableRecord
  2
CENTER
 70
    0
  3
Center ____ _ ____ _ ____ _ ____ _ ____ _ ____
 72
   65
 73
    4
 40
50.8
 49
31.75
 74
    0
 49
-6.35
 74
    0
 49
6.35
 74
    0
 49
-6.35
 74
    0
  0
LTYPE
  5
47
330
5
100
AcDbSymbolTableRecord
100
AcDbLinetypeTableRecord
  2
CENTERTINY
 70
    0
  3
Center (.15x) ___ _ ___ _ ___ _ ___ _ ___ _ ___
 72
   65
 73
    4
 40
7.619999999999999
 49
4.7625
 74
    0
 49
-0.9525
 74
    0
 49
0.9525
 74
    0
 49
-0.9525
 74
    0
  0
LTYPE
  5
48
330
5
100
AcDbSymbolTableRecord
100
AcDbLinetypeTableRecord
  2
CENTER2
 70
    0
  3
Center (.5x) ___ _ ___ _ ___ _ ___ _ ___ _ ___
 72
   65
 73
    4
 40
28.575
 49
19.05
 74
    0
 49
-3.175
 74
    0
 49
3.175
 74
    0
 49
-3.175
 74
    0
  0
LTYPE
  5
49
330
5
100
AcDbSymbolTableRecord
100
AcDbLinetypeTableRecord
  2
CENTERX2
 70
    0
  3
Center (2x) ________  __  ________  __  _____
 72
   65
 73
    4
 40
101.6
 49
63.5
 74
    0
 49
-12.7
 74
    0
 49
12.7
 74
    0
 49
-12.7
 74
    0
  0
ENDTAB
  0
TABLE
  2
LAYER
  5
2
330
0
100
AcDbSymbolTable
 70
    1
  0
LAYER
  5
10
330
2
100
AcDbSymbolTableRecord
100
AcDbLayerTableRecord
  2
0
 70
    0
 62
    7
  6
CONTINUOUS
370
    0
390
F
  0
LAYER
  5
4A
330
2
100
AcDbSymbolTableRecord
100
AcDbLayerTableRecord
  2
dim
 70
    0
 62
    3
  6
CONTINUOUS
370
    0
390
F
  0
ENDTAB
  0
TABLE
  2
STYLE
  5
3
330
0
100
AcDbSymbolTable
 70
    3
  0
STYLE
  5
4B
330
2
100
AcDbSymbolTableRecord
100
AcDbTextStyleTableRecord
  2
Standard
 70
    0
 40
0
 41
1
 50
0
 71
    0
 42
1
  3
txt
  4

  0
ENDTAB
  0
TABLE
  2
VIEW
  5
6
330
0
100
AcDbSymbolTable
 70
    0
  0
ENDTAB
  0
TABLE
  2
UCS
  5
7
330
0
100
AcDbSymbolTable
 70
    0
  0
ENDTAB
  0
TABLE
  2
APPID
  5
9
330
0
100
AcDbSymbolTable
 70
    1
  0
APPID
  5
12
330
9
100
AcDbSymbolTableRecord
100
AcDbRegAppTableRecord
  2
ACAD
 70
    0
  0
APPID
  5
4C
330
9
100
AcDbSymbolTableRecord
100
AcDbRegAppTableRecord
  2
LibreCad
 70
    0
  0
ENDTAB
  0
TABLE
  2
DIMSTYLE
  5
A
330
0
100
AcDbSymbolTable
 70
    1
100
AcDbDimStyleTable
 71
    1
  0
DIMSTYLE
105
4D
330
A
100
AcDbSymbolTableRecord
100
AcDbDimStyleTableRecord
  2
Standard
 70
    0
 40
1
 41
2.5
 42
0.625
 43
0.38
 44
1.25
 45
0
 46
0
 47
0
 48
0
 49
1
140
2.5
141
0.09
142
0
143
25.4
144
1
145
0
146
1
147
0.625
148
0
 71
    0
 72
    0
 73
    0
 74
    1
 75
    0
 76
    0
 77
    0
 78
    8
 79
    0
170
    0
171
    2
172
    0
173
    0
174
    0
175
    0
176
    0
177
    0
178
    0
179
    0
271
    2
272
    4
273
    2
274
    2
275
    0
276
    0
277
    2
278
   44
279
    0
280
    0
281
    0
282
    0
283
    1
284
    0
285
    0
286
    0
288
    0
289
    3
340
STANDARD
341

371
   -2
372
   -2
  0
ENDTAB
  0
TABLE
  2
BLOCK_RECORD
  5
1
330
0
100
AcDbSymbolTable
 70
    2
  0
BLOCK_RECORD
  5
1F
330
1
100
AcDbSymbolTableRecord
100
AcDbBlockTableRecord
  2
*Model_Space
 70
    0
280
    1
281
    0
  0
BLOCK_RECORD
  5
1E
330
1
100
AcDbSymbolTableRecord
100
AcDbBlockTableRecord
  2
*Paper_Space
 70
    0
280
    1
281
    0
  0
BLOCK_RECORD
  5
4E
330
1
100
AcDbSymbolTableRecord
100
AcDbBlockTableRecord
  2
*D5
 70
    0
280
    1
281
    0
  0
BLOCK_RECORD
  5
51
330
1
100
AcDbSymbolTableRecord
100
AcDbBlockTableRecord
  2
*D9
 70
    0
280
    1
281
    0
  0
BLOCK_RECORD
  5
54
330
1
100
AcDbSymbolTableRecord
100
AcDbBlockTableRecord
  2
*D2
 70
    0
280
    1
281
    0
  0
BLOCK_RECORD
  5
57
330
1
100
AcDbSymbolTableRecord
100
AcDbBlockTableRecord
  2
*D3
 70
    0
280
    1
281
    0
  0
BLOCK_RECORD
  5
5A
330
1
100
AcDbSymbolTableRecord
100
AcDbBlockTableRecord
  2
*D4
 70
    0
280
    1
281
    0
  0
BLOCK_RECORD
  5
5D
330
1
100
AcDbSymbolTableRecord
100
AcDbBlockTableRecord
  2
*D1
 70
    0
280
    1
281
    0
  0
BLOCK_RECORD
  5
60
330
1
100
AcDbSymbolTableRecord
100
AcDbBlockTableRecord
  2
*D6
 70
    0
280
    1
281
    0
  0
BLOCK_RECORD
  5
63
330
1
100
AcDbSymbolTableRecord
100
AcDbBlockTableRecord
  2
*D7
 70
    0
280
    1
281
    0
  0
BLOCK_RECORD
  5
66
330
1
100
AcDbSymbolTableRecord
100
AcDbBlockTableRecord
  2
*D10
 70
    0
280
    1
281
    0
  0
BLOCK_RECORD
  5
69
330
1
100
AcDbSymbolTableRecord
100
AcDbBlockTableRecord
  2
*D8
 70
    0
280
    1
281
    0
  0
BLOCK_RECORD
  5
6C
330
1
100
AcDbSymbolTableRecord
100
AcDbBlockTableRecord
  2
*D11
 70
    0
280
    1
281
    0
  0
BLOCK_RECORD
  5
6F
330
1
100
AcDbSymbolTableRecord
100
AcDbBlockTableRecord
  2
right_jaw
 70
    0
280
    1
281
    0
  0
ENDTAB
  0
ENDSEC
  0
SECTION
  2
BLOCKS
  0
BLOCK
  5
20
330
1F
100
AcDbEntity
  8
0
100
AcDbBlockBegin
  2
*Model_Space
 70
    0
 10
0
 20
0
 30
0
  3
*Model_Space
  1

  0
ENDBLK
  5
21
330
1F
100
AcDbEntity
  8
0
100
AcDbBlockEnd
  0
BLOCK
  5
1C
330
1B
100
AcDbEntity
  8
0
100
AcDbBlockBegin
  2
*Paper_Space
 70
    0
 10
0
 20
0
 30
0
  3
*Paper_Space
  1

  0
ENDBLK
  5
1D
330
1F
100
AcDbEntity
  8
0
100
AcDbBlockEnd
  0
BLOCK
  5
4F
330
4E
100
AcDbEntity
  8
0
100
AcDbBlockBegin
  2
*D5
 70
    1
 10
0
 20
0
  3
*D5
  1

  0
LINE
  5
72
100
AcDbEntity
  8
dim
  6
ByBlock
 62
    0
370
   -2
100
AcDbLine
 10
200.625
 20
0
 11
211.25
 21
0
  0
LINE
  5
73
100
AcDbEntity
  8
dim
  6
ByBlock
 62
    0
370
   -2
100
AcDbLine
 10
200.625
 20
-100.325889506165
 11
211.25
 21
-100.325889506165
  0
LINE
  5
74
100
AcDbEntity
  8
dim
  6
ByBlock
 62
    0
370
   -2
100
AcDbLine
 10
210
 20
0
 11
210
 21
-100.325889506165
  0
SOLID
  5
75
100
AcDbEntity
  8
dim
  6
ByBlock
 62
    0
370
   -2
100
AcDbTrace
 10
210
 20
0
 30
0
 11
210.4162846577728
 21
-2.5
 31
0
 12
209.5837153422272
 22
-2.5
 32
0
 13
209.5837153422272
 23
-2.5
 33
0
  0
SOLID
  5
76
100
AcDbEntity
  8
dim
  6
ByBlock
 62
    0
370
   -2
100
AcDbTrace
 10
210
 20
-100.325889506165
 30
0
 11
209.5837153422272
 21
-97.825889506165
 31
0
 12
210.4162846577728
 22
-97.825889506165
 32
0
 13
210.4162846577728
 23
-97.825889506165
 33
0
  0
MTEXT
  5
77
100
AcDbEntity
  8
dim
  6
CONTINUOUS
 62
    0
370
   -2
100
AcDbMText
 10
208.125
 20
-50.1629447530825
 30
0
 40
2.5
 41
9.305555555555866
 71
    5
 72
    1
  1
100,33
  7
STANDARD
210
0
220
0
230
1
 50
90
 73
    2
 44
1
  0
ENDBLK
  5
50
330
4E
100
AcDbEntity
  8
0
100
AcDbBlockEnd
  0
BLOCK
  5
52
330
51
100
AcDbEntity
  8
0
100
AcDbBlockBegin
  2
*D9
 70
    1
 10
0
 20
0
  3
*D9
  1

  0
LINE
  5
78
100
AcDbEntity
  8
dim
  6
ByBlock
 62
    0
370
   -2
100
AcDbLine
 10
370
 20
-10.51730201883335
 11
370
 21
0
  0
SOLID
  5
79
100
AcDbEntity
  8
dim
  6
ByBlock
 62
    0
370
   -2
100
AcDbTrace
 10
370
 20
-10.51730201883335
 30
0
 11
369.5837153422272
 21
-8.01730201883335
 31
0
 12
370.4162846577728
 22
-8.01730201883335
 32
0
 13
370.4162846577728
 23
-8.01730201883335
 33
0
  0
SOLID
  5
7A
100
AcDbEntity
  8
dim
  6
ByBlock
 62
    0
370
   -2
100
AcDbTrace
 10
370
 20
0
 30
0
 11
370.4162846577728
 21
-2.5
 31
0
 12
369.5837153422272
 22
-2.5
 32
0
 13
369.5837153422272
 23
-2.5
 33
0
  0
MTEXT
  5
7B
100
AcDbEntity
  8
dim
  6
CONTINUOUS
 62
    0
370
   -2
100
AcDbMText
 10
368.125
 20
-5.258651009416673
 30
0
 40
2.5
 41
7.361111111111266
 71
    5
 72
    1
  1
10,52
  7
STANDARD
210
0
220
0
230
1
 50
90
 73
    2
 44
1
  0
LINE
  5
7C
100
AcDbEntity
  8
dim
  6
ByBlock
 62
    0
370
   -2
100
AcDbLine
 10
359.9942963541559
 20
-10.51730201883335
 11
371.25
 21
-10.51730201883335
  0
LINE
  5
7D
100
AcDbEntity
  8
dim
  6
ByBlock
 62
    0
370
   -2
100
AcDbLine
 10
300.625
 20
0
 11
371.25
 21
0
  0
ENDBLK
  5
53
330
51
100
AcDbEntity
  8
0
100
AcDbBlockEnd
  0
BLOCK
  5
55
330
54
100
AcDbEntity
  8
0
100
AcDbBlockBegin
  2
*D2
 70
    1
 10
0
 20
0
  3
*D2
  1

  0
LINE
  5
7E
100
AcDbEntity
  8
dim
  6
ByBlock
 62
    0
370
   -2
100
AcDbLine
 10
-60.21376258957854
 20
0.5873078879911977
 11
-64.23225383715506
 21
11.62802185098372
  0
LINE
  5
7F
100
AcDbEntity
  8
dim
  6
ByBlock
 62
    0
370
   -2
100
AcDbLine
 10
-154.1830246681693
 20
-33.61470644457567
 11
-158.2015159157458
 21
-22.57399248158316
  0
LINE
  5
80
100
AcDbEntity
  8
dim
  6
ByBlock
 62
    0
370
   -2
100
AcDbLine
 10
-63.80472865799797
 20
10.45340607500133
 11
-157.7739907365888
 21
-23.74860825756554
  0
SOLID
  5
81
100
AcDbEntity
  8
dim
  6
ByBlock
 62
    0
370
   -2
100
AcDbTrace
 10
-63.80472865799797
 20
10.45340607500133
 30
0
 11
-66.011582471647
 21
9.207176095631633
 31
0
 12
-66.29633794827848
 22
9.989535337742684
 32
0
 13
-66.29633794827848
 23
9.989535337742684
 33
0
  0
SOLID
  5
82
100
AcDbEntity
  8
dim
  6
ByBlock
 62
    0
370
   -2
100
AcDbTrace
 10
-157.7739907365888
 20
-23.74860825756554
 30
0
 11
-155.5671369229397
 21
-22.50237827819585
 31
0
 12
-155.2823814463082
 22
-23.2847375203069
 32
0
 13
-155.2823814463082
 23
-23.2847375203069
 33
0
  0
MTEXT
  5
83
100
AcDbEntity
  8
dim
  6
CONTINUOUS
 62
    0
370
   -2
100
AcDbMText
 10
-111.430647466029
 20
-4.885677427308549
 30
0
 40
2.5
 41
4.444444444444445
 71
    5
 72
    1
  1
100
  7
STANDARD
210
0
220
0
230
1
 50
19.99999999999998
 73
    2
 44
1
  0
ENDBLK
  5
56
330
54
100
AcDbEntity
  8
0
100
AcDbBlockEnd
  0
BLOCK
  5
58
330
57
100
AcDbEntity
  8
0
100
AcDbBlockBegin
  2
*D3
 70
    1
 10
0
 20
0
  3
*D3
  1

  0
LINE
  5
84
100
AcDbEntity
  8
dim
  6
ByBlock
 62
    0
370
   -2
100
AcDbLine
 10
0.625
 20
0
 11
-36.38932022500209
 21
0
  0
LINE
  5
85
100
AcDbEntity
  8
dim
  6
ByBlock
 62
    0
370
   -2
100
AcDbLine
 10
-154.556569966582
 20
-34.41577692214535
 11
-82.1867815563046
 21
-8.075328080661233
  0
ARC
  5
86
100
AcDbEntity
  8
dim
  6
ByBlock
 62
    0
370
   -2
100
AcDbCircle
 10
-59.99999999999999
 20
0
 40
22.36067977499789
100
AcDbArc
 50
200
 51
0
  0
SOLID
  5
87
100
AcDbEntity
  8
dim
  6
ByBlock
 62
    0
370
   -2
100
AcDbTrace
 10
-37.63932022500209
 20
0
 30
0
 11
-37.36336731393299
 21
-2.519353668536742
 31
0
 12
-38.19463607866117
 22
-2.47283586575655
 32
0
 13
-38.19463607866117
 23
-2.47283586575655
 33
0
  0
SOLID
  5
88
100
AcDbEntity
  8
dim
  6
ByBlock
 62
    0
370
   -2
100
AcDbTrace
 10
-81.01216578032222
 20
-7.647802901504152
 30
0
 11
-79.64457989320647
 21
-9.781579309110828
 31
0
 12
-80.40980699173727
 22
-10.10960240717303
 32
0
 13
-80.40980699173727
 23
-10.10960240717303
 33
0
  0
MTEXT
  5
89
100
AcDbEntity
  8
dim
  6
CONTINUOUS
 62
    0
370
   -2
100
AcDbMText
 10
-56.22563881671966
 20
-21.40546595940858
 30
0
 40
2.5
 41
6.111111111111265
 71
    8
 72
    1
  1
160%%D
  7
STANDARD
210
0
220
0
230
1
 50
9.999999999999989
 73
    2
 44
1
  0
ENDBLK
  5
59
330
57
100
AcDbEntity
  8
0
100
AcDbBlockEnd
  0
BLOCK
  5
5B
330
5A
100
AcDbEntity
  8
0
100
AcDbBlockBegin
  2
*D4
 70
    1
 10
0
 20
0
  3
*D4
  1

  0
LINE
  5
8A
100
AcDbEntity
  8
dim
  6
ByBlock
 62
    0
370
   -2
100
AcDbLine
 10
0.625
 20
0
 11
21.24999999999999
 21
0
  0
LINE
  5
8B
100
AcDbEntity
  8
dim
  6
ByBlock
 62
    0
370
   -2
100
AcDbLine
 10
0.625
 20
-52.04763942596748
 11
21.24999999999999
 21
-52.04763942596748
  0
LINE
  5
8C
100
AcDbEntity
  8
dim
  6
ByBlock
 62
    0
370
   -2
100
AcDbLine
 10
19.99999999999999
 20
0
 11
19.99999999999999
 21
-52.04763942596748
  0
SOLID
  5
8D
100
AcDbEntity
  8
dim
  6
ByBlock
 62
    0
370
   -2
100
AcDbTrace
 10
19.99999999999999
 20
0
 30
0
 11
20.41628465777283
 21
-2.5
 31
0
 12
19.58371534222715
 22
-2.5
 32
0
 13
19.58371534222715
 23
-2.5
 33
0
  0
SOLID
  5
8E
100
AcDbEntity
  8
dim
  6
ByBlock
 62
    0
370
   -2
100
AcDbTrace
 10
19.99999999999999
 20
-52.04763942596748
 30
0
 11
19.58371534222715
 21
-49.54763942596748
 31
0
 12
20.41628465777283
 22
-49.54763942596748
 32
0
 13
20.41628465777283
 23
-49.54763942596748
 33
0
  0
MTEXT
  5
8F
100
AcDbEntity
  8
dim
  6
CONTINUOUS
 62
    0
370
   -2
100
AcDbMText
 10
18.12499999999999
 20
-26.02381971298375
 30
0
 40
2.5
 41
7.916666666666977
 71
    5
 72
    1
  1
52,05
  7
STANDARD
210
0
220
0
230
1
 50
90
 73
    2
 44
1
  0
ENDBLK
  5
5C
330
5A
100
AcDbEntity
  8
0
100
AcDbBlockEnd
  0
BLOCK
  5
5E
330
5D
100
AcDbEntity
  8
0
100
AcDbBlockBegin
  2
*D1
 70
    1
 10
0
 20
0
  3
*D1
  1

  0
LINE
  5
90
100
AcDbEntity
  8
dim
  6
ByBlock
 62
    0
370
   -2
100
AcDbLine
 10
-154.0412202442901
 20
-34.82285813127086
 11
-156.0831193391871
 21
-52.44004414940014
  0
LINE
  5
91
100
AcDbEntity
  8
dim
  6
ByBlock
 62
    0
370
   -2
100
AcDbLine
 10
-0.07195816569919605
 20
-52.66848322467148
 11
-2.113857260596201
 21
-70.28566924280075
  0
LINE
  5
92
100
AcDbEntity
  8
dim
  6
ByBlock
 62
    0
370
   -2
100
AcDbLine
 10
-155.9392030077887
 20
-51.19835655199215
 11
-1.969940929197809
 21
-69.04398164539276
  0
SOLID
  5
93
100
AcDbEntity
  8
dim
  6
ByBlock
 62
    0
370
   -2
100
AcDbTrace
 10
-155.9392030077887
 20
-51.19835655199215
 30
0
 11
-153.4078996843614
 21
-51.07267281755072
 31
0
 12
-153.503755941584
 22
-51.89970561202715
 32
0
 13
-153.503755941584
 23
-51.89970561202715
 33
0
  0
SOLID
  5
94
100
AcDbEntity
  8
dim
  6
ByBlock
 62
    0
370
   -2
100
AcDbTrace
 10
-1.969940929197809
 20
-69.04398164539276
 30
0
 11
-4.501244252625072
 21
-69.16966537983419
 31
0
 12
-4.405387995402508
 22
-68.34263258535776
 32
0
 13
-4.405387995402508
 23
-68.34263258535776
 33
0
  0
MTEXT
  5
95
100
AcDbEntity
  8
dim
  6
CONTINUOUS
 62
    0
370
   -2
100
AcDbMText
 10
-78.73869747139565
 20
-58.25863770258047
 30
0
 40
2.5
 41
4.444444444444756
 71
    5
 72
    1
  1
155
  7
STANDARD
210
0
220
0
230
1
 50
353.3886999022475
 73
    2
 44
1
  0
ENDBLK
  5
5F
330
5D
100
AcDbEntity
  8
0
100
AcDbBlockEnd
  0
BLOCK
  5
61
330
60
100
AcDbEntity
  8
0
100
AcDbBlockBegin
  2
*D6
 70
    1
 10
0
 20
0
  3
*D6
  1

  0
LINE
  5
96
100
AcDbEntity
  8
dim
  6
ByBlock
 62
    0
370
   -2
100
AcDbLine
 10
283.318871565494
 20
30.14256197614637
 11
292.8484248814162
 21
35.64445214835099
  0
LINE
  5
97
100
AcDbEntity
  8
dim
  6
ByBlock
 62
    0
370
   -2
100
AcDbLine
 10
300.5412658773653
 20
0.3125000000000789
 11
310.0708191932875
 21
5.814390172204695
  0
LINE
  5
98
100
AcDbEntity
  8
dim
  6
ByBlock
 62
    0
370
   -2
100
AcDbLine
 10
291.7658931266857
 20
35.01945214835099
 11
308.988287438557
 21
5.189390172204695
  0
SOLID
  5
99
100
AcDbEntity
  8
dim
  6
ByBlock
 62
    0
370
   -2
100
AcDbTrace
 10
291.7658931266857
 20
35.01945214835099
 30
0
 11
293.3764062155226
 21
33.06253096777631
 31
0
 12
292.6553800378487
 22
32.64624631000347
 32
0
 13
292.6553800378487
 23
32.64624631000347
 33
0
  0
SOLID
  5
9A
100
AcDbEntity
  8
dim
  6
ByBlock
 62
    0
370
   -2
100
AcDbTrace
 10
308.988287438557
 20
5.189390172204695
 30
0
 11
307.37777434972
 21
7.14631135277937
 31
0
 12
308.098800527394
 22
7.562596010552211
 32
0
 13
308.098800527394
 23
7.562596010552211
 33
0
  0
MTEXT
  5
9B
100
AcDbEntity
  8
dim
  6
CONTINUOUS
 62
    0
370
   -2
100
AcDbMText
 10
302.0008879147172
 20
21.04192116027785
 30
0
 40
2.5
 41
8.750000000000156
 71
    5
 72
    1
  1
34,44
  7
STANDARD
210
0
220
0
230
1
 50
300.0000000000001
 73
    2
 44
1
  0
ENDBLK
  5
62
330
60
100
AcDbEntity
  8
0
100
AcDbBlockEnd
  0
BLOCK
  5
64
330
63
100
AcDbEntity
  8
0
100
AcDbBlockBegin
  2
*D7
 70
    1
 10
0
 20
0
  3
*D7
  1

  0
LINE
  5
9C
100
AcDbEntity
  8
dim
  6
ByBlock
 62
    0
370
   -2
100
AcDbLine
 10
299.8909841592286
 20
-0.6154278452320685
 11
293.5201054728259
 21
-36.57853912290617
  0
LINE
  5
9D
100
AcDbEntity
  8
dim
  6
ByBlock
 62
    0
370
   -2
100
AcDbLine
 10
359.2602748252557
 20
-11.13272001193744
 11
352.889396138853
 21
-47.09583128961154
  0
LINE
  5
9E
100
AcDbEntity
  8
dim
  6
ByBlock
 62
    0
370
   -2
100
AcDbLine
 10
293.7381485306261
 20
-35.34770313669795
 11
353.1074391966532
 21
-45.86499530340332
  0
SOLID
  5
9F
100
AcDbEntity
  8
dim
  6
ByBlock
 62
    0
370
   -2
100
AcDbTrace
 10
293.7381485306261
 20
-35.34770313669795
 30
0
 11
296.2724348867994
 21
-35.37388674246372
 31
0
 12
296.1272061192857
 22
-36.19369176213281
 32
0
 13
296.1272061192857
 23
-36.19369176213281
 33
0
  0
SOLID
  5
A0
100
AcDbEntity
  8
dim
  6
ByBlock
 62
    0
370
   -2
100
AcDbTrace
 10
353.1074391966532
 20
-45.86499530340332
 30
0
 11
350.5731528404799
 21
-45.83881169763756
 31
0
 12
350.7183816079936
 22
-45.01900667796846
 32
0
 13
350.7183816079936
 23
-45.01900667796846
 33
0
  0
MTEXT
  5
A1
100
AcDbEntity
  8
dim
  6
CONTINUOUS
 62
    0
370
   -2
100
AcDbMText
 10
323.7498584503399
 20
-38.76009524073832
 30
0
 40
2.5
 41
7.916666666666822
 71
    5
 72
    1
  1
60,29
  7
STANDARD
210
0
220
0
230
1
 50
349.9542519370461
 73
    2
 44
1
  0
ENDBLK
  5
65
330
63
100
AcDbEntity
  8
0
100
AcDbBlockEnd
  0
BLOCK
  5
67
330
66
100
AcDbEntity
  8
0
100
AcDbBlockBegin
  2
*D10
 70
    1
 10
0
 20
0
  3
*D10
  1

  0
LINE
  5
A2
100
AcDbEntity
  8
dim
  6
ByBlock
 62
    0
370
   -2
100
AcDbLine
 10
170.5337588451825
 20
180
 11
200
 21
180
  0
SOLID
  5
A3
100
AcDbEntity
  8
dim
  6
ByBlock
 62
    0
370
   -2
100
AcDbTrace
 10
170.5337588451825
 20
180
 30
0
 11
173.0337588451825
 21
180.4162846577728
 31
0
 12
173.0337588451825
 22
179.5837153422272
 32
0
 13
173.0337588451825
 23
179.5837153422272
 33
0
  0
SOLID
  5
A4
100
AcDbEntity
  8
dim
  6
ByBlock
 62
    0
370
   -2
100
AcDbTrace
 10
200
 20
180
 30
0
 11
197.5
 21
179.5837153422272
 31
0
 12
197.5
 22
180.4162846577728
 32
0
 13
197.5
 23
180.4162846577728
 33
0
  0
MTEXT
  5
A5
100
AcDbEntity
  8
dim
  6
CONTINUOUS
 62
    0
370
   -2
100
AcDbMText
 10
185.2668794225912
 20
181.875
 30
0
 40
2.5
 41
8.194444444444445
 71
    5
 72
    1
  1
29,47
  7
STANDARD
210
0
220
0
230
1
 50
0
 73
    2
 44
1
  0
LINE
  5
A6
100
AcDbEntity
  8
dim
  6
ByBlock
 62
    0
370
   -2
100
AcDbLine
 10
170.5337588451825
 20
172.9856775653433
 11
170.5337588451825
 21
181.25
  0
LINE
  5
A7
100
AcDbEntity
  8
dim
  6
ByBlock
 62
    0
370
   -2
100
AcDbLine
 10
200
 20
0.625
 11
200
 21
181.25
  0
ENDBLK
  5
68
330
66
100
AcDbEntity
  8
0
100
AcDbBlockEnd
  0
BLOCK
  5
6A
330
69
100
AcDbEntity
  8
0
100
AcDbBlockBegin
  2
*D8
 70
    1
 10
0
 20
0
  3
*D8
  1

  0
LINE
  5
A8
100
AcDbEntity
  8
dim
  6
ByBlock
 62
    0
370
   -2
100
AcDbLine
 10
300.0000056881287
 20
-27
 11
359.3692963541559
 21
-27
  0
SOLID
  5
A9
100
AcDbEntity
  8
dim
  6
ByBlock
 62
    0
370
   -2
100
AcDbTrace
 10
300.0000056881287
 20
-27
 30
0
 11
302.5000056881287
 21
-26.58371534222716
 31
0
 12
302.5000056881287
 22
-27.41628465777284
 32
0
 13
302.5000056881287
 23
-27.41628465777284
 33
0
  0
SOLID
  5
AA
100
AcDbEntity
  8
dim
  6
ByBlock
 62
    0
370
   -2
100
AcDbTrace
 10
359.3692963541559
 20
-27
 30
0
 11
356.8692963541559
 21
-27.41628465777284
 31
0
 12
356.8692963541559
 22
-26.58371534222716
 32
0
 13
356.8692963541559
 23
-26.58371534222716
 33
0
  0
MTEXT
  5
AB
100
AcDbEntity
  8
dim
  6
CONTINUOUS
 62
    0
370
   -2
100
AcDbMText
 10
329.6846510211424
 20
-25.125
 30
0
 40
2.5
 41
7.916666666666977
 71
    5
 72
    1
  1
59,37
  7
STANDARD
210
0
220
0
230
1
 50
0
 73
    2
 44
1
  0
LINE
  5
AC
100
AcDbEntity
  8
dim
  6
ByBlock
 62
    0
370
   -2
100
AcDbLine
 10
300.0000056881287
 20
-0.6250098521279592
 11
300.0000056881287
 21
-28.25
  0
LINE
  5
AD
100
AcDbEntity
  8
dim
  6
ByBlock
 62
    0
370
   -2
100
AcDbLine
 10
359.3692963541559
 20
-11.14230201883335
 11
359.3692963541559
 21
-28.25
  0
ENDBLK
  5
6B
330
69
100
AcDbEntity
  8
0
100
AcDbBlockEnd
  0
BLOCK
  5
6D
330
6C
100
AcDbEntity
  8
0
100
AcDbBlockBegin
  2
*D11
 70
    1
 10
0
 20
0
  3
*D11
  1

  0
LINE
  5
AE
100
AcDbEntity
  8
dim
  6
ByBlock
 62
    0
370
   -2
100
AcDbLine
 10
220
 20
172.3606775653433
 11
220
 21
-3.944304526105059e-31
  0
SOLID
  5
AF
100
AcDbEntity
  8
dim
  6
ByBlock
 62
    0
370
   -2
100
AcDbTrace
 10
220
 20
172.3606775653433
 30
0
 11
220.4162846577728
 21
169.8606775653433
 31
0
 12
219.5837153422272
 22
169.8606775653433
 32
0
 13
219.5837153422272
 23
169.8606775653433
 33
0
  0
SOLID
  5
B0
100
AcDbEntity
  8
dim
  6
ByBlock
 62
    0
370
   -2
100
AcDbTrace
 10
220
 20
-3.944304526105059e-31
 30
0
 11
219.5837153422272
 21
2.5
 31
0
 12
220.4162846577728
 22
2.5
 32
0
 13
220.4162846577728
 23
2.5
 33
0
  0
MTEXT
  5
B1
100
AcDbEntity
  8
dim
  6
CONTINUOUS
 62
    0
370
   -2
100
AcDbMText
 10
218.125
 20
86.18033878267167
 30
0
 40
2.5
 41
9.305555555555866
 71
    5
 72
    1
  1
172,36
  7
STANDARD
210
0
220
0
230
1
 50
90
 73
    2
 44
1
  0
LINE
  5
B2
100
AcDbEntity
  8
dim
  6
ByBlock
 62
    0
370
   -2
100
AcDbLine
 10
171.1587588451825
 20
172.3606775653433
 11
221.25
 21
172.3606775653433
  0
LINE
  5
B3
100
AcDbEntity
  8
dim
  6
ByBlock
 62
    0
370
   -2
100
AcDbLine
 10
200.625
 20
0
 11
221.25
 21
-3.944304526105059e-31
  0
ENDBLK
  5
6E
330
6C
100
AcDbEntity
  8
0
100
AcDbBlockEnd
  0
BLOCK
  5
70
330
6F
100
AcDbEntity
  8
0
100
AcDbBlockBegin
  2
right_jaw
 70
    0
 10
0
 20
0
  3
right_jaw
  1

  0
LINE
  5
B4
100
AcDbEntity
  8
0
  6
ByLayer
 62
  256
370
   -1
100
AcDbLine
 10
0
 20
0
 11
0
 21
164.44
  0
LINE
  5
B5
100
AcDbEntity
  8
0
  6
ByLayer
 62
  256
370
   -1
100
AcDbLine
 10
0
 20
164.44
 11
60
 21
164.44
  0
LINE
  5
B6
100
AcDbEntity
  8
0
  6
ByLayer
 62
  256
370
   -1
100
AcDbLine
 10
0
 20
0
 11
-93.96926207859084
 21
-34.20201433256687
  0
DIMENSION
  5
B7
100
AcDbEntity
  8
dim
  6
ByLayer
 62
  256
370
   -1
100
AcDbDimension
 10
-97.77399073658883
 20
-23.74860825756557
 30
0
 11
-51.43064746602901
 21
-4.885677427308549
 31
0
 70
   33
 71
    5
  3
Standard
 53
0
210
0
220
0
230
1
100
AcDbAlignedDimension
 13
0
 23
4.839320229056794e-15
 33
0
 14
-93.96926207859084
 24
-34.20201433256687
 34
0
  0
DIMENSION
  5
B8
100
AcDbEntity
  8
dim
  6
ByLayer
 62
  256
370
   -1
100
AcDbDimension
 10
-93.96926207859084
 20
-34.20201433256687
 30
0
 11
60
 21
0
 31
0
 70
   34
 71
    5
  3
Standard
 53
0
210
0
220
0
230
1
100
AcDb2LineAngularDimension
 13
0
 23
0
 33
0
 14
60
 24
0
 34
0
 15
0
 25
0
 35
0
 16
10
 26
-20
 36
0
  0
ENDBLK
  5
71
330
6F
100
AcDbEntity
  8
0
100
AcDbBlockEnd
  0
ENDSEC
  0
SECTION
  2
ENTITIES
  0
LINE
  5
B9
100
AcDbEntity
  8
0
  6
ByLayer
 62
  256
370
   -1
100
AcDbLine
 10
0
 20
0
 11
-60
 21
0
  0
LINE
  5
BA
100
AcDbEntity
  8
0
  6
ByLayer
 62
  256
370
   -1
100
AcDbLine
 10
-60
 20
0
 11
-60
 21
164.44
  0
LINE
  5
BB
100
AcDbEntity
  8
0
  6
ByLayer
 62
  256
370
   -1
100
AcDbLine
 10
-60
 20
164.44
 11
0
 21
164.44
  0
LINE
  5
BC
100
AcDbEntity
  8
0
  6
ByLayer
 62
  256
370
   -1
100
AcDbLine
 10
-60
 20
0
 11
-153.9692620785908
 21
-34.20201433256687
  0
LINE
  5
BD
100
AcDbEntity
  8
0
  6
ByLayer
 62
  256
370
   -1
100
AcDbLine
 10
0
 20
-52.04763942596748
 11
-153.9692620785908
 21
-34.20201433256687
  0
DIMENSION
  5
BE
100
AcDbEntity
  8
dim
  6
ByLayer
 62
  256
370
   -1
100
AcDbDimension
  2
*D1
 10
-1.969940929197811
 20
-69.04398164539276
 30
0
 11
-78.73869747139565
 21
-58.25863770258047
 31
0
 70
   33
 71
    5
  3
Standard
 53
0
210
0
220
0
230
1
100
AcDbAlignedDimension
 13
-153.9692620785909
 23
-34.20201433256687
 33
0
 14
0
 24
-52.04763942596748
 34
0
  0
DIMENSION
  5
BF
100
AcDbEntity
  8
dim
  6
ByLayer
 62
  256
370
   -1
100
AcDbDimension
  2
*D2
 10
-157.7739907365888
 20
-23.74860825756554
 30
0
 11
-111.430647466029
 21
-4.885677427308549
 31
0
 70
   33
 71
    5
  3
Standard
 53
0
210
0
220
0
230
1
100
AcDbAlignedDimension
 13
-60
 23
4.839320229056794e-15
 33
0
 14
-153.9692620785908
 24
-34.20201433256687
 34
0
  0
DIMENSION
  5
C0
100
AcDbEntity
  8
dim
  6
ByLayer
 62
  256
370
   -1
100
AcDbDimension
  2
*D3
 10
-153.9692620785908
 20
-34.20201433256687
 30
0
 11
0
 21
0
 31
0
 70
   34
 71
    5
  3
Standard
 53
0
210
0
220
0
230
1
100
AcDb2LineAngularDimension
 13
-60
 23
0
 33
0
 14
0
 24
0
 34
0
 15
-60
 25
0
 35
0
 16
-50
 26
-20
 36
0
  0
DIMENSION
  5
C1
100
AcDbEntity
  8
dim
  6
ByLayer
 62
  256
370
   -1
100
AcDbDimension
  2
*D4
 10
19.99999999999999
 20
-52.04763942596748
 30
0
 11
18.12499999999999
 21
-26.02381971298375
 31
0
 70
   33
 71
    5
  3
Standard
 53
0
210
0
220
0
230
1
100
AcDbAlignedDimension
 13
0
 23
0
 33
0
 14
0
 24
-52.04763942596748
 34
0
  0
LINE
  5
C2
100
AcDbEntity
  8
0
  6
ByLayer
 62
  256
370
   -1
100
AcDbLine
 10
200
 20
0
 11
140
 21
0
  0
INSERT
  5
C3
100
AcDbEntity
  8
dim
  6
ByLayer
 62
  256
370
   -1
100
AcDbBlockReference
  2
right_jaw
 10
140
 20
0
 30
0
 41
1
 42
1
 43
0
 50
9.999999999999989
 70
    1
 71
    1
 44
0
 45
0
  0
LINE
  5
C4
100
AcDbEntity
  8
0
  6
ByLayer
 62
  256
370
   -1
100
AcDbLine
 10
53.39745962155611
 20
-49.99999999999999
 11
200
 21
-100.325889506165
  0
DIMENSION
  5
C5
100
AcDbEntity
  8
dim
  6
ByLayer
 62
  256
370
   -1
100
AcDbDimension
  2
*D5
 10
210
 20
-100.325889506165
 30
0
 11
208.125
 21
-50.1629447530825
 31
0
 70
   33
 71
    5
  3
Standard
 53
0
210
0
220
0
230
1
100
AcDbAlignedDimension
 13
200
 23
0
 33
0
 14
200
 24
-100.325889506165
 34
0
  0
LINE
  5
C6
100
AcDbEntity
  8
0
  6
ByLayer
 62
  256
370
   -1
100
AcDbLine
 10
300
 20
0
 11
300
 21
80
  0
LINE
  5
C7
100
AcDbEntity
  8
0
  6
ByLayer
 62
  256
370
   -1
100
AcDbLine
 10
282.7776056881286
 20
29.83006197614633
 11
300
 21
80.00000000000004
  0
LINE
  5
C8
100
AcDbEntity
  8
dim
  6
ByLayer
 62
  256
370
   -1
100
AcDbLine
 10
140
 20
0
 11
170.5337588451825
 21
172.3606775653433
  0
LINE
  5
C9
100
AcDbEntity
  8
dim
  6
ByLayer
 62
  256
370
   -1
100
AcDbLine
 10
170.5337588451825
 20
172.3606775653433
 11
53.39745962155611
 21
-49.99999999999999
  0
DIMENSION
  5
CA
100
AcDbEntity
  8
dim
  6
ByLayer
 62
  256
370
   -1
100
AcDbDimension
  2
*D6
 10
308.988287438557
 20
5.189390172204698
 30
0
 11
302.0008879147172
 21
21.04192116027785
 31
0
 70
   33
 71
    5
  3
Standard
 53
0
210
0
220
0
230
1
100
AcDbAlignedDimension
 13
282.7776056881287
 23
29.83006197614637
 33
0
 14
300
 24
7.876455163427046e-14
 34
0
  0
LINE
  5
CB
100
AcDbEntity
  8
0
  6
ByLayer
 62
  256
370
   -1
100
AcDbLine
 10
282.7776056881286
 20
29.83006197614633
 11
300.0000056881287
 21
-9.852127881515571e-06
  0
LINE
  5
CC
100
AcDbEntity
  8
dim
  6
ByLayer
 62
  256
370
   -1
100
AcDbLine
 10
300.0000056881286
 20
-9.852127931253563e-06
 11
359.3692963541559
 21
-10.51730201883335
  0
LINE
  5
CD
100
AcDbEntity
  8
dim
  6
ByLayer
 62
  256
370
   -1
100
AcDbLine
 10
359.3692963541559
 20
-10.51730201883335
 11
282.7776056881286
 21
29.83006197614631
  0
LINE
  5
CE
100
AcDbEntity
  8
dim
  6
ByLayer
 62
  256
370
   -1
100
AcDbLine
 10
300.0000056881286
 20
-9.852127931253563e-06
 11
282.7776056881286
 21
29.83006197614633
  0
DIMENSION
  5
CF
100
AcDbEntity
  8
dim
  6
ByLayer
 62
  256
370
   -1
100
AcDbDimension
  2
*D7
 10
353.1074391966532
 20
-45.86499530340333
 30
0
 11
323.7498584503399
 21
-38.76009524073832
 31
0
 70
   33
 71
    5
  3
Standard
 53
0
210
0
220
0
230
1
100
AcDbAlignedDimension
 13
300.0000056881287
 23
-9.85212795922484e-06
 33
0
 14
359.3692963541558
 24
-10.51730201883333
 34
0
  0
DIMENSION
  5
D0
100
AcDbEntity
  8
dim
  6
ByLayer
 62
  256
370
   -1
100
AcDbDimension
  2
*D8
 10
359.3692963541559
 20
-27
 30
0
 11
329.6846510211424
 21
-25.125
 31
0
 70
   32
 71
    5
  3
Standard
 53
0
210
0
220
0
230
1
100
AcDbAlignedDimension
 13
300.0000056881287
 23
-9.85212795922484e-06
 33
0
 14
359.3692963541559
 24
-10.51730201883335
 34
0
100
AcDbRotatedDimension
  0
DIMENSION
  5
D1
100
AcDbEntity
  8
dim
  6
ByLayer
 62
  256
370
   -1
100
AcDbDimension
  2
*D9
 10
370
 20
-8.572527594031473e-15
 30
0
 11
368.125
 21
-5.258651009416673
 31
0
 70
   32
 71
    5
  3
Standard
 53
0
210
0
220
0
230
1
100
AcDbAlignedDimension
 13
359.3692963541559
 23
-10.51730201883335
 33
0
 14
300
 24
0
 34
0
 50
90
100
AcDbRotatedDimension
  0
DIMENSION
  5
D2
100
AcDbEntity
  8
dim
  6
ByLayer
 62
  256
370
   -1
100
AcDbDimension
  2
*D10
 10
200
 20
180
 30
0
 11
185.2668794225912
 21
181.875
 31
0
 70
   32
 71
    5
  3
Standard
 53
0
210
0
220
0
230
1
100
AcDbAlignedDimension
 13
170.5337588451825
 23
172.3606775653433
 33
0
 14
200
 24
0
 34
0
100
AcDbRotatedDimension
  0
DIMENSION
  5
D3
100
AcDbEntity
  8
dim
  6
ByLayer
 62
  256
370
   -1
100
AcDbDimension
  2
*D11
 10
220
 20
-2.449293598294706e-15
 30
0
 11
218.125
 21
86.18033878267167
 31
0
 70
   32
 71
    5
  3
Standard
 53
0
210
0
220
0
230
1
100
AcDbAlignedDimension
 13
170.5337588451825
 23
172.3606775653433
 33
0
 14
200
 24
0
 34
0
 50
90
100
AcDbRotatedDimension
  0
ENDSEC
  0
SECTION
  2
OBJECTS
  0
DICTIONARY
  5
C
330
0
100
AcDbDictionary
281
    1
  3
ACAD_GROUP
350
D
  0
DICTIONARY
  5
D
330
C
100
AcDbDictionary
281
    1
  0
ENDSEC
  0
EOF
