999
dxfrw 0.6.3
  0
SECTION
  2
HEADER
  9
$ACADVER
  1
AC1021
  9
$DWGCODEPAGE
  3
ANSI_1252
  9
$INSBASE
 10
0
 20
0
 30
0
  9
$EXTMIN
 10
-180
 20
-180.1462044351115
 30
0
  9
$EXTMAX
 10
900.1768641799999
 20
180.1264871048885
 30
0
  9
$LIMMIN
 10
0
 20
0
  9
$LIMMAX
 10
420
 20
297
  9
$ORTHOMODE
 70
    0
  9
$REGENMODE
 70
    1
  9
$FILLMODE
 70
    1
  9
$QTEXTMODE
 70
    0
  9
$MIRRTEXT
 70
    0
  9
$LTSCALE
 40
1
  9
$ATTMODE
 70
    0
  9
$TEXTSIZE
 40
2.5
  9
$TRACEWID
 40
15.68
  9
$TEXTSTYLE
  7
STANDARD
  9
$CLAYER
  8
0
  9
$CELTYPE
  6
BYLAYER
  9
$CECOLOR
 62
  256
  9
$CELTSCALE
 40
1
  9
$DISPSILH
 70
    0
  9
$DIMSCALE
 40
1
  9
$DIMASZ
 40
2.5
  9
$DIMEXO
 40
0.625
  9
$DIMDLI
 40
3.75
  9
$DIMRND
 40
0
  9
$DIMDLE
 40
0
  9
$DIMEXE
 40
1.25
  9
$DIMTP
 40
0
  9
$DIMTM
 40
0
  9
$DIMTXT
 40
2.5
  9
$DIMCEN
 40
2.5
  9
$DIMTSZ
 40
0
  9
$DIMTOL
 70
    0
  9
$DIMLIM
 70
    0
  9
$DIMTIH
 70
    0
  9
$DIMTOH
 70
    0
  9
$DIMSE1
 70
    0
  9
$DIMSE2
 70
    0
  9
$DIMTAD
 70
    1
  9
$DIMZIN
 70
    8
  9
$DIMBLK
  1

  9
$DIMASO
 70
    1
  9
$DIMSHO
 70
    1
  9
$DIMPOST
  1

  9
$DIMAPOST
  1

  9
$DIMALT
 70
    0
  9
$DIMALTD
 70
    3
  9
$DIMALTF
 40
0.03937
  9
$DIMLFAC
 40
1
  9
$DIMTOFL
 70
    1
  9
$DIMTVP
 40
0
  9
$DIMTIX
 70
    0
  9
$DIMSOXD
 70
    0
  9
$DIMSAH
 70
    0
  9
$DIMBLK1
  1

  9
$DIMBLK2
  1

  9
$DIMSTYLE
  2
STANDARD
  9
$DIMCLRD
 70
    0
  9
$DIMCLRE
 70
    0
  9
$DIMCLRT
 70
    0
  9
$DIMTFAC
 40
1
  9
$DIMGAP
 40
0.625
  9
$DIMJUST
 70
    0
  9
$DIMSD1
 70
    0
  9
$DIMSD2
 70
    0
  9
$DIMTOLJ
 70
    0
  9
$DIMTZIN
 70
    8
  9
$DIMALTZ
 70
    0
  9
$DIMALTTZ
 70
    0
  9
$DIMUPT
 70
    0
  9
$DIMDEC
 70
    2
  9
$DIMTDEC
 70
    2
  9
$DIMALTU
 70
    2
  9
$DIMALTTD
 70
    3
  9
$DIMTXSTY
  7
STANDARD
  9
$DIMAUNIT
 70
    0
  9
$DIMADEC
 70
    0
  9
$DIMALTRND
 40
0
  9
$DIMAZIN
 70
    0
  9
$DIMDSEP
 70
   44
  9
$DIMATFIT
 70
    3
  9
$DIMFRAC
 70
    0
  9
$DIMLDRBLK
  1
STANDARD
  9
$DIMLUNIT
 70
    2
  9
$DIMLWD
 70
   -2
  9
$DIMLWE
 70
   -2
  9
$DIMTMOVE
 70
    0
  9
$DIMFXL
 40
1
  9
$DIMFXLON
 70
    0
  9
$DIMJOGANG
 40
0.7854
  9
$DIMTFILL
 70
    0
  9
$DIMTFILLCLR
 70
    0
  9
$DIMARCSYM
 70
    0
  9
$DIMLTYPE
  6

  9
$DIMLTEX1
  6

  9
$DIMLTEX2
  6

  9
$LUNITS
 70
    2
  9
$LUPREC
 70
    4
  9
$SKETCHINC
 40
1
  9
$FILLETRAD
 40
0
  9
$AUNITS
 70
    0
  9
$AUPREC
 70
    2
  9
$MENU
  1
.
  9
$ELEVATION
 40
0
  9
$PELEVATION
 40
0
  9
$THICKNESS
 40
0
  9
$LIMCHECK
 70
    0
  9
$CHAMFERA
 40
0
  9
$CHAMFERB
 40
0
  9
$CHAMFERC
 40
0
  9
$CHAMFERD
 40
0
  9
$SKPOLY
 70
    0
  9
$USRTIMER
 70
    1
  9
$ANGBASE
 50
0
  9
$ANGDIR
 70
    0
  9
$PDMODE
 70
   34
  9
$PDSIZE
 40
0
  9
$PLINEWID
 40
0
  9
$SPLFRAME
 70
    0
  9
$SPLINETYPE
 70
    2
  9
$SPLINESEGS
 70
    8
  9
$HANDSEED
  5
20000
  9
$SURFTAB1
 70
    6
  9
$SURFTAB2
 70
    6
  9
$SURFTYPE
 70
    6
  9
$SURFU
 70
    6
  9
$SURFV
 70
    6
  9
$UCSBASE
  2

  9
$UCSNAME
  2

  9
$UCSORG
 10
0
 20
0
 30
0
  9
$UCSXDIR
 10
1
 20
0
 30
0
  9
$UCSYDIR
 10
0
 20
1
 30
0
  9
$UCSORTHOREF
  2

  9
$UCSORTHOVIEW
 70
    0
  9
$UCSORGTOP
 10
0
 20
0
 30
0
  9
$UCSORGBOTTOM
 10
0
 20
0
 30
0
  9
$UCSORGLEFT
 10
0
 20
0
 30
0
  9
$UCSORGRIGHT
 10
0
 20
0
 30
0
  9
$UCSORGFRONT
 10
0
 20
0
 30
0
  9
$UCSORGBACK
 10
0
 20
0
 30
0
  9
$PUCSBASE
  2

  9
$PUCSNAME
  2

  9
$PUCSORG
 10
0
 20
0
 30
0
  9
$PUCSXDIR
 10
1
 20
0
 30
0
  9
$PUCSYDIR
 10
0
 20
1
 30
0
  9
$PUCSORTHOREF
  2

  9
$PUCSORTHOVIEW
 70
    0
  9
$PUCSORGTOP
 10
0
 20
0
 30
0
  9
$PUCSORGBOTTOM
 10
0
 20
0
 30
0
  9
$PUCSORGLEFT
 10
0
 20
0
 30
0
  9
$PUCSORGRIGHT
 10
0
 20
0
 30
0
  9
$PUCSORGFRONT
 10
0
 20
0
 30
0
  9
$PUCSORGBACK
 10
0
 20
0
 30
0
  9
$USERI1
 70
    0
  9
$USERI2
 70
    0
  9
$USERI3
 70
    0
  9
$USERI4
 70
    0
  9
$USERI5
 70
    0
  9
$USERR1
 40
0
  9
$USERR2
 40
0
  9
$USERR3
 40
0
  9
$USERR4
 40
0
  9
$USERR5
 40
0
  9
$WORLDVIEW
 70
    1
  9
$SHADEDGE
 70
    3
  9
$SHADEDIF
 70
   70
  9
$TILEMODE
 70
    1
  9
$MAXACTVP
 70
   64
  9
$PINSBASE
 10
0
 20
0
 30
0
  9
$PLIMCHECK
 70
    0
  9
$PEXTMIN
 10
0
 20
0
 30
0
  9
$PEXTMAX
 10
0
 20
0
 30
0
  9
$GRIDMODE
 70
    1
  9
$SNAPSTYLE
 70
    0
  9
$PLIMMIN
 10
0
 20
0
  9
$PLIMMAX
 10
210
 20
297
  9
$UNITMODE
 70
    0
  9
$VISRETAIN
 70
    1
  9
$PLINEGEN
 70
    0
  9
$PSLTSCALE
 70
    1
  9
$TREEDEPTH
 70
 3020
  9
$CMLSTYLE
  2
Standard
  9
$CMLJUST
 70
    0
  9
$CMLSCALE
 40
20
  9
$PROXYGRAPHICS
 70
    1
  9
$MEASUREMENT
 70
    1
  9
$CELWEIGHT
370
   -1
  9
$ENDCAPS
280
    0
  9
$JOINSTYLE
280
    0
  9
$LWDISPLAY
290
    0
  9
$INSUNITS
 70
    4
  9
$HYPERLINKBASE
  1

  9
$STYLESHEET
  1

  9
$XEDIT
290
    1
  9
$CEPSNTYPE
380
    0
  9
$PSTYLEMODE
290
    1
  9
$EXTNAMES
290
    1
  9
$PSVPSCALE
 40
1
  9
$OLESTARTUP
290
    0
  9
$SORTENTS
280
  127
  9
$INDEXCTL
280
    0
  9
$HIDETEXT
280
    1
  9
$XCLIPFRAME
290
    0
  9
$HALOGAP
280
    0
  9
$OBSCOLOR
 70
  257
  9
$OBSLTYPE
280
    0
  9
$INTERSECTIONDISPLAY
280
    0
  9
$INTERSECTIONCOLOR
 70
  257
  9
$DIMASSOC
280
    1
  9
$PROJECTNAME
  1

  9
$CAMERADISPLAY
290
    0
  9
$LENSLENGTH
 40
50
  9
$CAMERAHEIGHT
 40
0
  9
$STEPSPERSEC
 40
2
  9
$STEPSIZE
 40
50
  9
$3DDWFPREC
 40
2
  9
$PSOLWIDTH
 40
5
  9
$PSOLHEIGHT
 40
80
  9
$LOFTANG1
 40
1.570796326794897
  9
$LOFTANG2
 40
1.570796326794897
  9
$LOFTMAG1
 40
0
  9
$LOFTMAG2
 40
0
  9
$LOFTPARAM
 70
    7
  9
$LOFTNORMALS
280
    1
  9
$LATITUDE
 40
1
  9
$LONGITUDE
 40
1
  9
$NORTHDIRECTION
 40
0
  9
$TIMEZONE
 70
-8000
  9
$LIGHTGLYPHDISPLAY
280
    1
  9
$TILEMODELIGHTSYNCH
280
    1
  9
$SOLIDHIST
280
    1
  9
$SHOWHIST
280
    1
  9
$DWFFRAME
280
    2
  9
$DGNFRAME
280
    0
  9
$REALWORLDSCALE
290
    1
  9
$INTERFERECOLOR
 62
    1
  9
$CSHADOW
280
    0
  9
$SHADOWPLANELOCATION
 40
0
  0
ENDSEC
  0
SECTION
  2
CLASSES
  0
ENDSEC
  0
SECTION
  2
TABLES
  0
TABLE
  2
VPORT
  5
8
330
0
100
AcDbSymbolTable
 70
    1
  0
VPORT
  5
31
330
2
100
AcDbSymbolTableRecord
100
AcDbViewportTableRecord
  2
*ACTIVE
 70
    0
 10
0
 20
0
 11
1
 21
1
 12
269.6509333892774
 22
98.99422400076067
 13
0
 23
0
 14
10
 24
10
 15
10
 25
10
 16
0
 26
0
 36
1
 17
0
 27
0
 37
0
 40
511.3035003945012
 41
1.697522816166884
 42
50
 43
0
 44
0
 50
0
 51
0
 71
    0
 72
  100
 73
    1
 74
    3
 75
    0
 76
    1
 77
    0
 78
    0
281
    0
 65
    1
110
0
120
0
130
0
111
1
121
0
131
0
112
0
122
1
132
0
 79
    0
146
0
348
10020
 60
    7
 61
    5
292
1
282
    1
141
0
142
0
 63
  250
421
3358443
  0
ENDTAB
  0
TABLE
  2
LTYPE
  5
5
330
0
100
AcDbSymbolTable
 70
    4
  0
LTYPE
  5
14
330
5
100
AcDbSymbolTableRecord
100
AcDbLinetypeTableRecord
  2
ByBlock
 70
    0
  3

 72
   65
 73
    0
 40
0
  0
LTYPE
  5
15
330
5
100
AcDbSymbolTableRecord
100
AcDbLinetypeTableRecord
  2
ByLayer
 70
    0
  3

 72
   65
 73
    0
 40
0
  0
LTYPE
  5
16
330
5
100
AcDbSymbolTableRecord
100
AcDbLinetypeTableRecord
  2
Continuous
 70
    0
  3
Solid line
 72
   65
 73
    0
 40
0
  0
LTYPE
  5
32
330
5
100
AcDbSymbolTableRecord
100
AcDbLinetypeTableRecord
  2
DOT
 70
    0
  3
Dot . . . . . . . . . . . . . . . . . . . . . .
 72
   65
 73
    2
 40
6.35
 49
0
 74
    0
 49
-6.35
 74
    0
  0
LTYPE
  5
33
330
5
100
AcDbSymbolTableRecord
100
AcDbLinetypeTableRecord
  2
DOTTINY
 70
    0
  3
Dot (.15x) .....................................
 72
   65
 73
    2
 40
0.9525
 49
0
 74
    0
 49
-0.9525
 74
    0
  0
LTYPE
  5
34
330
5
100
AcDbSymbolTableRecord
100
AcDbLinetypeTableRecord
  2
DOT2
 70
    0
  3
Dot (.5x) .....................................
 72
   65
 73
    2
 40
3.175
 49
0
 74
    0
 49
-3.175
 74
    0
  0
LTYPE
  5
35
330
5
100
AcDbSymbolTableRecord
100
AcDbLinetypeTableRecord
  2
DOTX2
 70
    0
  3
Dot (2x) .  .  .  .  .  .  .  .  .  .  .  .  .
 72
   65
 73
    2
 40
12.7
 49
0
 74
    0
 49
-12.7
 74
    0
  0
LTYPE
  5
36
330
5
100
AcDbSymbolTableRecord
100
AcDbLinetypeTableRecord
  2
DASHED
 70
    0
  3
Dashed _ _ _ _ _ _ _ _ _ _ _ _ _ _ _ _ _
 72
   65
 73
    2
 40
19.05
 49
12.7
 74
    0
 49
-6.35
 74
    0
  0
LTYPE
  5
37
330
5
100
AcDbSymbolTableRecord
100
AcDbLinetypeTableRecord
  2
DASHEDTINY
 70
    0
  3
Dashed (.15x) _ _ _ _ _ _ _ _ _ _ _ _ _ _ _ _ _
 72
   65
 73
    2
 40
2.8575
 49
1.905
 74
    0
 49
-0.9525
 74
    0
  0
LTYPE
  5
38
330
5
100
AcDbSymbolTableRecord
100
AcDbLinetypeTableRecord
  2
DASHED2
 70
    0
  3
Dashed (.5x) _ _ _ _ _ _ _ _ _ _ _ _ _ _ _ _ _
 72
   65
 73
    2
 40
9.524999999999999
 49
6.35
 74
    0
 49
-3.175
 74
    0
  0
LTYPE
  5
39
330
5
100
AcDbSymbolTableRecord
100
AcDbLinetypeTableRecord
  2
DASHEDX2
 70
    0
  3
Dashed (2x) ____  ____  ____  ____  ____  ___
 72
   65
 73
    2
 40
38.09999999999999
 49
25.4
 74
    0
 49
-12.7
 74
    0
  0
LTYPE
  5
3A
330
5
100
AcDbSymbolTableRecord
100
AcDbLinetypeTableRecord
  2
DASHDOT
 70
    0
  3
Dash dot __ . __ . __ . __ . __ . __ . __ . __
 72
   65
 73
    4
 40
25.4
 49
12.7
 74
    0
 49
-6.35
 74
    0
 49
0
 74
    0
 49
-6.35
 74
    0
  0
LTYPE
  5
3B
330
5
100
AcDbSymbolTableRecord
100
AcDbLinetypeTableRecord
  2
DASHDOTTINY
 70
    0
  3
Dash dot (.15x) _._._._._._._._._._._._._._._.
 72
   65
 73
    4
 40
3.81
 49
1.905
 74
    0
 49
-0.9525
 74
    0
 49
0
 74
    0
 49
-0.9525
 74
    0
  0
LTYPE
  5
3C
330
5
100
AcDbSymbolTableRecord
100
AcDbLinetypeTableRecord
  2
DASHDOT2
 70
    0
  3
Dash dot (.5x) _._._._._._._._._._._._._._._.
 72
   65
 73
    4
 40
12.7
 49
6.35
 74
    0
 49
-3.175
 74
    0
 49
0
 74
    0
 49
-3.175
 74
    0
  0
LTYPE
  5
3D
330
5
100
AcDbSymbolTableRecord
100
AcDbLinetypeTableRecord
  2
DASHDOTX2
 70
    0
  3
Dash dot (2x) ____  .  ____  .  ____  .  ___
 72
   65
 73
    4
 40
50.8
 49
25.4
 74
    0
 49
-12.7
 74
    0
 49
0
 74
    0
 49
-12.7
 74
    0
  0
LTYPE
  5
3E
330
5
100
AcDbSymbolTableRecord
100
AcDbLinetypeTableRecord
  2
DIVIDE
 70
    0
  3
Divide ____ . . ____ . . ____ . . ____ . . ____
 72
   65
 73
    6
 40
31.75
 49
12.7
 74
    0
 49
-6.35
 74
    0
 49
0
 74
    0
 49
-6.35
 74
    0
 49
0
 74
    0
 49
-6.35
 74
    0
  0
LTYPE
  5
3F
330
5
100
AcDbSymbolTableRecord
100
AcDbLinetypeTableRecord
  2
DIVIDETINY
 70
    0
  3
Divide (.15x) __..__..__..__..__..__..__..__.._
 72
   65
 73
    6
 40
4.7625
 49
1.905
 74
    0
 49
-0.9525
 74
    0
 49
0
 74
    0
 49
-0.9525
 74
    0
 49
0
 74
    0
 49
-0.9525
 74
    0
  0
LTYPE
  5
40
330
5
100
AcDbSymbolTableRecord
100
AcDbLinetypeTableRecord
  2
DIVIDE2
 70
    0
  3
Divide (.5x) __..__..__..__..__..__..__..__.._
 72
   65
 73
    6
 40
15.875
 49
6.35
 74
    0
 49
-3.175
 74
    0
 49
0
 74
    0
 49
-3.175
 74
    0
 49
0
 74
    0
 49
-3.175
 74
    0
  0
LTYPE
  5
41
330
5
100
AcDbSymbolTableRecord
100
AcDbLinetypeTableRecord
  2
DIVIDEX2
 70
    0
  3
Divide (2x) ________  .  .  ________  .  .  _
 72
   65
 73
    6
 40
63.5
 49
25.4
 74
    0
 49
-12.7
 74
    0
 49
0
 74
    0
 49
-12.7
 74
    0
 49
0
 74
    0
 49
-12.7
 74
    0
  0
LTYPE
  5
42
330
5
100
AcDbSymbolTableRecord
100
AcDbLinetypeTableRecord
  2
BORDER
 70
    0
  3
Border __ __ . __ __ . __ __ . __ __ . __ __ .
 72
   65
 73
    6
 40
44.45
 49
12.7
 74
    0
 49
-6.35
 74
    0
 49
12.7
 74
    0
 49
-6.35
 74
    0
 49
0
 74
    0
 49
-6.35
 74
    0
  0
LTYPE
  5
43
330
5
100
AcDbSymbolTableRecord
100
AcDbLinetypeTableRecord
  2
BORDERTINY
 70
    0
  3
Border (.15x) __.__.__.__.__.__.__.__.__.__.__.
 72
   65
 73
    6
 40
6.6675
 49
1.905
 74
    0
 49
-0.9525
 74
    0
 49
1.905
 74
    0
 49
-0.9525
 74
    0
 49
0
 74
    0
 49
-0.9525
 74
    0
  0
LTYPE
  5
44
330
5
100
AcDbSymbolTableRecord
100
AcDbLinetypeTableRecord
  2
BORDER2
 70
    0
  3
Border (.5x) __.__.__.__.__.__.__.__.__.__.__.
 72
   65
 73
    6
 40
22.225
 49
6.35
 74
    0
 49
-3.175
 74
    0
 49
6.35
 74
    0
 49
-3.175
 74
    0
 49
0
 74
    0
 49
-3.175
 74
    0
  0
LTYPE
  5
45
330
5
100
AcDbSymbolTableRecord
100
AcDbLinetypeTableRecord
  2
BORDERX2
 70
    0
  3
Border (2x) ____  ____  .  ____  ____  .  ___
 72
   65
 73
    6
 40
88.89999999999999
 49
25.4
 74
    0
 49
-12.7
 74
    0
 49
25.4
 74
    0
 49
-12.7
 74
    0
 49
0
 74
    0
 49
-12.7
 74
    0
  0
LTYPE
  5
46
330
5
100
AcDbSymbolTableRecord
100
AcDbLinetypeTableRecord
  2
CENTER
 70
    0
  3
Center ____ _ ____ _ ____ _ ____ _ ____ _ ____
 72
   65
 73
    4
 40
50.8
 49
31.75
 74
    0
 49
-6.35
 74
    0
 49
6.35
 74
    0
 49
-6.35
 74
    0
  0
LTYPE
  5
47
330
5
100
AcDbSymbolTableRecord
100
AcDbLinetypeTableRecord
  2
CENTERTINY
 70
    0
  3
Center (.15x) ___ _ ___ _ ___ _ ___ _ ___ _ ___
 72
   65
 73
    4
 40
7.619999999999999
 49
4.7625
 74
    0
 49
-0.9525
 74
    0
 49
0.9525
 74
    0
 49
-0.9525
 74
    0
  0
LTYPE
  5
48
330
5
100
AcDbSymbolTableRecord
100
AcDbLinetypeTableRecord
  2
CENTER2
 70
    0
  3
Center (.5x) ___ _ ___ _ ___ _ ___ _ ___ _ ___
 72
   65
 73
    4
 40
28.575
 49
19.05
 74
    0
 49
-3.175
 74
    0
 49
3.175
 74
    0
 49
-3.175
 74
    0
  0
LTYPE
  5
49
330
5
100
AcDbSymbolTableRecord
100
AcDbLinetypeTableRecord
  2
CENTERX2
 70
    0
  3
Center (2x) ________  __  ________  __  _____
 72
   65
 73
    4
 40
101.6
 49
63.5
 74
    0
 49
-12.7
 74
    0
 49
12.7
 74
    0
 49
-12.7
 74
    0
  0
ENDTAB
  0
TABLE
  2
LAYER
  5
2
330
0
100
AcDbSymbolTable
 70
    1
  0
LAYER
  5
10
330
2
100
AcDbSymbolTableRecord
100
AcDbLayerTableRecord
  2
0
 70
    0
 62
    7
  6
CONTINUOUS
370
    0
390
F
  0
LAYER
  5
4A
330
2
100
AcDbSymbolTableRecord
100
AcDbLayerTableRecord
  2
images
 70
    0
 62
    7
  6
CONTINUOUS
370
    0
390
F
  0
LAYER
  5
4B
330
2
100
AcDbSymbolTableRecord
100
AcDbLayerTableRecord
  2
images2
 70
    0
 62
    7
  6
CONTINUOUS
370
    0
390
F
  0
LAYER
  5
4C
330
2
100
AcDbSymbolTableRecord
100
AcDbLayerTableRecord
  2
images3
 70
    0
 62
    7
  6
CONTINUOUS
370
    0
390
F
  0
LAYER
  5
4D
330
2
100
AcDbSymbolTableRecord
100
AcDbLayerTableRecord
  2
jaw_spline
 70
    0
 62
    6
  6
CONTINUOUS
370
   -3
390
F
  0
LAYER
  5
4E
330
2
100
AcDbSymbolTableRecord
100
AcDbLayerTableRecord
  2
jaw_spline_bar
 70
    0
 62
    7
  6
CONTINUOUS
370
    0
390
F
  0
LAYER
  5
4F
330
2
100
AcDbSymbolTableRecord
100
AcDbLayerTableRecord
  2
york_spline
 70
    0
 62
  176
420
  128
  6
CONTINUOUS
370
   30
390
F
1001
LibreCad
1070
    1
  0
LAYER
  5
50
330
2
100
AcDbSymbolTableRecord
100
AcDbLayerTableRecord
  2
york_spline_bar
 70
    0
 62
    7
  6
CONTINUOUS
370
    0
390
F
  0
ENDTAB
  0
TABLE
  2
STYLE
  5
3
330
0
100
AcDbSymbolTable
 70
    3
  0
STYLE
  5
51
330
2
100
AcDbSymbolTableRecord
100
AcDbTextStyleTableRecord
  2
Standard
 70
    0
 40
0
 41
1
 50
0
 71
    0
 42
1
  3
txt
  4

  0
ENDTAB
  0
TABLE
  2
VIEW
  5
6
330
0
100
AcDbSymbolTable
 70
    0
  0
ENDTAB
  0
TABLE
  2
UCS
  5
7
330
0
100
AcDbSymbolTable
 70
    0
  0
ENDTAB
  0
TABLE
  2
APPID
  5
9
330
0
100
AcDbSymbolTable
 70
    1
  0
APPID
  5
12
330
9
100
AcDbSymbolTableRecord
100
AcDbRegAppTableRecord
  2
ACAD
 70
    0
  0
APPID
  5
52
330
9
100
AcDbSymbolTableRecord
100
AcDbRegAppTableRecord
  2
LibreCad
 70
    0
  0
ENDTAB
  0
TABLE
  2
DIMSTYLE
  5
A
330
0
100
AcDbSymbolTable
 70
    1
100
AcDbDimStyleTable
 71
    1
  0
DIMSTYLE
105
53
330
A
100
AcDbSymbolTableRecord
100
AcDbDimStyleTableRecord
  2
Standard
 70
    0
 40
1
 41
2.5
 42
0.625
 43
0.38
 44
1.25
 45
0
 46
0
 47
0
 48
0
 49
1
140
2.5
141
0.09
142
0
143
25.4
144
1
145
0
146
1
147
0.625
148
0
 71
    0
 72
    0
 73
    0
 74
    1
 75
    0
 76
    0
 77
    0
 78
    8
 79
    0
170
    0
171
    2
172
    0
173
    0
174
    0
175
    0
176
    0
177
    0
178
    0
179
    0
271
    2
272
    4
273
    2
274
    2
275
    0
276
    0
277
    2
278
   44
279
    0
280
    0
281
    0
282
    0
283
    1
284
    0
285
    0
286
    0
288
    0
289
    3
340
STANDARD
341

371
   -2
372
   -2
  0
ENDTAB
  0
TABLE
  2
BLOCK_RECORD
  5
1
330
0
100
AcDbSymbolTable
 70
    2
  0
BLOCK_RECORD
  5
1F
330
1
100
AcDbSymbolTableRecord
100
AcDbBlockTableRecord
  2
*Model_Space
 70
    0
280
    1
281
    0
  0
BLOCK_RECORD
  5
1E
330
1
100
AcDbSymbolTableRecord
100
AcDbBlockTableRecord
  2
*Paper_Space
 70
    0
280
    1
281
    0
  0
ENDTAB
  0
ENDSEC
  0
SECTION
  2
BLOCKS
  0
BLOCK
  5
20
330
1F
100
AcDbEntity
  8
0
100
AcDbBlockBegin
  2
*Model_Space
 70
    0
 10
0
 20
0
 30
0
  3
*Model_Space
  1

  0
ENDBLK
  5
21
330
1F
100
AcDbEntity
  8
0
100
AcDbBlockEnd
  0
BLOCK
  5
1C
330
1B
100
AcDbEntity
  8
0
100
AcDbBlockBegin
  2
*Paper_Space
 70
    0
 10
0
 20
0
 30
0
  3
*Paper_Space
  1

  0
ENDBLK
  5
1D
330
1F
100
AcDbEntity
  8
0
100
AcDbBlockEnd
  0
ENDSEC
  0
SECTION
  2
ENTITIES
  0
IMAGE
  5
56
100
AcDbEntity
  8
images3
  6
ByLayer
 62
  256
370
   -1
100
AcDbRasterImage
 10
-180
 20
59.85379556488852
 30
0
 11
0.11028073
 21
0
 31
0
 12
6.752747150106674e-18
 22
0.08753471
 32
0
 13
3266
 23
1374
340
54
 70
    1
280
    0
281
   50
282
   50
283
    0
360
55
  0
IMAGE
  5
58
100
AcDbEntity
  8
images3
  6
ByLayer
 62
  256
370
   -1
100
AcDbRasterImage
 10
180
 20
59.85379556488852
 30
0
 11
0.11028073
 21
0
 31
0
 12
6.752747150106674e-18
 22
0.08753471
 32
0
 13
3266
 23
1374
340
54
 70
    1
280
    0
281
   50
282
   50
283
    0
360
57
  0
IMAGE
  5
5A
100
AcDbEntity
  8
images2
  6
ByLayer
 62
  256
370
   -1
100
AcDbRasterImage
 10
180
 20
-180.1462044351115
 30
0
 11
0.11028073
 21
0
 31
0
 12
6.752747150106674e-18
 22
0.08753471
 32
0
 13
3266
 23
1374
340
54
 70
    1
280
    0
281
   50
282
   50
283
    0
360
59
  0
IMAGE
  5
5C
100
AcDbEntity
  8
images2
  6
ByLayer
 62
  256
370
   -1
100
AcDbRasterImage
 10
540
 20
-180.1462044351115
 30
0
 11
0.11028073
 21
0
 31
0
 12
6.752747150106674e-18
 22
0.08753471
 32
0
 13
3266
 23
1374
340
54
 70
    1
280
    0
281
   50
282
   50
283
    0
360
5B
  0
IMAGE
  5
5E
100
AcDbEntity
  8
images
  6
ByLayer
 62
  256
370
   -1
100
AcDbRasterImage
 10
360
 20
-60.14620443511148
 30
0
 11
0.11028073
 21
0
 31
0
 12
6.752747150106674e-18
 22
0.08753471
 32
0
 13
3266
 23
1374
340
54
 70
    1
280
    0
281
   50
282
   50
283
    0
360
5D
  0
IMAGE
  5
60
100
AcDbEntity
  8
images
  6
ByLayer
 62
  256
370
   -1
100
AcDbRasterImage
 10
0
 20
-60.14620443511148
 30
0
 11
0.11028073
 21
0
 31
0
 12
6.752747150106674e-18
 22
0.08753471
 32
0
 13
3266
 23
1374
340
54
 70
    1
280
    0
281
   50
282
   50
283
    0
360
5F
  0
SPLINE
  5
61
100
AcDbEntity
  8
jaw_spline
  6
ByLayer
 62
  256
370
   -1
100
AcDbSpline
210
0
220
0
230
0
 70
    8
 71
    2
 72
  206
 73
  203
 74
    0
 42
1e-07
 43
1e-07
 40
0
 40
0
 40
0
 40
0.004975124378109453
 40
0.009950248756218905
 40
0.01492537313432836
 40
0.01990049751243781
 40
0.02487562189054726
 40
0.02985074626865672
 40
0.03482587064676617
 40
0.03980099502487562
 40
0.04477611940298507
 40
0.04975124378109453
 40
0.05472636815920398
 40
0.05970149253731343
 40
0.06467661691542288
 40
0.06965174129353234
 40
0.07462686567164178
 40
0.07960199004975124
 40
0.0845771144278607
 40
0.08955223880597014
 40
0.0945273631840796
 40
0.09950248756218906
 40
0.1044776119402985
 40
0.109452736318408
 40
0.1144278606965174
 40
0.1194029850746269
 40
0.1243781094527363
 40
0.1293532338308458
 40
0.1343283582089552
 40
0.1393034825870647
 40
0.1442786069651741
 40
0.1492537313432836
 40
0.154228855721393
 40
0.1592039800995025
 40
0.1641791044776119
 40
0.1691542288557214
 40
0.1741293532338309
 40
0.1791044776119403
 40
0.1840796019900497
 40
0.1890547263681592
 40
0.1940298507462687
 40
0.1990049751243781
 40
0.2039800995024875
 40
0.208955223880597
 40
0.2139303482587065
 40
0.2189054726368159
 40
0.2238805970149254
 40
0.2288557213930348
 40
0.2338308457711443
 40
0.2388059701492537
 40
0.2437810945273632
 40
0.2487562189054726
 40
0.2537313432835821
 40
0.2587064676616915
 40
0.263681592039801
 40
0.2686567164179104
 40
0.2736318407960199
 40
0.2786069651741294
 40
0.2835820895522388
 40
0.2885572139303483
 40
0.2935323383084577
 40
0.2985074626865671
 40
0.3034825870646766
 40
0.3084577114427861
 40
0.3134328358208955
 40
0.318407960199005
 40
0.3233830845771145
 40
0.3283582089552239
 40
0.3333333333333333
 40
0.3383084577114428
 40
0.3432835820895522
 40
0.3482587064676617
 40
0.3532338308457711
 40
0.3582089552238806
 40
0.3631840796019901
 40
0.3681592039800995
 40
0.373134328358209
 40
0.3781094527363184
 40
0.3830845771144278
 40
0.3880597014925373
 40
0.3930348258706468
 40
0.3980099502487562
 40
0.4029850746268657
 40
0.4079601990049751
 40
0.4129353233830846
 40
0.417910447761194
 40
0.4228855721393035
 40
0.4278606965174129
 40
0.4328358208955224
 40
0.4378109452736318
 40
0.4427860696517413
 40
0.4477611940298508
 40
0.4527363184079602
 40
0.4577114427860697
 40
0.4626865671641791
 40
0.4676616915422885
 40
0.472636815920398
 40
0.4776119402985075
 40
0.4825870646766169
 40
0.4875621890547264
 40
0.4925373134328358
 40
0.4975124378109453
 40
0.5024875621890548
 40
0.5074626865671642
 40
0.5124378109452736
 40
0.5174129353233831
 40
0.5223880597014925
 40
0.527363184079602
 40
0.5323383084577115
 40
0.5373134328358209
 40
0.5422885572139303
 40
0.5472636815920398
 40
0.5522388059701493
 40
0.5572139303482587
 40
0.5621890547263682
 40
0.5671641791044776
 40
0.572139303482587
 40
0.5771144278606966
 40
0.582089552238806
 40
0.5870646766169154
 40
0.5920398009950248
 40
0.5970149253731343
 40
0.6019900497512438
 40
0.6069651741293532
 40
0.6119402985074627
 40
0.6169154228855721
 40
0.6218905472636815
 40
0.6268656716417911
 40
0.6318407960199005
 40
0.6368159203980099
 40
0.6417910447761194
 40
0.6467661691542289
 40
0.6517412935323383
 40
0.6567164179104478
 40
0.6616915422885572
 40
0.6666666666666666
 40
0.6716417910447762
 40
0.6766169154228856
 40
0.681592039800995
 40
0.6865671641791045
 40
0.6915422885572139
 40
0.6965174129353234
 40
0.7014925373134329
 40
0.7064676616915423
 40
0.7114427860696517
 40
0.7164179104477612
 40
0.7213930348258707
 40
0.7263681592039801
 40
0.7313432835820896
 40
0.736318407960199
 40
0.7412935323383084
 40
0.746268656716418
 40
0.7512437810945274
 40
0.7562189054726368
 40
0.7611940298507462
 40
0.7661691542288557
 40
0.7711442786069652
 40
0.7761194029850746
 40
0.7810945273631841
 40
0.7860696517412935
 40
0.7910447761194029
 40
0.7960199004975125
 40
0.8009950248756219
 40
0.8059701492537313
 40
0.8109452736318408
 40
0.8159203980099502
 40
0.8208955223880597
 40
0.8258706467661692
 40
0.8308457711442786
 40
0.835820895522388
 40
0.8407960199004975
 40
0.845771144278607
 40
0.8507462686567164
 40
0.8557213930348259
 40
0.8606965174129353
 40
0.8656716417910447
 40
0.8706467661691543
 40
0.8756218905472637
 40
0.8805970149253731
 40
0.8855721393034826
 40
0.8905472636815921
 40
0.8955223880597015
 40
0.900497512437811
 40
0.9054726368159204
 40
0.9104477611940298
 40
0.9154228855721394
 40
0.9203980099502488
 40
0.9253731343283582
 40
0.9303482587064676
 40
0.9353233830845771
 40
0.9402985074626866
 40
0.945273631840796
 40
0.9502487562189055
 40
0.9552238805970149
 40
0.9601990049751243
 40
0.9651741293532339
 40
0.9701492537313433
 40
0.9751243781094527
 40
0.9800995024875622
 40
0.9850746268656716
 40
0.9900497512437811
 40
0.9950248756218906
 40
1
 40
1
 40
1
 10
0
 20
20
 30
0
 10
0.6554891049512334
 20
21.80681916170506
 30
0
 10
1.736515594683428
 20
24.87825535091442
 30
0
 10
2.807539576283882
 20
27.61655813947512
 30
0
 10
3.754778591400519
 20
30.50794500163596
 30
0
 10
4.86413789438435
 20
33.41497125448094
 30
0
 10
6.073535633700159
 20
36.44750550115251
 30
0
 10
7.20893740709045
 20
39.50618784008311
 30
0
 10
8.684959534934979
 20
42.30905622560219
 30
0
 10
9.745706319808534
 20
44.99272104032224
 30
0
 10
10.77061010897265
 20
47.08007887369975
 30
0
 10
11.85223839425034
 20
49.03310051273343
 30
0
 10
13.51622918883574
 20
50.88511577965131
 30
0
 10
14.94663032056275
 20
52.62597143287242
 30
0
 10
16.58073333542402
 20
53.86010148638167
 30
0
 10
18.26871987307108
 20
54.5650227524947
 30
0
 10
19.71988547611167
 20
54.83614040797611
 30
0
 10
21.342963419466
 20
54.42693162481743
 30
0
 10
23.50395483663834
 20
53.24340716570757
 30
0
 10
25.02551021716589
 20
51.30673726063448
 30
0
 10
26.41534898303763
 20
49.73484707658695
 30
0
 10
27.87271488673991
 20
47.68718785211124
 30
0
 10
29.54379969091798
 20
45.09618984804354
 30
0
 10
31.04212274921179
 20
42.33548271332749
 30
0
 10
32.32361006216929
 20
39.21837113819289
 30
0
 10
33.9242965592338
 20
36.15782539686443
 30
0
 10
35.20360251220635
 20
33.23683354693302
 30
0
 10
36.52271430556992
 20
30.78300916018374
 30
0
 10
36.62153898979589
 20
28.34774840946431
 30
0
 10
37.47318959671027
 20
26.29533746141262
 30
0
 10
38.53277675414196
 20
24.21327290533347
 30
0
 10
39.40697563129389
 20
21.71266455326761
 30
0
 10
40.80354945254037
 20
18.95945403360734
 30
0
 10
41.74357425767533
 20
15.50016233162723
 30
0
 10
43.52876280056709
 20
11.94603304281122
 30
0
 10
44.79915397401274
 20
8.376254634072907
 30
0
 10
46.02848035129095
 20
5.413848142279347
 30
0
 10
47.23367410415194
 20
2.323716358583323
 30
0
 10
48.54380589641332
 20
-1.016886166991627
 30
0
 10
50.11915842616862
 20
-4.302007024615607
 30
0
 10
51.63602815568456
 20
-7.971825645651525
 30
0
 10
53.21403880267825
 20
-11.50112668551303
 30
0
 10
54.67543738096322
 20
-14.62860374268101
 30
0
 10
56.42853919257498
 20
-17.76501958416116
 30
0
 10
58.11335557052066
 20
-21.28316089917877
 30
0
 10
59.75340460620016
 20
-23.99987873509712
 30
0
 10
61.17676423463809
 20
-26.22232348653177
 30
0
 10
62.65844873865674
 20
-28.465504163847
 30
0
 10
64.67077998274944
 20
-30.65312883046891
 30
0
 10
66.98282440490611
 20
-32.5795726107832
 30
0
 10
68.77940700266838
 20
-33.82577981772599
 30
0
 10
70.36352862653411
 20
-34.28517782177887
 30
0
 10
72.03159165457271
 20
-34.52082736623193
 30
0
 10
73.86992843785731
 20
-34.21592824115261
 30
0
 10
75.62000224032711
 20
-33.3897002144062
 30
0
 10
77.38369225075283
 20
-32.05609895019621
 30
0
 10
79.1506926056138
 20
-30.18405823217211
 30
0
 10
80.99671781049324
 20
-27.80756883151948
 30
0
 10
82.82763421717986
 20
-25.00783368185267
 30
0
 10
84.41485468815684
 20
-22.26060879518286
 30
0
 10
85.70413688039568
 20
-19.39349575034017
 30
0
 10
86.99032413542122
 20
-16.26096340663062
 30
0
 10
88.44805122625999
 20
-13.21149585181669
 30
0
 10
89.54966246392827
 20
-10.42120588430786
 30
0
 10
90.65776063020724
 20
-7.656289128214001
 30
0
 10
91.86696606316751
 20
-4.638145019565325
 30
0
 10
92.86479666362446
 20
-1.993354699192099
 30
0
 10
93.90222159842205
 20
-0.09227417697365507
 30
0
 10
94.90453119895157
 20
1.365926822337439
 30
0
 10
96.56787300887675
 20
1.89037458857268
 30
0
 10
98.34241223670772
 20
1.224322893564639
 30
0
 10
100.0078226183786
 20
-0.2989470888448981
 30
0
 10
101.575678226373
 20
-2.940929108718784
 30
0
 10
103.4583971709227
 20
-6.117328807337032
 30
0
 10
105.9934482589499
 20
-9.515413849520709
 30
0
 10
107.6296282031162
 20
-11.9699964143473
 30
0
 10
108.4327838393511
 20
-13.15128055617086
 30
0
 10
108.9293678744434
 20
-14.49597403035611
 30
0
 10
111.0136373182888
 20
-15.95755433520605
 30
0
 10
113.3291830379203
 20
-17.99581061400329
 30
0
 10
116.1628527679049
 20
-19.20335231085102
 30
0
 10
118.9123618812614
 20
-20.08705953570588
 30
0
 10
121.6304574485651
 20
-19.75466863873229
 30
0
 10
123.8997615463791
 20
-17.65368940247271
 30
0
 10
126.1133117811394
 20
-15.05975433721142
 30
0
 10
127.9490246631211
 20
-12.37024777416568
 30
0
 10
129.3878302558261
 20
-9.634710528298411
 30
0
 10
130.6684997182055
 20
-7.101224033109158
 30
0
 10
132.0339332417829
 20
-4.776172768642226
 30
0
 10
133.4901048384197
 20
-2.804609419647421
 30
0
 10
134.9225158140146
 20
-1.149760993808249
 30
0
 10
136.118759764098
 20
-0.06819540511389899
 30
0
 10
138.036044256247
 20
0.2477273126154683
 30
0
 10
141.4789437059129
 20
0.1793630647102468
 30
0
 10
143.4873276765791
 20
0.07218425531721849
 30
0
 10
144.8909455910813
 20
0.7373085222073873
 30
0
 10
145.9308477793441
 20
2.479013746214052
 30
0
 10
147.1147480858455
 20
4.737752647730069
 30
0
 10
148.227012475629
 20
6.82755667055346
 30
0
 10
149.2020140612227
 20
8.717560423197376
 30
0
 10
150.5776071950316
 20
10.29644849434775
 30
0
 10
151.7541211355145
 20
11.49350359379944
 30
0
 10
153.1373131108489
 20
12.30046961538234
 30
0
 10
154.9022523004434
 20
11.0548145268652
 30
0
 10
156.9575043421777
 20
9.217981933676116
 30
0
 10
159.0397240979208
 20
6.864707745154824
 30
0
 10
160.8871435461278
 20
4.717767909143833
 30
0
 10
162.4416209723041
 20
2.927566253341844
 30
0
 10
164.4534970627801
 20
1.621249243595095
 30
0
 10
166.8562835479261
 20
0.594647755546338
 30
0
 10
169.0697850858127
 20
-0.1430772612255159
 30
0
 10
171.2666245606511
 20
-0.205553749899745
 30
0
 10
173.8372940267896
 20
-1.363331301109082
 30
0
 10
176.4069014727876
 20
-3.585901018634237
 30
0
 10
178.3202759163974
 20
-5.717752417371262
 30
0
 10
179.9472334541393
 20
-7.230218348713572
 30
0
 10
180.7838423636355
 20
-8.882634266351884
 30
0
 10
182.1828895176619
 20
-10.39541050925113
 30
0
 10
184.5371997715695
 20
-11.32661256405736
 30
0
 10
186.8727976929642
 20
-10.62471390867812
 30
0
 10
188.167354436975
 20
-8.6341044540889
 30
0
 10
189.2909636976158
 20
-6.688118869252903
 30
0
 10
190.3225413712606
 20
-4.795696383176734
 30
0
 10
191.4260352088378
 20
-2.590641940234947
 30
0
 10
192.7537954701903
 20
-0.6111666800347174
 30
0
 10
194.2825606122763
 20
0.3637197611263562
 30
0
 10
195.7784158626085
 20
0.09369746368019169
 30
0
 10
196.6780027609908
 20
0.1162417611162062
 30
0
 10
198.9412187808667
 20
0.1066359493319785
 30
0
 10
259.1720983345902
 20
0.1126793065139661
 30
0
 10
261.6054440588607
 20
0.109763184717304
 30
0
 10
262.3711033576871
 20
0.1211643737989399
 30
0
 10
263.3889788556637
 20
0.07614390918912936
 30
0
 10
264.4508593718299
 20
0.4833406978141816
 30
0
 10
265.7551404378324
 20
1.164309048961796
 30
0
 10
267.1682211051883
 20
2.551650277127251
 30
0
 10
268.7698517718589
 20
4.66558619618847
 30
0
 10
269.9237473236382
 20
7.269842921576998
 30
0
 10
271.062863533645
 20
9.587676797769873
 30
0
 10
272.3855213889422
 20
11.52308730855973
 30
0
 10
273.7558783609649
 20
13.30614470465536
 30
0
 10
275.4675285802355
 20
14.65235985763451
 30
0
 10
277.4279527538975
 20
15.52898374393422
 30
0
 10
279.7577064270707
 20
14.48798412954524
 30
0
 10
281.537641412505
 20
12.0737370164079
 30
0
 10
283.2803544929101
 20
9.583814779227085
 30
0
 10
284.9544159595716
 20
6.937753920709328
 30
0
 10
286.7214134660322
 20
4.591778327769622
 30
0
 10
288.4320700801506
 20
2.718726108530082
 30
0
 10
290.3383383721597
 20
0.9465167938214973
 30
0
 10
293.2125076194033
 20
-0.39191454407154
 30
0
 10
296.3489930388911
 20
-1.650842786508174
 30
0
 10
298.7926957635659
 20
-3.220685975105724
 30
0
 10
300.7455770315449
 20
-5.096110113402034
 30
0
 10
302.2750813378593
 20
-7.525852954545496
 30
0
 10
303.8222934528202
 20
-10.03681525031855
 30
0
 10
304.830857480353
 20
-12.60550593218874
 30
0
 10
306.226303383667
 20
-14.35168898080115
 30
0
 10
307.1812234263984
 20
-16.26662073808193
 30
0
 10
308.5721487810762
 20
-17.73830392058833
 30
0
 10
310.2457016197496
 20
-18.29909642789177
 30
0
 10
311.5102781068722
 20
-16.77526734166995
 30
0
 10
312.6308474097623
 20
-14.74551686584529
 30
0
 10
313.5599024094895
 20
-12.32926966444614
 30
0
 10
314.5487605856326
 20
-9.848283449445807
 30
0
 10
315.0183623454294
 20
-7.20410927014896
 30
0
 10
315.768952778691
 20
-4.703509158372348
 30
0
 10
316.6441036923188
 20
-2.353351064633399
 30
0
 10
317.5723025896817
 20
-0.5248903474292953
 30
0
 10
318.3198509641804
 20
0.1260595520927581
 30
0
 10
318.9103849322551
 20
0.6757057987897693
 30
0
 10
319.5581682385331
 20
0.1034947602575689
 30
0
 10
320.6742243295315
 20
-0.0340114021907648
 30
0
 10
323.4546641746347
 20
0.02273709895277675
 30
0
 10
324.1328119692855
 20
0.01549531007063372
 30
0
 10
324.5724819487965
 20
0.04230291687040819
 30
0
 10
325.4176405059739
 20
-0.3326335406673907
 30
0
 10
326.5219534050544
 20
-1.001409148160933
 30
0
 10
328.0993503132246
 20
-2.180348269854107
 30
0
 10
329.7007000509497
 20
-3.58038143603057
 30
0
 10
330.9855829808644
 20
-5.00117599598025
 30
0
 10
332.1396143571445
 20
-7.355743560430398
 30
0
 10
333.6850872172487
 20
-10.89894848605936
 30
0
 10
335.0571817561568
 20
-14.4110994928309
 30
0
 10
336.3638537726108
 20
-17.97974244074764
 30
0
 10
337.7252521029655
 20
-21.00470666339337
 30
0
 10
338.5901358724367
 20
-22.90369680581975
 30
0
 10
339.6015230047478
 20
-24.23584882322722
 30
0
 10
340.7297255409441
 20
-24.93746447235703
 30
0
 10
341.9058429041439
 20
-25.07132333488957
 30
0
 10
343.4594156974175
 20
-24.22343315495555
 30
0
 10
344.825869640562
 20
-22.26695003508068
 30
0
 10
345.9905276274588
 20
-19.73030709909836
 30
0
 10
347.6405589016641
 20
-16.44214327803144
 30
0
 10
349.0334214946191
 20
-12.27687229771465
 30
0
 10
350.4307301635175
 20
-8.337961490804263
 30
0
 10
351.6781189908103
 20
-4.818191459009397
 30
0
 10
353.0581923233624
 20
-1.30797802330419
 30
0
 10
354.3830882577111
 20
2.958554003691058
 30
0
 10
356.0072118036868
 20
7.803872135471788
 30
0
 10
357.4111712036804
 20
12.34493460286124
 30
0
 10
359.0634481639758
 20
17.13868977578955
 30
0
 10
360
 20
20
 30
0
  0
SPLINE
  5
62
100
AcDbEntity
  8
york_spline
  6
ByLayer
 62
  256
370
   -1
100
AcDbSpline
210
0
220
0
230
0
 70
    8
 71
    2
 72
  155
 73
  152
 74
    0
 42
1e-07
 43
1e-07
 40
0
 40
0
 40
0
 40
0.006666666666666667
 40
0.01333333333333333
 40
0.02
 40
0.02666666666666667
 40
0.03333333333333333
 40
0.04
 40
0.04666666666666667
 40
0.05333333333333334
 40
0.06
 40
0.06666666666666667
 40
0.07333333333333333
 40
0.08
 40
0.08666666666666667
 40
0.09333333333333334
 40
0.1
 40
0.1066666666666667
 40
0.1133333333333333
 40
0.12
 40
0.1266666666666667
 40
0.1333333333333333
 40
0.14
 40
0.1466666666666667
 40
0.1533333333333333
 40
0.16
 40
0.1666666666666667
 40
0.1733333333333333
 40
0.18
 40
0.1866666666666667
 40
0.1933333333333333
 40
0.2
 40
0.2066666666666667
 40
0.2133333333333333
 40
0.22
 40
0.2266666666666667
 40
0.2333333333333333
 40
0.24
 40
0.2466666666666667
 40
0.2533333333333334
 40
0.26
 40
0.2666666666666667
 40
0.2733333333333333
 40
0.28
 40
0.2866666666666667
 40
0.2933333333333333
 40
0.3
 40
0.3066666666666666
 40
0.3133333333333334
 40
0.32
 40
0.3266666666666667
 40
0.3333333333333333
 40
0.34
 40
0.3466666666666667
 40
0.3533333333333333
 40
0.36
 40
0.3666666666666666
 40
0.3733333333333334
 40
0.38
 40
0.3866666666666667
 40
0.3933333333333333
 40
0.4
 40
0.4066666666666667
 40
0.4133333333333333
 40
0.42
 40
0.4266666666666667
 40
0.4333333333333333
 40
0.44
 40
0.4466666666666667
 40
0.4533333333333333
 40
0.46
 40
0.4666666666666667
 40
0.4733333333333333
 40
0.48
 40
0.4866666666666667
 40
0.4933333333333333
 40
0.5
 40
0.5066666666666667
 40
0.5133333333333333
 40
0.52
 40
0.5266666666666666
 40
0.5333333333333333
 40
0.54
 40
0.5466666666666666
 40
0.5533333333333333
 40
0.5600000000000001
 40
0.5666666666666667
 40
0.5733333333333334
 40
0.58
 40
0.5866666666666667
 40
0.5933333333333334
 40
0.6
 40
0.6066666666666667
 40
0.6133333333333333
 40
0.62
 40
0.6266666666666667
 40
0.6333333333333333
 40
0.64
 40
0.6466666666666666
 40
0.6533333333333333
 40
0.66
 40
0.6666666666666666
 40
0.6733333333333333
 40
0.68
 40
0.6866666666666666
 40
0.6933333333333334
 40
0.7
 40
0.7066666666666667
 40
0.7133333333333334
 40
0.72
 40
0.7266666666666667
 40
0.7333333333333333
 40
0.74
 40
0.7466666666666667
 40
0.7533333333333333
 40
0.76
 40
0.7666666666666667
 40
0.7733333333333333
 40
0.78
 40
0.7866666666666666
 40
0.7933333333333333
 40
0.8
 40
0.8066666666666666
 40
0.8133333333333334
 40
0.82
 40
0.8266666666666667
 40
0.8333333333333334
 40
0.84
 40
0.8466666666666667
 40
0.8533333333333334
 40
0.86
 40
0.8666666666666667
 40
0.8733333333333333
 40
0.88
 40
0.8866666666666667
 40
0.8933333333333333
 40
0.9
 40
0.9066666666666666
 40
0.9133333333333333
 40
0.92
 40
0.9266666666666666
 40
0.9333333333333333
 40
0.9399999999999999
 40
0.9466666666666667
 40
0.9533333333333334
 40
0.96
 40
0.9666666666666667
 40
0.9733333333333334
 40
0.98
 40
0.9866666666666667
 40
0.9933333333333333
 40
1
 40
1
 40
1
 10
0
 20
30
 30
0
 10
0.8143454657906507
 20
31.58328761432321
 30
0
 10
2.727498361710833
 20
33.77440979393655
 30
0
 10
4.330072856576202
 20
35.82741151606626
 30
0
 10
6.408411675025261
 20
37.40666525768214
 30
0
 10
8.576647026029251
 20
38.73219381770244
 30
0
 10
10.75981016270994
 20
39.55669901871002
 30
0
 10
12.96565788515715
 20
39.6385420152085
 30
0
 10
15.73689700186586
 20
39.45133239521522
 30
0
 10
18.631343712179
 20
38.09676369450892
 30
0
 10
21.27842650020245
 20
35.98794500792341
 30
0
 10
23.97678326205342
 20
33.34241721484454
 30
0
 10
25.60642571604381
 20
30.65656993320489
 30
0
 10
27.39417745773508
 20
28.55481060343343
 30
0
 10
29.25647769886727
 20
25.56597143369838
 30
0
 10
31.10909644463851
 20
22.14054339262973
 30
0
 10
32.86708089139305
 20
19.05458859348755
 30
0
 10
34.65587235169825
 20
15.84719982530375
 30
0
 10
36.26636700559422
 20
12.57204412856156
 30
0
 10
37.16586508136643
 20
9.383619770523254
 30
0
 10
39.19069934731797
 20
4.955143660853775
 30
0
 10
43.22899831029356
 20
-3.099537198855303
 30
0
 10
45.83023907611129
 20
-9.158925752849878
 30
0
 10
47.70857753550611
 20
-12.54773705260725
 30
0
 10
49.19051572641357
 20
-16.21233306296713
 30
0
 10
51.62079367802637
 20
-20.54885290257648
 30
0
 10
53.66493073910955
 20
-23.889750884281
 30
0
 10
54.95782626158526
 20
-27.15431522305871
 30
0
 10
57.74905626219435
 20
-30.73963513490124
 30
0
 10
60.77979265170288
 20
-34.49345158897569
 30
0
 10
63.51220087567047
 20
-37.28227598632225
 30
0
 10
66.50558283678264
 20
-38.82337952614176
 30
0
 10
69.03997942828522
 20
-39.61118600823399
 30
0
 10
71.56785914645089
 20
-39.2238768774547
 30
0
 10
74.66538706557932
 20
-38.09783628521159
 30
0
 10
77.18392364529267
 20
-35.37748999349479
 30
0
 10
79.74459609154347
 20
-32.35487373132261
 30
0
 10
81.60400566697656
 20
-29.17352663221691
 30
0
 10
83.20875853342713
 20
-26.29854012799275
 30
0
 10
84.72952675575273
 20
-23.24126656593525
 30
0
 10
86.261022936156
 20
-19.89165882855509
 30
0
 10
87.7831019338736
 20
-16.53018055758792
 30
0
 10
88.99525993722503
 20
-13.15442649897222
 30
0
 10
90.39161725346767
 20
-9.941240918219195
 30
0
 10
91.07906461118863
 20
-6.738466344390539
 30
0
 10
92.06383106986331
 20
-3.634603370940749
 30
0
 10
93.38944645350691
 20
-0.7798333961201874
 30
0
 10
94.47736067419284
 20
1.50131951757371
 30
0
 10
95.37725466647721
 20
2.987190582077679
 30
0
 10
96.47949438236834
 20
3.949518650690138
 30
0
 10
98.15799285874964
 20
4.105598637035039
 30
0
 10
100.016738019111
 20
3.277674940214509
 30
0
 10
101.7408098013544
 20
1.771248405510076
 30
0
 10
103.2463669681826
 20
0.263640465165764
 30
0
 10
104.3531657882125
 20
-1.424184090137989
 30
0
 10
106.4633401230269
 20
-2.722683269453046
 30
0
 10
108.0436077298134
 20
-3.863898918710342
 30
0
 10
108.7038809263985
 20
-5.185019093907985
 30
0
 10
110.4543823234698
 20
-5.897708531143521
 30
0
 10
112.679025992678
 20
-5.861692170977058
 30
0
 10
115.2288224810702
 20
-6.320679233801416
 30
0
 10
117.9642993618473
 20
-5.813553280080292
 30
0
 10
120.7426843771793
 20
-5.171562870419793
 30
0
 10
123.2034722511954
 20
-4.149244015311377
 30
0
 10
125.1246460039619
 20
-2.845738239659171
 30
0
 10
127.314114367468
 20
-2.223340827577136
 30
0
 10
129.2390173826301
 20
-0.7849990856777718
 30
0
 10
131.7232846962162
 20
-0.07039799591388854
 30
0
 10
134.1274007853926
 20
0.4095381311025036
 30
0
 10
136.1376727794772
 20
0.256693169287727
 30
0
 10
137.8265169155376
 20
0.1371499650372693
 30
0
 10
140.0002048735026
 20
0.2703064129684507
 30
0
 10
143.3656124572622
 20
-0.2673513616086292
 30
0
 10
145.6621201460962
 20
1.939334123484911
 30
0
 10
146.9903463618689
 20
4.534385062953221
 30
0
 10
148.3201610196074
 20
7.160831853940128
 30
0
 10
149.6600874050373
 20
9.390893701729913
 30
0
 10
150.9910512130716
 20
10.91426044741969
 30
0
 10
152.0344943773979
 20
11.7573559485707
 30
0
 10
153.4170692498586
 20
12.31580711040739
 30
0
 10
155.4285042782525
 20
10.5398282841611
 30
0
 10
157.6941363673037
 20
8.592826648445119
 30
0
 10
159.5509991714701
 20
6.255632146194878
 30
0
 10
161.6825209423853
 20
3.890589364029128
 30
0
 10
164.0940719279081
 20
1.763655063118211
 30
0
 10
166.5901417334933
 20
0.5661587142188398
 30
0
 10
169.1037693680802
 20
-0.1380201703607752
 30
0
 10
172.3419629729968
 20
-0.3888093512858941
 30
0
 10
175.4107392553896
 20
-2.712958458690872
 30
0
 10
178.0063437272798
 20
-5.132520825689304
 30
0
 10
179.9240243703496
 20
-7.098898699589227
 30
0
 10
181.0034332109018
 20
-9.214458604638956
 30
0
 10
182.9766795491115
 20
-10.91530381474271
 30
0
 10
185.7140156073486
 20
-11.34053318432325
 30
0
 10
187.9737887490681
 20
-9.207608360552261
 30
0
 10
189.366395785929
 20
-6.666804344378155
 30
0
 10
190.4413571112582
 20
-4.256745658143445
 30
0
 10
191.7582956167078
 20
-1.923874647025236
 30
0
 10
193.1902285946941
 20
-0.01680328615033883
 30
0
 10
194.9456820541906
 20
0.3402025566136703
 30
0
 10
197.5480831325172
 20
0.04123821088468816
 30
0
 10
200.6393107981116
 20
0.1981116808635587
 30
0
 10
207.2626095837422
 20
-0.01847027290181875
 30
0
 10
257.9158096075546
 20
0.1739542802414804
 30
0
 10
261.3554894011062
 20
0.1630062891179783
 30
0
 10
262.8227514256937
 20
0.2116400043890073
 30
0
 10
265.4160346949653
 20
0.7277706173034363
 30
0
 10
267.2579312078115
 20
2.646164752133342
 30
0
 10
268.9138463264522
 20
4.89313572168259
 30
0
 10
270.1068781787591
 20
7.428187340621669
 30
0
 10
271.5104733016118
 20
9.919159399310651
 30
0
 10
272.8944574353504
 20
12.45538789931835
 30
0
 10
274.8676501106029
 20
14.21599175413429
 30
0
 10
277.0157209759726
 20
15.63313749985266
 30
0
 10
280.0848641371147
 20
14.46084070622765
 30
0
 10
282.5891129169901
 20
10.49225884548013
 30
0
 10
285.3843061833884
 20
6.445009188424149
 30
0
 10
288.0249403562143
 20
3.008126516086188
 30
0
 10
290.6669032280457
 20
0.565014998941489
 30
0
 10
294.1541513865193
 20
-0.7210894436874888
 30
0
 10
297.6863099451495
 20
-2.369179250339394
 30
0
 10
300.5266477677599
 20
-4.594406888501211
 30
0
 10
302.2556710456148
 20
-7.953785030844544
 30
0
 10
304.342191221977
 20
-10.93011988485547
 30
0
 10
305.6206316316465
 20
-14.10953434461798
 30
0
 10
307.627506093882
 20
-16.61244735536519
 30
0
 10
310.1587046970459
 20
-18.70632728430115
 30
0
 10
311.9171465313126
 20
-16.34162027513883
 30
0
 10
313.1563996273255
 20
-13.57568663840364
 30
0
 10
314.4554698656225
 20
-9.9008009146246
 30
0
 10
315.4264191514702
 20
-6.135720342026704
 30
0
 10
316.2632921685419
 20
-3.111142578786011
 30
0
 10
317.3495809868763
 20
-1.093673852200703
 30
0
 10
318.3941948256517
 20
0.6782355302709447
 30
0
 10
319.9359521459897
 20
0.2138495873056988
 30
0
 10
321.73487645168
 20
0.19331700366477
 30
0
 10
324.584177184741
 20
0.3882148352084733
 30
0
 10
327.1141755703977
 20
-1.444755230648686
 30
0
 10
329.5660411173379
 20
-3.382385098659588
 30
0
 10
332.0361201592916
 20
-4.698129720259139
 30
0
 10
334.1887747031474
 20
-5.71766462258717
 30
0
 10
336.5069360025063
 20
-5.173521175188697
 30
0
 10
338.8754937362169
 20
-4.012299031675459
 30
0
 10
340.9103297674367
 20
-1.726869444034633
 30
0
 10
343.4275136772561
 20
1.53504865346107
 30
0
 10
345.8116701506285
 20
6.217526649737278
 30
0
 10
348.2586260871758
 20
10.74798697803317
 30
0
 10
350.7738689705023
 20
15.21997501475216
 30
0
 10
353.3000097759872
 20
19.97325930936824
 30
0
 10
355.6075642525337
 20
24.28119633464167
 30
0
 10
357.986969830216
 20
28.39526325316874
 30
0
 10
360
 20
30
 30
0
  0
LINE
  5
63
100
AcDbEntity
  8
york_spline_bar
  6
ByLayer
 62
  256
370
   -1
100
AcDbLine
 10
0
 20
30
 11
0
 21
-70
  0
LINE
  5
64
100
AcDbEntity
  8
york_spline_bar
  6
ByLayer
 62
  256
370
   -1
100
AcDbLine
 10
3
 20
34.13680421000795
 11
3
 21
-70
  0
LINE
  5
65
100
AcDbEntity
  8
york_spline_bar
  6
ByLayer
 62
  256
370
   -1
100
AcDbLine
 10
5
 20
36.32271758372295
 11
5
 21
-70
  0
LINE
  5
66
100
AcDbEntity
  8
york_spline_bar
  6
ByLayer
 62
  256
370
   -1
100
AcDbLine
 10
12
 20
39.60216069355818
 11
12
 21
-70
  0
LINE
  5
67
100
AcDbEntity
  8
york_spline_bar
  6
ByLayer
 62
  256
370
   -1
100
AcDbLine
 10
13
 20
39.60565210514616
 11
13
 21
-70
  0
LINE
  5
68
100
AcDbEntity
  8
york_spline_bar
  6
ByLayer
 62
  256
370
   -1
100
AcDbLine
 10
15
 20
39.46968255202562
 11
15
 21
-70
  0
LINE
  5
69
100
AcDbEntity
  8
york_spline_bar
  6
ByLayer
 62
  256
370
   -1
100
AcDbLine
 10
19
 20
37.74317755313349
 11
19
 21
-70
  0
LINE
  5
6A
100
AcDbEntity
  8
york_spline_bar
  6
ByLayer
 62
  256
370
   -1
100
AcDbLine
 10
6
 20
37.08168889653079
 11
6
 21
-70
  0
LINE
  5
6B
100
AcDbEntity
  8
york_spline_bar
  6
ByLayer
 62
  256
370
   -1
100
AcDbLine
 10
9
 20
38.8682960993814
 11
9
 21
-70
  0
LINE
  5
6C
100
AcDbEntity
  8
york_spline_bar
  6
ByLayer
 62
  256
370
   -1
100
AcDbLine
 10
4
 20
35.36143001793909
 11
4
 21
-70
  0
LINE
  5
6D
100
AcDbEntity
  8
york_spline_bar
  6
ByLayer
 62
  256
370
   -1
100
AcDbLine
 10
2
 20
32.94280127426186
 11
2
 21
-70
  0
LINE
  5
6E
100
AcDbEntity
  8
york_spline_bar
  6
ByLayer
 62
  256
370
   -1
100
AcDbLine
 10
10
 20
39.26108409990493
 11
10
 21
-70
  0
LINE
  5
6F
100
AcDbEntity
  8
york_spline_bar
  6
ByLayer
 62
  256
370
   -1
100
AcDbLine
 10
7.000000000000002
 20
37.7602868039021
 11
7
 21
-70
  0
LINE
  5
70
100
AcDbEntity
  8
york_spline_bar
  6
ByLayer
 62
  256
370
   -1
100
AcDbLine
 10
8
 20
38.36571644039577
 11
8
 21
-70
  0
LINE
  5
71
100
AcDbEntity
  8
york_spline_bar
  6
ByLayer
 62
  256
370
   -1
100
AcDbLine
 10
11
 20
39.50851440047673
 11
11
 21
-70
  0
LINE
  5
72
100
AcDbEntity
  8
york_spline_bar
  6
ByLayer
 62
  256
370
   -1
100
AcDbLine
 10
14
 20
39.56676332463819
 11
14
 21
-70
  0
LINE
  5
73
100
AcDbEntity
  8
york_spline_bar
  6
ByLayer
 62
  256
370
   -1
100
AcDbLine
 10
17
 20
38.85796305080656
 11
17
 21
-70
  0
LINE
  5
74
100
AcDbEntity
  8
york_spline_bar
  6
ByLayer
 62
  256
370
   -1
100
AcDbLine
 10
18
 20
38.35680347050489
 11
18
 21
-70
  0
LINE
  5
75
100
AcDbEntity
  8
york_spline_bar
  6
ByLayer
 62
  256
370
   -1
100
AcDbLine
 10
16
 20
39.2336884039412
 11
16
 21
-70
  0
LINE
  5
76
100
AcDbEntity
  8
york_spline_bar
  6
ByLayer
 62
  256
370
   -1
100
AcDbLine
 10
32
 20
20.57665537019014
 11
32
 21
-70
  0
LINE
  5
77
100
AcDbEntity
  8
york_spline_bar
  6
ByLayer
 62
  256
370
   -1
100
AcDbLine
 10
20
 20
37.00634123383093
 11
20
 21
-70
  0
LINE
  5
78
100
AcDbEntity
  8
york_spline_bar
  6
ByLayer
 62
  256
370
   -1
100
AcDbLine
 10
22
 20
35.26728267807465
 11
22
 21
-70
  0
LINE
  5
79
100
AcDbEntity
  8
york_spline_bar
  6
ByLayer
 62
  256
370
   -1
100
AcDbLine
 10
23
 20
34.28910629434197
 11
23
 21
-70
  0
LINE
  5
7A
100
AcDbEntity
  8
york_spline_bar
  6
ByLayer
 62
  256
370
   -1
100
AcDbLine
 10
24
 20
33.14052284614531
 11
24
 21
-70
  0
LINE
  5
7B
100
AcDbEntity
  8
york_spline_bar
  6
ByLayer
 62
  256
370
   -1
100
AcDbLine
 10
25
 20
31.6628546296615
 11
25
 21
-70
  0
LINE
  5
7C
100
AcDbEntity
  8
york_spline_bar
  6
ByLayer
 62
  256
370
   -1
100
AcDbLine
 10
26
 20
30.22478721925044
 11
26
 21
-70
  0
LINE
  5
7D
100
AcDbEntity
  8
york_spline_bar
  6
ByLayer
 62
  256
370
   -1
100
AcDbLine
 10
27
 20
28.98735282820621
 11
27
 21
-70
  0
LINE
  5
7E
100
AcDbEntity
  8
york_spline_bar
  6
ByLayer
 62
  256
370
   -1
100
AcDbLine
 10
28
 20
27.57072256313178
 11
28
 21
-70
  0
LINE
  5
7F
100
AcDbEntity
  8
york_spline_bar
  6
ByLayer
 62
  256
370
   -1
100
AcDbLine
 10
29
 20
25.94787114437484
 11
29
 21
-70
  0
LINE
  5
80
100
AcDbEntity
  8
york_spline_bar
  6
ByLayer
 62
  256
370
   -1
100
AcDbLine
 10
30
 20
24.18901339115861
 11
30
 21
-70
  0
LINE
  5
81
100
AcDbEntity
  8
york_spline_bar
  6
ByLayer
 62
  256
370
   -1
100
AcDbLine
 10
30.99999999999999
 20
22.35863403515518
 11
31
 21
-70
  0
LINE
  5
82
100
AcDbEntity
  8
york_spline_bar
  6
ByLayer
 62
  256
370
   -1
100
AcDbLine
 10
33
 20
18.81021608112415
 11
33
 21
-70
  0
LINE
  5
83
100
AcDbEntity
  8
york_spline_bar
  6
ByLayer
 62
  256
370
   -1
100
AcDbLine
 10
34
 20
17.01971919073913
 11
34
 21
-70
  0
LINE
  5
84
100
AcDbEntity
  8
york_spline_bar
  6
ByLayer
 62
  256
370
   -1
100
AcDbLine
 10
35
 20
15.13026792865536
 11
35
 21
-70
  0
LINE
  5
85
100
AcDbEntity
  8
york_spline_bar
  6
ByLayer
 62
  256
370
   -1
100
AcDbLine
 10
36
 20
13.02378128775981
 11
36
 21
-70
  0
LINE
  5
86
100
AcDbEntity
  8
york_spline_bar
  6
ByLayer
 62
  256
370
   -1
100
AcDbLine
 10
37
 20
10.07175464082856
 11
37
 21
-70
  0
LINE
  5
87
100
AcDbEntity
  8
york_spline_bar
  6
ByLayer
 62
  256
370
   -1
100
AcDbLine
 10
38
 20
7.5642795913647
 11
38
 21
-70
  0
LINE
  5
88
100
AcDbEntity
  8
york_spline_bar
  6
ByLayer
 62
  256
370
   -1
100
AcDbLine
 10
39
 20
5.4188120868617
 11
39
 21
-70
  0
LINE
  5
89
100
AcDbEntity
  8
york_spline_bar
  6
ByLayer
 62
  256
370
   -1
100
AcDbLine
 10
40
 20
3.361661041298313
 11
40
 21
-70
  0
LINE
  5
8A
100
AcDbEntity
  8
york_spline_bar
  6
ByLayer
 62
  256
370
   -1
100
AcDbLine
 10
41
 20
1.346902359139688
 11
41
 21
-70
  0
LINE
  5
8B
100
AcDbEntity
  8
york_spline_bar
  6
ByLayer
 62
  256
370
   -1
100
AcDbLine
 10
41.99999999999999
 20
-0.6661571076474253
 11
42
 21
-70
  0
LINE
  5
8C
100
AcDbEntity
  8
york_spline_bar
  6
ByLayer
 62
  256
370
   -1
100
AcDbLine
 10
42.99999999999999
 20
-2.745301705024424
 11
43
 21
-70
  0
LINE
  5
8D
100
AcDbEntity
  8
york_spline_bar
  6
ByLayer
 62
  256
370
   -1
100
AcDbLine
 10
44
 20
-4.920784215862619
 11
44
 21
-70
  0
LINE
  5
8E
100
AcDbEntity
  8
york_spline_bar
  6
ByLayer
 62
  256
370
   -1
100
AcDbLine
 10
45
 20
-7.207951673847583
 11
45
 21
-70
  0
LINE
  5
8F
100
AcDbEntity
  8
york_spline_bar
  6
ByLayer
 62
  256
370
   -1
100
AcDbLine
 10
46
 20
-9.365717480832403
 11
46
 21
-70
  0
LINE
  5
90
100
AcDbEntity
  8
york_spline_bar
  6
ByLayer
 62
  256
370
   -1
100
AcDbLine
 10
46.99999999999999
 20
-11.27702149980889
 11
47
 21
-70
  0
LINE
  5
91
100
AcDbEntity
  8
york_spline_bar
  6
ByLayer
 62
  256
370
   -1
100
AcDbLine
 10
48
 20
-13.32190672806715
 11
48
 21
-70
  0
LINE
  5
92
100
AcDbEntity
  8
york_spline_bar
  6
ByLayer
 62
  256
370
   -1
100
AcDbLine
 10
49
 20
-15.64708618396599
 11
49
 21
-70
  0
LINE
  5
93
100
AcDbEntity
  8
york_spline_bar
  6
ByLayer
 62
  256
370
   -1
100
AcDbLine
 10
50
 20
-17.64153238657867
 11
50
 21
-70
  0
LINE
  5
94
100
AcDbEntity
  8
york_spline_bar
  6
ByLayer
 62
  256
370
   -1
100
AcDbLine
 10
51
 20
-19.43158269993453
 11
51
 21
-70
  0
LINE
  5
95
100
AcDbEntity
  8
york_spline_bar
  6
ByLayer
 62
  256
370
   -1
100
AcDbLine
 10
52
 20
-21.15159146396763
 11
52
 21
-70
  0
LINE
  5
96
100
AcDbEntity
  8
york_spline_bar
  6
ByLayer
 62
  256
370
   -1
100
AcDbLine
 10
53
 20
-22.82180329936015
 11
53
 21
-70
  0
LINE
  5
97
100
AcDbEntity
  8
york_spline_bar
  6
ByLayer
 62
  256
370
   -1
100
AcDbLine
 10
54
 20
-24.78229455947375
 11
54
 21
-70
  0
LINE
  5
98
100
AcDbEntity
  8
york_spline_bar
  6
ByLayer
 62
  256
370
   -1
100
AcDbLine
 10
55.00000000000001
 20
-26.94517349574714
 11
55
 21
-70
  0
LINE
  5
99
100
AcDbEntity
  8
york_spline_bar
  6
ByLayer
 62
  256
370
   -1
100
AcDbLine
 10
56
 20
-28.47916756554347
 11
56
 21
-70
  0
LINE
  5
9A
100
AcDbEntity
  8
york_spline_bar
  6
ByLayer
 62
  256
370
   -1
100
AcDbLine
 10
58
 20
-31.03891320475364
 11
58
 21
-70
  0
LINE
  5
9B
100
AcDbEntity
  8
york_spline_bar
  6
ByLayer
 62
  256
370
   -1
100
AcDbLine
 10
57
 20
-29.77381568341626
 11
57
 21
-70
  0
LINE
  5
9C
100
AcDbEntity
  8
york_spline_bar
  6
ByLayer
 62
  256
370
   -1
100
AcDbLine
 10
59.99999999999999
 20
-33.5096433944511
 11
60
 21
-70
  0
LINE
  5
9D
100
AcDbEntity
  8
york_spline_bar
  6
ByLayer
 62
  256
370
   -1
100
AcDbLine
 10
59
 20
-32.28854076208972
 11
59
 21
-70
  0
LINE
  5
9E
100
AcDbEntity
  8
york_spline_bar
  6
ByLayer
 62
  256
370
   -1
100
AcDbLine
 10
61
 20
-34.6626299389319
 11
61
 21
-70
  0
LINE
  5
9F
100
AcDbEntity
  8
york_spline_bar
  6
ByLayer
 62
  256
370
   -1
100
AcDbLine
 10
62
 20
-35.73791523540284
 11
62
 21
-70
  0
LINE
  5
A0
100
AcDbEntity
  8
york_spline_bar
  6
ByLayer
 62
  256
370
   -1
100
AcDbLine
 10
63
 20
-36.68767656237832
 11
63
 21
-70
  0
LINE
  5
A1
100
AcDbEntity
  8
york_spline_bar
  6
ByLayer
 62
  256
370
   -1
100
AcDbLine
 10
64
 20
-37.45251822934978
 11
64
 21
-70
  0
LINE
  5
A2
100
AcDbEntity
  8
york_spline_bar
  6
ByLayer
 62
  256
370
   -1
100
AcDbLine
 10
65.00000000000001
 20
-38.04824380114054
 11
65
 21
-70
  0
LINE
  5
A3
100
AcDbEntity
  8
york_spline_bar
  6
ByLayer
 62
  256
370
   -1
100
AcDbLine
 10
66
 20
-38.53321149934482
 11
66
 21
-70
  0
LINE
  5
A4
100
AcDbEntity
  8
york_spline_bar
  6
ByLayer
 62
  256
370
   -1
100
AcDbLine
 10
67
 20
-38.95014785896492
 11
67
 21
-70
  0
LINE
  5
A5
100
AcDbEntity
  8
york_spline_bar
  6
ByLayer
 62
  256
370
   -1
100
AcDbLine
 10
68
 20
-39.2831971485032
 11
68
 21
-70
  0
LINE
  5
A6
100
AcDbEntity
  8
york_spline_bar
  6
ByLayer
 62
  256
370
   -1
100
AcDbLine
 10
69
 20
-39.46105746204144
 11
69
 21
-70
  0
LINE
  5
A7
100
AcDbEntity
  8
york_spline_bar
  6
ByLayer
 62
  256
370
   -1
100
AcDbLine
 10
70
 20
-39.45559899165176
 11
70
 21
-70
  0
LINE
  5
A8
100
AcDbEntity
  8
york_spline_bar
  6
ByLayer
 62
  256
370
   -1
100
AcDbLine
 10
74.00000000000001
 20
-38.26213592967317
 11
74
 21
-70
  0
LINE
  5
A9
100
AcDbEntity
  8
york_spline_bar
  6
ByLayer
 62
  256
370
   -1
100
AcDbLine
 10
71
 20
-39.28760668716279
 11
71
 21
-70
  0
LINE
  5
AA
100
AcDbEntity
  8
york_spline_bar
  6
ByLayer
 62
  256
370
   -1
100
AcDbLine
 10
72
 20
-39.02973741413938
 11
72
 21
-70
  0
LINE
  5
AB
100
AcDbEntity
  8
york_spline_bar
  6
ByLayer
 62
  256
370
   -1
100
AcDbLine
 10
73.00000000000001
 20
-38.70287298754155
 11
73
 21
-70
  0
LINE
  5
AC
100
AcDbEntity
  8
york_spline_bar
  6
ByLayer
 62
  256
370
   -1
100
AcDbLine
 10
75
 20
-37.59824699727316
 11
75
 21
-70
  0
LINE
  5
AD
100
AcDbEntity
  8
york_spline_bar
  6
ByLayer
 62
  256
370
   -1
100
AcDbLine
 10
76
 20
-36.65616630937181
 11
76
 21
-70
  0
LINE
  5
AE
100
AcDbEntity
  8
york_spline_bar
  6
ByLayer
 62
  256
370
   -1
100
AcDbLine
 10
77
 20
-35.55291297545133
 11
77
 21
-70
  0
LINE
  5
AF
100
AcDbEntity
  8
york_spline_bar
  6
ByLayer
 62
  256
370
   -1
100
AcDbLine
 10
78
 20
-34.41003099579946
 11
78
 21
-70
  0
LINE
  5
B0
100
AcDbEntity
  8
york_spline_bar
  6
ByLayer
 62
  256
370
   -1
100
AcDbLine
 10
79
 20
-33.21087031572794
 11
79
 21
-70
  0
LINE
  5
B1
100
AcDbEntity
  8
york_spline_bar
  6
ByLayer
 62
  256
370
   -1
100
AcDbLine
 10
80
 20
-31.83902167008617
 11
80
 21
-70
  0
LINE
  5
B2
100
AcDbEntity
  8
york_spline_bar
  6
ByLayer
 62
  256
370
   -1
100
AcDbLine
 10
81
 20
-30.20491364668352
 11
81
 21
-70
  0
LINE
  5
B3
100
AcDbEntity
  8
york_spline_bar
  6
ByLayer
 62
  256
370
   -1
100
AcDbLine
 10
82
 20
-28.45946357236609
 11
82
 21
-70
  0
LINE
  5
B4
100
AcDbEntity
  8
york_spline_bar
  6
ByLayer
 62
  256
370
   -1
100
AcDbLine
 10
83
 20
-26.64932277825929
 11
83
 21
-70
  0
LINE
  5
B5
100
AcDbEntity
  8
york_spline_bar
  6
ByLayer
 62
  256
370
   -1
100
AcDbLine
 10
84
 20
-24.70781358920727
 11
84
 21
-70
  0
LINE
  5
B6
100
AcDbEntity
  8
york_spline_bar
  6
ByLayer
 62
  256
370
   -1
100
AcDbLine
 10
85
 20
-22.63561016778803
 11
85
 21
-70
  0
LINE
  5
B7
100
AcDbEntity
  8
york_spline_bar
  6
ByLayer
 62
  256
370
   -1
100
AcDbLine
 10
85.99999999999999
 20
-20.46078768655752
 11
86
 21
-70
  0
LINE
  5
B8
100
AcDbEntity
  8
york_spline_bar
  6
ByLayer
 62
  256
370
   -1
100
AcDbLine
 10
87
 20
-18.25964066810007
 11
87
 21
-70
  0
LINE
  5
B9
100
AcDbEntity
  8
york_spline_bar
  6
ByLayer
 62
  256
370
   -1
100
AcDbLine
 10
88
 20
-15.88428748858736
 11
88
 21
-70
  0
LINE
  5
BA
100
AcDbEntity
  8
york_spline_bar
  6
ByLayer
 62
  256
370
   -1
100
AcDbLine
 10
89
 20
-13.22099572254449
 11
89
 21
-70
  0
LINE
  5
BB
100
AcDbEntity
  8
york_spline_bar
  6
ByLayer
 62
  256
370
   -1
100
AcDbLine
 10
90
 20
-10.79826217283918
 11
90
 21
-70
  0
LINE
  5
BC
100
AcDbEntity
  8
york_spline_bar
  6
ByLayer
 62
  256
370
   -1
100
AcDbLine
 10
92.00000000000001
 20
-3.945172321191634
 11
92
 21
-70
  0
LINE
  5
BD
100
AcDbEntity
  8
york_spline_bar
  6
ByLayer
 62
  256
370
   -1
100
AcDbLine
 10
93.99999999999999
 20
0.499623896077442
 11
94
 21
-70
  0
LINE
  5
BE
100
AcDbEntity
  8
york_spline_bar
  6
ByLayer
 62
  256
370
   -1
100
AcDbLine
 10
95
 20
2.361533417160619
 11
95
 21
-70
  0
LINE
  5
BF
100
AcDbEntity
  8
york_spline_bar
  6
ByLayer
 62
  256
370
   -1
100
AcDbLine
 10
93
 20
-1.619886289031406
 11
93
 21
-70
  0
LINE
  5
C0
100
AcDbEntity
  8
york_spline_bar
  6
ByLayer
 62
  256
370
   -1
100
AcDbLine
 10
96
 20
3.528214025554878
 11
96
 21
-70
  0
LINE
  5
C1
100
AcDbEntity
  8
york_spline_bar
  6
ByLayer
 62
  256
370
   -1
100
AcDbLine
 10
91
 20
-7.201593443355575
 11
91
 21
-70
  0
LINE
  5
C2
100
AcDbEntity
  8
york_spline_bar
  6
ByLayer
 62
  256
370
   -1
100
AcDbLine
 10
97.99999999999999
 20
4.011886158197281
 11
98
 21
-70
  0
LINE
  5
C3
100
AcDbEntity
  8
york_spline_bar
  6
ByLayer
 62
  256
370
   -1
100
AcDbLine
 10
99
 20
3.729548335927671
 11
99
 21
-70
  0
LINE
  5
C4
100
AcDbEntity
  8
york_spline_bar
  6
ByLayer
 62
  256
370
   -1
100
AcDbLine
 10
97
 20
3.981314560307112
 11
97
 21
-70
  0
LINE
  5
C5
100
AcDbEntity
  8
york_spline_bar
  6
ByLayer
 62
  256
370
   -1
100
AcDbLine
 10
101
 20
2.418059872439715
 11
101
 21
-70
  0
LINE
  5
C6
100
AcDbEntity
  8
york_spline_bar
  6
ByLayer
 62
  256
370
   -1
100
AcDbLine
 10
100
 20
3.192799436704353
 11
100
 21
-70
  0
LINE
  5
C7
100
AcDbEntity
  8
york_spline_bar
  6
ByLayer
 62
  256
370
   -1
100
AcDbLine
 10
106
 20
-2.444716145456877
 11
106
 21
-70
  0
LINE
  5
C8
100
AcDbEntity
  8
york_spline_bar
  6
ByLayer
 62
  256
370
   -1
100
AcDbLine
 10
102
 20
1.50041366290374
 11
102
 21
-70
  0
LINE
  5
C9
100
AcDbEntity
  8
york_spline_bar
  6
ByLayer
 62
  256
370
   -1
100
AcDbLine
 10
103
 20
0.4742672456580164
 11
103
 21
-70
  0
LINE
  5
CA
100
AcDbEntity
  8
york_spline_bar
  6
ByLayer
 62
  256
370
   -1
100
AcDbLine
 10
104
 20
-0.858499815163859
 11
104
 21
-70
  0
LINE
  5
CB
100
AcDbEntity
  8
york_spline_bar
  6
ByLayer
 62
  256
370
   -1
100
AcDbLine
 10
105
 20
-1.801410647798555
 11
105
 21
-70
  0
LINE
  5
CC
100
AcDbEntity
  8
york_spline_bar
  6
ByLayer
 62
  256
370
   -1
100
AcDbLine
 10
107
 20
-3.11299412923164
 11
107
 21
-70
  0
LINE
  5
CD
100
AcDbEntity
  8
york_spline_bar
  6
ByLayer
 62
  256
370
   -1
100
AcDbLine
 10
109
 20
-5.231780452347052
 11
109
 21
-70
  0
LINE
  5
CE
100
AcDbEntity
  8
york_spline_bar
  6
ByLayer
 62
  256
370
   -1
100
AcDbLine
 10
108
 20
-3.967399582733759
 11
108
 21
-70
  0
LINE
  5
CF
100
AcDbEntity
  8
york_spline_bar
  6
ByLayer
 62
  256
370
   -1
100
AcDbLine
 10
110
 20
-5.687135149456366
 11
110
 21
-70
  0
LINE
  5
D0
100
AcDbEntity
  8
york_spline_bar
  6
ByLayer
 62
  256
370
   -1
100
AcDbLine
 10
111
 20
-5.86343032808361
 11
111
 21
-70
  0
LINE
  5
D1
100
AcDbEntity
  8
york_spline_bar
  6
ByLayer
 62
  256
370
   -1
100
AcDbLine
 10
113
 20
-5.951566155650056
 11
113
 21
-70
  0
LINE
  5
D2
100
AcDbEntity
  8
york_spline_bar
  6
ByLayer
 62
  256
370
   -1
100
AcDbLine
 10
114
 20
-6.09931678876691
 11
114
 21
-70
  0
LINE
  5
D3
100
AcDbEntity
  8
york_spline_bar
  6
ByLayer
 62
  256
370
   -1
100
AcDbLine
 10
117
 20
-5.990946234457485
 11
117
 21
-70
  0
LINE
  5
D4
100
AcDbEntity
  8
york_spline_bar
  6
ByLayer
 62
  256
370
   -1
100
AcDbLine
 10
118
 20
-5.790365192999687
 11
118
 21
-70
  0
LINE
  5
D5
100
AcDbEntity
  8
york_spline_bar
  6
ByLayer
 62
  256
370
   -1
100
AcDbLine
 10
112
 20
-5.881913528543274
 11
112
 21
-70
  0
LINE
  5
D6
100
AcDbEntity
  8
york_spline_bar
  6
ByLayer
 62
  256
370
   -1
100
AcDbLine
 10
115
 20
-6.197794941021384
 11
115
 21
-70
  0
LINE
  5
D7
100
AcDbEntity
  8
york_spline_bar
  6
ByLayer
 62
  256
370
   -1
100
AcDbLine
 10
116
 20
-6.155221946243234
 11
116
 21
-70
  0
LINE
  5
D8
100
AcDbEntity
  8
york_spline_bar
  6
ByLayer
 62
  256
370
   -1
100
AcDbLine
 10
119
 20
-5.573224748696784
 11
119
 21
-70
  0
LINE
  5
D9
100
AcDbEntity
  8
york_spline_bar
  6
ByLayer
 62
  256
370
   -1
100
AcDbLine
 10
120
 20
-5.330550679228484
 11
120
 21
-70
  0
LINE
  5
DA
100
AcDbEntity
  8
york_spline_bar
  6
ByLayer
 62
  256
370
   -1
100
AcDbLine
 10
122
 20
-4.649188681414482
 11
122
 21
-70
  0
LINE
  5
DB
100
AcDbEntity
  8
york_spline_bar
  6
ByLayer
 62
  256
370
   -1
100
AcDbLine
 10
121
 20
-5.026533601746755
 11
121
 21
-70
  0
LINE
  5
DC
100
AcDbEntity
  8
york_spline_bar
  6
ByLayer
 62
  256
370
   -1
100
AcDbLine
 10
124
 20
-3.606499094562158
 11
124
 21
-70
  0
LINE
  5
DD
100
AcDbEntity
  8
york_spline_bar
  6
ByLayer
 62
  256
370
   -1
100
AcDbLine
 10
123
 20
-4.185214178654063
 11
123
 21
-70
  0
LINE
  5
DE
100
AcDbEntity
  8
york_spline_bar
  6
ByLayer
 62
  256
370
   -1
100
AcDbLine
 10
125
 20
-3.007401805480441
 11
125
 21
-70
  0
LINE
  5
DF
100
AcDbEntity
  8
york_spline_bar
  6
ByLayer
 62
  256
370
   -1
100
AcDbLine
 10
126
 20
-2.600751757336935
 11
126
 21
-70
  0
LINE
  5
E0
100
AcDbEntity
  8
york_spline_bar
  6
ByLayer
 62
  256
370
   -1
100
AcDbLine
 10
127
 20
-2.253413632940071
 11
127
 21
-70
  0
LINE
  5
E1
100
AcDbEntity
  8
york_spline_bar
  6
ByLayer
 62
  256
370
   -1
100
AcDbLine
 10
128
 20
-1.700567016666674
 11
128
 21
-70
  0
LINE
  5
E2
100
AcDbEntity
  8
york_spline_bar
  6
ByLayer
 62
  256
370
   -1
100
AcDbLine
 10
129
 20
-1.03646958849849
 11
129
 21
-70
  0
LINE
  5
E3
100
AcDbEntity
  8
york_spline_bar
  6
ByLayer
 62
  256
370
   -1
100
AcDbLine
 10
130
 20
-0.5834597366902812
 11
130
 21
-70
  0
LINE
  5
E4
100
AcDbEntity
  8
york_spline_bar
  6
ByLayer
 62
  256
370
   -1
100
AcDbLine
 10
132
 20
-0.03114975378299893
 11
132
 21
-70
  0
LINE
  5
E5
100
AcDbEntity
  8
york_spline_bar
  6
ByLayer
 62
  256
370
   -1
100
AcDbLine
 10
134
 20
0.3242721691635518
 11
134
 21
-70
  0
LINE
  5
E6
100
AcDbEntity
  8
york_spline_bar
  6
ByLayer
 62
  256
370
   -1
100
AcDbLine
 10
131
 20
-0.2830978639732861
 11
131
 21
-70
  0
LINE
  5
E7
100
AcDbEntity
  8
york_spline_bar
  6
ByLayer
 62
  256
370
   -1
100
AcDbLine
 10
135
 20
0.3417706468390485
 11
135
 21
-70
  0
LINE
  5
E8
100
AcDbEntity
  8
york_spline_bar
  6
ByLayer
 62
  256
370
   -1
100
AcDbLine
 10
133
 20
0.1842054037146825
 11
133
 21
-70
  0
LINE
  5
E9
100
AcDbEntity
  8
york_spline_bar
  6
ByLayer
 62
  256
370
   -1
100
AcDbLine
 10
137
 20
0.195670250144416
 11
137
 21
-70
  0
LINE
  5
EA
100
AcDbEntity
  8
york_spline_bar
  6
ByLayer
 62
  256
370
   -1
100
AcDbLine
 10
136
 20
0.2680482423223569
 11
136
 21
-70
  0
LINE
  5
EB
100
AcDbEntity
  8
york_spline_bar
  6
ByLayer
 62
  256
370
   -1
100
AcDbLine
 10
138
 20
0.1695577796367222
 11
138
 21
-70
  0
LINE
  5
EC
100
AcDbEntity
  8
york_spline_bar
  6
ByLayer
 62
  256
370
   -1
100
AcDbLine
 10
139
 20
0.2084572833486721
 11
139
 21
-70
  0
LINE
  5
ED
100
AcDbEntity
  8
york_spline_bar
  6
ByLayer
 62
  256
370
   -1
100
AcDbLine
 10
140
 20
0.1964810120319058
 11
140
 21
-70
  0
LINE
  5
EE
100
AcDbEntity
  8
york_spline_bar
  6
ByLayer
 62
  256
370
   -1
100
AcDbLine
 10
141
 20
0.09990617140706366
 11
141
 21
-70
  0
LINE
  5
EF
100
AcDbEntity
  8
york_spline_bar
  6
ByLayer
 62
  256
370
   -1
100
AcDbLine
 10
142
 20
-0.0374022717473436
 11
142
 21
-70
  0
LINE
  5
F0
100
AcDbEntity
  8
york_spline_bar
  6
ByLayer
 62
  256
370
   -1
100
AcDbLine
 10
144
 20
0.427924132797476
 11
144
 21
-70
  0
LINE
  5
F1
100
AcDbEntity
  8
york_spline_bar
  6
ByLayer
 62
  256
370
   -1
100
AcDbLine
 10
143
 20
0.01726969466922967
 11
143
 21
-70
  0
LINE
  5
F2
100
AcDbEntity
  8
york_spline_bar
  6
ByLayer
 62
  256
370
   -1
100
AcDbLine
 10
146
 20
2.658147605248817
 11
146
 21
-70
  0
LINE
  5
F3
100
AcDbEntity
  8
york_spline_bar
  6
ByLayer
 62
  256
370
   -1
100
AcDbLine
 10
145
 20
1.335632247051093
 11
145
 21
-70
  0
LINE
  5
F4
100
AcDbEntity
  8
york_spline_bar
  6
ByLayer
 62
  256
370
   -1
100
AcDbLine
 10
147
 20
4.556883975018724
 11
147
 21
-70
  0
LINE
  5
F5
100
AcDbEntity
  8
york_spline_bar
  6
ByLayer
 62
  256
370
   -1
100
AcDbLine
 10
148
 20
6.514535120381975
 11
148
 21
-70
  0
LINE
  5
F6
100
AcDbEntity
  8
york_spline_bar
  6
ByLayer
 62
  256
370
   -1
100
AcDbLine
 10
149
 20
8.292280425525597
 11
149
 21
-70
  0
LINE
  5
F7
100
AcDbEntity
  8
york_spline_bar
  6
ByLayer
 62
  256
370
   -1
100
AcDbLine
 10
150
 20
9.759142397921917
 11
150
 21
-70
  0
LINE
  5
F8
100
AcDbEntity
  8
york_spline_bar
  6
ByLayer
 62
  256
370
   -1
100
AcDbLine
 10
151
 20
10.87368117100823
 11
151
 21
-70
  0
LINE
  5
F9
100
AcDbEntity
  8
york_spline_bar
  6
ByLayer
 62
  256
370
   -1
100
AcDbLine
 10
152
 20
11.67637446193545
 11
152
 21
-70
  0
LINE
  5
FA
100
AcDbEntity
  8
york_spline_bar
  6
ByLayer
 62
  256
370
   -1
100
AcDbLine
 10
153
 20
12.10056439211709
 11
153
 21
-70
  0
LINE
  5
FB
100
AcDbEntity
  8
york_spline_bar
  6
ByLayer
 62
  256
370
   -1
100
AcDbLine
 10
154
 20
11.75899433729823
 11
154
 21
-70
  0
LINE
  5
FC
100
AcDbEntity
  8
york_spline_bar
  6
ByLayer
 62
  256
370
   -1
100
AcDbLine
 10
155
 20
10.92029551614244
 11
155
 21
-70
  0
LINE
  5
FD
100
AcDbEntity
  8
york_spline_bar
  6
ByLayer
 62
  256
370
   -1
100
AcDbLine
 10
156
 20
10.05020313700132
 11
156
 21
-70
  0
LINE
  5
FE
100
AcDbEntity
  8
york_spline_bar
  6
ByLayer
 62
  256
370
   -1
100
AcDbLine
 10
157
 20
9.174935337983328
 11
157
 21
-70
  0
LINE
  5
FF
100
AcDbEntity
  8
york_spline_bar
  6
ByLayer
 62
  256
370
   -1
100
AcDbLine
 10
158
 20
8.160431765184864
 11
158
 21
-70
  0
LINE
  5
100
100
AcDbEntity
  8
york_spline_bar
  6
ByLayer
 62
  256
370
   -1
100
AcDbLine
 10
159
 20
6.955539352303952
 11
159
 21
-70
  0
LINE
  5
101
100
AcDbEntity
  8
york_spline_bar
  6
ByLayer
 62
  256
370
   -1
100
AcDbLine
 10
160
 20
5.769485748818616
 11
160
 21
-70
  0
LINE
  5
102
100
AcDbEntity
  8
york_spline_bar
  6
ByLayer
 62
  256
370
   -1
100
AcDbLine
 10
161
 20
4.65655175710868
 11
161
 21
-70
  0
LINE
  5
103
100
AcDbEntity
  8
york_spline_bar
  6
ByLayer
 62
  256
370
   -1
100
AcDbLine
 10
162
 20
3.64497649463248
 11
162
 21
-70
  0
LINE
  5
104
100
AcDbEntity
  8
york_spline_bar
  6
ByLayer
 62
  256
370
   -1
100
AcDbLine
 10
166
 20
0.8666765652828204
 11
166
 21
-70
  0
LINE
  5
105
100
AcDbEntity
  8
york_spline_bar
  6
ByLayer
 62
  256
370
   -1
100
AcDbLine
 10
165
 20
1.338186678915871
 11
165
 21
-70
  0
LINE
  5
106
100
AcDbEntity
  8
york_spline_bar
  6
ByLayer
 62
  256
370
   -1
100
AcDbLine
 10
164
 20
1.951614353778941
 11
164
 21
-70
  0
LINE
  5
107
100
AcDbEntity
  8
york_spline_bar
  6
ByLayer
 62
  256
370
   -1
100
AcDbLine
 10
163
 20
2.729677463056685
 11
163
 21
-70
  0
LINE
  5
108
100
AcDbEntity
  8
york_spline_bar
  6
ByLayer
 62
  256
370
   -1
100
AcDbLine
 10
170
 20
-0.1940591891552714
 11
170
 21
-70
  0
LINE
  5
109
100
AcDbEntity
  8
york_spline_bar
  6
ByLayer
 62
  256
370
   -1
100
AcDbLine
 10
167
 20
0.4796888946482224
 11
167
 21
-70
  0
LINE
  5
10A
100
AcDbEntity
  8
york_spline_bar
  6
ByLayer
 62
  256
370
   -1
100
AcDbLine
 10
168
 20
0.1723904374545413
 11
168
 21
-70
  0
LINE
  5
10B
100
AcDbEntity
  8
york_spline_bar
  6
ByLayer
 62
  256
370
   -1
100
AcDbLine
 10
169
 20
-0.04774776580004438
 11
169
 21
-70
  0
LINE
  5
10C
100
AcDbEntity
  8
york_spline_bar
  6
ByLayer
 62
  256
370
   -1
100
AcDbLine
 10
173
 20
-0.9755615392423215
 11
173
 21
-70
  0
LINE
  5
10D
100
AcDbEntity
  8
york_spline_bar
  6
ByLayer
 62
  256
370
   -1
100
AcDbLine
 10
171
 20
-0.2925535543315848
 11
171
 21
-70
  0
LINE
  5
10E
100
AcDbEntity
  8
york_spline_bar
  6
ByLayer
 62
  256
370
   -1
100
AcDbLine
 10
172
 20
-0.528037615682203
 11
172
 21
-70
  0
LINE
  5
10F
100
AcDbEntity
  8
york_spline_bar
  6
ByLayer
 62
  256
370
   -1
100
AcDbLine
 10
178
 20
-5.152182895027462
 11
178
 21
-70
  0
LINE
  5
110
100
AcDbEntity
  8
york_spline_bar
  6
ByLayer
 62
  256
370
   -1
100
AcDbLine
 10
174
 20
-1.64490050111764
 11
174
 21
-70
  0
LINE
  5
111
100
AcDbEntity
  8
york_spline_bar
  6
ByLayer
 62
  256
370
   -1
100
AcDbLine
 10
174.9999999999999
 20
-2.434151095885693
 11
175
 21
-70
  0
LINE
  5
112
100
AcDbEntity
  8
york_spline_bar
  6
ByLayer
 62
  256
370
   -1
100
AcDbLine
 10
177
 20
-4.195591812761631
 11
177
 21
-70
  0
LINE
  5
113
100
AcDbEntity
  8
york_spline_bar
  6
ByLayer
 62
  256
370
   -1
100
AcDbLine
 10
176
 20
-3.281305675221958
 11
176
 21
-70
  0
LINE
  5
114
100
AcDbEntity
  8
york_spline_bar
  6
ByLayer
 62
  256
370
   -1
100
AcDbLine
 10
182
 20
-10.07342763001908
 11
182
 21
-70
  0
LINE
  5
115
100
AcDbEntity
  8
york_spline_bar
  6
ByLayer
 62
  256
370
   -1
100
AcDbLine
 10
181
 20
-9.014078238529883
 11
181
 21
-70
  0
LINE
  5
116
100
AcDbEntity
  8
york_spline_bar
  6
ByLayer
 62
  256
370
   -1
100
AcDbLine
 10
180
 20
-7.373819026589453
 11
180
 21
-70
  0
LINE
  5
117
100
AcDbEntity
  8
york_spline_bar
  6
ByLayer
 62
  256
370
   -1
100
AcDbLine
 10
179
 20
-6.151577403197554
 11
179
 21
-70
  0
LINE
  5
118
100
AcDbEntity
  8
york_spline_bar
  6
ByLayer
 62
  256
370
   -1
100
AcDbLine
 10
183
 20
-10.72250040540582
 11
183
 21
-70
  0
LINE
  5
119
100
AcDbEntity
  8
york_spline_bar
  6
ByLayer
 62
  256
370
   -1
100
AcDbLine
 10
184
 20
-11.06276534797639
 11
184
 21
-70
  0
LINE
  5
11A
100
AcDbEntity
  8
york_spline_bar
  6
ByLayer
 62
  256
370
   -1
100
AcDbLine
 10
185
 20
-11.15545039186447
 11
185
 21
-70
  0
LINE
  5
11B
100
AcDbEntity
  8
york_spline_bar
  6
ByLayer
 62
  256
370
   -1
100
AcDbLine
 10
186
 20
-10.87587501976236
 11
186
 21
-70
  0
LINE
  5
11C
100
AcDbEntity
  8
york_spline_bar
  6
ByLayer
 62
  256
370
   -1
100
AcDbLine
 10
189
 20
-7.321967676156898
 11
189
 21
-70
  0
LINE
  5
11D
100
AcDbEntity
  8
york_spline_bar
  6
ByLayer
 62
  256
370
   -1
100
AcDbLine
 10
188
 20
-8.980101692720936
 11
188
 21
-70
  0
LINE
  5
11E
100
AcDbEntity
  8
york_spline_bar
  6
ByLayer
 62
  256
370
   -1
100
AcDbLine
 10
187
 20
-10.12372912580328
 11
187
 21
-70
  0
LINE
  5
11F
100
AcDbEntity
  8
york_spline_bar
  6
ByLayer
 62
  256
370
   -1
100
AcDbLine
 10
192
 20
-1.634596999756958
 11
192
 21
-70
  0
LINE
  5
120
100
AcDbEntity
  8
york_spline_bar
  6
ByLayer
 62
  256
370
   -1
100
AcDbLine
 10
191
 20
-3.268619913764952
 11
191
 21
-70
  0
LINE
  5
121
100
AcDbEntity
  8
york_spline_bar
  6
ByLayer
 62
  256
370
   -1
100
AcDbLine
 10
190
 20
-5.248695325857513
 11
190
 21
-70
  0
LINE
  5
122
100
AcDbEntity
  8
york_spline_bar
  6
ByLayer
 62
  256
370
   -1
100
AcDbLine
 10
194
 20
0.1466601585047533
 11
194
 21
-70
  0
LINE
  5
123
100
AcDbEntity
  8
york_spline_bar
  6
ByLayer
 62
  256
370
   -1
100
AcDbLine
 10
196
 20
0.2164875868773195
 11
196
 21
-70
  0
LINE
  5
124
100
AcDbEntity
  8
york_spline_bar
  6
ByLayer
 62
  256
370
   -1
100
AcDbLine
 10
197
 20
0.1245496782413422
 11
197
 21
-70
  0
LINE
  5
125
100
AcDbEntity
  8
york_spline_bar
  6
ByLayer
 62
  256
370
   -1
100
AcDbLine
 10
195
 20
0.2573312127938329
 11
195
 21
-70
  0
LINE
  5
126
100
AcDbEntity
  8
york_spline_bar
  6
ByLayer
 62
  256
370
   -1
100
AcDbLine
 10
192.9999999999999
 20
-0.393623168458882
 11
193
 21
-70
  0
LINE
  5
127
100
AcDbEntity
  8
york_spline_bar
  6
ByLayer
 62
  256
370
   -1
100
AcDbLine
 10
198
 20
0.09277408210156546
 11
198
 21
-70
  0
LINE
  5
128
100
AcDbEntity
  8
york_spline_bar
  6
ByLayer
 62
  256
370
   -1
100
AcDbLine
 10
199
 20
0.1151189726682842
 11
199
 21
-70
  0
LINE
  5
129
100
AcDbEntity
  8
york_spline_bar
  6
ByLayer
 62
  256
370
   -1
100
AcDbLine
 10
200
 20
0.1475850417146797
 11
200
 21
-70
  0
LINE
  5
12A
100
AcDbEntity
  8
york_spline_bar
  6
ByLayer
 62
  256
370
   -1
100
AcDbLine
 10
200.9999999999999
 20
0.1518772062912625
 11
201
 21
-70
  0
LINE
  5
12B
100
AcDbEntity
  8
york_spline_bar
  6
ByLayer
 62
  256
370
   -1
100
AcDbLine
 10
202
 20
0.1402234215335554
 11
202
 21
-70
  0
LINE
  5
12C
100
AcDbEntity
  8
york_spline_bar
  6
ByLayer
 62
  256
370
   -1
100
AcDbLine
 10
203
 20
0.1180328447685322
 11
203
 21
-70
  0
LINE
  5
12D
100
AcDbEntity
  8
york_spline_bar
  6
ByLayer
 62
  256
370
   -1
100
AcDbLine
 10
204
 20
0.08826542723414327
 11
204
 21
-70
  0
LINE
  5
12E
100
AcDbEntity
  8
york_spline_bar
  6
ByLayer
 62
  256
370
   -1
100
AcDbLine
 10
211
 20
0.03430149516116221
 11
211
 21
-70
  0
LINE
  5
12F
100
AcDbEntity
  8
york_spline_bar
  6
ByLayer
 62
  256
370
   -1
100
AcDbLine
 10
205
 20
0.06767333405551836
 11
205
 21
-70
  0
LINE
  5
130
100
AcDbEntity
  8
york_spline_bar
  6
ByLayer
 62
  256
370
   -1
100
AcDbLine
 10
207
 20
0.04834494148244746
 11
207
 21
-70
  0
LINE
  5
131
100
AcDbEntity
  8
york_spline_bar
  6
ByLayer
 62
  256
370
   -1
100
AcDbLine
 10
206
 20
0.056090964267861
 11
206
 21
-70
  0
LINE
  5
132
100
AcDbEntity
  8
york_spline_bar
  6
ByLayer
 62
  256
370
   -1
100
AcDbLine
 10
217
 20
0.03471007810520714
 11
217
 21
-70
  0
LINE
  5
133
100
AcDbEntity
  8
york_spline_bar
  6
ByLayer
 62
  256
370
   -1
100
AcDbLine
 10
208.0000000000001
 20
0.04287444581506798
 11
208
 21
-70
  0
LINE
  5
134
100
AcDbEntity
  8
york_spline_bar
  6
ByLayer
 62
  256
370
   -1
100
AcDbLine
 10
209
 20
0.03895584283855084
 11
209
 21
-70
  0
LINE
  5
135
100
AcDbEntity
  8
york_spline_bar
  6
ByLayer
 62
  256
370
   -1
100
AcDbLine
 10
210
 20
0.03618314182036629
 11
210
 21
-70
  0
LINE
  5
136
100
AcDbEntity
  8
york_spline_bar
  6
ByLayer
 62
  256
370
   -1
100
AcDbLine
 10
212
 20
0.03313849185105846
 11
212
 21
-70
  0
LINE
  5
137
100
AcDbEntity
  8
york_spline_bar
  6
ByLayer
 62
  256
370
   -1
100
AcDbLine
 10
213
 20
0.03257104834636602
 11
213
 21
-70
  0
LINE
  5
138
100
AcDbEntity
  8
york_spline_bar
  6
ByLayer
 62
  256
370
   -1
100
AcDbLine
 10
214
 20
0.03250765643106338
 11
214
 21
-70
  0
LINE
  5
139
100
AcDbEntity
  8
york_spline_bar
  6
ByLayer
 62
  256
370
   -1
100
AcDbLine
 10
215
 20
0.03287808725152913
 11
215
 21
-70
  0
LINE
  5
13A
100
AcDbEntity
  8
york_spline_bar
  6
ByLayer
 62
  256
370
   -1
100
AcDbLine
 10
216
 20
0.03362704751558983
 11
216
 21
-70
  0
LINE
  5
13B
100
AcDbEntity
  8
york_spline_bar
  6
ByLayer
 62
  256
370
   -1
100
AcDbLine
 10
221
 20
0.04173981246804931
 11
221
 21
-70
  0
LINE
  5
13C
100
AcDbEntity
  8
york_spline_bar
  6
ByLayer
 62
  256
370
   -1
100
AcDbLine
 10
220
 20
0.03962919811023477
 11
220
 21
-70
  0
LINE
  5
13D
100
AcDbEntity
  8
york_spline_bar
  6
ByLayer
 62
  256
370
   -1
100
AcDbLine
 10
219
 20
0.03773897970942394
 11
219
 21
-70
  0
LINE
  5
13E
100
AcDbEntity
  8
york_spline_bar
  6
ByLayer
 62
  256
370
   -1
100
AcDbLine
 10
218
 20
0.03609079627715932
 11
218
 21
-70
  0
LINE
  5
13F
100
AcDbEntity
  8
york_spline_bar
  6
ByLayer
 62
  256
370
   -1
100
AcDbLine
 10
222
 20
0.04405222797667648
 11
222
 21
-70
  0
LINE
  5
140
100
AcDbEntity
  8
york_spline_bar
  6
ByLayer
 62
  256
370
   -1
100
AcDbLine
 10
223
 20
0.04655032620791744
 11
223
 21
-70
  0
LINE
  5
141
100
AcDbEntity
  8
york_spline_bar
  6
ByLayer
 62
  256
370
   -1
100
AcDbLine
 10
224
 20
0.04922002661212358
 11
224
 21
-70
  0
LINE
  5
142
100
AcDbEntity
  8
york_spline_bar
  6
ByLayer
 62
  256
370
   -1
100
AcDbLine
 10
227
 20
0.05814177110165909
 11
227
 21
-70
  0
LINE
  5
143
100
AcDbEntity
  8
york_spline_bar
  6
ByLayer
 62
  256
370
   -1
100
AcDbLine
 10
225
 20
0.05204894306981484
 11
225
 21
-70
  0
LINE
  5
144
100
AcDbEntity
  8
york_spline_bar
  6
ByLayer
 62
  256
370
   -1
100
AcDbLine
 10
226
 20
0.05502611146304143
 11
226
 21
-70
  0
LINE
  5
145
100
AcDbEntity
  8
york_spline_bar
  6
ByLayer
 62
  256
370
   -1
100
AcDbLine
 10
230
 20
0.06823663958257781
 11
230
 21
-70
  0
LINE
  5
146
100
AcDbEntity
  8
york_spline_bar
  6
ByLayer
 62
  256
370
   -1
100
AcDbLine
 10
229
 20
0.06475450757093733
 11
229
 21
-70
  0
LINE
  5
147
100
AcDbEntity
  8
york_spline_bar
  6
ByLayer
 62
  256
370
   -1
100
AcDbLine
 10
228
 20
0.06138718753721346
 11
228
 21
-70
  0
LINE
  5
148
100
AcDbEntity
  8
york_spline_bar
  6
ByLayer
 62
  256
370
   -1
100
AcDbLine
 10
234
 20
0.08309183824740209
 11
234
 21
-70
  0
LINE
  5
149
100
AcDbEntity
  8
york_spline_bar
  6
ByLayer
 62
  256
370
   -1
100
AcDbLine
 10
232
 20
0.07552019975977038
 11
232
 21
-70
  0
LINE
  5
14A
100
AcDbEntity
  8
york_spline_bar
  6
ByLayer
 62
  256
370
   -1
100
AcDbLine
 10
231
 20
0.07182715397647282
 11
231
 21
-70
  0
LINE
  5
14B
100
AcDbEntity
  8
york_spline_bar
  6
ByLayer
 62
  256
370
   -1
100
AcDbLine
 10
233
 20
0.07930174426849786
 11
233
 21
-70
  0
LINE
  5
14C
100
AcDbEntity
  8
york_spline_bar
  6
ByLayer
 62
  256
370
   -1
100
AcDbLine
 10
236
 20
0.09064097345874061
 11
236
 21
-70
  0
LINE
  5
14D
100
AcDbEntity
  8
york_spline_bar
  6
ByLayer
 62
  256
370
   -1
100
AcDbLine
 10
235
 20
0.08687178834102278
 11
235
 21
-70
  0
LINE
  5
14E
100
AcDbEntity
  8
york_spline_bar
  6
ByLayer
 62
  256
370
   -1
100
AcDbLine
 10
237
 20
0.09439870641747142
 11
237
 21
-70
  0
LINE
  5
14F
100
AcDbEntity
  8
york_spline_bar
  6
ByLayer
 62
  256
370
   -1
100
AcDbLine
 10
237.9999999999999
 20
0.09814422365498765
 11
238
 21
-70
  0
LINE
  5
150
100
AcDbEntity
  8
york_spline_bar
  6
ByLayer
 62
  256
370
   -1
100
AcDbLine
 10
239
 20
0.1018766727884032
 11
239
 21
-70
  0
LINE
  5
151
100
AcDbEntity
  8
york_spline_bar
  6
ByLayer
 62
  256
370
   -1
100
AcDbLine
 10
240
 20
0.1055950974390012
 11
240
 21
-70
  0
LINE
  5
152
100
AcDbEntity
  8
york_spline_bar
  6
ByLayer
 62
  256
370
   -1
100
AcDbLine
 10
241
 20
0.1092984185513638
 11
241
 21
-70
  0
LINE
  5
153
100
AcDbEntity
  8
york_spline_bar
  6
ByLayer
 62
  256
370
   -1
100
AcDbLine
 10
242
 20
0.1129854111630028
 11
242
 21
-70
  0
LINE
  5
154
100
AcDbEntity
  8
york_spline_bar
  6
ByLayer
 62
  256
370
   -1
100
AcDbLine
 10
243
 20
0.1166546751922444
 11
243
 21
-70
  0
LINE
  5
155
100
AcDbEntity
  8
york_spline_bar
  6
ByLayer
 62
  256
370
   -1
100
AcDbLine
 10
244
 20
0.120304598246619
 11
244
 21
-70
  0
LINE
  5
156
100
AcDbEntity
  8
york_spline_bar
  6
ByLayer
 62
  256
370
   -1
100
AcDbLine
 10
249
 20
0.138185249747467
 11
249
 21
-70
  0
LINE
  5
157
100
AcDbEntity
  8
york_spline_bar
  6
ByLayer
 62
  256
370
   -1
100
AcDbLine
 10
246
 20
0.1275386073237413
 11
246
 21
-70
  0
LINE
  5
158
100
AcDbEntity
  8
york_spline_bar
  6
ByLayer
 62
  256
370
   -1
100
AcDbLine
 10
248
 20
0.1346680434494543
 11
248
 21
-70
  0
LINE
  5
159
100
AcDbEntity
  8
york_spline_bar
  6
ByLayer
 62
  256
370
   -1
100
AcDbLine
 10
244.9999999999999
 20
0.123933307614101
 11
245
 21
-70
  0
LINE
  5
15A
100
AcDbEntity
  8
york_spline_bar
  6
ByLayer
 62
  256
370
   -1
100
AcDbLine
 10
247
 20
0.1311178941749239
 11
247
 21
-70
  0
LINE
  5
15B
100
AcDbEntity
  8
york_spline_bar
  6
ByLayer
 62
  256
370
   -1
100
AcDbLine
 10
253
 20
0.1518083019552361
 11
253
 21
-70
  0
LINE
  5
15C
100
AcDbEntity
  8
york_spline_bar
  6
ByLayer
 62
  256
370
   -1
100
AcDbLine
 10
255
 20
0.1582055780574328
 11
255
 21
-70
  0
LINE
  5
15D
100
AcDbEntity
  8
york_spline_bar
  6
ByLayer
 62
  256
370
   -1
100
AcDbLine
 10
251
 20
0.1451007340351036
 11
251
 21
-70
  0
LINE
  5
15E
100
AcDbEntity
  8
york_spline_bar
  6
ByLayer
 62
  256
370
   -1
100
AcDbLine
 10
250
 20
0.1416647993246754
 11
250
 21
-70
  0
LINE
  5
15F
100
AcDbEntity
  8
york_spline_bar
  6
ByLayer
 62
  256
370
   -1
100
AcDbLine
 10
254
 20
0.1550553357516199
 11
254
 21
-70
  0
LINE
  5
160
100
AcDbEntity
  8
york_spline_bar
  6
ByLayer
 62
  256
370
   -1
100
AcDbLine
 10
252
 20
0.1484853362163178
 11
252
 21
-70
  0
LINE
  5
161
100
AcDbEntity
  8
york_spline_bar
  6
ByLayer
 62
  256
370
   -1
100
AcDbLine
 10
259
 20
0.1684909064475993
 11
259
 21
-70
  0
LINE
  5
162
100
AcDbEntity
  8
york_spline_bar
  6
ByLayer
 62
  256
370
   -1
100
AcDbLine
 10
258
 20
0.1665944834903411
 11
258
 21
-70
  0
LINE
  5
163
100
AcDbEntity
  8
york_spline_bar
  6
ByLayer
 62
  256
370
   -1
100
AcDbLine
 10
256
 20
0.161226403790605
 11
256
 21
-70
  0
LINE
  5
164
100
AcDbEntity
  8
york_spline_bar
  6
ByLayer
 62
  256
370
   -1
100
AcDbLine
 10
257
 20
0.1640612984354041
 11
257
 21
-70
  0
LINE
  5
165
100
AcDbEntity
  8
york_spline_bar
  6
ByLayer
 62
  256
370
   -1
100
AcDbLine
 10
260
 20
0.1676393243838655
 11
260
 21
-70
  0
LINE
  5
166
100
AcDbEntity
  8
york_spline_bar
  6
ByLayer
 62
  256
370
   -1
100
AcDbLine
 10
261
 20
0.1696885020964746
 11
261
 21
-70
  0
LINE
  5
167
100
AcDbEntity
  8
york_spline_bar
  6
ByLayer
 62
  256
370
   -1
100
AcDbLine
 10
262
 20
0.1845825786059304
 11
262
 21
-70
  0
LINE
  5
168
100
AcDbEntity
  8
york_spline_bar
  6
ByLayer
 62
  256
370
   -1
100
AcDbLine
 10
263
 20
0.2752029154370627
 11
263
 21
-70
  0
LINE
  5
169
100
AcDbEntity
  8
york_spline_bar
  6
ByLayer
 62
  256
370
   -1
100
AcDbLine
 10
264
 20
0.4462062318690342
 11
264
 21
-70
  0
LINE
  5
16A
100
AcDbEntity
  8
york_spline_bar
  6
ByLayer
 62
  256
370
   -1
100
AcDbLine
 10
265
 20
0.7444984685417296
 11
265
 21
-70
  0
LINE
  5
16B
100
AcDbEntity
  8
york_spline_bar
  6
ByLayer
 62
  256
370
   -1
100
AcDbLine
 10
266
 20
1.370056811993097
 11
266
 21
-70
  0
LINE
  5
16C
100
AcDbEntity
  8
york_spline_bar
  6
ByLayer
 62
  256
370
   -1
100
AcDbLine
 10
266.9999999999999
 20
2.412647094095735
 11
267
 21
-70
  0
LINE
  5
16D
100
AcDbEntity
  8
york_spline_bar
  6
ByLayer
 62
  256
370
   -1
100
AcDbLine
 10
268
 20
3.653881596858847
 11
268
 21
-70
  0
LINE
  5
16E
100
AcDbEntity
  8
york_spline_bar
  6
ByLayer
 62
  256
370
   -1
100
AcDbLine
 10
269
 20
5.176506232445611
 11
269
 21
-70
  0
LINE
  5
16F
100
AcDbEntity
  8
york_spline_bar
  6
ByLayer
 62
  256
370
   -1
100
AcDbLine
 10
270
 20
7.162441321749871
 11
270
 21
-70
  0
LINE
  5
170
100
AcDbEntity
  8
york_spline_bar
  6
ByLayer
 62
  256
370
   -1
100
AcDbLine
 10
271
 20
9.013963339246263
 11
271
 21
-70
  0
LINE
  5
171
100
AcDbEntity
  8
york_spline_bar
  6
ByLayer
 62
  256
370
   -1
100
AcDbLine
 10
272
 20
10.81711155068223
 11
272
 21
-70
  0
LINE
  5
172
100
AcDbEntity
  8
york_spline_bar
  6
ByLayer
 62
  256
370
   -1
100
AcDbLine
 10
273
 20
12.39897830770844
 11
273
 21
-70
  0
LINE
  5
173
100
AcDbEntity
  8
york_spline_bar
  6
ByLayer
 62
  256
370
   -1
100
AcDbLine
 10
274
 20
13.44091824640175
 11
274
 21
-70
  0
LINE
  5
174
100
AcDbEntity
  8
york_spline_bar
  6
ByLayer
 62
  256
370
   -1
100
AcDbLine
 10
275
 20
14.25756975892954
 11
275
 21
-70
  0
LINE
  5
175
100
AcDbEntity
  8
york_spline_bar
  6
ByLayer
 62
  256
370
   -1
100
AcDbLine
 10
276.0000000000001
 20
14.96187181387467
 11
276
 21
-70
  0
LINE
  5
176
100
AcDbEntity
  8
york_spline_bar
  6
ByLayer
 62
  256
370
   -1
100
AcDbLine
 10
277
 20
15.29994372892007
 11
277
 21
-70
  0
LINE
  5
177
100
AcDbEntity
  8
york_spline_bar
  6
ByLayer
 62
  256
370
   -1
100
AcDbLine
 10
278
 20
15.2191363176982
 11
278
 21
-70
  0
LINE
  5
178
100
AcDbEntity
  8
york_spline_bar
  6
ByLayer
 62
  256
370
   -1
100
AcDbLine
 10
279
 20
14.84198134503145
 11
279
 21
-70
  0
LINE
  5
179
100
AcDbEntity
  8
york_spline_bar
  6
ByLayer
 62
  256
370
   -1
100
AcDbLine
 10
280
 20
14.12440804308583
 11
280
 21
-70
  0
LINE
  5
17A
100
AcDbEntity
  8
york_spline_bar
  6
ByLayer
 62
  256
370
   -1
100
AcDbLine
 10
281
 20
12.97814324556947
 11
281
 21
-70
  0
LINE
  5
17B
100
AcDbEntity
  8
york_spline_bar
  6
ByLayer
 62
  256
370
   -1
100
AcDbLine
 10
282.0000000000001
 20
11.43885457182024
 11
282
 21
-70
  0
LINE
  5
17C
100
AcDbEntity
  8
york_spline_bar
  6
ByLayer
 62
  256
370
   -1
100
AcDbLine
 10
283
 20
9.919490398737562
 11
283
 21
-70
  0
LINE
  5
17D
100
AcDbEntity
  8
york_spline_bar
  6
ByLayer
 62
  256
370
   -1
100
AcDbLine
 10
284.0000000000001
 20
8.449394720883676
 11
284
 21
-70
  0
LINE
  5
17E
100
AcDbEntity
  8
york_spline_bar
  6
ByLayer
 62
  256
370
   -1
100
AcDbLine
 10
285
 20
7.02738157481954
 11
285
 21
-70
  0
LINE
  5
17F
100
AcDbEntity
  8
york_spline_bar
  6
ByLayer
 62
  256
370
   -1
100
AcDbLine
 10
286
 20
5.658006016623952
 11
286
 21
-70
  0
LINE
  5
180
100
AcDbEntity
  8
york_spline_bar
  6
ByLayer
 62
  256
370
   -1
100
AcDbLine
 10
287
 20
4.348351789128539
 11
287
 21
-70
  0
LINE
  5
181
100
AcDbEntity
  8
york_spline_bar
  6
ByLayer
 62
  256
370
   -1
100
AcDbLine
 10
288
 20
3.160338547304184
 11
288
 21
-70
  0
LINE
  5
182
100
AcDbEntity
  8
york_spline_bar
  6
ByLayer
 62
  256
370
   -1
100
AcDbLine
 10
289
 20
2.114985728925819
 11
289
 21
-70
  0
LINE
  5
183
100
AcDbEntity
  8
york_spline_bar
  6
ByLayer
 62
  256
370
   -1
100
AcDbLine
 10
290
 20
1.23684920406679
 11
290
 21
-70
  0
LINE
  5
184
100
AcDbEntity
  8
york_spline_bar
  6
ByLayer
 62
  256
370
   -1
100
AcDbLine
 10
291
 20
0.5757718373852061
 11
291
 21
-70
  0
LINE
  5
185
100
AcDbEntity
  8
york_spline_bar
  6
ByLayer
 62
  256
370
   -1
100
AcDbLine
 10
292
 20
0.08384470167444416
 11
292
 21
-70
  0
LINE
  5
186
100
AcDbEntity
  8
york_spline_bar
  6
ByLayer
 62
  256
370
   -1
100
AcDbLine
 10
292.9999999999999
 20
-0.3003602173909357
 11
293
 21
-70
  0
LINE
  5
187
100
AcDbEntity
  8
york_spline_bar
  6
ByLayer
 62
  256
370
   -1
100
AcDbLine
 10
294
 20
-0.6999096971887132
 11
294
 21
-70
  0
LINE
  5
188
100
AcDbEntity
  8
york_spline_bar
  6
ByLayer
 62
  256
370
   -1
100
AcDbLine
 10
295
 20
-1.127371025596833
 11
295
 21
-70
  0
LINE
  5
189
100
AcDbEntity
  8
york_spline_bar
  6
ByLayer
 62
  256
370
   -1
100
AcDbLine
 10
296
 20
-1.582584887432828
 11
296
 21
-70
  0
LINE
  5
18A
100
AcDbEntity
  8
york_spline_bar
  6
ByLayer
 62
  256
370
   -1
100
AcDbLine
 10
297
 20
-2.093723384234324
 11
297
 21
-70
  0
LINE
  5
18B
100
AcDbEntity
  8
york_spline_bar
  6
ByLayer
 62
  256
370
   -1
100
AcDbLine
 10
298
 20
-2.692640773516744
 11
298
 21
-70
  0
LINE
  5
18C
100
AcDbEntity
  8
york_spline_bar
  6
ByLayer
 62
  256
370
   -1
100
AcDbLine
 10
300
 20
-4.295497174307049
 11
300
 21
-70
  0
LINE
  5
18D
100
AcDbEntity
  8
york_spline_bar
  6
ByLayer
 62
  256
370
   -1
100
AcDbLine
 10
299
 20
-3.399152816058527
 11
299
 21
-70
  0
LINE
  5
18E
100
AcDbEntity
  8
york_spline_bar
  6
ByLayer
 62
  256
370
   -1
100
AcDbLine
 10
303
 20
-9.006142742528016
 11
303
 21
-70
  0
LINE
  5
18F
100
AcDbEntity
  8
york_spline_bar
  6
ByLayer
 62
  256
370
   -1
100
AcDbLine
 10
301
 20
-5.587977087552254
 11
301
 21
-70
  0
LINE
  5
190
100
AcDbEntity
  8
york_spline_bar
  6
ByLayer
 62
  256
370
   -1
100
AcDbLine
 10
302.0000000000001
 20
-7.394684424264469
 11
302
 21
-70
  0
LINE
  5
191
100
AcDbEntity
  8
york_spline_bar
  6
ByLayer
 62
  256
370
   -1
100
AcDbLine
 10
304
 20
-10.53047469191787
 11
304
 21
-70
  0
LINE
  5
192
100
AcDbEntity
  8
york_spline_bar
  6
ByLayer
 62
  256
370
   -1
100
AcDbLine
 10
306
 20
-14.49593483301329
 11
306
 21
-70
  0
LINE
  5
193
100
AcDbEntity
  8
york_spline_bar
  6
ByLayer
 62
  256
370
   -1
100
AcDbLine
 10
308
 20
-16.86389973281009
 11
308
 21
-70
  0
LINE
  5
194
100
AcDbEntity
  8
york_spline_bar
  6
ByLayer
 62
  256
370
   -1
100
AcDbLine
 10
306.9999999999999
 20
-15.81205197849894
 11
307
 21
-70
  0
LINE
  5
195
100
AcDbEntity
  8
york_spline_bar
  6
ByLayer
 62
  256
370
   -1
100
AcDbLine
 10
304.9999999999999
 20
-12.56579507525322
 11
305
 21
-70
  0
LINE
  5
196
100
AcDbEntity
  8
york_spline_bar
  6
ByLayer
 62
  256
370
   -1
100
AcDbLine
 10
309
 20
-17.74436317826949
 11
309
 21
-70
  0
LINE
  5
197
100
AcDbEntity
  8
york_spline_bar
  6
ByLayer
 62
  256
370
   -1
100
AcDbLine
 10
309.9999999999999
 20
-18.15105482243543
 11
310
 21
-70
  0
LINE
  5
198
100
AcDbEntity
  8
york_spline_bar
  6
ByLayer
 62
  256
370
   -1
100
AcDbLine
 10
311
 20
-17.57370844902253
 11
311
 21
-70
  0
LINE
  5
199
100
AcDbEntity
  8
york_spline_bar
  6
ByLayer
 62
  256
370
   -1
100
AcDbLine
 10
312
 20
-16.03209453705911
 11
312
 21
-70
  0
LINE
  5
19A
100
AcDbEntity
  8
york_spline_bar
  6
ByLayer
 62
  256
370
   -1
100
AcDbLine
 10
313
 20
-13.87154289224611
 11
313
 21
-70
  0
LINE
  5
19B
100
AcDbEntity
  8
york_spline_bar
  6
ByLayer
 62
  256
370
   -1
100
AcDbLine
 10
313.9999999999999
 20
-11.17744681990082
 11
314
 21
-70
  0
LINE
  5
19C
100
AcDbEntity
  8
york_spline_bar
  6
ByLayer
 62
  256
370
   -1
100
AcDbLine
 10
315.0000000000001
 20
-7.789670779407471
 11
315
 21
-70
  0
LINE
  5
19D
100
AcDbEntity
  8
york_spline_bar
  6
ByLayer
 62
  256
370
   -1
100
AcDbLine
 10
316
 20
-4.093818114910981
 11
316
 21
-70
  0
LINE
  5
19E
100
AcDbEntity
  8
york_spline_bar
  6
ByLayer
 62
  256
370
   -1
100
AcDbLine
 10
316.9999999999999
 20
-1.745607910944747
 11
317
 21
-70
  0
LINE
  5
19F
100
AcDbEntity
  8
york_spline_bar
  6
ByLayer
 62
  256
370
   -1
100
AcDbLine
 10
317.9999999999999
 20
-0.01231002440075807
 11
318
 21
-70
  0
LINE
  5
1A0
100
AcDbEntity
  8
york_spline_bar
  6
ByLayer
 62
  256
370
   -1
100
AcDbLine
 10
319
 20
0.4833722384437913
 11
319
 21
-70
  0
LINE
  5
1A1
100
AcDbEntity
  8
york_spline_bar
  6
ByLayer
 62
  256
370
   -1
100
AcDbLine
 10
320
 20
0.2647880117673222
 11
320
 21
-70
  0
LINE
  5
1A2
100
AcDbEntity
  8
york_spline_bar
  6
ByLayer
 62
  256
370
   -1
100
AcDbLine
 10
321
 20
0.2026088799477919
 11
321
 21
-70
  0
LINE
  5
1A3
100
AcDbEntity
  8
york_spline_bar
  6
ByLayer
 62
  256
370
   -1
100
AcDbLine
 10
322
 20
0.2255504038562566
 11
322
 21
-70
  0
LINE
  5
1A4
100
AcDbEntity
  8
york_spline_bar
  6
ByLayer
 62
  256
370
   -1
100
AcDbLine
 10
323
 20
0.2800837777668125
 11
323
 21
-70
  0
LINE
  5
1A5
100
AcDbEntity
  8
york_spline_bar
  6
ByLayer
 62
  256
370
   -1
100
AcDbLine
 10
324
 20
0.2579734698610097
 11
324
 21
-70
  0
LINE
  5
1A6
100
AcDbEntity
  8
york_spline_bar
  6
ByLayer
 62
  256
370
   -1
100
AcDbLine
 10
325
 20
-0.03518196643673385
 11
325
 21
-70
  0
LINE
  5
1A7
100
AcDbEntity
  8
york_spline_bar
  6
ByLayer
 62
  256
370
   -1
100
AcDbLine
 10
325.9999999999999
 20
-0.6378281785185577
 11
326
 21
-70
  0
LINE
  5
1A8
100
AcDbEntity
  8
york_spline_bar
  6
ByLayer
 62
  256
370
   -1
100
AcDbLine
 10
327
 20
-1.378957882182642
 11
327
 21
-70
  0
LINE
  5
1A9
100
AcDbEntity
  8
york_spline_bar
  6
ByLayer
 62
  256
370
   -1
100
AcDbLine
 10
328
 20
-2.146387482510408
 11
328
 21
-70
  0
LINE
  5
1AA
100
AcDbEntity
  8
york_spline_bar
  6
ByLayer
 62
  256
370
   -1
100
AcDbLine
 10
330
 20
-3.580248665967043
 11
330
 21
-70
  0
LINE
  5
1AB
100
AcDbEntity
  8
york_spline_bar
  6
ByLayer
 62
  256
370
   -1
100
AcDbLine
 10
331
 20
-4.145799849139468
 11
331
 21
-70
  0
LINE
  5
1AC
100
AcDbEntity
  8
york_spline_bar
  6
ByLayer
 62
  256
370
   -1
100
AcDbLine
 10
332
 20
-4.662900700365564
 11
332
 21
-70
  0
LINE
  5
1AD
100
AcDbEntity
  8
york_spline_bar
  6
ByLayer
 62
  256
370
   -1
100
AcDbLine
 10
333
 20
-5.154442598624594
 11
333
 21
-70
  0
LINE
  5
1AE
100
AcDbEntity
  8
york_spline_bar
  6
ByLayer
 62
  256
370
   -1
100
AcDbLine
 10
329
 20
-2.912062495884382
 11
329
 21
-70
  0
LINE
  5
1AF
100
AcDbEntity
  8
york_spline_bar
  6
ByLayer
 62
  256
370
   -1
100
AcDbLine
 10
336
 20
-5.268709986622906
 11
336
 21
-70
  0
LINE
  5
1B0
100
AcDbEntity
  8
york_spline_bar
  6
ByLayer
 62
  256
370
   -1
100
AcDbLine
 10
335
 20
-5.509891514688976
 11
335
 21
-70
  0
LINE
  5
1B1
100
AcDbEntity
  8
york_spline_bar
  6
ByLayer
 62
  256
370
   -1
100
AcDbLine
 10
334.0000000000001
 20
-5.492941676874874
 11
334
 21
-70
  0
LINE
  5
1B2
100
AcDbEntity
  8
york_spline_bar
  6
ByLayer
 62
  256
370
   -1
100
AcDbLine
 10
337
 20
-4.906406585001083
 11
337
 21
-70
  0
LINE
  5
1B3
100
AcDbEntity
  8
york_spline_bar
  6
ByLayer
 62
  256
370
   -1
100
AcDbLine
 10
339
 20
-3.737673049744554
 11
339
 21
-70
  0
LINE
  5
1B4
100
AcDbEntity
  8
york_spline_bar
  6
ByLayer
 62
  256
370
   -1
100
AcDbLine
 10
340
 20
-2.748713246289533
 11
340
 21
-70
  0
LINE
  5
1B5
100
AcDbEntity
  8
york_spline_bar
  6
ByLayer
 62
  256
370
   -1
100
AcDbLine
 10
338.0000000000001
 20
-4.430373804066578
 11
338
 21
-70
  0
LINE
  5
1B6
100
AcDbEntity
  8
york_spline_bar
  6
ByLayer
 62
  256
370
   -1
100
AcDbLine
 10
341
 20
-1.568975935246371
 11
341
 21
-70
  0
LINE
  5
1B7
100
AcDbEntity
  8
york_spline_bar
  6
ByLayer
 62
  256
370
   -1
100
AcDbLine
 10
343
 20
1.069420486408626
 11
343
 21
-70
  0
LINE
  5
1B8
100
AcDbEntity
  8
york_spline_bar
  6
ByLayer
 62
  256
370
   -1
100
AcDbLine
 10
345
 20
4.61991788990774
 11
345
 21
-70
  0
LINE
  5
1B9
100
AcDbEntity
  8
york_spline_bar
  6
ByLayer
 62
  256
370
   -1
100
AcDbLine
 10
342
 20
-0.3140076433774455
 11
342
 21
-70
  0
LINE
  5
1BA
100
AcDbEntity
  8
york_spline_bar
  6
ByLayer
 62
  256
370
   -1
100
AcDbLine
 10
344
 20
2.715394382700193
 11
344
 21
-70
  0
LINE
  5
1BB
100
AcDbEntity
  8
york_spline_bar
  6
ByLayer
 62
  256
370
   -1
100
AcDbLine
 10
346
 20
6.541942785374323
 11
346
 21
-70
  0
LINE
  5
1BC
100
AcDbEntity
  8
york_spline_bar
  6
ByLayer
 62
  256
370
   -1
100
AcDbLine
 10
346.9999999999999
 20
8.417653513021994
 11
347
 21
-70
  0
LINE
  5
1BD
100
AcDbEntity
  8
york_spline_bar
  6
ByLayer
 62
  256
370
   -1
100
AcDbLine
 10
348.0000000000001
 20
10.2549309076673
 11
348
 21
-70
  0
LINE
  5
1BE
100
AcDbEntity
  8
york_spline_bar
  6
ByLayer
 62
  256
370
   -1
100
AcDbLine
 10
349
 20
12.06230605264477
 11
349
 21
-70
  0
LINE
  5
1BF
100
AcDbEntity
  8
york_spline_bar
  6
ByLayer
 62
  256
370
   -1
100
AcDbLine
 10
350.0000000000001
 20
13.84891120822662
 11
350
 21
-70
  0
LINE
  5
1C0
100
AcDbEntity
  8
york_spline_bar
  6
ByLayer
 62
  256
370
   -1
100
AcDbLine
 10
351
 20
15.66748206873857
 11
351
 21
-70
  0
LINE
  5
1C1
100
AcDbEntity
  8
york_spline_bar
  6
ByLayer
 62
  256
370
   -1
100
AcDbLine
 10
352
 20
17.52713849175899
 11
352
 21
-70
  0
LINE
  5
1C2
100
AcDbEntity
  8
york_spline_bar
  6
ByLayer
 62
  256
370
   -1
100
AcDbLine
 10
353
 20
19.40618993658523
 11
353
 21
-70
  0
LINE
  5
1C3
100
AcDbEntity
  8
york_spline_bar
  6
ByLayer
 62
  256
370
   -1
100
AcDbLine
 10
354
 20
21.27935243370924
 11
354
 21
-70
  0
LINE
  5
1C4
100
AcDbEntity
  8
york_spline_bar
  6
ByLayer
 62
  256
370
   -1
100
AcDbLine
 10
355
 20
23.13782220496758
 11
355
 21
-70
  0
LINE
  5
1C5
100
AcDbEntity
  8
york_spline_bar
  6
ByLayer
 62
  256
370
   -1
100
AcDbLine
 10
356
 20
24.94169006782059
 11
356
 21
-70
  0
LINE
  5
1C6
100
AcDbEntity
  8
york_spline_bar
  6
ByLayer
 62
  256
370
   -1
100
AcDbLine
 10
357
 20
26.67589178948633
 11
357
 21
-70
  0
LINE
  5
1C7
100
AcDbEntity
  8
york_spline_bar
  6
ByLayer
 62
  256
370
   -1
100
AcDbLine
 10
358
 20
28.05654071101933
 11
358
 21
-70
  0
LINE
  5
1C8
100
AcDbEntity
  8
york_spline_bar
  6
ByLayer
 62
  256
370
   -1
100
AcDbLine
 10
360
 20
30
 11
360
 21
-70
  0
LINE
  5
1C9
100
AcDbEntity
  8
york_spline_bar
  6
ByLayer
 62
  256
370
   -1
100
AcDbLine
 10
359
 20
29.1265
 11
359
 21
-70
  0
LINE
  5
1CA
100
AcDbEntity
  8
york_spline_bar
  6
ByLayer
 62
  256
370
   -1
100
AcDbLine
 10
1
 20
31.6834
 11
1
 21
-70
  0
LINE
  5
1CB
100
AcDbEntity
  8
york_spline_bar
  6
ByLayer
 62
  256
370
   -1
100
AcDbLine
 10
21
 20
36.1714
 11
21
 21
-70
  0
LINE
  5
1CC
100
AcDbEntity
  8
jaw_spline_bar
  6
ByLayer
 62
  256
370
   -1
100
AcDbLine
 10
0
 20
-70
 11
0
 21
20
  0
LINE
  5
1CD
100
AcDbEntity
  8
jaw_spline_bar
  6
ByLayer
 62
  256
370
   -1
100
AcDbLine
 10
1
 20
-70
 11
1
 21
22.78741067027043
  0
LINE
  5
1CE
100
AcDbEntity
  8
jaw_spline_bar
  6
ByLayer
 62
  256
370
   -1
100
AcDbLine
 10
2
 20
-70
 11
2
 21
25.54201291959296
  0
LINE
  5
1CF
100
AcDbEntity
  8
jaw_spline_bar
  6
ByLayer
 62
  256
370
   -1
100
AcDbLine
 10
3
 20
-70
 11
3
 21
28.22655384560651
  0
LINE
  5
1D0
100
AcDbEntity
  8
jaw_spline_bar
  6
ByLayer
 62
  256
370
   -1
100
AcDbLine
 10
4
 20
-70
 11
4
 21
31.13393219789462
  0
LINE
  5
1D1
100
AcDbEntity
  8
jaw_spline_bar
  6
ByLayer
 62
  256
370
   -1
100
AcDbLine
 10
5
 20
-70
 11
5
 21
33.74590955785336
  0
LINE
  5
1D2
100
AcDbEntity
  8
jaw_spline_bar
  6
ByLayer
 62
  256
370
   -1
100
AcDbLine
 10
6
 20
-70
 11
5.999999999999999
 21
36.28410147597012
  0
LINE
  5
1D3
100
AcDbEntity
  8
jaw_spline_bar
  6
ByLayer
 62
  256
370
   -1
100
AcDbLine
 10
7
 20
-70
 11
7.000000000000001
 21
38.88971971207575
  0
LINE
  5
1D4
100
AcDbEntity
  8
jaw_spline_bar
  6
ByLayer
 62
  256
370
   -1
100
AcDbLine
 10
8
 20
-70
 11
8
 21
41.00880017063725
  0
LINE
  5
1D5
100
AcDbEntity
  8
jaw_spline_bar
  6
ByLayer
 62
  256
370
   -1
100
AcDbLine
 10
11
 20
-70
 11
11
 21
47.48430778948716
  0
LINE
  5
1D6
100
AcDbEntity
  8
jaw_spline_bar
  6
ByLayer
 62
  256
370
   -1
100
AcDbLine
 10
12
 20
-70
 11
12
 21
49.12304384646383
  0
LINE
  5
1D7
100
AcDbEntity
  8
jaw_spline_bar
  6
ByLayer
 62
  256
370
   -1
100
AcDbLine
 10
13
 20
-70
 11
13
 21
50.31330818610641
  0
LINE
  5
1D8
100
AcDbEntity
  8
jaw_spline_bar
  6
ByLayer
 62
  256
370
   -1
100
AcDbLine
 10
10
 20
-70
 11
10
 21
45.49416886839791
  0
LINE
  5
1D9
100
AcDbEntity
  8
jaw_spline_bar
  6
ByLayer
 62
  256
370
   -1
100
AcDbLine
 10
9
 20
-70
 11
9
 21
43.12390446360182
  0
LINE
  5
1DA
100
AcDbEntity
  8
jaw_spline_bar
  6
ByLayer
 62
  256
370
   -1
100
AcDbLine
 10
14
 20
-70
 11
14
 21
51.47609233704361
  0
LINE
  5
1DB
100
AcDbEntity
  8
jaw_spline_bar
  6
ByLayer
 62
  256
370
   -1
100
AcDbLine
 10
15
 20
-70
 11
15
 21
52.58960591571515
  0
LINE
  5
1DC
100
AcDbEntity
  8
jaw_spline_bar
  6
ByLayer
 62
  256
370
   -1
100
AcDbLine
 10
16
 20
-70
 11
16
 21
53.41558075660897
  0
LINE
  5
1DD
100
AcDbEntity
  8
jaw_spline_bar
  6
ByLayer
 62
  256
370
   -1
100
AcDbLine
 10
18
 20
-70
 11
18
 21
54.4323637141416
  0
LINE
  5
1DE
100
AcDbEntity
  8
jaw_spline_bar
  6
ByLayer
 62
  256
370
   -1
100
AcDbLine
 10
17
 20
-70
 11
17
 21
54.01758527173019
  0
LINE
  5
1DF
100
AcDbEntity
  8
jaw_spline_bar
  6
ByLayer
 62
  256
370
   -1
100
AcDbLine
 10
19
 20
-70
 11
19.00000000000001
 21
54.70164050918732
  0
LINE
  5
1E0
100
AcDbEntity
  8
jaw_spline_bar
  6
ByLayer
 62
  256
370
   -1
100
AcDbLine
 10
20
 20
-70
 11
20
 21
54.73013710607609
  0
LINE
  5
1E1
100
AcDbEntity
  8
jaw_spline_bar
  6
ByLayer
 62
  256
370
   -1
100
AcDbLine
 10
21
 20
-70
 11
21
 21
54.48906076664083
  0
LINE
  5
1E2
100
AcDbEntity
  8
jaw_spline_bar
  6
ByLayer
 62
  256
370
   -1
100
AcDbLine
 10
22
 20
-70
 11
22
 21
54.05739921076649
  0
LINE
  5
1E3
100
AcDbEntity
  8
jaw_spline_bar
  6
ByLayer
 62
  256
370
   -1
100
AcDbLine
 10
23
 20
-70
 11
23
 21
53.47669931387456
  0
LINE
  5
1E4
100
AcDbEntity
  8
jaw_spline_bar
  6
ByLayer
 62
  256
370
   -1
100
AcDbLine
 10
24
 20
-70
 11
24
 21
52.58990159936029
  0
LINE
  5
1E5
100
AcDbEntity
  8
jaw_spline_bar
  6
ByLayer
 62
  256
370
   -1
100
AcDbLine
 10
25
 20
-70
 11
25
 21
51.36323972393666
  0
LINE
  5
1E6
100
AcDbEntity
  8
jaw_spline_bar
  6
ByLayer
 62
  256
370
   -1
100
AcDbLine
 10
26
 20
-70
 11
26
 21
50.19659926825484
  0
LINE
  5
1E7
100
AcDbEntity
  8
jaw_spline_bar
  6
ByLayer
 62
  256
370
   -1
100
AcDbLine
 10
27
 20
-70
 11
27
 21
48.91151954660863
  0
LINE
  5
1E8
100
AcDbEntity
  8
jaw_spline_bar
  6
ByLayer
 62
  256
370
   -1
100
AcDbLine
 10
28
 20
-70
 11
28
 21
47.46968769676636
  0
LINE
  5
1E9
100
AcDbEntity
  8
jaw_spline_bar
  6
ByLayer
 62
  256
370
   -1
100
AcDbLine
 10
29
 20
-70
 11
29
 21
45.9325534980445
  0
LINE
  5
1EA
100
AcDbEntity
  8
jaw_spline_bar
  6
ByLayer
 62
  256
370
   -1
100
AcDbLine
 10
30
 20
-70
 11
30
 21
44.24650230349413
  0
LINE
  5
1EB
100
AcDbEntity
  8
jaw_spline_bar
  6
ByLayer
 62
  256
370
   -1
100
AcDbLine
 10
32
 20
-70
 11
32
 21
40.0295724329558
  0
LINE
  5
1EC
100
AcDbEntity
  8
jaw_spline_bar
  6
ByLayer
 62
  256
370
   -1
100
AcDbLine
 10
31
 20
-70
 11
31
 21
42.32264033456482
  0
LINE
  5
1ED
100
AcDbEntity
  8
jaw_spline_bar
  6
ByLayer
 62
  256
370
   -1
100
AcDbLine
 10
33
 20
-70
 11
33
 21
37.92713055493859
  0
LINE
  5
1EE
100
AcDbEntity
  8
jaw_spline_bar
  6
ByLayer
 62
  256
370
   -1
100
AcDbLine
 10
36
 20
-70
 11
36
 21
31.74192900814564
  0
LINE
  5
1EF
100
AcDbEntity
  8
jaw_spline_bar
  6
ByLayer
 62
  256
370
   -1
100
AcDbLine
 10
35
 20
-70
 11
35.00000000000001
 21
33.73378919978597
  0
LINE
  5
1F0
100
AcDbEntity
  8
jaw_spline_bar
  6
ByLayer
 62
  256
370
   -1
100
AcDbLine
 10
34
 20
-70
 11
34
 21
35.93286280488533
  0
LINE
  5
1F1
100
AcDbEntity
  8
jaw_spline_bar
  6
ByLayer
 62
  256
370
   -1
100
AcDbLine
 10
37
 20
-70
 11
37
 21
27.43926303474248
  0
LINE
  5
1F2
100
AcDbEntity
  8
jaw_spline_bar
  6
ByLayer
 62
  256
370
   -1
100
AcDbLine
 10
38
 20
-70
 11
38
 21
25.26016855759084
  0
LINE
  5
1F3
100
AcDbEntity
  8
jaw_spline_bar
  6
ByLayer
 62
  256
370
   -1
100
AcDbLine
 10
44
 20
-70
 11
44
 21
10.610284328022
  0
LINE
  5
1F4
100
AcDbEntity
  8
jaw_spline_bar
  6
ByLayer
 62
  256
370
   -1
100
AcDbLine
 10
40
 20
-70
 11
40
 21
20.54584639798262
  0
LINE
  5
1F5
100
AcDbEntity
  8
jaw_spline_bar
  6
ByLayer
 62
  256
370
   -1
100
AcDbLine
 10
39
 20
-70
 11
38.99999999999999
 21
22.87752323193671
  0
LINE
  5
1F6
100
AcDbEntity
  8
jaw_spline_bar
  6
ByLayer
 62
  256
370
   -1
100
AcDbLine
 10
41
 20
-70
 11
41
 21
18.14764377299665
  0
LINE
  5
1F7
100
AcDbEntity
  8
jaw_spline_bar
  6
ByLayer
 62
  256
370
   -1
100
AcDbLine
 10
42
 20
-70
 11
42
 21
15.11220007714087
  0
LINE
  5
1F8
100
AcDbEntity
  8
jaw_spline_bar
  6
ByLayer
 62
  256
370
   -1
100
AcDbLine
 10
43
 20
-70
 11
43.00000000000001
 21
12.97576360950073
  0
LINE
  5
1F9
100
AcDbEntity
  8
jaw_spline_bar
  6
ByLayer
 62
  256
370
   -1
100
AcDbLine
 10
45
 20
-70
 11
45
 21
7.920745607544401
  0
LINE
  5
1FA
100
AcDbEntity
  8
jaw_spline_bar
  6
ByLayer
 62
  256
370
   -1
100
AcDbLine
 10
46
 20
-70
 11
46
 21
5.461147724251909
  0
LINE
  5
1FB
100
AcDbEntity
  8
jaw_spline_bar
  6
ByLayer
 62
  256
370
   -1
100
AcDbLine
 10
47
 20
-70
 11
46.99999999999999
 21
2.923708255567487
  0
LINE
  5
1FC
100
AcDbEntity
  8
jaw_spline_bar
  6
ByLayer
 62
  256
370
   -1
100
AcDbLine
 10
48
 20
-70
 11
48
 21
0.3723161539404019
  0
LINE
  5
1FD
100
AcDbEntity
  8
jaw_spline_bar
  6
ByLayer
 62
  256
370
   -1
100
AcDbLine
 10
49
 20
-70
 11
49
 21
-1.954227277767135
  0
LINE
  5
1FE
100
AcDbEntity
  8
jaw_spline_bar
  6
ByLayer
 62
  256
370
   -1
100
AcDbLine
 10
50
 20
-70
 11
49.99999999999999
 21
-4.099875817019697
  0
LINE
  5
1FF
100
AcDbEntity
  8
jaw_spline_bar
  6
ByLayer
 62
  256
370
   -1
100
AcDbLine
 10
51
 20
-70
 11
50.99999999999999
 21
-6.432123269187783
  0
LINE
  5
200
100
AcDbEntity
  8
jaw_spline_bar
  6
ByLayer
 62
  256
370
   -1
100
AcDbLine
 10
52
 20
-70
 11
52
 21
-8.775703393805308
  0
LINE
  5
201
100
AcDbEntity
  8
jaw_spline_bar
  6
ByLayer
 62
  256
370
   -1
100
AcDbLine
 10
53
 20
-70
 11
53
 21
-11.0127966228418
  0
LINE
  5
202
100
AcDbEntity
  8
jaw_spline_bar
  6
ByLayer
 62
  256
370
   -1
100
AcDbLine
 10
55
 20
-70
 11
55.00000000000001
 21
-15.18241546930535
  0
LINE
  5
203
100
AcDbEntity
  8
jaw_spline_bar
  6
ByLayer
 62
  256
370
   -1
100
AcDbLine
 10
56
 20
-70
 11
56.00000000000001
 21
-17.01495433201708
  0
LINE
  5
204
100
AcDbEntity
  8
jaw_spline_bar
  6
ByLayer
 62
  256
370
   -1
100
AcDbLine
 10
54
 20
-70
 11
54
 21
-13.18269223341792
  0
LINE
  5
205
100
AcDbEntity
  8
jaw_spline_bar
  6
ByLayer
 62
  256
370
   -1
100
AcDbLine
 10
57
 20
-70
 11
57
 21
-18.9650488834523
  0
LINE
  5
206
100
AcDbEntity
  8
jaw_spline_bar
  6
ByLayer
 62
  256
370
   -1
100
AcDbLine
 10
58
 20
-70
 11
58.00000000000001
 21
-20.97940506652553
  0
LINE
  5
207
100
AcDbEntity
  8
jaw_spline_bar
  6
ByLayer
 62
  256
370
   -1
100
AcDbLine
 10
59
 20
-70
 11
58.99999999999999
 21
-22.75176249722139
  0
LINE
  5
208
100
AcDbEntity
  8
jaw_spline_bar
  6
ByLayer
 62
  256
370
   -1
100
AcDbLine
 10
60
 20
-70
 11
60
 21
-24.37698051885743
  0
LINE
  5
209
100
AcDbEntity
  8
jaw_spline_bar
  6
ByLayer
 62
  256
370
   -1
100
AcDbLine
 10
61
 20
-70
 11
61
 21
-25.94143075865453
  0
LINE
  5
20A
100
AcDbEntity
  8
jaw_spline_bar
  6
ByLayer
 62
  256
370
   -1
100
AcDbLine
 10
62
 20
-70
 11
62.00000000000001
 21
-27.46735042318062
  0
LINE
  5
20B
100
AcDbEntity
  8
jaw_spline_bar
  6
ByLayer
 62
  256
370
   -1
100
AcDbLine
 10
63
 20
-70
 11
63
 21
-28.7989386937012
  0
LINE
  5
20C
100
AcDbEntity
  8
jaw_spline_bar
  6
ByLayer
 62
  256
370
   -1
100
AcDbLine
 10
64
 20
-70
 11
63.99999999999999
 21
-29.91596109340107
  0
LINE
  5
20D
100
AcDbEntity
  8
jaw_spline_bar
  6
ByLayer
 62
  256
370
   -1
100
AcDbLine
 10
65
 20
-70
 11
65
 21
-30.89316547588909
  0
LINE
  5
20E
100
AcDbEntity
  8
jaw_spline_bar
  6
ByLayer
 62
  256
370
   -1
100
AcDbLine
 10
66
 20
-70
 11
66
 21
-31.7599472108657
  0
LINE
  5
20F
100
AcDbEntity
  8
jaw_spline_bar
  6
ByLayer
 62
  256
370
   -1
100
AcDbLine
 10
67
 20
-70
 11
67
 21
-32.55733545590583
  0
LINE
  5
210
100
AcDbEntity
  8
jaw_spline_bar
  6
ByLayer
 62
  256
370
   -1
100
AcDbLine
 10
68
 20
-70
 11
68
 21
-33.28372977446551
  0
LINE
  5
211
100
AcDbEntity
  8
jaw_spline_bar
  6
ByLayer
 62
  256
370
   -1
100
AcDbLine
 10
69
 20
-70
 11
69
 21
-33.84471793012555
  0
LINE
  5
212
100
AcDbEntity
  8
jaw_spline_bar
  6
ByLayer
 62
  256
370
   -1
100
AcDbLine
 10
71
 20
-70
 11
71
 21
-34.37343061652529
  0
LINE
  5
213
100
AcDbEntity
  8
jaw_spline_bar
  6
ByLayer
 62
  256
370
   -1
100
AcDbLine
 10
72
 20
-70
 11
72
 21
-34.45405802227835
  0
LINE
  5
214
100
AcDbEntity
  8
jaw_spline_bar
  6
ByLayer
 62
  256
370
   -1
100
AcDbLine
 10
70
 20
-70
 11
70
 21
-34.17080411167508
  0
LINE
  5
215
100
AcDbEntity
  8
jaw_spline_bar
  6
ByLayer
 62
  256
370
   -1
100
AcDbLine
 10
73
 20
-70
 11
73.00000000000001
 21
-34.36001855370824
  0
LINE
  5
216
100
AcDbEntity
  8
jaw_spline_bar
  6
ByLayer
 62
  256
370
   -1
100
AcDbLine
 10
74
 20
-70
 11
74
 21
-34.10457880515548
  0
LINE
  5
217
100
AcDbEntity
  8
jaw_spline_bar
  6
ByLayer
 62
  256
370
   -1
100
AcDbLine
 10
75
 20
-70
 11
75
 21
-33.67709654515697
  0
LINE
  5
218
100
AcDbEntity
  8
jaw_spline_bar
  6
ByLayer
 62
  256
370
   -1
100
AcDbLine
 10
76
 20
-70
 11
76
 21
-33.08220037272683
  0
LINE
  5
219
100
AcDbEntity
  8
jaw_spline_bar
  6
ByLayer
 62
  256
370
   -1
100
AcDbLine
 10
77
 20
-70
 11
76.99999999999999
 21
-32.32485851848663
  0
LINE
  5
21A
100
AcDbEntity
  8
jaw_spline_bar
  6
ByLayer
 62
  256
370
   -1
100
AcDbLine
 10
78
 20
-70
 11
78
 21
-31.39703702796676
  0
LINE
  5
21B
100
AcDbEntity
  8
jaw_spline_bar
  6
ByLayer
 62
  256
370
   -1
100
AcDbLine
 10
79
 20
-70
 11
78.99999999999999
 21
-30.30818410402281
  0
LINE
  5
21C
100
AcDbEntity
  8
jaw_spline_bar
  6
ByLayer
 62
  256
370
   -1
100
AcDbLine
 10
80
 20
-70
 11
79.99999999999999
 21
-29.09037674649502
  0
LINE
  5
21D
100
AcDbEntity
  8
jaw_spline_bar
  6
ByLayer
 62
  256
370
   -1
100
AcDbLine
 10
81
 20
-70
 11
81
 21
-27.74738216203028
  0
LINE
  5
21E
100
AcDbEntity
  8
jaw_spline_bar
  6
ByLayer
 62
  256
370
   -1
100
AcDbLine
 10
83
 20
-70
 11
83
 21
-24.68279117062709
  0
LINE
  5
21F
100
AcDbEntity
  8
jaw_spline_bar
  6
ByLayer
 62
  256
370
   -1
100
AcDbLine
 10
84
 20
-70
 11
84
 21
-22.95970112377183
  0
LINE
  5
220
100
AcDbEntity
  8
jaw_spline_bar
  6
ByLayer
 62
  256
370
   -1
100
AcDbLine
 10
82
 20
-70
 11
82.00000000000001
 21
-26.27303505672508
  0
LINE
  5
221
100
AcDbEntity
  8
jaw_spline_bar
  6
ByLayer
 62
  256
370
   -1
100
AcDbLine
 10
85
 20
-70
 11
85
 21
-20.95853499649877
  0
LINE
  5
222
100
AcDbEntity
  8
jaw_spline_bar
  6
ByLayer
 62
  256
370
   -1
100
AcDbLine
 10
86
 20
-70
 11
86
 21
-18.66297523244585
  0
LINE
  5
223
100
AcDbEntity
  8
jaw_spline_bar
  6
ByLayer
 62
  256
370
   -1
100
AcDbLine
 10
87
 20
-70
 11
87
 21
-16.29787380833681
  0
LINE
  5
224
100
AcDbEntity
  8
jaw_spline_bar
  6
ByLayer
 62
  256
370
   -1
100
AcDbLine
 10
88
 20
-70
 11
88.00000000000001
 21
-14.1393244772798
  0
LINE
  5
225
100
AcDbEntity
  8
jaw_spline_bar
  6
ByLayer
 62
  256
370
   -1
100
AcDbLine
 10
89
 20
-70
 11
89.00000000000001
 21
-11.81345537393434
  0
LINE
  5
226
100
AcDbEntity
  8
jaw_spline_bar
  6
ByLayer
 62
  256
370
   -1
100
AcDbLine
 10
90
 20
-70
 11
90
 21
-9.297709769408824
  0
LINE
  5
227
100
AcDbEntity
  8
jaw_spline_bar
  6
ByLayer
 62
  256
370
   -1
100
AcDbLine
 10
91
 20
-70
 11
91
 21
-6.802048131750031
  0
LINE
  5
228
100
AcDbEntity
  8
jaw_spline_bar
  6
ByLayer
 62
  256
370
   -1
100
AcDbLine
 10
92
 20
-70
 11
92
 21
-4.273858854144409
  0
LINE
  5
229
100
AcDbEntity
  8
jaw_spline_bar
  6
ByLayer
 62
  256
370
   -1
100
AcDbLine
 10
93
 20
-70
 11
93
 21
-1.802170810349334
  0
LINE
  5
22A
100
AcDbEntity
  8
jaw_spline_bar
  6
ByLayer
 62
  256
370
   -1
100
AcDbLine
 10
94
 20
-70
 11
94
 21
0.01868942935897178
  0
LINE
  5
22B
100
AcDbEntity
  8
jaw_spline_bar
  6
ByLayer
 62
  256
370
   -1
100
AcDbLine
 10
95
 20
-70
 11
95
 21
1.258691762382036
  0
LINE
  5
22C
100
AcDbEntity
  8
jaw_spline_bar
  6
ByLayer
 62
  256
370
   -1
100
AcDbLine
 10
97
 20
-70
 11
97
 21
1.689775797677497
  0
LINE
  5
22D
100
AcDbEntity
  8
jaw_spline_bar
  6
ByLayer
 62
  256
370
   -1
100
AcDbLine
 10
98
 20
-70
 11
98
 21
1.309686664863658
  0
LINE
  5
22E
100
AcDbEntity
  8
jaw_spline_bar
  6
ByLayer
 62
  256
370
   -1
100
AcDbLine
 10
96
 20
-70
 11
95.99999999999999
 21
1.696073949559151
  0
LINE
  5
22F
100
AcDbEntity
  8
jaw_spline_bar
  6
ByLayer
 62
  256
370
   -1
100
AcDbLine
 10
101
 20
-70
 11
101
 21
-1.970890970389324
  0
LINE
  5
230
100
AcDbEntity
  8
jaw_spline_bar
  6
ByLayer
 62
  256
370
   -1
100
AcDbLine
 10
100
 20
-70
 11
100
 21
-0.4444225193334809
  0
LINE
  5
231
100
AcDbEntity
  8
jaw_spline_bar
  6
ByLayer
 62
  256
370
   -1
100
AcDbLine
 10
99
 20
-70
 11
99.00000000000001
 21
0.6176047493604513
  0
LINE
  5
232
100
AcDbEntity
  8
jaw_spline_bar
  6
ByLayer
 62
  256
370
   -1
100
AcDbLine
 10
103
 20
-70
 11
103
 21
-5.317349913927834
  0
LINE
  5
233
100
AcDbEntity
  8
jaw_spline_bar
  6
ByLayer
 62
  256
370
   -1
100
AcDbLine
 10
102
 20
-70
 11
102
 21
-3.656943512886278
  0
LINE
  5
234
100
AcDbEntity
  8
jaw_spline_bar
  6
ByLayer
 62
  256
370
   -1
100
AcDbLine
 10
105
 20
-70
 11
105
 21
-8.185344761083302
  0
LINE
  5
235
100
AcDbEntity
  8
jaw_spline_bar
  6
ByLayer
 62
  256
370
   -1
100
AcDbLine
 10
104
 20
-70
 11
104
 21
-6.814379087364737
  0
LINE
  5
236
100
AcDbEntity
  8
jaw_spline_bar
  6
ByLayer
 62
  256
370
   -1
100
AcDbLine
 10
107
 20
-70
 11
107
 21
-11.02526730855771
  0
LINE
  5
237
100
AcDbEntity
  8
jaw_spline_bar
  6
ByLayer
 62
  256
370
   -1
100
AcDbLine
 10
106
 20
-70
 11
106
 21
-9.564849402826948
  0
LINE
  5
238
100
AcDbEntity
  8
jaw_spline_bar
  6
ByLayer
 62
  256
370
   -1
100
AcDbLine
 10
108
 20
-70
 11
108
 21
-12.514705657482
  0
LINE
  5
239
100
AcDbEntity
  8
jaw_spline_bar
  6
ByLayer
 62
  256
370
   -1
100
AcDbLine
 10
109
 20
-70
 11
109
 21
-14.36255498343716
  0
LINE
  5
23A
100
AcDbEntity
  8
jaw_spline_bar
  6
ByLayer
 62
  256
370
   -1
100
AcDbLine
 10
110
 20
-70
 11
110
 21
-15.2467864847846
  0
LINE
  5
23B
100
AcDbEntity
  8
jaw_spline_bar
  6
ByLayer
 62
  256
370
   -1
100
AcDbLine
 10
111
 20
-70
 11
111
 21
-15.99586849812819
  0
LINE
  5
23C
100
AcDbEntity
  8
jaw_spline_bar
  6
ByLayer
 62
  256
370
   -1
100
AcDbLine
 10
112
 20
-70
 11
112
 21
-16.82682875244813
  0
LINE
  5
23D
100
AcDbEntity
  8
jaw_spline_bar
  6
ByLayer
 62
  256
370
   -1
100
AcDbLine
 10
113
 20
-70
 11
113
 21
-17.6296645458631
  0
LINE
  5
23E
100
AcDbEntity
  8
jaw_spline_bar
  6
ByLayer
 62
  256
370
   -1
100
AcDbLine
 10
114
 20
-70
 11
114
 21
-18.24336521360728
  0
LINE
  5
23F
100
AcDbEntity
  8
jaw_spline_bar
  6
ByLayer
 62
  256
370
   -1
100
AcDbLine
 10
115
 20
-70
 11
115
 21
-18.70665374197272
  0
LINE
  5
240
100
AcDbEntity
  8
jaw_spline_bar
  6
ByLayer
 62
  256
370
   -1
100
AcDbLine
 10
116
 20
-70
 11
116
 21
-19.10538040705793
  0
LINE
  5
241
100
AcDbEntity
  8
jaw_spline_bar
  6
ByLayer
 62
  256
370
   -1
100
AcDbLine
 10
117
 20
-70
 11
117
 21
-19.46677645274239
  0
LINE
  5
242
100
AcDbEntity
  8
jaw_spline_bar
  6
ByLayer
 62
  256
370
   -1
100
AcDbLine
 10
118
 20
-70
 11
118
 21
-19.77673447838471
  0
LINE
  5
243
100
AcDbEntity
  8
jaw_spline_bar
  6
ByLayer
 62
  256
370
   -1
100
AcDbLine
 10
119
 20
-70
 11
119
 21
-19.9435994411133
  0
LINE
  5
244
100
AcDbEntity
  8
jaw_spline_bar
  6
ByLayer
 62
  256
370
   -1
100
AcDbLine
 10
120
 20
-70
 11
120
 21
-19.94797951991144
  0
LINE
  5
245
100
AcDbEntity
  8
jaw_spline_bar
  6
ByLayer
 62
  256
370
   -1
100
AcDbLine
 10
121
 20
-70
 11
121
 21
-19.76318592438887
  0
LINE
  5
246
100
AcDbEntity
  8
jaw_spline_bar
  6
ByLayer
 62
  256
370
   -1
100
AcDbLine
 10
122
 20
-70
 11
122
 21
-19.29604533955747
  0
LINE
  5
247
100
AcDbEntity
  8
jaw_spline_bar
  6
ByLayer
 62
  256
370
   -1
100
AcDbLine
 10
123
 20
-70
 11
123
 21
-18.48378675635444
  0
LINE
  5
248
100
AcDbEntity
  8
jaw_spline_bar
  6
ByLayer
 62
  256
370
   -1
100
AcDbLine
 10
124
 20
-70
 11
124
 21
-17.47915939760024
  0
LINE
  5
249
100
AcDbEntity
  8
jaw_spline_bar
  6
ByLayer
 62
  256
370
   -1
100
AcDbLine
 10
125
 20
-70
 11
125
 21
-16.36437938452184
  0
LINE
  5
24A
100
AcDbEntity
  8
jaw_spline_bar
  6
ByLayer
 62
  256
370
   -1
100
AcDbLine
 10
127
 20
-70
 11
127
 21
-13.76057243765592
  0
LINE
  5
24B
100
AcDbEntity
  8
jaw_spline_bar
  6
ByLayer
 62
  256
370
   -1
100
AcDbLine
 10
126
 20
-70
 11
126
 21
-15.13371962823887
  0
LINE
  5
24C
100
AcDbEntity
  8
jaw_spline_bar
  6
ByLayer
 62
  256
370
   -1
100
AcDbLine
 10
128
 20
-70
 11
128
 21
-12.19649593561142
  0
LINE
  5
24D
100
AcDbEntity
  8
jaw_spline_bar
  6
ByLayer
 62
  256
370
   -1
100
AcDbLine
 10
130
 20
-70
 11
130
 21
-8.423657994861326
  0
LINE
  5
24E
100
AcDbEntity
  8
jaw_spline_bar
  6
ByLayer
 62
  256
370
   -1
100
AcDbLine
 10
129
 20
-70
 11
129
 21
-10.36938814027648
  0
LINE
  5
24F
100
AcDbEntity
  8
jaw_spline_bar
  6
ByLayer
 62
  256
370
   -1
100
AcDbLine
 10
131
 20
-70
 11
131
 21
-6.548607688276999
  0
LINE
  5
250
100
AcDbEntity
  8
jaw_spline_bar
  6
ByLayer
 62
  256
370
   -1
100
AcDbLine
 10
133
 20
-70
 11
133
 21
-3.47199020453822
  0
LINE
  5
251
100
AcDbEntity
  8
jaw_spline_bar
  6
ByLayer
 62
  256
370
   -1
100
AcDbLine
 10
134
 20
-70
 11
134
 21
-2.218526428455939
  0
LINE
  5
252
100
AcDbEntity
  8
jaw_spline_bar
  6
ByLayer
 62
  256
370
   -1
100
AcDbLine
 10
135
 20
-70
 11
135
 21
-1.111131054639701
  0
LINE
  5
253
100
AcDbEntity
  8
jaw_spline_bar
  6
ByLayer
 62
  256
370
   -1
100
AcDbLine
 10
137
 20
-70
 11
137
 21
0.07628005949408943
  0
LINE
  5
254
100
AcDbEntity
  8
jaw_spline_bar
  6
ByLayer
 62
  256
370
   -1
100
AcDbLine
 10
132
 20
-70
 11
132
 21
-4.889555978030892
  0
LINE
  5
255
100
AcDbEntity
  8
jaw_spline_bar
  6
ByLayer
 62
  256
370
   -1
100
AcDbLine
 10
136
 20
-70
 11
136
 21
-0.2681271472180967
  0
LINE
  5
256
100
AcDbEntity
  8
jaw_spline_bar
  6
ByLayer
 62
  256
370
   -1
100
AcDbLine
 10
139
 20
-70
 11
139
 21
0.2190651176554074
  0
LINE
  5
257
100
AcDbEntity
  8
jaw_spline_bar
  6
ByLayer
 62
  256
370
   -1
100
AcDbLine
 10
138
 20
-70
 11
138
 21
0.1875083021715494
  0
LINE
  5
258
100
AcDbEntity
  8
jaw_spline_bar
  6
ByLayer
 62
  256
370
   -1
100
AcDbLine
 10
141
 20
-70
 11
141
 21
0.1836740321825956
  0
LINE
  5
259
100
AcDbEntity
  8
jaw_spline_bar
  6
ByLayer
 62
  256
370
   -1
100
AcDbLine
 10
143
 20
-70
 11
143
 21
0.12480284949368
  0
LINE
  5
25A
100
AcDbEntity
  8
jaw_spline_bar
  6
ByLayer
 62
  256
370
   -1
100
AcDbLine
 10
140
 20
-70
 11
140
 21
0.2085578127375018
  0
LINE
  5
25B
100
AcDbEntity
  8
jaw_spline_bar
  6
ByLayer
 62
  256
370
   -1
100
AcDbLine
 10
142
 20
-70
 11
142
 21
0.1486923985872868
  0
LINE
  5
25C
100
AcDbEntity
  8
jaw_spline_bar
  6
ByLayer
 62
  256
370
   -1
100
AcDbLine
 10
144
 20
-70
 11
144
 21
0.3242139072423161
  0
LINE
  5
25D
100
AcDbEntity
  8
jaw_spline_bar
  6
ByLayer
 62
  256
370
   -1
100
AcDbLine
 10
145
 20
-70
 11
145
 21
1.036008643473194
  0
LINE
  5
25E
100
AcDbEntity
  8
jaw_spline_bar
  6
ByLayer
 62
  256
370
   -1
100
AcDbLine
 10
146
 20
-70
 11
146
 21
2.635933557560964
  0
LINE
  5
25F
100
AcDbEntity
  8
jaw_spline_bar
  6
ByLayer
 62
  256
370
   -1
100
AcDbLine
 10
147
 20
-70
 11
147
 21
4.516140383674886
  0
LINE
  5
260
100
AcDbEntity
  8
jaw_spline_bar
  6
ByLayer
 62
  256
370
   -1
100
AcDbLine
 10
148
 20
-70
 11
148
 21
6.403669807448351
  0
LINE
  5
261
100
AcDbEntity
  8
jaw_spline_bar
  6
ByLayer
 62
  256
370
   -1
100
AcDbLine
 10
150
 20
-70
 11
150
 21
9.632980682759536
  0
LINE
  5
262
100
AcDbEntity
  8
jaw_spline_bar
  6
ByLayer
 62
  256
370
   -1
100
AcDbLine
 10
151
 20
-70
 11
151
 21
10.72447568276596
  0
LINE
  5
263
100
AcDbEntity
  8
jaw_spline_bar
  6
ByLayer
 62
  256
370
   -1
100
AcDbLine
 10
149
 20
-70
 11
149
 21
8.284224876793568
  0
LINE
  5
264
100
AcDbEntity
  8
jaw_spline_bar
  6
ByLayer
 62
  256
370
   -1
100
AcDbLine
 10
152
 20
-70
 11
152
 21
11.60907927039984
  0
LINE
  5
265
100
AcDbEntity
  8
jaw_spline_bar
  6
ByLayer
 62
  256
370
   -1
100
AcDbLine
 10
154
 20
-70
 11
154
 21
11.69149197932195
  0
LINE
  5
266
100
AcDbEntity
  8
jaw_spline_bar
  6
ByLayer
 62
  256
370
   -1
100
AcDbLine
 10
155
 20
-70
 11
155
 21
10.931142936284
  0
LINE
  5
267
100
AcDbEntity
  8
jaw_spline_bar
  6
ByLayer
 62
  256
370
   -1
100
AcDbLine
 10
156
 20
-70
 11
156
 21
10.07344222124889
  0
LINE
  5
268
100
AcDbEntity
  8
jaw_spline_bar
  6
ByLayer
 62
  256
370
   -1
100
AcDbLine
 10
153
 20
-70
 11
153
 21
12.05545345729475
  0
LINE
  5
269
100
AcDbEntity
  8
jaw_spline_bar
  6
ByLayer
 62
  256
370
   -1
100
AcDbLine
 10
157
 20
-70
 11
157
 21
9.113716860587294
  0
LINE
  5
26A
100
AcDbEntity
  8
jaw_spline_bar
  6
ByLayer
 62
  256
370
   -1
100
AcDbLine
 10
158
 20
-70
 11
158
 21
8.039778651502923
  0
LINE
  5
26B
100
AcDbEntity
  8
jaw_spline_bar
  6
ByLayer
 62
  256
370
   -1
100
AcDbLine
 10
159
 20
-70
 11
159
 21
6.902379017490545
  0
LINE
  5
26C
100
AcDbEntity
  8
jaw_spline_bar
  6
ByLayer
 62
  256
370
   -1
100
AcDbLine
 10
160
 20
-70
 11
160
 21
5.748746412233628
  0
LINE
  5
26D
100
AcDbEntity
  8
jaw_spline_bar
  6
ByLayer
 62
  256
370
   -1
100
AcDbLine
 10
161
 20
-70
 11
161
 21
4.589437554415317
  0
LINE
  5
26E
100
AcDbEntity
  8
jaw_spline_bar
  6
ByLayer
 62
  256
370
   -1
100
AcDbLine
 10
162
 20
-70
 11
162
 21
3.45832363190183
  0
LINE
  5
26F
100
AcDbEntity
  8
jaw_spline_bar
  6
ByLayer
 62
  256
370
   -1
100
AcDbLine
 10
163
 20
-70
 11
163
 21
2.585374749791295
  0
LINE
  5
270
100
AcDbEntity
  8
jaw_spline_bar
  6
ByLayer
 62
  256
370
   -1
100
AcDbLine
 10
164
 20
-70
 11
164
 21
1.934813839318312
  0
LINE
  5
271
100
AcDbEntity
  8
jaw_spline_bar
  6
ByLayer
 62
  256
370
   -1
100
AcDbLine
 10
165
 20
-70
 11
165
 21
1.40512565735783
  0
LINE
  5
272
100
AcDbEntity
  8
jaw_spline_bar
  6
ByLayer
 62
  256
370
   -1
100
AcDbLine
 10
166
 20
-70
 11
166
 21
0.9626689142172791
  0
LINE
  5
273
100
AcDbEntity
  8
jaw_spline_bar
  6
ByLayer
 62
  256
370
   -1
100
AcDbLine
 10
167
 20
-70
 11
167
 21
0.5673592137373876
  0
LINE
  5
274
100
AcDbEntity
  8
jaw_spline_bar
  6
ByLayer
 62
  256
370
   -1
100
AcDbLine
 10
168
 20
-70
 11
168
 21
0.2135585686955832
  0
LINE
  5
275
100
AcDbEntity
  8
jaw_spline_bar
  6
ByLayer
 62
  256
370
   -1
100
AcDbLine
 10
169
 20
-70
 11
169
 21
-0.04607070711231111
  0
LINE
  5
276
100
AcDbEntity
  8
jaw_spline_bar
  6
ByLayer
 62
  256
370
   -1
100
AcDbLine
 10
170
 20
-70
 11
170
 21
-0.167555111328974
  0
LINE
  5
277
100
AcDbEntity
  8
jaw_spline_bar
  6
ByLayer
 62
  256
370
   -1
100
AcDbLine
 10
171
 20
-70
 11
171
 21
-0.271082448838702
  0
LINE
  5
278
100
AcDbEntity
  8
jaw_spline_bar
  6
ByLayer
 62
  256
370
   -1
100
AcDbLine
 10
172
 20
-70
 11
172
 21
-0.5579124967720567
  0
LINE
  5
279
100
AcDbEntity
  8
jaw_spline_bar
  6
ByLayer
 62
  256
370
   -1
100
AcDbLine
 10
173
 20
-70
 11
173
 21
-1.002411936563657
  0
LINE
  5
27A
100
AcDbEntity
  8
jaw_spline_bar
  6
ByLayer
 62
  256
370
   -1
100
AcDbLine
 10
174
 20
-70
 11
174
 21
-1.605654891524977
  0
LINE
  5
27B
100
AcDbEntity
  8
jaw_spline_bar
  6
ByLayer
 62
  256
370
   -1
100
AcDbLine
 10
175
 20
-70
 11
175
 21
-2.37021133988827
  0
LINE
  5
27C
100
AcDbEntity
  8
jaw_spline_bar
  6
ByLayer
 62
  256
370
   -1
100
AcDbLine
 10
176
 20
-70
 11
176
 21
-3.264516016352507
  0
LINE
  5
27D
100
AcDbEntity
  8
jaw_spline_bar
  6
ByLayer
 62
  256
370
   -1
100
AcDbLine
 10
177
 20
-70
 11
177
 21
-4.257587734897573
  0
LINE
  5
27E
100
AcDbEntity
  8
jaw_spline_bar
  6
ByLayer
 62
  256
370
   -1
100
AcDbLine
 10
180
 20
-70
 11
180
 21
-7.45192971017652
  0
LINE
  5
27F
100
AcDbEntity
  8
jaw_spline_bar
  6
ByLayer
 62
  256
370
   -1
100
AcDbLine
 10
181
 20
-70
 11
181
 21
-9.064191297212449
  0
LINE
  5
280
100
AcDbEntity
  8
jaw_spline_bar
  6
ByLayer
 62
  256
370
   -1
100
AcDbLine
 10
178
 20
-70
 11
178
 21
-5.343414540480437
  0
LINE
  5
281
100
AcDbEntity
  8
jaw_spline_bar
  6
ByLayer
 62
  256
370
   -1
100
AcDbLine
 10
179
 20
-70
 11
179.0000000000001
 21
-6.348466857080924
  0
LINE
  5
282
100
AcDbEntity
  8
jaw_spline_bar
  6
ByLayer
 62
  256
370
   -1
100
AcDbLine
 10
182
 20
-70
 11
182
 21
-10.10883087926416
  0
LINE
  5
283
100
AcDbEntity
  8
jaw_spline_bar
  6
ByLayer
 62
  256
370
   -1
100
AcDbLine
 10
183
 20
-70
 11
183
 21
-10.70662833776714
  0
LINE
  5
284
100
AcDbEntity
  8
jaw_spline_bar
  6
ByLayer
 62
  256
370
   -1
100
AcDbLine
 10
184
 20
-70
 11
184
 21
-11.05394386687635
  0
LINE
  5
285
100
AcDbEntity
  8
jaw_spline_bar
  6
ByLayer
 62
  256
370
   -1
100
AcDbLine
 10
186
 20
-70
 11
185.9999999999999
 21
-10.87345949179788
  0
LINE
  5
286
100
AcDbEntity
  8
jaw_spline_bar
  6
ByLayer
 62
  256
370
   -1
100
AcDbLine
 10
185
 20
-70
 11
185
 21
-11.11305632548239
  0
LINE
  5
287
100
AcDbEntity
  8
jaw_spline_bar
  6
ByLayer
 62
  256
370
   -1
100
AcDbLine
 10
188
 20
-70
 11
188
 21
-8.87566205989391
  0
LINE
  5
288
100
AcDbEntity
  8
jaw_spline_bar
  6
ByLayer
 62
  256
370
   -1
100
AcDbLine
 10
187
 20
-70
 11
187
 21
-10.25017065436901
  0
LINE
  5
289
100
AcDbEntity
  8
jaw_spline_bar
  6
ByLayer
 62
  256
370
   -1
100
AcDbLine
 10
189
 20
-70
 11
189.0000000000001
 21
-7.188903965894079
  0
LINE
  5
28A
100
AcDbEntity
  8
jaw_spline_bar
  6
ByLayer
 62
  256
370
   -1
100
AcDbLine
 10
191
 20
-70
 11
191
 21
-3.446239399922577
  0
LINE
  5
28B
100
AcDbEntity
  8
jaw_spline_bar
  6
ByLayer
 62
  256
370
   -1
100
AcDbLine
 10
190
 20
-70
 11
190
 21
-5.384266446018181
  0
LINE
  5
28C
100
AcDbEntity
  8
jaw_spline_bar
  6
ByLayer
 62
  256
370
   -1
100
AcDbLine
 10
192
 20
-70
 11
192
 21
-1.736252289539529
  0
LINE
  5
28D
100
AcDbEntity
  8
jaw_spline_bar
  6
ByLayer
 62
  256
370
   -1
100
AcDbLine
 10
193
 20
-70
 11
193
 21
-0.5223065398761534
  0
LINE
  5
28E
100
AcDbEntity
  8
jaw_spline_bar
  6
ByLayer
 62
  256
370
   -1
100
AcDbLine
 10
195
 20
-70
 11
195
 21
0.2339524591999999
  0
LINE
  5
28F
100
AcDbEntity
  8
jaw_spline_bar
  6
ByLayer
 62
  256
370
   -1
100
AcDbLine
 10
197
 20
-70
 11
197
 21
0.1126826918781692
  0
LINE
  5
290
100
AcDbEntity
  8
jaw_spline_bar
  6
ByLayer
 62
  256
370
   -1
100
AcDbLine
 10
198
 20
-70
 11
198
 21
0.1109700225893501
  0
LINE
  5
291
100
AcDbEntity
  8
jaw_spline_bar
  6
ByLayer
 62
  256
370
   -1
100
AcDbLine
 10
201
 20
-70
 11
201
 21
0.109285966345709
  0
LINE
  5
292
100
AcDbEntity
  8
jaw_spline_bar
  6
ByLayer
 62
  256
370
   -1
100
AcDbLine
 10
194
 20
-70
 11
194
 21
0.1223285447247262
  0
LINE
  5
293
100
AcDbEntity
  8
jaw_spline_bar
  6
ByLayer
 62
  256
370
   -1
100
AcDbLine
 10
196
 20
-70
 11
196
 21
0.1077654087549259
  0
LINE
  5
294
100
AcDbEntity
  8
jaw_spline_bar
  6
ByLayer
 62
  256
370
   -1
100
AcDbLine
 10
203
 20
-70
 11
203
 21
0.1088970878528914
  0
LINE
  5
295
100
AcDbEntity
  8
jaw_spline_bar
  6
ByLayer
 62
  256
370
   -1
100
AcDbLine
 10
200
 20
-70
 11
200.0000000000001
 21
0.1095922386857135
  0
LINE
  5
296
100
AcDbEntity
  8
jaw_spline_bar
  6
ByLayer
 62
  256
370
   -1
100
AcDbLine
 10
199
 20
-70
 11
199
 21
0.1100505058922791
  0
LINE
  5
297
100
AcDbEntity
  8
jaw_spline_bar
  6
ByLayer
 62
  256
370
   -1
100
AcDbLine
 10
202
 20
-70
 11
202
 21
0.1090638154659677
  0
LINE
  5
298
100
AcDbEntity
  8
jaw_spline_bar
  6
ByLayer
 62
  256
370
   -1
100
AcDbLine
 10
204
 20
-70
 11
204
 21
0.1087704355085199
  0
LINE
  5
299
100
AcDbEntity
  8
jaw_spline_bar
  6
ByLayer
 62
  256
370
   -1
100
AcDbLine
 10
205
 20
-70
 11
204.9999999999999
 21
0.1086745081935813
  0
LINE
  5
29A
100
AcDbEntity
  8
jaw_spline_bar
  6
ByLayer
 62
  256
370
   -1
100
AcDbLine
 10
206
 20
-70
 11
206
 21
0.1086031092837712
  0
LINE
  5
29B
100
AcDbEntity
  8
jaw_spline_bar
  6
ByLayer
 62
  256
370
   -1
100
AcDbLine
 10
208
 20
-70
 11
208
 21
0.1085176222812054
  0
LINE
  5
29C
100
AcDbEntity
  8
jaw_spline_bar
  6
ByLayer
 62
  256
370
   -1
100
AcDbLine
 10
209
 20
-70
 11
209
 21
0.1084978967485548
  0
LINE
  5
29D
100
AcDbEntity
  8
jaw_spline_bar
  6
ByLayer
 62
  256
370
   -1
100
AcDbLine
 10
207
 20
-70
 11
207
 21
0.1085518813989481
  0
LINE
  5
29E
100
AcDbEntity
  8
jaw_spline_bar
  6
ByLayer
 62
  256
370
   -1
100
AcDbLine
 10
210
 20
-70
 11
210
 21
0.108490801719184
  0
LINE
  5
29F
100
AcDbEntity
  8
jaw_spline_bar
  6
ByLayer
 62
  256
370
   -1
100
AcDbLine
 10
212
 20
-70
 11
212
 21
0.1085087027073623
  0
LINE
  5
2A0
100
AcDbEntity
  8
jaw_spline_bar
  6
ByLayer
 62
  256
370
   -1
100
AcDbLine
 10
211
 20
-70
 11
211
 21
0.1084948164009502
  0
LINE
  5
2A1
100
AcDbEntity
  8
jaw_spline_bar
  6
ByLayer
 62
  256
370
   -1
100
AcDbLine
 10
213
 20
-70
 11
213
 21
0.1085314367343985
  0
LINE
  5
2A2
100
AcDbEntity
  8
jaw_spline_bar
  6
ByLayer
 62
  256
370
   -1
100
AcDbLine
 10
214
 20
-70
 11
214
 21
0.1085621602189688
  0
LINE
  5
2A3
100
AcDbEntity
  8
jaw_spline_bar
  6
ByLayer
 62
  256
370
   -1
100
AcDbLine
 10
215
 20
-70
 11
215
 21
0.1086001452877885
  0
LINE
  5
2A4
100
AcDbEntity
  8
jaw_spline_bar
  6
ByLayer
 62
  256
370
   -1
100
AcDbLine
 10
216
 20
-70
 11
216
 21
0.1086447683025561
  0
LINE
  5
2A5
100
AcDbEntity
  8
jaw_spline_bar
  6
ByLayer
 62
  256
370
   -1
100
AcDbLine
 10
217
 20
-70
 11
217
 21
0.1086954900871843
  0
LINE
  5
2A6
100
AcDbEntity
  8
jaw_spline_bar
  6
ByLayer
 62
  256
370
   -1
100
AcDbLine
 10
218
 20
-70
 11
218
 21
0.1087518407310376
  0
LINE
  5
2A7
100
AcDbEntity
  8
jaw_spline_bar
  6
ByLayer
 62
  256
370
   -1
100
AcDbLine
 10
219
 20
-70
 11
219
 21
0.1088134077367592
  0
LINE
  5
2A8
100
AcDbEntity
  8
jaw_spline_bar
  6
ByLayer
 62
  256
370
   -1
100
AcDbLine
 10
220
 20
-70
 11
220
 21
0.1088798266547315
  0
LINE
  5
2A9
100
AcDbEntity
  8
jaw_spline_bar
  6
ByLayer
 62
  256
370
   -1
100
AcDbLine
 10
221
 20
-70
 11
221
 21
0.108950773594783
  0
LINE
  5
2AA
100
AcDbEntity
  8
jaw_spline_bar
  6
ByLayer
 62
  256
370
   -1
100
AcDbLine
 10
222
 20
-70
 11
222
 21
0.1090259591747584
  0
LINE
  5
2AB
100
AcDbEntity
  8
jaw_spline_bar
  6
ByLayer
 62
  256
370
   -1
100
AcDbLine
 10
223
 20
-70
 11
223
 21
0.1091051235826888
  0
LINE
  5
2AC
100
AcDbEntity
  8
jaw_spline_bar
  6
ByLayer
 62
  256
370
   -1
100
AcDbLine
 10
224
 20
-70
 11
224
 21
0.1091880325118902
  0
LINE
  5
2AD
100
AcDbEntity
  8
jaw_spline_bar
  6
ByLayer
 62
  256
370
   -1
100
AcDbLine
 10
225
 20
-70
 11
225
 21
0.109274473787473
  0
LINE
  5
2AE
100
AcDbEntity
  8
jaw_spline_bar
  6
ByLayer
 62
  256
370
   -1
100
AcDbLine
 10
226
 20
-70
 11
226
 21
0.1093642545457384
  0
LINE
  5
2AF
100
AcDbEntity
  8
jaw_spline_bar
  6
ByLayer
 62
  256
370
   -1
100
AcDbLine
 10
227
 20
-70
 11
227
 21
0.1094571988595857
  0
LINE
  5
2B0
100
AcDbEntity
  8
jaw_spline_bar
  6
ByLayer
 62
  256
370
   -1
100
AcDbLine
 10
228
 20
-70
 11
228
 21
0.1095531457266469
  0
LINE
  5
2B1
100
AcDbEntity
  8
jaw_spline_bar
  6
ByLayer
 62
  256
370
   -1
100
AcDbLine
 10
229
 20
-70
 11
229
 21
0.109651947354642
  0
LINE
  5
2B2
100
AcDbEntity
  8
jaw_spline_bar
  6
ByLayer
 62
  256
370
   -1
100
AcDbLine
 10
230
 20
-70
 11
230
 21
0.1097518859789076
  0
LINE
  5
2B3
100
AcDbEntity
  8
jaw_spline_bar
  6
ByLayer
 62
  256
370
   -1
100
AcDbLine
 10
231
 20
-70
 11
231
 21
0.1098509181026487
  0
LINE
  5
2B4
100
AcDbEntity
  8
jaw_spline_bar
  6
ByLayer
 62
  256
370
   -1
100
AcDbLine
 10
232
 20
-70
 11
232
 21
0.1099489910792717
  0
LINE
  5
2B5
100
AcDbEntity
  8
jaw_spline_bar
  6
ByLayer
 62
  256
370
   -1
100
AcDbLine
 10
233
 20
-70
 11
233
 21
0.1100460538526334
  0
LINE
  5
2B6
100
AcDbEntity
  8
jaw_spline_bar
  6
ByLayer
 62
  256
370
   -1
100
AcDbLine
 10
234
 20
-70
 11
234
 21
0.110142050669543
  0
LINE
  5
2B7
100
AcDbEntity
  8
jaw_spline_bar
  6
ByLayer
 62
  256
370
   -1
100
AcDbLine
 10
235
 20
-70
 11
235
 21
0.1102369204515693
  0
LINE
  5
2B8
100
AcDbEntity
  8
jaw_spline_bar
  6
ByLayer
 62
  256
370
   -1
100
AcDbLine
 10
236
 20
-70
 11
236
 21
0.1103305960545157
  0
LINE
  5
2B9
100
AcDbEntity
  8
jaw_spline_bar
  6
ByLayer
 62
  256
370
   -1
100
AcDbLine
 10
237
 20
-70
 11
237
 21
0.1104230033899873
  0
LINE
  5
2BA
100
AcDbEntity
  8
jaw_spline_bar
  6
ByLayer
 62
  256
370
   -1
100
AcDbLine
 10
238
 20
-70
 11
238
 21
0.1105140603763001
  0
LINE
  5
2BB
100
AcDbEntity
  8
jaw_spline_bar
  6
ByLayer
 62
  256
370
   -1
100
AcDbLine
 10
239
 20
-70
 11
239
 21
0.1106036756763688
  0
LINE
  5
2BC
100
AcDbEntity
  8
jaw_spline_bar
  6
ByLayer
 62
  256
370
   -1
100
AcDbLine
 10
240
 20
-70
 11
240
 21
0.1106917471671942
  0
LINE
  5
2BD
100
AcDbEntity
  8
jaw_spline_bar
  6
ByLayer
 62
  256
370
   -1
100
AcDbLine
 10
242
 20
-70
 11
242
 21
0.110862784626844
  0
LINE
  5
2BE
100
AcDbEntity
  8
jaw_spline_bar
  6
ByLayer
 62
  256
370
   -1
100
AcDbLine
 10
241
 20
-70
 11
241
 21
0.1107781600677048
  0
LINE
  5
2BF
100
AcDbEntity
  8
jaw_spline_bar
  6
ByLayer
 62
  256
370
   -1
100
AcDbLine
 10
243
 20
-70
 11
243.0000000000001
 21
0.1109454732386499
  0
LINE
  5
2C0
100
AcDbEntity
  8
jaw_spline_bar
  6
ByLayer
 62
  256
370
   -1
100
AcDbLine
 10
244
 20
-70
 11
244
 21
0.1110260568005528
  0
LINE
  5
2C1
100
AcDbEntity
  8
jaw_spline_bar
  6
ByLayer
 62
  256
370
   -1
100
AcDbLine
 10
245
 20
-70
 11
245.0000000000001
 21
0.1111043400571113
  0
LINE
  5
2C2
100
AcDbEntity
  8
jaw_spline_bar
  6
ByLayer
 62
  256
370
   -1
100
AcDbLine
 10
246
 20
-70
 11
246
 21
0.1111800955607211
  0
LINE
  5
2C3
100
AcDbEntity
  8
jaw_spline_bar
  6
ByLayer
 62
  256
370
   -1
100
AcDbLine
 10
247
 20
-70
 11
246.9999999999999
 21
0.1112530557114031
  0
LINE
  5
2C4
100
AcDbEntity
  8
jaw_spline_bar
  6
ByLayer
 62
  256
370
   -1
100
AcDbLine
 10
248
 20
-70
 11
247.9999999999999
 21
0.1113229020715278
  0
LINE
  5
2C5
100
AcDbEntity
  8
jaw_spline_bar
  6
ByLayer
 62
  256
370
   -1
100
AcDbLine
 10
250
 20
-70
 11
249.9999999999999
 21
0.1114516316915999
  0
LINE
  5
2C6
100
AcDbEntity
  8
jaw_spline_bar
  6
ByLayer
 62
  256
370
   -1
100
AcDbLine
 10
249
 20
-70
 11
249
 21
0.1113892507203626
  0
LINE
  5
2C7
100
AcDbEntity
  8
jaw_spline_bar
  6
ByLayer
 62
  256
370
   -1
100
AcDbLine
 10
253
 20
-70
 11
253
 21
0.1116082422483976
  0
LINE
  5
2C8
100
AcDbEntity
  8
jaw_spline_bar
  6
ByLayer
 62
  256
370
   -1
100
AcDbLine
 10
252
 20
-70
 11
252
 21
0.1115619877105524
  0
LINE
  5
2C9
100
AcDbEntity
  8
jaw_spline_bar
  6
ByLayer
 62
  256
370
   -1
100
AcDbLine
 10
251
 20
-70
 11
251
 21
0.1115094592799731
  0
LINE
  5
2CA
100
AcDbEntity
  8
jaw_spline_bar
  6
ByLayer
 62
  256
370
   -1
100
AcDbLine
 10
254
 20
-70
 11
254
 21
0.111646906737728
  0
LINE
  5
2CB
100
AcDbEntity
  8
jaw_spline_bar
  6
ByLayer
 62
  256
370
   -1
100
AcDbLine
 10
257
 20
-70
 11
257
 21
0.1116935329228411
  0
LINE
  5
2CC
100
AcDbEntity
  8
jaw_spline_bar
  6
ByLayer
 62
  256
370
   -1
100
AcDbLine
 10
255
 20
-70
 11
255
 21
0.111676128253522
  0
LINE
  5
2CD
100
AcDbEntity
  8
jaw_spline_bar
  6
ByLayer
 62
  256
370
   -1
100
AcDbLine
 10
256
 20
-70
 11
256
 21
0.1116931491541473
  0
LINE
  5
2CE
100
AcDbEntity
  8
jaw_spline_bar
  6
ByLayer
 62
  256
370
   -1
100
AcDbLine
 10
258
 20
-70
 11
258
 21
0.1116692482116591
  0
LINE
  5
2CF
100
AcDbEntity
  8
jaw_spline_bar
  6
ByLayer
 62
  256
370
   -1
100
AcDbLine
 10
259
 20
-70
 11
259
 21
0.1116024617281699
  0
LINE
  5
2D0
100
AcDbEntity
  8
jaw_spline_bar
  6
ByLayer
 62
  256
370
   -1
100
AcDbLine
 10
260
 20
-70
 11
260
 21
0.1114286946337911
  0
LINE
  5
2D1
100
AcDbEntity
  8
jaw_spline_bar
  6
ByLayer
 62
  256
370
   -1
100
AcDbLine
 10
261
 20
-70
 11
261.0000000000001
 21
0.1109633831288164
  0
LINE
  5
2D2
100
AcDbEntity
  8
jaw_spline_bar
  6
ByLayer
 62
  256
370
   -1
100
AcDbLine
 10
262
 20
-70
 11
261.9999999999999
 21
0.1156313695840472
  0
LINE
  5
2D3
100
AcDbEntity
  8
jaw_spline_bar
  6
ByLayer
 62
  256
370
   -1
100
AcDbLine
 10
263
 20
-70
 11
262.9999999999999
 21
0.09648638406803285
  0
LINE
  5
2D4
100
AcDbEntity
  8
jaw_spline_bar
  6
ByLayer
 62
  256
370
   -1
100
AcDbLine
 10
264
 20
-70
 11
264
 21
0.3109562498905227
  0
LINE
  5
2D5
100
AcDbEntity
  8
jaw_spline_bar
  6
ByLayer
 62
  256
370
   -1
100
AcDbLine
 10
265
 20
-70
 11
265
 21
0.770514271934828
  0
LINE
  5
2D6
100
AcDbEntity
  8
jaw_spline_bar
  6
ByLayer
 62
  256
370
   -1
100
AcDbLine
 10
266
 20
-70
 11
266
 21
1.437539589991741
  0
LINE
  5
2D7
100
AcDbEntity
  8
jaw_spline_bar
  6
ByLayer
 62
  256
370
   -1
100
AcDbLine
 10
267
 20
-70
 11
267
 21
2.423906021447092
  0
LINE
  5
2D8
100
AcDbEntity
  8
jaw_spline_bar
  6
ByLayer
 62
  256
370
   -1
100
AcDbLine
 10
268
 20
-70
 11
268
 21
3.649689111108336
  0
LINE
  5
2D9
100
AcDbEntity
  8
jaw_spline_bar
  6
ByLayer
 62
  256
370
   -1
100
AcDbLine
 10
269
 20
-70
 11
269
 21
5.245884447367452
  0
LINE
  5
2DA
100
AcDbEntity
  8
jaw_spline_bar
  6
ByLayer
 62
  256
370
   -1
100
AcDbLine
 10
270
 20
-70
 11
270
 21
7.40109525155424
  0
LINE
  5
2DB
100
AcDbEntity
  8
jaw_spline_bar
  6
ByLayer
 62
  256
370
   -1
100
AcDbLine
 10
271
 20
-70
 11
271
 21
9.389907511089749
  0
LINE
  5
2DC
100
AcDbEntity
  8
jaw_spline_bar
  6
ByLayer
 62
  256
370
   -1
100
AcDbLine
 10
272
 20
-70
 11
272.0000000000001
 21
10.95417011701514
  0
LINE
  5
2DD
100
AcDbEntity
  8
jaw_spline_bar
  6
ByLayer
 62
  256
370
   -1
100
AcDbLine
 10
273
 20
-70
 11
273
 21
12.32233808735608
  0
LINE
  5
2DE
100
AcDbEntity
  8
jaw_spline_bar
  6
ByLayer
 62
  256
370
   -1
100
AcDbLine
 10
274
 20
-70
 11
274
 21
13.44958173544926
  0
LINE
  5
2DF
100
AcDbEntity
  8
jaw_spline_bar
  6
ByLayer
 62
  256
370
   -1
100
AcDbLine
 10
275
 20
-70
 11
275
 21
14.26807216716849
  0
LINE
  5
2E0
100
AcDbEntity
  8
jaw_spline_bar
  6
ByLayer
 62
  256
370
   -1
100
AcDbLine
 10
276
 20
-70
 11
276
 21
14.87485565758631
  0
LINE
  5
2E1
100
AcDbEntity
  8
jaw_spline_bar
  6
ByLayer
 62
  256
370
   -1
100
AcDbLine
 10
277
 20
-70
 11
276.9999999999999
 21
15.25909373659458
  0
LINE
  5
2E2
100
AcDbEntity
  8
jaw_spline_bar
  6
ByLayer
 62
  256
370
   -1
100
AcDbLine
 10
278
 20
-70
 11
278
 21
15.21422540536869
  0
LINE
  5
2E3
100
AcDbEntity
  8
jaw_spline_bar
  6
ByLayer
 62
  256
370
   -1
100
AcDbLine
 10
279
 20
-70
 11
279
 21
14.80074858635147
  0
LINE
  5
2E4
100
AcDbEntity
  8
jaw_spline_bar
  6
ByLayer
 62
  256
370
   -1
100
AcDbLine
 10
280
 20
-70
 11
279.9999999999999
 21
14.03291255951283
  0
LINE
  5
2E5
100
AcDbEntity
  8
jaw_spline_bar
  6
ByLayer
 62
  256
370
   -1
100
AcDbLine
 10
282
 20
-70
 11
282
 21
11.40960563470114
  0
LINE
  5
2E6
100
AcDbEntity
  8
jaw_spline_bar
  6
ByLayer
 62
  256
370
   -1
100
AcDbLine
 10
281
 20
-70
 11
281.0000000000001
 21
12.80049481290133
  0
LINE
  5
2E7
100
AcDbEntity
  8
jaw_spline_bar
  6
ByLayer
 62
  256
370
   -1
100
AcDbLine
 10
283
 20
-70
 11
282.9999999999999
 21
9.969557086020453
  0
LINE
  5
2E8
100
AcDbEntity
  8
jaw_spline_bar
  6
ByLayer
 62
  256
370
   -1
100
AcDbLine
 10
284
 20
-70
 11
284
 21
8.445677438518047
  0
LINE
  5
2E9
100
AcDbEntity
  8
jaw_spline_bar
  6
ByLayer
 62
  256
370
   -1
100
AcDbLine
 10
285
 20
-70
 11
285
 21
6.926072354267051
  0
LINE
  5
2EA
100
AcDbEntity
  8
jaw_spline_bar
  6
ByLayer
 62
  256
370
   -1
100
AcDbLine
 10
286
 20
-70
 11
285.9999999999999
 21
5.551251498235088
  0
LINE
  5
2EB
100
AcDbEntity
  8
jaw_spline_bar
  6
ByLayer
 62
  256
370
   -1
100
AcDbLine
 10
287
 20
-70
 11
287
 21
4.309861125853606
  0
LINE
  5
2EC
100
AcDbEntity
  8
jaw_spline_bar
  6
ByLayer
 62
  256
370
   -1
100
AcDbLine
 10
288
 20
-70
 11
288
 21
3.201192528752275
  0
LINE
  5
2ED
100
AcDbEntity
  8
jaw_spline_bar
  6
ByLayer
 62
  256
370
   -1
100
AcDbLine
 10
289
 20
-70
 11
289
 21
2.196630675502226
  0
LINE
  5
2EE
100
AcDbEntity
  8
jaw_spline_bar
  6
ByLayer
 62
  256
370
   -1
100
AcDbLine
 10
290
 20
-70
 11
290
 21
1.320957332622084
  0
LINE
  5
2EF
100
AcDbEntity
  8
jaw_spline_bar
  6
ByLayer
 62
  256
370
   -1
100
AcDbLine
 10
291
 20
-70
 11
291
 21
0.6738928360527068
  0
LINE
  5
2F0
100
AcDbEntity
  8
jaw_spline_bar
  6
ByLayer
 62
  256
370
   -1
100
AcDbLine
 10
292
 20
-70
 11
292.0000000000001
 21
0.1733322640922743
  0
LINE
  5
2F1
100
AcDbEntity
  8
jaw_spline_bar
  6
ByLayer
 62
  256
370
   -1
100
AcDbLine
 10
293
 20
-70
 11
293
 21
-0.2753303897402085
  0
LINE
  5
2F2
100
AcDbEntity
  8
jaw_spline_bar
  6
ByLayer
 62
  256
370
   -1
100
AcDbLine
 10
294
 20
-70
 11
294
 21
-0.7021520822080076
  0
LINE
  5
2F3
100
AcDbEntity
  8
jaw_spline_bar
  6
ByLayer
 62
  256
370
   -1
100
AcDbLine
 10
296
 20
-70
 11
295.9999999999999
 21
-1.559552414201558
  0
LINE
  5
2F4
100
AcDbEntity
  8
jaw_spline_bar
  6
ByLayer
 62
  256
370
   -1
100
AcDbLine
 10
297
 20
-70
 11
297
 21
-2.088415220321367
  0
LINE
  5
2F5
100
AcDbEntity
  8
jaw_spline_bar
  6
ByLayer
 62
  256
370
   -1
100
AcDbLine
 10
295
 20
-70
 11
294.9999999999999
 21
-1.110843171895605
  0
LINE
  5
2F6
100
AcDbEntity
  8
jaw_spline_bar
  6
ByLayer
 62
  256
370
   -1
100
AcDbLine
 10
299
 20
-70
 11
299
 21
-3.474709457875154
  0
LINE
  5
2F7
100
AcDbEntity
  8
jaw_spline_bar
  6
ByLayer
 62
  256
370
   -1
100
AcDbLine
 10
298
 20
-70
 11
298
 21
-2.721383301815671
  0
LINE
  5
2F8
100
AcDbEntity
  8
jaw_spline_bar
  6
ByLayer
 62
  256
370
   -1
100
AcDbLine
 10
300
 20
-70
 11
300
 21
-4.38699713265332
  0
LINE
  5
2F9
100
AcDbEntity
  8
jaw_spline_bar
  6
ByLayer
 62
  256
370
   -1
100
AcDbLine
 10
301
 20
-70
 11
301
 21
-5.562912540438373
  0
LINE
  5
2FA
100
AcDbEntity
  8
jaw_spline_bar
  6
ByLayer
 62
  256
370
   -1
100
AcDbLine
 10
302
 20
-70
 11
302.0000000000001
 21
-7.091574398627687
  0
LINE
  5
2FB
100
AcDbEntity
  8
jaw_spline_bar
  6
ByLayer
 62
  256
370
   -1
100
AcDbLine
 10
303
 20
-70
 11
303
 21
-8.702345581607105
  0
LINE
  5
2FC
100
AcDbEntity
  8
jaw_spline_bar
  6
ByLayer
 62
  256
370
   -1
100
AcDbLine
 10
304
 20
-70
 11
304
 21
-10.5536590076372
  0
LINE
  5
2FD
100
AcDbEntity
  8
jaw_spline_bar
  6
ByLayer
 62
  256
370
   -1
100
AcDbLine
 10
305
 20
-70
 11
305
 21
-12.71206035628761
  0
LINE
  5
2FE
100
AcDbEntity
  8
jaw_spline_bar
  6
ByLayer
 62
  256
370
   -1
100
AcDbLine
 10
306
 20
-70
 11
305.9999999999999
 21
-14.11466109269869
  0
LINE
  5
2FF
100
AcDbEntity
  8
jaw_spline_bar
  6
ByLayer
 62
  256
370
   -1
100
AcDbLine
 10
307
 20
-70
 11
307.0000000000001
 21
-15.84745792943996
  0
LINE
  5
300
100
AcDbEntity
  8
jaw_spline_bar
  6
ByLayer
 62
  256
370
   -1
100
AcDbLine
 10
308
 20
-70
 11
308
 21
-17.12826472019859
  0
LINE
  5
301
100
AcDbEntity
  8
jaw_spline_bar
  6
ByLayer
 62
  256
370
   -1
100
AcDbLine
 10
309
 20
-70
 11
309
 21
-17.8503469923249
  0
LINE
  5
302
100
AcDbEntity
  8
jaw_spline_bar
  6
ByLayer
 62
  256
370
   -1
100
AcDbLine
 10
311
 20
-70
 11
311
 21
-17.38696054932084
  0
LINE
  5
303
100
AcDbEntity
  8
jaw_spline_bar
  6
ByLayer
 62
  256
370
   -1
100
AcDbLine
 10
310
 20
-70
 11
310
 21
-18.08352114110779
  0
LINE
  5
304
100
AcDbEntity
  8
jaw_spline_bar
  6
ByLayer
 62
  256
370
   -1
100
AcDbLine
 10
313
 20
-70
 11
313
 21
-13.78087528649245
  0
LINE
  5
305
100
AcDbEntity
  8
jaw_spline_bar
  6
ByLayer
 62
  256
370
   -1
100
AcDbLine
 10
312
 20
-70
 11
312
 21
-15.88669836550721
  0
LINE
  5
306
100
AcDbEntity
  8
jaw_spline_bar
  6
ByLayer
 62
  256
370
   -1
100
AcDbLine
 10
315
 20
-70
 11
314.9999999999999
 21
-7.452893846170873
  0
LINE
  5
307
100
AcDbEntity
  8
jaw_spline_bar
  6
ByLayer
 62
  256
370
   -1
100
AcDbLine
 10
314
 20
-70
 11
314
 21
-11.22522023261452
  0
LINE
  5
308
100
AcDbEntity
  8
jaw_spline_bar
  6
ByLayer
 62
  256
370
   -1
100
AcDbLine
 10
317
 20
-70
 11
317
 21
-1.656553650717465
  0
LINE
  5
309
100
AcDbEntity
  8
jaw_spline_bar
  6
ByLayer
 62
  256
370
   -1
100
AcDbLine
 10
316
 20
-70
 11
316
 21
-4.097024824053252
  0
LINE
  5
30A
100
AcDbEntity
  8
jaw_spline_bar
  6
ByLayer
 62
  256
370
   -1
100
AcDbLine
 10
318
 20
-70
 11
317.9999999999999
 21
-0.152366577462341
  0
LINE
  5
30B
100
AcDbEntity
  8
jaw_spline_bar
  6
ByLayer
 62
  256
370
   -1
100
AcDbLine
 10
320
 20
-70
 11
320
 21
0.05184996221775065
  0
LINE
  5
30C
100
AcDbEntity
  8
jaw_spline_bar
  6
ByLayer
 62
  256
370
   -1
100
AcDbLine
 10
321
 20
-70
 11
321
 21
-0.01177218347775658
  0
LINE
  5
30D
100
AcDbEntity
  8
jaw_spline_bar
  6
ByLayer
 62
  256
370
   -1
100
AcDbLine
 10
319
 20
-70
 11
319
 21
0.5241518729383341
  0
LINE
  5
30E
100
AcDbEntity
  8
jaw_spline_bar
  6
ByLayer
 62
  256
370
   -1
100
AcDbLine
 10
322
 20
-70
 11
322
 21
-0.00690879149258612
  0
LINE
  5
30F
100
AcDbEntity
  8
jaw_spline_bar
  6
ByLayer
 62
  256
370
   -1
100
AcDbLine
 10
325
 20
-70
 11
325
 21
-0.1473593409434829
  0
LINE
  5
310
100
AcDbEntity
  8
jaw_spline_bar
  6
ByLayer
 62
  256
370
   -1
100
AcDbLine
 10
324
 20
-70
 11
324
 21
0.01855115921269607
  0
LINE
  5
311
100
AcDbEntity
  8
jaw_spline_bar
  6
ByLayer
 62
  256
370
   -1
100
AcDbLine
 10
323
 20
-70
 11
322.9999999999999
 21
0.01180722974699107
  0
LINE
  5
312
100
AcDbEntity
  8
jaw_spline_bar
  6
ByLayer
 62
  256
370
   -1
100
AcDbLine
 10
326
 20
-70
 11
325.9999999999999
 21
-0.6853950964506421
  0
LINE
  5
313
100
AcDbEntity
  8
jaw_spline_bar
  6
ByLayer
 62
  256
370
   -1
100
AcDbLine
 10
327
 20
-70
 11
327
 21
-1.361929295478379
  0
LINE
  5
314
100
AcDbEntity
  8
jaw_spline_bar
  6
ByLayer
 62
  256
370
   -1
100
AcDbLine
 10
328
 20
-70
 11
327.9999999999999
 21
-2.125369719109649
  0
LINE
  5
315
100
AcDbEntity
  8
jaw_spline_bar
  6
ByLayer
 62
  256
370
   -1
100
AcDbLine
 10
329
 20
-70
 11
329
 21
-2.968358092908974
  0
LINE
  5
316
100
AcDbEntity
  8
jaw_spline_bar
  6
ByLayer
 62
  256
370
   -1
100
AcDbLine
 10
330
 20
-70
 11
330
 21
-3.923756050790475
  0
LINE
  5
317
100
AcDbEntity
  8
jaw_spline_bar
  6
ByLayer
 62
  256
370
   -1
100
AcDbLine
 10
331
 20
-70
 11
331
 21
-5.165896771886031
  0
LINE
  5
318
100
AcDbEntity
  8
jaw_spline_bar
  6
ByLayer
 62
  256
370
   -1
100
AcDbLine
 10
332
 20
-70
 11
332
 21
-7.095790355431901
  0
LINE
  5
319
100
AcDbEntity
  8
jaw_spline_bar
  6
ByLayer
 62
  256
370
   -1
100
AcDbLine
 10
333
 20
-70
 11
332.9999999999999
 21
-9.328886753853652
  0
LINE
  5
31A
100
AcDbEntity
  8
jaw_spline_bar
  6
ByLayer
 62
  256
370
   -1
100
AcDbLine
 10
334
 20
-70
 11
334
 21
-11.71963471074355
  0
LINE
  5
31B
100
AcDbEntity
  8
jaw_spline_bar
  6
ByLayer
 62
  256
370
   -1
100
AcDbLine
 10
335
 20
-70
 11
335
 21
-14.28878195974447
  0
LINE
  5
31C
100
AcDbEntity
  8
jaw_spline_bar
  6
ByLayer
 62
  256
370
   -1
100
AcDbLine
 10
336
 20
-70
 11
335.9999999999999
 21
-16.96917000103861
  0
LINE
  5
31D
100
AcDbEntity
  8
jaw_spline_bar
  6
ByLayer
 62
  256
370
   -1
100
AcDbLine
 10
337
 20
-70
 11
337
 21
-19.39287326176903
  0
LINE
  5
31E
100
AcDbEntity
  8
jaw_spline_bar
  6
ByLayer
 62
  256
370
   -1
100
AcDbLine
 10
338
 20
-70
 11
338
 21
-21.60741959746009
  0
LINE
  5
31F
100
AcDbEntity
  8
jaw_spline_bar
  6
ByLayer
 62
  256
370
   -1
100
AcDbLine
 10
339
 20
-70
 11
339
 21
-23.44009247527741
  0
LINE
  5
320
100
AcDbEntity
  8
jaw_spline_bar
  6
ByLayer
 62
  256
370
   -1
100
AcDbLine
 10
340
 20
-70
 11
340
 21
-24.47596222922542
  0
LINE
  5
321
100
AcDbEntity
  8
jaw_spline_bar
  6
ByLayer
 62
  256
370
   -1
100
AcDbLine
 10
341
 20
-70
 11
341
 21
-24.9470678757557
  0
LINE
  5
322
100
AcDbEntity
  8
jaw_spline_bar
  6
ByLayer
 62
  256
370
   -1
100
AcDbLine
 10
342
 20
-70
 11
342
 21
-24.93579887065355
  0
LINE
  5
323
100
AcDbEntity
  8
jaw_spline_bar
  6
ByLayer
 62
  256
370
   -1
100
AcDbLine
 10
343
 20
-70
 11
343
 21
-24.4482632285985
  0
LINE
  5
324
100
AcDbEntity
  8
jaw_spline_bar
  6
ByLayer
 62
  256
370
   -1
100
AcDbLine
 10
344
 20
-70
 11
344
 21
-23.44203216903676
  0
LINE
  5
325
100
AcDbEntity
  8
jaw_spline_bar
  6
ByLayer
 62
  256
370
   -1
100
AcDbLine
 10
345
 20
-70
 11
345
 21
-21.82859923714528
  0
LINE
  5
326
100
AcDbEntity
  8
jaw_spline_bar
  6
ByLayer
 62
  256
370
   -1
100
AcDbLine
 10
346
 20
-70
 11
346
 21
-19.74248991954101
  0
LINE
  5
327
100
AcDbEntity
  8
jaw_spline_bar
  6
ByLayer
 62
  256
370
   -1
100
AcDbLine
 10
349
 20
-70
 11
349
 21
-12.40392679908204
  0
LINE
  5
328
100
AcDbEntity
  8
jaw_spline_bar
  6
ByLayer
 62
  256
370
   -1
100
AcDbLine
 10
348
 20
-70
 11
348
 21
-15.3211164636453
  0
LINE
  5
329
100
AcDbEntity
  8
jaw_spline_bar
  6
ByLayer
 62
  256
370
   -1
100
AcDbLine
 10
347
 20
-70
 11
347.0000000000001
 21
-17.7098043828287
  0
LINE
  5
32A
100
AcDbEntity
  8
jaw_spline_bar
  6
ByLayer
 62
  256
370
   -1
100
AcDbLine
 10
350
 20
-70
 11
350
 21
-9.552093099859521
  0
LINE
  5
32B
100
AcDbEntity
  8
jaw_spline_bar
  6
ByLayer
 62
  256
370
   -1
100
AcDbLine
 10
352
 20
-70
 11
352
 21
-4.012163374025922
  0
LINE
  5
32C
100
AcDbEntity
  8
jaw_spline_bar
  6
ByLayer
 62
  256
370
   -1
100
AcDbLine
 10
354
 20
-70
 11
354
 21
1.716734073991302
  0
LINE
  5
32D
100
AcDbEntity
  8
jaw_spline_bar
  6
ByLayer
 62
  256
370
   -1
100
AcDbLine
 10
351
 20
-70
 11
350.9999999999999
 21
-6.731643187596363
  0
LINE
  5
32E
100
AcDbEntity
  8
jaw_spline_bar
  6
ByLayer
 62
  256
370
   -1
100
AcDbLine
 10
353
 20
-70
 11
353
 21
-1.360253940400282
  0
LINE
  5
32F
100
AcDbEntity
  8
jaw_spline_bar
  6
ByLayer
 62
  256
370
   -1
100
AcDbLine
 10
356
 20
-70
 11
356
 21
7.8288267457287
  0
LINE
  5
330
100
AcDbEntity
  8
jaw_spline_bar
  6
ByLayer
 62
  256
370
   -1
100
AcDbLine
 10
357
 20
-70
 11
357
 21
11.00361892929421
  0
LINE
  5
331
100
AcDbEntity
  8
jaw_spline_bar
  6
ByLayer
 62
  256
370
   -1
100
AcDbLine
 10
355
 20
-70
 11
355
 21
4.796695836625245
  0
LINE
  5
332
100
AcDbEntity
  8
jaw_spline_bar
  6
ByLayer
 62
  256
370
   -1
100
AcDbLine
 10
360
 20
-70
 11
360
 21
20
  0
LINE
  5
333
100
AcDbEntity
  8
jaw_spline_bar
  6
ByLayer
 62
  256
370
   -1
100
AcDbLine
 10
358
 20
-70
 11
358
 21
14.04837350948787
  0
LINE
  5
334
100
AcDbEntity
  8
jaw_spline_bar
  6
ByLayer
 62
  256
370
   -1
100
AcDbLine
 10
359
 20
-70
 11
358.9999999999999
 21
16.98354976859458
  0
ENDSEC
  0
SECTION
  2
OBJECTS
  0
DICTIONARY
  5
C
330
0
100
AcDbDictionary
281
    1
  3
ACAD_GROUP
350
D
  3
ACAD_IMAGE_DICT
350
335
  0
DICTIONARY
  5
D
330
C
100
AcDbDictionary
281
    1
  0
IMAGEDEF_REACTOR
  5
55
330
56
100
AcDbRasterImageDefReactor
 90
    2
330
56
  0
IMAGEDEF_REACTOR
  5
57
330
58
100
AcDbRasterImageDefReactor
 90
    2
330
58
  0
IMAGEDEF_REACTOR
  5
59
330
5A
100
AcDbRasterImageDefReactor
 90
    2
330
5A
  0
IMAGEDEF_REACTOR
  5
5B
330
5C
100
AcDbRasterImageDefReactor
 90
    2
330
5C
  0
IMAGEDEF_REACTOR
  5
5D
330
5E
100
AcDbRasterImageDefReactor
 90
    2
330
5E
  0
IMAGEDEF_REACTOR
  5
5F
330
60
100
AcDbRasterImageDefReactor
 90
    2
330
60
  0
DICTIONARY
  5
335
330
C
100
AcDbDictionary
281
    1
  3
Screen Shot 2019-03-22 at 17.27.58
350
54
  0
IMAGEDEF
  5
54
102
{ACAD_REACTORS
330
55
330
57
330
59
330
5B
330
5D
330
5F
102
}
100
AcDbRasterImageDef
 90
    0
  1
/Users/johnqu/Projects/My Tetra A3/Refs/Screen Shot 2019-03-22 at 17.27.58.png
 10
3266
 20
1374
 11
1
 21
1
280
    1
281
    0
  0
ENDSEC
  0
EOF
