999
dxfrw 0.6.3
  0
SECTION
  2
HEADER
  9
$ACADVER
  1
AC1021
  9
$DWGCODEPAGE
  3
ANSI_1252
  9
$INSBASE
 10
0
 20
0
 30
0
  9
$EXTMIN
 10
-39.03528937905335
 20
-254.0314833137761
 30
0
  9
$EXTMAX
 10
728.3860407609467
 20
215.8930924729481
 30
0
  9
$LIMMIN
 10
0
 20
0
  9
$LIMMAX
 10
420
 20
297
  9
$ORTHOMODE
 70
    0
  9
$REGENMODE
 70
    1
  9
$FILLMODE
 70
    1
  9
$QTEXTMODE
 70
    0
  9
$MIRRTEXT
 70
    0
  9
$LTSCALE
 40
1
  9
$ATTMODE
 70
    0
  9
$TEXTSIZE
 40
2.5
  9
$TRACEWID
 40
15.68
  9
$TEXTSTYLE
  7
STANDARD
  9
$CLAYER
  8
acc image2
  9
$CELTYPE
  6
BYLAYER
  9
$CECOLOR
 62
  256
  9
$CELTSCALE
 40
1
  9
$DISPSILH
 70
    0
  9
$DIMSCALE
 40
2.5
  9
$DIMASZ
 40
2.5
  9
$DIMEXO
 40
0.625
  9
$DIMDLI
 40
3.75
  9
$DIMRND
 40
0
  9
$DIMDLE
 40
0
  9
$DIMEXE
 40
1.25
  9
$DIMTP
 40
0
  9
$DIMTM
 40
0
  9
$DIMTXT
 40
2.5
  9
$DIMCEN
 40
2.5
  9
$DIMTSZ
 40
0
  9
$DIMTOL
 70
    0
  9
$DIMLIM
 70
    0
  9
$DIMTIH
 70
    0
  9
$DIMTOH
 70
    0
  9
$DIMSE1
 70
    0
  9
$DIMSE2
 70
    0
  9
$DIMTAD
 70
    1
  9
$DIMZIN
 70
    8
  9
$DIMBLK
  1

  9
$DIMASO
 70
    1
  9
$DIMSHO
 70
    1
  9
$DIMPOST
  1

  9
$DIMAPOST
  1

  9
$DIMALT
 70
    0
  9
$DIMALTD
 70
    3
  9
$DIMALTF
 40
0.03937
  9
$DIMLFAC
 40
1
  9
$DIMTOFL
 70
    1
  9
$DIMTVP
 40
0
  9
$DIMTIX
 70
    0
  9
$DIMSOXD
 70
    0
  9
$DIMSAH
 70
    0
  9
$DIMBLK1
  1

  9
$DIMBLK2
  1

  9
$DIMSTYLE
  2
STANDARD
  9
$DIMCLRD
 70
    0
  9
$DIMCLRE
 70
    0
  9
$DIMCLRT
 70
    0
  9
$DIMTFAC
 40
1
  9
$DIMGAP
 40
0.625
  9
$DIMJUST
 70
    0
  9
$DIMSD1
 70
    0
  9
$DIMSD2
 70
    0
  9
$DIMTOLJ
 70
    0
  9
$DIMTZIN
 70
    8
  9
$DIMALTZ
 70
    0
  9
$DIMALTTZ
 70
    0
  9
$DIMUPT
 70
    0
  9
$DIMDEC
 70
    2
  9
$DIMTDEC
 70
    2
  9
$DIMALTU
 70
    2
  9
$DIMALTTD
 70
    3
  9
$DIMTXSTY
  7
STANDARD
  9
$DIMAUNIT
 70
    0
  9
$DIMADEC
 70
    0
  9
$DIMALTRND
 40
0
  9
$DIMAZIN
 70
    0
  9
$DIMDSEP
 70
   44
  9
$DIMATFIT
 70
    3
  9
$DIMFRAC
 70
    0
  9
$DIMLDRBLK
  1
STANDARD
  9
$DIMLUNIT
 70
    2
  9
$DIMLWD
 70
   -2
  9
$DIMLWE
 70
   -2
  9
$DIMTMOVE
 70
    0
  9
$DIMFXL
 40
1
  9
$DIMFXLON
 70
    0
  9
$DIMJOGANG
 40
0.7854
  9
$DIMTFILL
 70
    0
  9
$DIMTFILLCLR
 70
    0
  9
$DIMARCSYM
 70
    0
  9
$DIMLTYPE
  6

  9
$DIMLTEX1
  6

  9
$DIMLTEX2
  6

  9
$LUNITS
 70
    2
  9
$LUPREC
 70
    4
  9
$SKETCHINC
 40
1
  9
$FILLETRAD
 40
0
  9
$AUNITS
 70
    0
  9
$AUPREC
 70
    2
  9
$MENU
  1
.
  9
$ELEVATION
 40
0
  9
$PELEVATION
 40
0
  9
$THICKNESS
 40
0
  9
$LIMCHECK
 70
    0
  9
$CHAMFERA
 40
0
  9
$CHAMFERB
 40
0
  9
$CHAMFERC
 40
0
  9
$CHAMFERD
 40
0
  9
$SKPOLY
 70
    0
  9
$USRTIMER
 70
    1
  9
$ANGBASE
 50
0
  9
$ANGDIR
 70
    0
  9
$PDMODE
 70
   34
  9
$PDSIZE
 40
0
  9
$PLINEWID
 40
0
  9
$SPLFRAME
 70
    0
  9
$SPLINETYPE
 70
    2
  9
$SPLINESEGS
 70
    8
  9
$HANDSEED
  5
20000
  9
$SURFTAB1
 70
    6
  9
$SURFTAB2
 70
    6
  9
$SURFTYPE
 70
    6
  9
$SURFU
 70
    6
  9
$SURFV
 70
    6
  9
$UCSBASE
  2

  9
$UCSNAME
  2

  9
$UCSORG
 10
0
 20
0
 30
0
  9
$UCSXDIR
 10
1
 20
0
 30
0
  9
$UCSYDIR
 10
0
 20
1
 30
0
  9
$UCSORTHOREF
  2

  9
$UCSORTHOVIEW
 70
    0
  9
$UCSORGTOP
 10
0
 20
0
 30
0
  9
$UCSORGBOTTOM
 10
0
 20
0
 30
0
  9
$UCSORGLEFT
 10
0
 20
0
 30
0
  9
$UCSORGRIGHT
 10
0
 20
0
 30
0
  9
$UCSORGFRONT
 10
0
 20
0
 30
0
  9
$UCSORGBACK
 10
0
 20
0
 30
0
  9
$PUCSBASE
  2

  9
$PUCSNAME
  2

  9
$PUCSORG
 10
0
 20
0
 30
0
  9
$PUCSXDIR
 10
1
 20
0
 30
0
  9
$PUCSYDIR
 10
0
 20
1
 30
0
  9
$PUCSORTHOREF
  2

  9
$PUCSORTHOVIEW
 70
    0
  9
$PUCSORGTOP
 10
0
 20
0
 30
0
  9
$PUCSORGBOTTOM
 10
0
 20
0
 30
0
  9
$PUCSORGLEFT
 10
0
 20
0
 30
0
  9
$PUCSORGRIGHT
 10
0
 20
0
 30
0
  9
$PUCSORGFRONT
 10
0
 20
0
 30
0
  9
$PUCSORGBACK
 10
0
 20
0
 30
0
  9
$USERI1
 70
    0
  9
$USERI2
 70
    0
  9
$USERI3
 70
    0
  9
$USERI4
 70
    0
  9
$USERI5
 70
    0
  9
$USERR1
 40
0
  9
$USERR2
 40
0
  9
$USERR3
 40
0
  9
$USERR4
 40
0
  9
$USERR5
 40
0
  9
$WORLDVIEW
 70
    1
  9
$SHADEDGE
 70
    3
  9
$SHADEDIF
 70
   70
  9
$TILEMODE
 70
    1
  9
$MAXACTVP
 70
   64
  9
$PINSBASE
 10
0
 20
0
 30
0
  9
$PLIMCHECK
 70
    0
  9
$PEXTMIN
 10
0
 20
0
 30
0
  9
$PEXTMAX
 10
0
 20
0
 30
0
  9
$GRIDMODE
 70
    1
  9
$SNAPSTYLE
 70
    0
  9
$PLIMMIN
 10
0
 20
0
  9
$PLIMMAX
 10
210
 20
297
  9
$UNITMODE
 70
    0
  9
$VISRETAIN
 70
    1
  9
$PLINEGEN
 70
    0
  9
$PSLTSCALE
 70
    1
  9
$TREEDEPTH
 70
 3020
  9
$CMLSTYLE
  2
Standard
  9
$CMLJUST
 70
    0
  9
$CMLSCALE
 40
20
  9
$PROXYGRAPHICS
 70
    1
  9
$MEASUREMENT
 70
    1
  9
$CELWEIGHT
370
   -1
  9
$ENDCAPS
280
    0
  9
$JOINSTYLE
280
    0
  9
$LWDISPLAY
290
    0
  9
$INSUNITS
 70
    4
  9
$HYPERLINKBASE
  1

  9
$STYLESHEET
  1

  9
$XEDIT
290
    1
  9
$CEPSNTYPE
380
    0
  9
$PSTYLEMODE
290
    1
  9
$EXTNAMES
290
    1
  9
$PSVPSCALE
 40
1
  9
$OLESTARTUP
290
    0
  9
$SORTENTS
280
  127
  9
$INDEXCTL
280
    0
  9
$HIDETEXT
280
    1
  9
$XCLIPFRAME
290
    0
  9
$HALOGAP
280
    0
  9
$OBSCOLOR
 70
  257
  9
$OBSLTYPE
280
    0
  9
$INTERSECTIONDISPLAY
280
    0
  9
$INTERSECTIONCOLOR
 70
  257
  9
$DIMASSOC
280
    1
  9
$PROJECTNAME
  1

  9
$CAMERADISPLAY
290
    0
  9
$LENSLENGTH
 40
50
  9
$CAMERAHEIGHT
 40
0
  9
$STEPSPERSEC
 40
2
  9
$STEPSIZE
 40
50
  9
$3DDWFPREC
 40
2
  9
$PSOLWIDTH
 40
5
  9
$PSOLHEIGHT
 40
80
  9
$LOFTANG1
 40
1.570796326794897
  9
$LOFTANG2
 40
1.570796326794897
  9
$LOFTMAG1
 40
0
  9
$LOFTMAG2
 40
0
  9
$LOFTPARAM
 70
    7
  9
$LOFTNORMALS
280
    1
  9
$LATITUDE
 40
1
  9
$LONGITUDE
 40
1
  9
$NORTHDIRECTION
 40
0
  9
$TIMEZONE
 70
-8000
  9
$LIGHTGLYPHDISPLAY
280
    1
  9
$TILEMODELIGHTSYNCH
280
    1
  9
$SOLIDHIST
280
    1
  9
$SHOWHIST
280
    1
  9
$DWFFRAME
280
    2
  9
$DGNFRAME
280
    0
  9
$REALWORLDSCALE
290
    1
  9
$INTERFERECOLOR
 62
    1
  9
$CSHADOW
280
    0
  9
$SHADOWPLANELOCATION
 40
0
  0
ENDSEC
  0
SECTION
  2
CLASSES
  0
ENDSEC
  0
SECTION
  2
TABLES
  0
TABLE
  2
VPORT
  5
8
330
0
100
AcDbSymbolTable
 70
    1
  0
VPORT
  5
31
330
2
100
AcDbSymbolTableRecord
100
AcDbViewportTableRecord
  2
*ACTIVE
 70
    0
 10
0
 20
0
 11
1
 21
1
 12
318.9632200309723
 22
117.2615018448757
 13
0
 23
0
 14
10
 24
10
 15
10
 25
10
 16
0
 26
0
 36
1
 17
0
 27
0
 37
0
 40
483.9647735175276
 41
1.610357583230579
 42
50
 43
0
 44
0
 50
0
 51
0
 71
    0
 72
  100
 73
    1
 74
    3
 75
    0
 76
    1
 77
    0
 78
    0
281
    0
 65
    1
110
0
120
0
130
0
111
1
121
0
131
0
112
0
122
1
132
0
 79
    0
146
0
348
10020
 60
    7
 61
    5
292
1
282
    1
141
0
142
0
 63
  250
421
3358443
  0
ENDTAB
  0
TABLE
  2
LTYPE
  5
5
330
0
100
AcDbSymbolTable
 70
    4
  0
LTYPE
  5
14
330
5
100
AcDbSymbolTableRecord
100
AcDbLinetypeTableRecord
  2
ByBlock
 70
    0
  3

 72
   65
 73
    0
 40
0
  0
LTYPE
  5
15
330
5
100
AcDbSymbolTableRecord
100
AcDbLinetypeTableRecord
  2
ByLayer
 70
    0
  3

 72
   65
 73
    0
 40
0
  0
LTYPE
  5
16
330
5
100
AcDbSymbolTableRecord
100
AcDbLinetypeTableRecord
  2
Continuous
 70
    0
  3
Solid line
 72
   65
 73
    0
 40
0
  0
LTYPE
  5
32
330
5
100
AcDbSymbolTableRecord
100
AcDbLinetypeTableRecord
  2
DOT
 70
    0
  3
Dot . . . . . . . . . . . . . . . . . . . . . .
 72
   65
 73
    2
 40
6.35
 49
0
 74
    0
 49
-6.35
 74
    0
  0
LTYPE
  5
33
330
5
100
AcDbSymbolTableRecord
100
AcDbLinetypeTableRecord
  2
DOTTINY
 70
    0
  3
Dot (.15x) .....................................
 72
   65
 73
    2
 40
0.9525
 49
0
 74
    0
 49
-0.9525
 74
    0
  0
LTYPE
  5
34
330
5
100
AcDbSymbolTableRecord
100
AcDbLinetypeTableRecord
  2
DOT2
 70
    0
  3
Dot (.5x) .....................................
 72
   65
 73
    2
 40
3.175
 49
0
 74
    0
 49
-3.175
 74
    0
  0
LTYPE
  5
35
330
5
100
AcDbSymbolTableRecord
100
AcDbLinetypeTableRecord
  2
DOTX2
 70
    0
  3
Dot (2x) .  .  .  .  .  .  .  .  .  .  .  .  .
 72
   65
 73
    2
 40
12.7
 49
0
 74
    0
 49
-12.7
 74
    0
  0
LTYPE
  5
36
330
5
100
AcDbSymbolTableRecord
100
AcDbLinetypeTableRecord
  2
DASHED
 70
    0
  3
Dashed _ _ _ _ _ _ _ _ _ _ _ _ _ _ _ _ _
 72
   65
 73
    2
 40
19.05
 49
12.7
 74
    0
 49
-6.35
 74
    0
  0
LTYPE
  5
37
330
5
100
AcDbSymbolTableRecord
100
AcDbLinetypeTableRecord
  2
DASHEDTINY
 70
    0
  3
Dashed (.15x) _ _ _ _ _ _ _ _ _ _ _ _ _ _ _ _ _
 72
   65
 73
    2
 40
2.8575
 49
1.905
 74
    0
 49
-0.9525
 74
    0
  0
LTYPE
  5
38
330
5
100
AcDbSymbolTableRecord
100
AcDbLinetypeTableRecord
  2
DASHED2
 70
    0
  3
Dashed (.5x) _ _ _ _ _ _ _ _ _ _ _ _ _ _ _ _ _
 72
   65
 73
    2
 40
9.524999999999999
 49
6.35
 74
    0
 49
-3.175
 74
    0
  0
LTYPE
  5
39
330
5
100
AcDbSymbolTableRecord
100
AcDbLinetypeTableRecord
  2
DASHEDX2
 70
    0
  3
Dashed (2x) ____  ____  ____  ____  ____  ___
 72
   65
 73
    2
 40
38.09999999999999
 49
25.4
 74
    0
 49
-12.7
 74
    0
  0
LTYPE
  5
3A
330
5
100
AcDbSymbolTableRecord
100
AcDbLinetypeTableRecord
  2
DASHDOT
 70
    0
  3
Dash dot __ . __ . __ . __ . __ . __ . __ . __
 72
   65
 73
    4
 40
25.4
 49
12.7
 74
    0
 49
-6.35
 74
    0
 49
0
 74
    0
 49
-6.35
 74
    0
  0
LTYPE
  5
3B
330
5
100
AcDbSymbolTableRecord
100
AcDbLinetypeTableRecord
  2
DASHDOTTINY
 70
    0
  3
Dash dot (.15x) _._._._._._._._._._._._._._._.
 72
   65
 73
    4
 40
3.81
 49
1.905
 74
    0
 49
-0.9525
 74
    0
 49
0
 74
    0
 49
-0.9525
 74
    0
  0
LTYPE
  5
3C
330
5
100
AcDbSymbolTableRecord
100
AcDbLinetypeTableRecord
  2
DASHDOT2
 70
    0
  3
Dash dot (.5x) _._._._._._._._._._._._._._._.
 72
   65
 73
    4
 40
12.7
 49
6.35
 74
    0
 49
-3.175
 74
    0
 49
0
 74
    0
 49
-3.175
 74
    0
  0
LTYPE
  5
3D
330
5
100
AcDbSymbolTableRecord
100
AcDbLinetypeTableRecord
  2
DASHDOTX2
 70
    0
  3
Dash dot (2x) ____  .  ____  .  ____  .  ___
 72
   65
 73
    4
 40
50.8
 49
25.4
 74
    0
 49
-12.7
 74
    0
 49
0
 74
    0
 49
-12.7
 74
    0
  0
LTYPE
  5
3E
330
5
100
AcDbSymbolTableRecord
100
AcDbLinetypeTableRecord
  2
DIVIDE
 70
    0
  3
Divide ____ . . ____ . . ____ . . ____ . . ____
 72
   65
 73
    6
 40
31.75
 49
12.7
 74
    0
 49
-6.35
 74
    0
 49
0
 74
    0
 49
-6.35
 74
    0
 49
0
 74
    0
 49
-6.35
 74
    0
  0
LTYPE
  5
3F
330
5
100
AcDbSymbolTableRecord
100
AcDbLinetypeTableRecord
  2
DIVIDETINY
 70
    0
  3
Divide (.15x) __..__..__..__..__..__..__..__.._
 72
   65
 73
    6
 40
4.7625
 49
1.905
 74
    0
 49
-0.9525
 74
    0
 49
0
 74
    0
 49
-0.9525
 74
    0
 49
0
 74
    0
 49
-0.9525
 74
    0
  0
LTYPE
  5
40
330
5
100
AcDbSymbolTableRecord
100
AcDbLinetypeTableRecord
  2
DIVIDE2
 70
    0
  3
Divide (.5x) __..__..__..__..__..__..__..__.._
 72
   65
 73
    6
 40
15.875
 49
6.35
 74
    0
 49
-3.175
 74
    0
 49
0
 74
    0
 49
-3.175
 74
    0
 49
0
 74
    0
 49
-3.175
 74
    0
  0
LTYPE
  5
41
330
5
100
AcDbSymbolTableRecord
100
AcDbLinetypeTableRecord
  2
DIVIDEX2
 70
    0
  3
Divide (2x) ________  .  .  ________  .  .  _
 72
   65
 73
    6
 40
63.5
 49
25.4
 74
    0
 49
-12.7
 74
    0
 49
0
 74
    0
 49
-12.7
 74
    0
 49
0
 74
    0
 49
-12.7
 74
    0
  0
LTYPE
  5
42
330
5
100
AcDbSymbolTableRecord
100
AcDbLinetypeTableRecord
  2
BORDER
 70
    0
  3
Border __ __ . __ __ . __ __ . __ __ . __ __ .
 72
   65
 73
    6
 40
44.45
 49
12.7
 74
    0
 49
-6.35
 74
    0
 49
12.7
 74
    0
 49
-6.35
 74
    0
 49
0
 74
    0
 49
-6.35
 74
    0
  0
LTYPE
  5
43
330
5
100
AcDbSymbolTableRecord
100
AcDbLinetypeTableRecord
  2
BORDERTINY
 70
    0
  3
Border (.15x) __.__.__.__.__.__.__.__.__.__.__.
 72
   65
 73
    6
 40
6.6675
 49
1.905
 74
    0
 49
-0.9525
 74
    0
 49
1.905
 74
    0
 49
-0.9525
 74
    0
 49
0
 74
    0
 49
-0.9525
 74
    0
  0
LTYPE
  5
44
330
5
100
AcDbSymbolTableRecord
100
AcDbLinetypeTableRecord
  2
BORDER2
 70
    0
  3
Border (.5x) __.__.__.__.__.__.__.__.__.__.__.
 72
   65
 73
    6
 40
22.225
 49
6.35
 74
    0
 49
-3.175
 74
    0
 49
6.35
 74
    0
 49
-3.175
 74
    0
 49
0
 74
    0
 49
-3.175
 74
    0
  0
LTYPE
  5
45
330
5
100
AcDbSymbolTableRecord
100
AcDbLinetypeTableRecord
  2
BORDERX2
 70
    0
  3
Border (2x) ____  ____  .  ____  ____  .  ___
 72
   65
 73
    6
 40
88.89999999999999
 49
25.4
 74
    0
 49
-12.7
 74
    0
 49
25.4
 74
    0
 49
-12.7
 74
    0
 49
0
 74
    0
 49
-12.7
 74
    0
  0
LTYPE
  5
46
330
5
100
AcDbSymbolTableRecord
100
AcDbLinetypeTableRecord
  2
CENTER
 70
    0
  3
Center ____ _ ____ _ ____ _ ____ _ ____ _ ____
 72
   65
 73
    4
 40
50.8
 49
31.75
 74
    0
 49
-6.35
 74
    0
 49
6.35
 74
    0
 49
-6.35
 74
    0
  0
LTYPE
  5
47
330
5
100
AcDbSymbolTableRecord
100
AcDbLinetypeTableRecord
  2
CENTERTINY
 70
    0
  3
Center (.15x) ___ _ ___ _ ___ _ ___ _ ___ _ ___
 72
   65
 73
    4
 40
7.619999999999999
 49
4.7625
 74
    0
 49
-0.9525
 74
    0
 49
0.9525
 74
    0
 49
-0.9525
 74
    0
  0
LTYPE
  5
48
330
5
100
AcDbSymbolTableRecord
100
AcDbLinetypeTableRecord
  2
CENTER2
 70
    0
  3
Center (.5x) ___ _ ___ _ ___ _ ___ _ ___ _ ___
 72
   65
 73
    4
 40
28.575
 49
19.05
 74
    0
 49
-3.175
 74
    0
 49
3.175
 74
    0
 49
-3.175
 74
    0
  0
LTYPE
  5
49
330
5
100
AcDbSymbolTableRecord
100
AcDbLinetypeTableRecord
  2
CENTERX2
 70
    0
  3
Center (2x) ________  __  ________  __  _____
 72
   65
 73
    4
 40
101.6
 49
63.5
 74
    0
 49
-12.7
 74
    0
 49
12.7
 74
    0
 49
-12.7
 74
    0
  0
ENDTAB
  0
TABLE
  2
LAYER
  5
2
330
0
100
AcDbSymbolTable
 70
    1
  0
LAYER
  5
10
330
2
100
AcDbSymbolTableRecord
100
AcDbLayerTableRecord
  2
0
 70
    0
 62
    7
  6
CONTINUOUS
370
    0
390
F
  0
LAYER
  5
4A
330
2
100
AcDbSymbolTableRecord
100
AcDbLayerTableRecord
  2
acc image
 70
    0
 62
    7
  6
CONTINUOUS
370
    0
390
F
  0
LAYER
  5
4B
330
2
100
AcDbSymbolTableRecord
100
AcDbLayerTableRecord
  2
acc image2
 70
    0
 62
    7
  6
CONTINUOUS
370
    0
390
F
  0
LAYER
  5
4C
330
2
100
AcDbSymbolTableRecord
100
AcDbLayerTableRecord
  2
curve
 70
    4
 62
    2
  6
CONTINUOUS
370
    0
390
F
  0
LAYER
  5
4D
330
2
100
AcDbSymbolTableRecord
100
AcDbLayerTableRecord
  2
ref lines
 70
    4
 62
    4
  6
CONTINUOUS
370
    0
390
F
  0
LAYER
  5
4E
330
2
100
AcDbSymbolTableRecord
100
AcDbLayerTableRecord
  2
york
 70
    0
 62
    3
  6
CONTINUOUS
370
    0
390
F
  0
ENDTAB
  0
TABLE
  2
STYLE
  5
3
330
0
100
AcDbSymbolTable
 70
    3
  0
STYLE
  5
4F
330
2
100
AcDbSymbolTableRecord
100
AcDbTextStyleTableRecord
  2
Standard
 70
    0
 40
0
 41
1
 50
0
 71
    0
 42
1
  3
txt
  4

  0
ENDTAB
  0
TABLE
  2
VIEW
  5
6
330
0
100
AcDbSymbolTable
 70
    0
  0
ENDTAB
  0
TABLE
  2
UCS
  5
7
330
0
100
AcDbSymbolTable
 70
    0
  0
ENDTAB
  0
TABLE
  2
APPID
  5
9
330
0
100
AcDbSymbolTable
 70
    1
  0
APPID
  5
12
330
9
100
AcDbSymbolTableRecord
100
AcDbRegAppTableRecord
  2
ACAD
 70
    0
  0
APPID
  5
50
330
9
100
AcDbSymbolTableRecord
100
AcDbRegAppTableRecord
  2
LibreCad
 70
    0
  0
ENDTAB
  0
TABLE
  2
DIMSTYLE
  5
A
330
0
100
AcDbSymbolTable
 70
    1
100
AcDbDimStyleTable
 71
    1
  0
DIMSTYLE
105
51
330
A
100
AcDbSymbolTableRecord
100
AcDbDimStyleTableRecord
  2
Standard
 70
    0
 40
2.5
 41
2.5
 42
0.625
 43
0.38
 44
1.25
 45
0
 46
0
 47
0
 48
0
 49
1
140
2.5
141
0.09
142
0
143
25.4
144
1
145
0
146
1
147
0.625
148
0
 71
    0
 72
    0
 73
    0
 74
    1
 75
    0
 76
    0
 77
    0
 78
    8
 79
    0
170
    0
171
    2
172
    0
173
    0
174
    0
175
    0
176
    0
177
    0
178
    0
179
    0
271
    2
272
    4
273
    2
274
    2
275
    0
276
    0
277
    2
278
   44
279
    0
280
    0
281
    0
282
    0
283
    1
284
    0
285
    0
286
    0
288
    0
289
    3
340
STANDARD
341

371
   -2
372
   -2
  0
ENDTAB
  0
TABLE
  2
BLOCK_RECORD
  5
1
330
0
100
AcDbSymbolTable
 70
    2
  0
BLOCK_RECORD
  5
1F
330
1
100
AcDbSymbolTableRecord
100
AcDbBlockTableRecord
  2
*Model_Space
 70
    0
280
    1
281
    0
  0
BLOCK_RECORD
  5
1E
330
1
100
AcDbSymbolTableRecord
100
AcDbBlockTableRecord
  2
*Paper_Space
 70
    0
280
    1
281
    0
  0
ENDTAB
  0
ENDSEC
  0
SECTION
  2
BLOCKS
  0
BLOCK
  5
20
330
1F
100
AcDbEntity
  8
0
100
AcDbBlockBegin
  2
*Model_Space
 70
    0
 10
0
 20
0
 30
0
  3
*Model_Space
  1

  0
ENDBLK
  5
21
330
1F
100
AcDbEntity
  8
0
100
AcDbBlockEnd
  0
BLOCK
  5
1C
330
1B
100
AcDbEntity
  8
0
100
AcDbBlockBegin
  2
*Paper_Space
 70
    0
 10
0
 20
0
 30
0
  3
*Paper_Space
  1

  0
ENDBLK
  5
1D
330
1F
100
AcDbEntity
  8
0
100
AcDbBlockEnd
  0
ENDSEC
  0
SECTION
  2
ENTITIES
  0
IMAGE
  5
54
100
AcDbEntity
  8
acc image2
  6
ByLayer
 62
  256
370
   -1
100
AcDbRasterImage
 10
140.9647106209466
 20
27.69724733625426
 30
0
 11
0.12249589
 21
0
 31
0
 12
7.500709979860314e-18
 22
0.097409857731208
 32
0
 13
3326
 23
1932
340
52
 70
    1
280
    0
281
   50
282
   50
283
    0
360
53
  0
IMAGE
  5
56
100
AcDbEntity
  8
york
  6
ByLayer
 62
  256
370
   -1
100
AcDbRasterImage
 10
320.9647106209467
 20
-92.30275266374574
 30
0
 11
0.12249589
 21
0
 31
0
 12
7.500709979860314e-18
 22
0.097409857731208
 32
0
 13
3326
 23
1932
340
52
 70
    1
280
    0
281
   50
282
   50
283
    0
360
55
  0
IMAGE
  5
58
100
AcDbEntity
  8
acc image2
  6
ByLayer
 62
  256
370
   -1
100
AcDbRasterImage
 10
85.22967471655653
 20
-254.0314833137761
 30
0
 11
0.12249589
 21
0
 31
0
 12
7.500709979860314e-18
 22
0.097409857731208
 32
0
 13
3326
 23
1932
340
52
 70
    1
280
    0
281
   50
282
   50
283
    0
360
57
  0
IMAGE
  5
5A
100
AcDbEntity
  8
acc image
  6
ByLayer
 62
  256
370
   -1
100
AcDbRasterImage
 10
-39.03528937905335
 20
-92.30275266374574
 30
0
 11
0.12249589
 21
0
 31
0
 12
7.500709979860314e-18
 22
0.097409857731208
 32
0
 13
3326
 23
1932
340
52
 70
    1
280
    0
281
   50
282
   50
283
    0
360
59
  0
LINE
  5
5B
100
AcDbEntity
  8
ref lines
  6
ByLayer
 62
  256
370
   -1
100
AcDbLine
 10
0
 20
0
 11
360
 21
0
  0
LINE
  5
5C
100
AcDbEntity
  8
ref lines
  6
ByLayer
 62
  256
370
   -1
100
AcDbLine
 10
0
 20
0
 11
0
 21
60
  0
LINE
  5
5D
100
AcDbEntity
  8
ref lines
  6
ByLayer
 62
  256
370
   -1
100
AcDbLine
 10
0
 20
0
 11
6.123233995736766e-16
 21
10
  0
LINE
  5
5E
100
AcDbEntity
  8
ref lines
  6
ByLayer
 62
  256
370
   -1
100
AcDbLine
 10
0
 20
60
 11
0
 21
-200
  0
LINE
  5
5F
100
AcDbEntity
  8
ref lines
  6
ByLayer
 62
  256
370
   -1
100
AcDbLine
 10
10
 20
60
 11
10
 21
-200
  0
LINE
  5
60
100
AcDbEntity
  8
ref lines
  6
ByLayer
 62
  256
370
   -1
100
AcDbLine
 10
20
 20
60
 11
20
 21
-200
  0
LINE
  5
61
100
AcDbEntity
  8
ref lines
  6
ByLayer
 62
  256
370
   -1
100
AcDbLine
 10
30
 20
60
 11
30
 21
-200
  0
LINE
  5
62
100
AcDbEntity
  8
ref lines
  6
ByLayer
 62
  256
370
   -1
100
AcDbLine
 10
40
 20
60
 11
40
 21
-200
  0
LINE
  5
63
100
AcDbEntity
  8
ref lines
  6
ByLayer
 62
  256
370
   -1
100
AcDbLine
 10
50
 20
60
 11
50
 21
-200
  0
LINE
  5
64
100
AcDbEntity
  8
ref lines
  6
ByLayer
 62
  256
370
   -1
100
AcDbLine
 10
60
 20
60
 11
60
 21
-200
  0
LINE
  5
65
100
AcDbEntity
  8
ref lines
  6
ByLayer
 62
  256
370
   -1
100
AcDbLine
 10
70
 20
60
 11
70
 21
-200
  0
LINE
  5
66
100
AcDbEntity
  8
ref lines
  6
ByLayer
 62
  256
370
   -1
100
AcDbLine
 10
80
 20
60
 11
80
 21
-200
  0
LINE
  5
67
100
AcDbEntity
  8
ref lines
  6
ByLayer
 62
  256
370
   -1
100
AcDbLine
 10
90
 20
60
 11
90
 21
-200
  0
LINE
  5
68
100
AcDbEntity
  8
ref lines
  6
ByLayer
 62
  256
370
   -1
100
AcDbLine
 10
100
 20
60
 11
100
 21
-200
  0
LINE
  5
69
100
AcDbEntity
  8
ref lines
  6
ByLayer
 62
  256
370
   -1
100
AcDbLine
 10
110
 20
60
 11
110
 21
-200
  0
LINE
  5
6A
100
AcDbEntity
  8
ref lines
  6
ByLayer
 62
  256
370
   -1
100
AcDbLine
 10
120
 20
60
 11
120
 21
-200
  0
LINE
  5
6B
100
AcDbEntity
  8
ref lines
  6
ByLayer
 62
  256
370
   -1
100
AcDbLine
 10
130
 20
60
 11
130
 21
-200
  0
LINE
  5
6C
100
AcDbEntity
  8
ref lines
  6
ByLayer
 62
  256
370
   -1
100
AcDbLine
 10
140
 20
60
 11
140
 21
-200
  0
LINE
  5
6D
100
AcDbEntity
  8
ref lines
  6
ByLayer
 62
  256
370
   -1
100
AcDbLine
 10
150
 20
60
 11
150
 21
-200
  0
LINE
  5
6E
100
AcDbEntity
  8
ref lines
  6
ByLayer
 62
  256
370
   -1
100
AcDbLine
 10
160
 20
60
 11
160
 21
-200
  0
LINE
  5
6F
100
AcDbEntity
  8
ref lines
  6
ByLayer
 62
  256
370
   -1
100
AcDbLine
 10
170
 20
60
 11
170
 21
-200
  0
LINE
  5
70
100
AcDbEntity
  8
ref lines
  6
ByLayer
 62
  256
370
   -1
100
AcDbLine
 10
180
 20
60
 11
180
 21
-200
  0
LINE
  5
71
100
AcDbEntity
  8
ref lines
  6
ByLayer
 62
  256
370
   -1
100
AcDbLine
 10
190
 20
60
 11
190
 21
-200
  0
LINE
  5
72
100
AcDbEntity
  8
ref lines
  6
ByLayer
 62
  256
370
   -1
100
AcDbLine
 10
200
 20
60
 11
200
 21
-200
  0
LINE
  5
73
100
AcDbEntity
  8
ref lines
  6
ByLayer
 62
  256
370
   -1
100
AcDbLine
 10
210
 20
60
 11
210
 21
-200
  0
LINE
  5
74
100
AcDbEntity
  8
ref lines
  6
ByLayer
 62
  256
370
   -1
100
AcDbLine
 10
220
 20
60
 11
220
 21
-200
  0
LINE
  5
75
100
AcDbEntity
  8
ref lines
  6
ByLayer
 62
  256
370
   -1
100
AcDbLine
 10
230
 20
60
 11
230
 21
-200
  0
LINE
  5
76
100
AcDbEntity
  8
ref lines
  6
ByLayer
 62
  256
370
   -1
100
AcDbLine
 10
240
 20
60
 11
240
 21
-200
  0
LINE
  5
77
100
AcDbEntity
  8
ref lines
  6
ByLayer
 62
  256
370
   -1
100
AcDbLine
 10
250
 20
60
 11
250
 21
-200
  0
LINE
  5
78
100
AcDbEntity
  8
ref lines
  6
ByLayer
 62
  256
370
   -1
100
AcDbLine
 10
260
 20
60
 11
260
 21
-200
  0
LINE
  5
79
100
AcDbEntity
  8
ref lines
  6
ByLayer
 62
  256
370
   -1
100
AcDbLine
 10
270
 20
60
 11
270
 21
-200
  0
LINE
  5
7A
100
AcDbEntity
  8
ref lines
  6
ByLayer
 62
  256
370
   -1
100
AcDbLine
 10
280
 20
60
 11
280
 21
-200
  0
LINE
  5
7B
100
AcDbEntity
  8
ref lines
  6
ByLayer
 62
  256
370
   -1
100
AcDbLine
 10
290
 20
60
 11
290
 21
-200
  0
LINE
  5
7C
100
AcDbEntity
  8
ref lines
  6
ByLayer
 62
  256
370
   -1
100
AcDbLine
 10
300
 20
60
 11
300
 21
-200
  0
LINE
  5
7D
100
AcDbEntity
  8
ref lines
  6
ByLayer
 62
  256
370
   -1
100
AcDbLine
 10
310
 20
60
 11
310
 21
-200
  0
LINE
  5
7E
100
AcDbEntity
  8
ref lines
  6
ByLayer
 62
  256
370
   -1
100
AcDbLine
 10
320
 20
60
 11
320
 21
-200
  0
LINE
  5
7F
100
AcDbEntity
  8
ref lines
  6
ByLayer
 62
  256
370
   -1
100
AcDbLine
 10
330
 20
60
 11
330
 21
-200
  0
LINE
  5
80
100
AcDbEntity
  8
ref lines
  6
ByLayer
 62
  256
370
   -1
100
AcDbLine
 10
340
 20
60
 11
340
 21
-200
  0
LINE
  5
81
100
AcDbEntity
  8
ref lines
  6
ByLayer
 62
  256
370
   -1
100
AcDbLine
 10
350
 20
60
 11
350
 21
-200
  0
LINE
  5
82
100
AcDbEntity
  8
ref lines
  6
ByLayer
 62
  256
370
   -1
100
AcDbLine
 10
360
 20
60
 11
360
 21
-200
  0
LINE
  5
83
100
AcDbEntity
  8
ref lines
  6
ByLayer
 62
  256
370
   -1
100
AcDbLine
 10
370
 20
60
 11
370
 21
-200
  0
LINE
  5
84
100
AcDbEntity
  8
ref lines
  6
ByLayer
 62
  256
370
   -1
100
AcDbLine
 10
380
 20
60
 11
380
 21
-200
  0
LINE
  5
85
100
AcDbEntity
  8
ref lines
  6
ByLayer
 62
  256
370
   -1
100
AcDbLine
 10
390
 20
60
 11
390
 21
-200
  0
LINE
  5
86
100
AcDbEntity
  8
ref lines
  6
ByLayer
 62
  256
370
   -1
100
AcDbLine
 10
400
 20
60
 11
400
 21
-200
  0
LINE
  5
87
100
AcDbEntity
  8
ref lines
  6
ByLayer
 62
  256
370
   -1
100
AcDbLine
 10
410
 20
60
 11
410
 21
-200
  0
LINE
  5
88
100
AcDbEntity
  8
ref lines
  6
ByLayer
 62
  256
370
   -1
100
AcDbLine
 10
420
 20
60
 11
420
 21
-200
  0
LINE
  5
89
100
AcDbEntity
  8
ref lines
  6
ByLayer
 62
  256
370
   -1
100
AcDbLine
 10
430
 20
60
 11
430
 21
-200
  0
LINE
  5
8A
100
AcDbEntity
  8
ref lines
  6
ByLayer
 62
  256
370
   -1
100
AcDbLine
 10
440
 20
60
 11
440
 21
-200
  0
LINE
  5
8B
100
AcDbEntity
  8
ref lines
  6
ByLayer
 62
  256
370
   -1
100
AcDbLine
 10
450
 20
60
 11
450
 21
-200
  0
LINE
  5
8C
100
AcDbEntity
  8
ref lines
  6
ByLayer
 62
  256
370
   -1
100
AcDbLine
 10
460
 20
60
 11
460
 21
-200
  0
LINE
  5
8D
100
AcDbEntity
  8
ref lines
  6
ByLayer
 62
  256
370
   -1
100
AcDbLine
 10
470
 20
60
 11
470
 21
-200
  0
LINE
  5
8E
100
AcDbEntity
  8
ref lines
  6
ByLayer
 62
  256
370
   -1
100
AcDbLine
 10
480
 20
60
 11
480
 21
-200
  0
LINE
  5
8F
100
AcDbEntity
  8
ref lines
  6
ByLayer
 62
  256
370
   -1
100
AcDbLine
 10
490
 20
60
 11
490
 21
-200
  0
LINE
  5
90
100
AcDbEntity
  8
ref lines
  6
ByLayer
 62
  256
370
   -1
100
AcDbLine
 10
500
 20
60
 11
500
 21
-200
  0
LINE
  5
91
100
AcDbEntity
  8
ref lines
  6
ByLayer
 62
  256
370
   -1
100
AcDbLine
 10
510
 20
60
 11
510
 21
-200
  0
SPLINE
  5
92
100
AcDbEntity
  8
curve
  6
ByLayer
 62
  256
370
   -1
100
AcDbSpline
210
0
220
0
230
0
 70
    8
 71
    2
 72
  158
 73
  155
 74
    0
 42
1e-07
 43
1e-07
 40
0
 40
0
 40
0
 40
0.006535947712418301
 40
0.0130718954248366
 40
0.0196078431372549
 40
0.0261437908496732
 40
0.03267973856209151
 40
0.0392156862745098
 40
0.0457516339869281
 40
0.05228758169934641
 40
0.05882352941176471
 40
0.06535947712418301
 40
0.0718954248366013
 40
0.07843137254901961
 40
0.08496732026143791
 40
0.0915032679738562
 40
0.09803921568627451
 40
0.1045751633986928
 40
0.1111111111111111
 40
0.1176470588235294
 40
0.1241830065359477
 40
0.130718954248366
 40
0.1372549019607843
 40
0.1437908496732026
 40
0.1503267973856209
 40
0.1568627450980392
 40
0.1633986928104575
 40
0.1699346405228758
 40
0.1764705882352941
 40
0.1830065359477124
 40
0.1895424836601307
 40
0.196078431372549
 40
0.2026143790849673
 40
0.2091503267973856
 40
0.2156862745098039
 40
0.2222222222222222
 40
0.2287581699346405
 40
0.2352941176470588
 40
0.2418300653594771
 40
0.2483660130718954
 40
0.2549019607843137
 40
0.261437908496732
 40
0.2679738562091503
 40
0.2745098039215687
 40
0.2810457516339869
 40
0.2875816993464052
 40
0.2941176470588235
 40
0.3006535947712418
 40
0.3071895424836601
 40
0.3137254901960784
 40
0.3202614379084967
 40
0.326797385620915
 40
0.3333333333333333
 40
0.3398692810457516
 40
0.3464052287581699
 40
0.3529411764705883
 40
0.3594771241830065
 40
0.3660130718954248
 40
0.3725490196078431
 40
0.3790849673202614
 40
0.3856209150326798
 40
0.392156862745098
 40
0.3986928104575164
 40
0.4052287581699346
 40
0.4117647058823529
 40
0.4183006535947713
 40
0.4248366013071895
 40
0.4313725490196079
 40
0.4379084967320261
 40
0.4444444444444444
 40
0.4509803921568628
 40
0.457516339869281
 40
0.4640522875816994
 40
0.4705882352941176
 40
0.477124183006536
 40
0.4836601307189543
 40
0.4901960784313725
 40
0.4967320261437909
 40
0.5032679738562091
 40
0.5098039215686274
 40
0.5163398692810458
 40
0.5228758169934641
 40
0.5294117647058824
 40
0.5359477124183006
 40
0.5424836601307189
 40
0.5490196078431373
 40
0.5555555555555556
 40
0.5620915032679739
 40
0.5686274509803921
 40
0.5751633986928104
 40
0.5816993464052288
 40
0.5882352941176471
 40
0.5947712418300654
 40
0.6013071895424836
 40
0.6078431372549019
 40
0.6143790849673203
 40
0.6209150326797386
 40
0.6274509803921569
 40
0.6339869281045751
 40
0.6405228758169934
 40
0.6470588235294118
 40
0.6535947712418301
 40
0.6601307189542484
 40
0.6666666666666666
 40
0.673202614379085
 40
0.6797385620915033
 40
0.6862745098039216
 40
0.6928104575163399
 40
0.6993464052287581
 40
0.7058823529411765
 40
0.7124183006535948
 40
0.7189542483660131
 40
0.7254901960784313
 40
0.7320261437908496
 40
0.738562091503268
 40
0.7450980392156863
 40
0.7516339869281046
 40
0.7581699346405228
 40
0.7647058823529411
 40
0.7712418300653595
 40
0.7777777777777778
 40
0.7843137254901961
 40
0.7908496732026143
 40
0.7973856209150327
 40
0.803921568627451
 40
0.8104575163398693
 40
0.8169934640522876
 40
0.8235294117647058
 40
0.8300653594771242
 40
0.8366013071895425
 40
0.8431372549019608
 40
0.8496732026143791
 40
0.8562091503267973
 40
0.8627450980392157
 40
0.869281045751634
 40
0.8758169934640523
 40
0.8823529411764706
 40
0.8888888888888888
 40
0.8954248366013072
 40
0.9019607843137255
 40
0.9084967320261438
 40
0.9150326797385621
 40
0.9215686274509803
 40
0.9281045751633987
 40
0.934640522875817
 40
0.9411764705882353
 40
0.9477124183006536
 40
0.9542483660130719
 40
0.9607843137254902
 40
0.9673202614379085
 40
0.9738562091503268
 40
0.9803921568627451
 40
0.9869281045751634
 40
0.9934640522875817
 40
1
 40
1
 40
1
 10
0
 20
20
 30
0
 10
1.626687678367043
 20
26.31048526218964
 30
0
 10
5.530234385808757
 20
35.55192333118442
 30
0
 10
8.016902716335659
 20
42.20079908464828
 30
0
 10
10.02498594704774
 20
46.15475492727735
 30
0
 10
11.83629978232968
 20
49.54424267618812
 30
0
 10
14.34829253099033
 20
52.49223306464305
 30
0
 10
15.90785661842111
 20
54.00229864610596
 30
0
 10
17.45616302667709
 20
54.45328157321566
 30
0
 10
19.30950391403261
 20
55.14051206525527
 30
0
 10
21.99876841784501
 20
54.45418474310723
 30
0
 10
24.5246716643771
 20
51.98425781612313
 30
0
 10
26.55537849760381
 20
49.36701794077874
 30
0
 10
28.31575302375365
 20
47.04622244123555
 30
0
 10
29.59704665462956
 20
44.35680381741662
 30
0
 10
31.65395061664802
 20
40.63710423730951
 30
0
 10
34.31266133920863
 20
35.01117940930283
 30
0
 10
35.63319715193989
 20
31.98950190882236
 30
0
 10
36.14662750194193
 20
30.39246900293385
 30
0
 10
36.4995652776814
 20
28.22318410363921
 30
0
 10
38.27362134603968
 20
24.30761603181694
 30
0
 10
39.90622851956036
 20
20.0467978871151
 30
0
 10
41.7211756657026
 20
15.42136271774935
 30
0
 10
43.96838225545687
 20
10.31845476736137
 30
0
 10
45.84841296895529
 20
4.963338182618487
 30
0
 10
48.55786502768473
 20
-1.222997889738501
 30
0
 10
51.00631730853641
 20
-6.818993477257298
 30
0
 10
52.94628874221903
 20
-11.5689527496234
 30
0
 10
55.46741086673389
 20
-16.54701131072908
 30
0
 10
58.06276945580013
 20
-21.64599068116013
 30
0
 10
60.59855075496566
 20
-25.71754026302909
 30
0
 10
63.3406461238846
 20
-29.33225529255628
 30
0
 10
66.28502871506832
 20
-32.38002847872056
 30
0
 10
69.09910680745627
 20
-34.12020466157716
 30
0
 10
70.98050056139279
 20
-34.49890215251244
 30
0
 10
72.36484449210809
 20
-34.68613835997257
 30
0
 10
74.06424879088428
 20
-34.11594561980506
 30
0
 10
75.89690453032441
 20
-33.17806535226511
 30
0
 10
77.46999892632499
 20
-31.66606365427551
 30
0
 10
79.5688696297473
 20
-29.44839845397145
 30
0
 10
81.79996258945867
 20
-26.17212763241477
 30
0
 10
83.6969815780276
 20
-23.14604029362949
 30
0
 10
85.39841210841185
 20
-19.89308290953754
 30
0
 10
87.28936001980696
 20
-15.37440707532944
 30
0
 10
89.54125722749757
 20
-10.43457881713891
 30
0
 10
91.1484567193697
 20
-5.605048599756394
 30
0
 10
92.67745093666768
 20
-2.061471259731679
 30
0
 10
93.75742597703248
 20
0.04027442805869408
 30
0
 10
94.92643914099033
 20
1.348375938538193
 30
0
 10
96.5827997456966
 20
1.896831334711117
 30
0
 10
98.77473939678926
 20
1.125725018546019
 30
0
 10
100.8477042145636
 20
-2.022708449120986
 30
0
 10
103.9261994072706
 20
-7.067513385976747
 30
0
 10
107.3806740559911
 20
-11.19881305671141
 30
0
 10
108.7491282071038
 20
-14.47677689289878
 30
0
 10
111.675798304414
 20
-16.50640920473018
 30
0
 10
114.590430550214
 20
-18.70181305075932
 30
0
 10
117.5818892141588
 20
-19.82596588574181
 30
0
 10
120.9477908112959
 20
-20.15379500372467
 30
0
 10
123.8253604147639
 20
-17.48717107679743
 30
0
 10
126.7270564004613
 20
-14.36489503410787
 30
0
 10
128.9305179302393
 20
-10.32237713766768
 30
0
 10
130.8064814875837
 20
-6.046379027630729
 30
0
 10
132.9888641392008
 20
-3.336529526063782
 30
0
 10
134.4995162988005
 20
-1.069166398235267
 30
0
 10
136.5108140367943
 20
0.191529340443981
 30
0
 10
138.5910138883648
 20
0.08838403416454356
 30
0
 10
140.9075158958791
 20
-0.005709508911682189
 30
0
 10
143.1493235092714
 20
-0.0599503550650634
 30
0
 10
144.4346117829539
 20
0.5660919175656504
 30
0
 10
145.2426891759426
 20
1.601401675673581
 30
0
 10
146.2222142137067
 20
3.558430836890763
 30
0
 10
147.7520442493864
 20
6.776342930442159
 30
0
 10
149.7951597210235
 20
9.554739263405509
 30
0
 10
151.1338022698285
 20
11.3309485875379
 30
0
 10
153.006614984495
 20
12.42761435707988
 30
0
 10
155.3870254011711
 20
10.80682017722883
 30
0
 10
157.3671576507493
 20
8.620939444487851
 30
0
 10
159.3415941543049
 20
6.490939206385712
 30
0
 10
161.0673304304781
 20
4.160662363868575
 30
0
 10
163.596003606618
 20
2.041613049878554
 30
0
 10
166.6285495695773
 20
0.6410011862910118
 30
0
 10
169.2926371499493
 20
-0.1455737412444162
 30
0
 10
171.3113522536546
 20
-0.07327162088749095
 30
0
 10
173.1112351168514
 20
-0.9281614383028148
 30
0
 10
175.3131387248684
 20
-2.838722277454115
 30
0
 10
178.142033318232
 20
-5.41405276257869
 30
0
 10
180.0575984211045
 20
-7.042424179036312
 30
0
 10
180.6849949413608
 20
-9.016757761271174
 30
0
 10
182.7931056579469
 20
-10.57809802051514
 30
0
 10
184.7972117835069
 20
-11.08100494067727
 30
0
 10
186.8626291880509
 20
-10.69848123818432
 30
0
 10
188.4767150502641
 20
-7.866916870630565
 30
0
 10
190.5449523825814
 20
-3.854071060674473
 30
0
 10
191.7312710234677
 20
-1.663062932471313
 30
0
 10
192.7798448792979
 20
-0.3608333425359962
 30
0
 10
193.9630734741478
 20
0.1885823597401064
 30
0
 10
195.4023251369922
 20
-0.04376087754874738
 30
0
 10
201.943167478248
 20
0.03447191894631248
 30
0
 10
261.8136926534912
 20
0.06344619165910265
 30
0
 10
263.8508536120905
 20
-0.06683690983495055
 30
0
 10
264.4738983245113
 20
0.3611246073359261
 30
0
 10
265.564048510532
 20
0.9548443290981721
 30
0
 10
266.7073252466777
 20
2.392748955333728
 30
0
 10
268.2417088016863
 20
4.351451652198136
 30
0
 10
269.5330404064397
 20
6.761215544245625
 30
0
 10
270.6936766925327
 20
9.181826069608178
 30
0
 10
272.0588475116651
 20
11.31805915815844
 30
0
 10
273.490999135813
 20
13.2814240116706
 30
0
 10
275.0601547758612
 20
14.62884928016775
 30
0
 10
277.1150245810981
 20
15.75094930490189
 30
0
 10
280.0819932347203
 20
14.1709612754731
 30
0
 10
282.099637898844
 20
11.29990403180999
 30
0
 10
283.815334451074
 20
8.807342447365862
 30
0
 10
285.3165104547442
 20
6.469912887708364
 30
0
 10
287.2185199254803
 20
4.163399804727305
 30
0
 10
288.9326514179238
 20
1.808837025481808
 30
0
 10
291.4501851270185
 20
0.4879658982409427
 30
0
 10
293.9602313291584
 20
-0.6440240123865041
 30
0
 10
296.4375092748381
 20
-1.646877225669818
 30
0
 10
298.6905379567809
 20
-3.195958652703485
 30
0
 10
300.6710202994971
 20
-5.047893772751848
 30
0
 10
302.2178766462177
 20
-7.546990475214638
 30
0
 10
303.778635757424
 20
-10.32032164796232
 30
0
 10
305.1836252850573
 20
-13.21314088355475
 30
0
 10
306.6805730227043
 20
-15.25908455215924
 30
0
 10
307.7292690522791
 20
-16.83795219841027
 30
0
 10
308.8036095245718
 20
-17.92332199185422
 30
0
 10
310.1141404256303
 20
-18.42235107500564
 30
0
 10
311.0888808210709
 20
-17.28691594160335
 30
0
 10
312.2529178962873
 20
-15.83772215832596
 30
0
 10
313.0461087023976
 20
-13.59927277244115
 30
0
 10
313.9587170004445
 20
-10.98092078159948
 30
0
 10
314.8560418891557
 20
-8.378546262336261
 30
0
 10
315.3308254452858
 20
-5.895386617682215
 30
0
 10
316.2196671969608
 20
-3.354205018439526
 30
0
 10
317.1205337003891
 20
-0.7875647010716992
 30
0
 10
318.5545162787403
 20
0.6757144952466196
 30
0
 10
320.4798212331667
 20
-0.225600643275919
 30
0
 10
323.6537259956345
 20
0.09867975744787835
 30
0
 10
325.6616147908393
 20
-0.2225894848550036
 30
0
 10
326.6936790504294
 20
-1.275193140606504
 30
0
 10
327.8796881714041
 20
-2.201228403486411
 30
0
 10
329.2983299738339
 20
-3.122454129224466
 30
0
 10
331.031567703379
 20
-5.057230462616104
 30
0
 10
333.3873638942521
 20
-10.37049130873891
 30
0
 10
337.2931820499774
 20
-20.10144327045266
 30
0
 10
338.9483244847779
 20
-23.88618575124462
 30
0
 10
340.7327560964146
 20
-25.18065463183934
 30
0
 10
342.9384543396691
 20
-24.70218544239128
 30
0
 10
344.619538839297
 20
-22.31481129605132
 30
0
 10
347.4483284274533
 20
-16.68566275723846
 30
0
 10
351.9589422077077
 20
-4.239881327988186
 30
0
 10
356.946393299177
 20
10.76158514863671
 30
0
 10
360
 20
20
 30
0
  0
ENDSEC
  0
SECTION
  2
OBJECTS
  0
DICTIONARY
  5
C
330
0
100
AcDbDictionary
281
    1
  3
ACAD_GROUP
350
D
  3
ACAD_IMAGE_DICT
350
93
  0
DICTIONARY
  5
D
330
C
100
AcDbDictionary
281
    1
  0
IMAGEDEF_REACTOR
  5
53
330
54
100
AcDbRasterImageDefReactor
 90
    2
330
54
  0
IMAGEDEF_REACTOR
  5
55
330
56
100
AcDbRasterImageDefReactor
 90
    2
330
56
  0
IMAGEDEF_REACTOR
  5
57
330
58
100
AcDbRasterImageDefReactor
 90
    2
330
58
  0
IMAGEDEF_REACTOR
  5
59
330
5A
100
AcDbRasterImageDefReactor
 90
    2
330
5A
  0
DICTIONARY
  5
93
330
C
100
AcDbDictionary
281
    1
  3
Screen Shot 2019-03-21 at 14.18.20
350
52
  0
IMAGEDEF
  5
52
102
{ACAD_REACTORS
330
53
330
55
330
57
330
59
102
}
100
AcDbRasterImageDef
 90
    0
  1
/Users/johnqu/Desktop/Screen Shot 2019-03-21 at 14.18.20.png
 10
3326
 20
1932
 11
1
 21
1
280
    1
281
    0
  0
ENDSEC
  0
EOF
