999
dxfrw 0.6.3
  0
SECTION
  2
HEADER
  9
$ACADVER
  1
AC1021
  9
$DWGCODEPAGE
  3
ANSI_1252
  9
$INSBASE
 10
0
 20
0
 30
0
  9
$EXTMIN
 10
-284.3
 20
-1125.711829078795
 30
0
  9
$EXTMAX
 10
856.9541942735782
 20
978.22997233206
 30
0
  9
$LIMMIN
 10
0
 20
0
  9
$LIMMAX
 10
420
 20
297
  9
$ORTHOMODE
 70
    0
  9
$REGENMODE
 70
    1
  9
$FILLMODE
 70
    1
  9
$QTEXTMODE
 70
    0
  9
$MIRRTEXT
 70
    0
  9
$LTSCALE
 40
1
  9
$ATTMODE
 70
    0
  9
$TEXTSIZE
 40
2.5
  9
$TRACEWID
 40
15.68
  9
$TEXTSTYLE
  7
STANDARD
  9
$CLAYER
  8
Dims
  9
$CELTYPE
  6
BYLAYER
  9
$CECOLOR
 62
  256
  9
$CELTSCALE
 40
1
  9
$DISPSILH
 70
    0
  9
$DIMSCALE
 40
2.5
  9
$DIMASZ
 40
2.5
  9
$DIMEXO
 40
0.625
  9
$DIMDLI
 40
3.75
  9
$DIMRND
 40
0
  9
$DIMDLE
 40
0
  9
$DIMEXE
 40
1.25
  9
$DIMTP
 40
0
  9
$DIMTM
 40
0
  9
$DIMTXT
 40
2.5
  9
$DIMCEN
 40
2.5
  9
$DIMTSZ
 40
0
  9
$DIMTOL
 70
    0
  9
$DIMLIM
 70
    0
  9
$DIMTIH
 70
    0
  9
$DIMTOH
 70
    0
  9
$DIMSE1
 70
    0
  9
$DIMSE2
 70
    0
  9
$DIMTAD
 70
    1
  9
$DIMZIN
 70
    8
  9
$DIMBLK
  1

  9
$DIMASO
 70
    1
  9
$DIMSHO
 70
    1
  9
$DIMPOST
  1

  9
$DIMAPOST
  1

  9
$DIMALT
 70
    0
  9
$DIMALTD
 70
    3
  9
$DIMALTF
 40
0.03937
  9
$DIMLFAC
 40
1
  9
$DIMTOFL
 70
    1
  9
$DIMTVP
 40
0
  9
$DIMTIX
 70
    0
  9
$DIMSOXD
 70
    0
  9
$DIMSAH
 70
    0
  9
$DIMBLK1
  1

  9
$DIMBLK2
  1

  9
$DIMSTYLE
  2
STANDARD
  9
$DIMCLRD
 70
    0
  9
$DIMCLRE
 70
    0
  9
$DIMCLRT
 70
    0
  9
$DIMTFAC
 40
1
  9
$DIMGAP
 40
0.625
  9
$DIMJUST
 70
    0
  9
$DIMSD1
 70
    0
  9
$DIMSD2
 70
    0
  9
$DIMTOLJ
 70
    0
  9
$DIMTZIN
 70
    8
  9
$DIMALTZ
 70
    0
  9
$DIMALTTZ
 70
    0
  9
$DIMUPT
 70
    0
  9
$DIMDEC
 70
    2
  9
$DIMTDEC
 70
    2
  9
$DIMALTU
 70
    2
  9
$DIMALTTD
 70
    3
  9
$DIMTXSTY
  7
standard
  9
$DIMAUNIT
 70
    0
  9
$DIMADEC
 70
    2
  9
$DIMALTRND
 40
0
  9
$DIMAZIN
 70
    2
  9
$DIMDSEP
 70
   44
  9
$DIMATFIT
 70
    3
  9
$DIMFRAC
 70
    0
  9
$DIMLDRBLK
  1
STANDARD
  9
$DIMLUNIT
 70
    2
  9
$DIMLWD
 70
   -2
  9
$DIMLWE
 70
   -2
  9
$DIMTMOVE
 70
    0
  9
$DIMFXL
 40
1
  9
$DIMFXLON
 70
    0
  9
$DIMJOGANG
 40
0.7854
  9
$DIMTFILL
 70
    0
  9
$DIMTFILLCLR
 70
    0
  9
$DIMARCSYM
 70
    0
  9
$DIMLTYPE
  6

  9
$DIMLTEX1
  6

  9
$DIMLTEX2
  6

  9
$LUNITS
 70
    2
  9
$LUPREC
 70
    4
  9
$SKETCHINC
 40
1
  9
$FILLETRAD
 40
0
  9
$AUNITS
 70
    0
  9
$AUPREC
 70
    3
  9
$MENU
  1
.
  9
$ELEVATION
 40
0
  9
$PELEVATION
 40
0
  9
$THICKNESS
 40
0
  9
$LIMCHECK
 70
    0
  9
$CHAMFERA
 40
0
  9
$CHAMFERB
 40
0
  9
$CHAMFERC
 40
0
  9
$CHAMFERD
 40
0
  9
$SKPOLY
 70
    0
  9
$USRTIMER
 70
    1
  9
$ANGBASE
 50
0
  9
$ANGDIR
 70
    0
  9
$PDMODE
 70
   34
  9
$PDSIZE
 40
0
  9
$PLINEWID
 40
0
  9
$SPLFRAME
 70
    0
  9
$SPLINETYPE
 70
    2
  9
$SPLINESEGS
 70
    8
  9
$HANDSEED
  5
20000
  9
$SURFTAB1
 70
    6
  9
$SURFTAB2
 70
    6
  9
$SURFTYPE
 70
    6
  9
$SURFU
 70
    6
  9
$SURFV
 70
    6
  9
$UCSBASE
  2

  9
$UCSNAME
  2

  9
$UCSORG
 10
0
 20
0
 30
0
  9
$UCSXDIR
 10
1
 20
0
 30
0
  9
$UCSYDIR
 10
0
 20
1
 30
0
  9
$UCSORTHOREF
  2

  9
$UCSORTHOVIEW
 70
    0
  9
$UCSORGTOP
 10
0
 20
0
 30
0
  9
$UCSORGBOTTOM
 10
0
 20
0
 30
0
  9
$UCSORGLEFT
 10
0
 20
0
 30
0
  9
$UCSORGRIGHT
 10
0
 20
0
 30
0
  9
$UCSORGFRONT
 10
0
 20
0
 30
0
  9
$UCSORGBACK
 10
0
 20
0
 30
0
  9
$PUCSBASE
  2

  9
$PUCSNAME
  2

  9
$PUCSORG
 10
0
 20
0
 30
0
  9
$PUCSXDIR
 10
1
 20
0
 30
0
  9
$PUCSYDIR
 10
0
 20
1
 30
0
  9
$PUCSORTHOREF
  2

  9
$PUCSORTHOVIEW
 70
    0
  9
$PUCSORGTOP
 10
0
 20
0
 30
0
  9
$PUCSORGBOTTOM
 10
0
 20
0
 30
0
  9
$PUCSORGLEFT
 10
0
 20
0
 30
0
  9
$PUCSORGRIGHT
 10
0
 20
0
 30
0
  9
$PUCSORGFRONT
 10
0
 20
0
 30
0
  9
$PUCSORGBACK
 10
0
 20
0
 30
0
  9
$USERI1
 70
    0
  9
$USERI2
 70
    0
  9
$USERI3
 70
    0
  9
$USERI4
 70
    0
  9
$USERI5
 70
    0
  9
$USERR1
 40
0
  9
$USERR2
 40
0
  9
$USERR3
 40
0
  9
$USERR4
 40
0
  9
$USERR5
 40
0
  9
$WORLDVIEW
 70
    1
  9
$SHADEDGE
 70
    3
  9
$SHADEDIF
 70
   70
  9
$TILEMODE
 70
    1
  9
$MAXACTVP
 70
   64
  9
$PINSBASE
 10
0
 20
0
 30
0
  9
$PLIMCHECK
 70
    0
  9
$PEXTMIN
 10
0
 20
0
 30
0
  9
$PEXTMAX
 10
0
 20
0
 30
0
  9
$GRIDMODE
 70
    1
  9
$SNAPSTYLE
 70
    0
  9
$GRIDUNIT
 10
0
 20
0
  9
$PLIMMIN
 10
0
 20
0
  9
$PLIMMAX
 10
210
 20
297
  9
$UNITMODE
 70
    0
  9
$VISRETAIN
 70
    1
  9
$PLINEGEN
 70
    0
  9
$PSLTSCALE
 70
    1
  9
$TREEDEPTH
 70
 3020
  9
$CMLSTYLE
  2
Standard
  9
$CMLJUST
 70
    0
  9
$CMLSCALE
 40
20
  9
$PROXYGRAPHICS
 70
    1
  9
$MEASUREMENT
 70
    1
  9
$CELWEIGHT
370
   -1
  9
$ENDCAPS
280
    0
  9
$JOINSTYLE
280
    0
  9
$LWDISPLAY
290
    0
  9
$INSUNITS
 70
    4
  9
$HYPERLINKBASE
  1

  9
$STYLESHEET
  1

  9
$XEDIT
290
    1
  9
$CEPSNTYPE
380
    0
  9
$PSTYLEMODE
290
    1
  9
$EXTNAMES
290
    1
  9
$PSVPSCALE
 40
1
  9
$OLESTARTUP
290
    0
  9
$SORTENTS
280
  127
  9
$INDEXCTL
280
    0
  9
$HIDETEXT
280
    1
  9
$XCLIPFRAME
290
    0
  9
$HALOGAP
280
    0
  9
$OBSCOLOR
 70
  257
  9
$OBSLTYPE
280
    0
  9
$INTERSECTIONDISPLAY
280
    0
  9
$INTERSECTIONCOLOR
 70
  257
  9
$DIMASSOC
280
    1
  9
$PROJECTNAME
  1

  9
$CAMERADISPLAY
290
    0
  9
$LENSLENGTH
 40
50
  9
$CAMERAHEIGHT
 40
0
  9
$STEPSPERSEC
 40
2
  9
$STEPSIZE
 40
50
  9
$3DDWFPREC
 40
2
  9
$PSOLWIDTH
 40
5
  9
$PSOLHEIGHT
 40
80
  9
$LOFTANG1
 40
1.570796326794897
  9
$LOFTANG2
 40
1.570796326794897
  9
$LOFTMAG1
 40
0
  9
$LOFTMAG2
 40
0
  9
$LOFTPARAM
 70
    7
  9
$LOFTNORMALS
280
    1
  9
$LATITUDE
 40
1
  9
$LONGITUDE
 40
1
  9
$NORTHDIRECTION
 40
0
  9
$TIMEZONE
 70
-8000
  9
$LIGHTGLYPHDISPLAY
280
    1
  9
$TILEMODELIGHTSYNCH
280
    1
  9
$SOLIDHIST
280
    1
  9
$SHOWHIST
280
    1
  9
$DWFFRAME
280
    2
  9
$DGNFRAME
280
    0
  9
$REALWORLDSCALE
290
    1
  9
$INTERFERECOLOR
 62
    1
  9
$CSHADOW
280
    0
  9
$SHADOWPLANELOCATION
 40
0
  0
ENDSEC
  0
SECTION
  2
CLASSES
  0
ENDSEC
  0
SECTION
  2
TABLES
  0
TABLE
  2
VPORT
  5
8
330
0
100
AcDbSymbolTable
 70
    1
  0
VPORT
  5
31
330
2
100
AcDbSymbolTableRecord
100
AcDbViewportTableRecord
  2
*ACTIVE
 70
    0
 10
0
 20
0
 11
1
 21
1
 12
597.3174134129348
 22
-184.4995871545744
 13
0
 23
0
 14
10
 24
10
 15
10
 25
10
 16
0
 26
0
 36
1
 17
0
 27
0
 37
0
 40
884.4448959222412
 41
1.697522816166884
 42
50
 43
0
 44
0
 50
0
 51
0
 71
    0
 72
  100
 73
    1
 74
    3
 75
    0
 76
    1
 77
    0
 78
    0
281
    0
 65
    1
110
0
120
0
130
0
111
1
121
0
131
0
112
0
122
1
132
0
 79
    0
146
0
348
10020
 60
    7
 61
    5
292
1
282
    1
141
0
142
0
 63
  250
421
3358443
  0
ENDTAB
  0
TABLE
  2
LTYPE
  5
5
330
0
100
AcDbSymbolTable
 70
    4
  0
LTYPE
  5
14
330
5
100
AcDbSymbolTableRecord
100
AcDbLinetypeTableRecord
  2
ByBlock
 70
    0
  3

 72
   65
 73
    0
 40
0
  0
LTYPE
  5
15
330
5
100
AcDbSymbolTableRecord
100
AcDbLinetypeTableRecord
  2
ByLayer
 70
    0
  3

 72
   65
 73
    0
 40
0
  0
LTYPE
  5
16
330
5
100
AcDbSymbolTableRecord
100
AcDbLinetypeTableRecord
  2
Continuous
 70
    0
  3
Solid line
 72
   65
 73
    0
 40
0
  0
LTYPE
  5
32
330
5
100
AcDbSymbolTableRecord
100
AcDbLinetypeTableRecord
  2
DOT
 70
    0
  3
Dot . . . . . . . . . . . . . . . . . . . . . .
 72
   65
 73
    2
 40
6.35
 49
0
 74
    0
 49
-6.35
 74
    0
  0
LTYPE
  5
33
330
5
100
AcDbSymbolTableRecord
100
AcDbLinetypeTableRecord
  2
DOTTINY
 70
    0
  3
Dot (.15x) .....................................
 72
   65
 73
    2
 40
0.9525
 49
0
 74
    0
 49
-0.9525
 74
    0
  0
LTYPE
  5
34
330
5
100
AcDbSymbolTableRecord
100
AcDbLinetypeTableRecord
  2
DOT2
 70
    0
  3
Dot (.5x) .....................................
 72
   65
 73
    2
 40
3.175
 49
0
 74
    0
 49
-3.175
 74
    0
  0
LTYPE
  5
35
330
5
100
AcDbSymbolTableRecord
100
AcDbLinetypeTableRecord
  2
DOTX2
 70
    0
  3
Dot (2x) .  .  .  .  .  .  .  .  .  .  .  .  .
 72
   65
 73
    2
 40
12.7
 49
0
 74
    0
 49
-12.7
 74
    0
  0
LTYPE
  5
36
330
5
100
AcDbSymbolTableRecord
100
AcDbLinetypeTableRecord
  2
DASHED
 70
    0
  3
Dashed _ _ _ _ _ _ _ _ _ _ _ _ _ _ _ _ _
 72
   65
 73
    2
 40
19.05
 49
12.7
 74
    0
 49
-6.35
 74
    0
  0
LTYPE
  5
37
330
5
100
AcDbSymbolTableRecord
100
AcDbLinetypeTableRecord
  2
DASHEDTINY
 70
    0
  3
Dashed (.15x) _ _ _ _ _ _ _ _ _ _ _ _ _ _ _ _ _
 72
   65
 73
    2
 40
2.8575
 49
1.905
 74
    0
 49
-0.9525
 74
    0
  0
LTYPE
  5
38
330
5
100
AcDbSymbolTableRecord
100
AcDbLinetypeTableRecord
  2
DASHED2
 70
    0
  3
Dashed (.5x) _ _ _ _ _ _ _ _ _ _ _ _ _ _ _ _ _
 72
   65
 73
    2
 40
9.524999999999999
 49
6.35
 74
    0
 49
-3.175
 74
    0
  0
LTYPE
  5
39
330
5
100
AcDbSymbolTableRecord
100
AcDbLinetypeTableRecord
  2
DASHEDX2
 70
    0
  3
Dashed (2x) ____  ____  ____  ____  ____  ___
 72
   65
 73
    2
 40
38.09999999999999
 49
25.4
 74
    0
 49
-12.7
 74
    0
  0
LTYPE
  5
3A
330
5
100
AcDbSymbolTableRecord
100
AcDbLinetypeTableRecord
  2
DASHDOT
 70
    0
  3
Dash dot __ . __ . __ . __ . __ . __ . __ . __
 72
   65
 73
    4
 40
25.4
 49
12.7
 74
    0
 49
-6.35
 74
    0
 49
0
 74
    0
 49
-6.35
 74
    0
  0
LTYPE
  5
3B
330
5
100
AcDbSymbolTableRecord
100
AcDbLinetypeTableRecord
  2
DASHDOTTINY
 70
    0
  3
Dash dot (.15x) _._._._._._._._._._._._._._._.
 72
   65
 73
    4
 40
3.81
 49
1.905
 74
    0
 49
-0.9525
 74
    0
 49
0
 74
    0
 49
-0.9525
 74
    0
  0
LTYPE
  5
3C
330
5
100
AcDbSymbolTableRecord
100
AcDbLinetypeTableRecord
  2
DASHDOT2
 70
    0
  3
Dash dot (.5x) _._._._._._._._._._._._._._._.
 72
   65
 73
    4
 40
12.7
 49
6.35
 74
    0
 49
-3.175
 74
    0
 49
0
 74
    0
 49
-3.175
 74
    0
  0
LTYPE
  5
3D
330
5
100
AcDbSymbolTableRecord
100
AcDbLinetypeTableRecord
  2
DASHDOTX2
 70
    0
  3
Dash dot (2x) ____  .  ____  .  ____  .  ___
 72
   65
 73
    4
 40
50.8
 49
25.4
 74
    0
 49
-12.7
 74
    0
 49
0
 74
    0
 49
-12.7
 74
    0
  0
LTYPE
  5
3E
330
5
100
AcDbSymbolTableRecord
100
AcDbLinetypeTableRecord
  2
DIVIDE
 70
    0
  3
Divide ____ . . ____ . . ____ . . ____ . . ____
 72
   65
 73
    6
 40
31.75
 49
12.7
 74
    0
 49
-6.35
 74
    0
 49
0
 74
    0
 49
-6.35
 74
    0
 49
0
 74
    0
 49
-6.35
 74
    0
  0
LTYPE
  5
3F
330
5
100
AcDbSymbolTableRecord
100
AcDbLinetypeTableRecord
  2
DIVIDETINY
 70
    0
  3
Divide (.15x) __..__..__..__..__..__..__..__.._
 72
   65
 73
    6
 40
4.7625
 49
1.905
 74
    0
 49
-0.9525
 74
    0
 49
0
 74
    0
 49
-0.9525
 74
    0
 49
0
 74
    0
 49
-0.9525
 74
    0
  0
LTYPE
  5
40
330
5
100
AcDbSymbolTableRecord
100
AcDbLinetypeTableRecord
  2
DIVIDE2
 70
    0
  3
Divide (.5x) __..__..__..__..__..__..__..__.._
 72
   65
 73
    6
 40
15.875
 49
6.35
 74
    0
 49
-3.175
 74
    0
 49
0
 74
    0
 49
-3.175
 74
    0
 49
0
 74
    0
 49
-3.175
 74
    0
  0
LTYPE
  5
41
330
5
100
AcDbSymbolTableRecord
100
AcDbLinetypeTableRecord
  2
DIVIDEX2
 70
    0
  3
Divide (2x) ________  .  .  ________  .  .  _
 72
   65
 73
    6
 40
63.5
 49
25.4
 74
    0
 49
-12.7
 74
    0
 49
0
 74
    0
 49
-12.7
 74
    0
 49
0
 74
    0
 49
-12.7
 74
    0
  0
LTYPE
  5
42
330
5
100
AcDbSymbolTableRecord
100
AcDbLinetypeTableRecord
  2
BORDER
 70
    0
  3
Border __ __ . __ __ . __ __ . __ __ . __ __ .
 72
   65
 73
    6
 40
44.45
 49
12.7
 74
    0
 49
-6.35
 74
    0
 49
12.7
 74
    0
 49
-6.35
 74
    0
 49
0
 74
    0
 49
-6.35
 74
    0
  0
LTYPE
  5
43
330
5
100
AcDbSymbolTableRecord
100
AcDbLinetypeTableRecord
  2
BORDERTINY
 70
    0
  3
Border (.15x) __.__.__.__.__.__.__.__.__.__.__.
 72
   65
 73
    6
 40
6.6675
 49
1.905
 74
    0
 49
-0.9525
 74
    0
 49
1.905
 74
    0
 49
-0.9525
 74
    0
 49
0
 74
    0
 49
-0.9525
 74
    0
  0
LTYPE
  5
44
330
5
100
AcDbSymbolTableRecord
100
AcDbLinetypeTableRecord
  2
BORDER2
 70
    0
  3
Border (.5x) __.__.__.__.__.__.__.__.__.__.__.
 72
   65
 73
    6
 40
22.225
 49
6.35
 74
    0
 49
-3.175
 74
    0
 49
6.35
 74
    0
 49
-3.175
 74
    0
 49
0
 74
    0
 49
-3.175
 74
    0
  0
LTYPE
  5
45
330
5
100
AcDbSymbolTableRecord
100
AcDbLinetypeTableRecord
  2
BORDERX2
 70
    0
  3
Border (2x) ____  ____  .  ____  ____  .  ___
 72
   65
 73
    6
 40
88.89999999999999
 49
25.4
 74
    0
 49
-12.7
 74
    0
 49
25.4
 74
    0
 49
-12.7
 74
    0
 49
0
 74
    0
 49
-12.7
 74
    0
  0
LTYPE
  5
46
330
5
100
AcDbSymbolTableRecord
100
AcDbLinetypeTableRecord
  2
CENTER
 70
    0
  3
Center ____ _ ____ _ ____ _ ____ _ ____ _ ____
 72
   65
 73
    4
 40
50.8
 49
31.75
 74
    0
 49
-6.35
 74
    0
 49
6.35
 74
    0
 49
-6.35
 74
    0
  0
LTYPE
  5
47
330
5
100
AcDbSymbolTableRecord
100
AcDbLinetypeTableRecord
  2
CENTERTINY
 70
    0
  3
Center (.15x) ___ _ ___ _ ___ _ ___ _ ___ _ ___
 72
   65
 73
    4
 40
7.619999999999999
 49
4.7625
 74
    0
 49
-0.9525
 74
    0
 49
0.9525
 74
    0
 49
-0.9525
 74
    0
  0
LTYPE
  5
48
330
5
100
AcDbSymbolTableRecord
100
AcDbLinetypeTableRecord
  2
CENTER2
 70
    0
  3
Center (.5x) ___ _ ___ _ ___ _ ___ _ ___ _ ___
 72
   65
 73
    4
 40
28.575
 49
19.05
 74
    0
 49
-3.175
 74
    0
 49
3.175
 74
    0
 49
-3.175
 74
    0
  0
LTYPE
  5
49
330
5
100
AcDbSymbolTableRecord
100
AcDbLinetypeTableRecord
  2
CENTERX2
 70
    0
  3
Center (2x) ________  __  ________  __  _____
 72
   65
 73
    4
 40
101.6
 49
63.5
 74
    0
 49
-12.7
 74
    0
 49
12.7
 74
    0
 49
-12.7
 74
    0
  0
ENDTAB
  0
TABLE
  2
LAYER
  5
2
330
0
100
AcDbSymbolTable
 70
    1
  0
LAYER
  5
10
330
2
100
AcDbSymbolTableRecord
100
AcDbLayerTableRecord
  2
0
 70
    0
 62
    7
  6
CONTINUOUS
370
    0
390
F
  0
LAYER
  5
4A
330
2
100
AcDbSymbolTableRecord
100
AcDbLayerTableRecord
  2
Center line
 70
    0
 62
    1
  6
CENTER
370
   25
390
F
  0
LAYER
  5
4B
330
2
100
AcDbSymbolTableRecord
100
AcDbLayerTableRecord
  2
Dims
 70
    0
 62
    3
  6
CONTINUOUS
370
    0
390
F
  0
LAYER
  5
4C
330
2
100
AcDbSymbolTableRecord
100
AcDbLayerTableRecord
  2
Links
 70
    0
 62
    7
  6
CONTINUOUS
370
   -3
390
F
  0
LAYER
  5
4D
330
2
100
AcDbSymbolTableRecord
100
AcDbLayerTableRecord
  2
Products
 70
    0
 62
    2
  6
CONTINUOUS
370
    0
390
F
  0
LAYER
  5
4E
330
2
100
AcDbSymbolTableRecord
100
AcDbLayerTableRecord
  2
ref Drive
 70
    0
 62
    7
  6
CONTINUOUS
370
    0
390
F
  0
LAYER
  5
4F
330
2
100
AcDbSymbolTableRecord
100
AcDbLayerTableRecord
  2
ref flap
 70
    4
 62
    7
  6
CONTINUOUS
290
0
370
    0
390
F
  0
LAYER
  5
50
330
2
100
AcDbSymbolTableRecord
100
AcDbLayerTableRecord
  2
ref jaw
 70
    0
 62
    7
  6
CONTINUOUS
370
    0
390
F
  0
LAYER
  5
51
330
2
100
AcDbSymbolTableRecord
100
AcDbLayerTableRecord
  2
ref york
 70
    0
 62
    7
  6
CONTINUOUS
370
    0
390
F
  0
ENDTAB
  0
TABLE
  2
STYLE
  5
3
330
0
100
AcDbSymbolTable
 70
    3
  0
STYLE
  5
52
330
2
100
AcDbSymbolTableRecord
100
AcDbTextStyleTableRecord
  2
Standard
 70
    0
 40
0
 41
1
 50
0
 71
    0
 42
1
  3
txt
  4

  0
ENDTAB
  0
TABLE
  2
VIEW
  5
6
330
0
100
AcDbSymbolTable
 70
    0
  0
ENDTAB
  0
TABLE
  2
UCS
  5
7
330
0
100
AcDbSymbolTable
 70
    0
  0
ENDTAB
  0
TABLE
  2
APPID
  5
9
330
0
100
AcDbSymbolTable
 70
    1
  0
APPID
  5
12
330
9
100
AcDbSymbolTableRecord
100
AcDbRegAppTableRecord
  2
ACAD
 70
    0
  0
APPID
  5
53
330
9
100
AcDbSymbolTableRecord
100
AcDbRegAppTableRecord
  2
LibreCad
 70
    0
  0
ENDTAB
  0
TABLE
  2
DIMSTYLE
  5
A
330
0
100
AcDbSymbolTable
 70
    1
100
AcDbDimStyleTable
 71
    1
  0
DIMSTYLE
105
54
330
A
100
AcDbSymbolTableRecord
100
AcDbDimStyleTableRecord
  2
Standard
 70
    0
 40
2.5
 41
2.5
 42
0.625
 43
0.38
 44
1.25
 45
0
 46
0
 47
0
 48
0
 49
1
140
2.5
141
0.09
142
0
143
25.4
144
1
145
0
146
1
147
0.625
148
0
 71
    0
 72
    0
 73
    0
 74
    1
 75
    0
 76
    0
 77
    0
 78
    8
 79
    2
170
    0
171
    2
172
    0
173
    0
174
    0
175
    0
176
    0
177
    0
178
    0
179
    2
271
    2
272
    4
273
    2
274
    2
275
    0
276
    0
277
    2
278
   44
279
    0
280
    0
281
    0
282
    0
283
    1
284
    0
285
    0
286
    0
288
    0
289
    3
340
standard
341

371
   -2
372
   -2
  0
ENDTAB
  0
TABLE
  2
BLOCK_RECORD
  5
1
330
0
100
AcDbSymbolTable
 70
    2
  0
BLOCK_RECORD
  5
1F
330
1
100
AcDbSymbolTableRecord
100
AcDbBlockTableRecord
  2
*Model_Space
 70
    0
280
    1
281
    0
  0
BLOCK_RECORD
  5
1E
330
1
100
AcDbSymbolTableRecord
100
AcDbBlockTableRecord
  2
*Paper_Space
 70
    0
280
    1
281
    0
  0
BLOCK_RECORD
  5
55
330
1
100
AcDbSymbolTableRecord
100
AcDbBlockTableRecord
  2
*D2
 70
    0
280
    1
281
    0
  0
BLOCK_RECORD
  5
58
330
1
100
AcDbSymbolTableRecord
100
AcDbBlockTableRecord
  2
*D3
 70
    0
280
    1
281
    0
  0
BLOCK_RECORD
  5
5B
330
1
100
AcDbSymbolTableRecord
100
AcDbBlockTableRecord
  2
*D1
 70
    0
280
    1
281
    0
  0
BLOCK_RECORD
  5
5E
330
1
100
AcDbSymbolTableRecord
100
AcDbBlockTableRecord
  2
slider
 70
    0
280
    1
281
    0
  0
BLOCK_RECORD
  5
61
330
1
100
AcDbSymbolTableRecord
100
AcDbBlockTableRecord
  2
york slider rail
 70
    0
280
    1
281
    0
  0
BLOCK_RECORD
  5
64
330
1
100
AcDbSymbolTableRecord
100
AcDbBlockTableRecord
  2
jaw slider rail
 70
    0
280
    1
281
    0
  0
BLOCK_RECORD
  5
67
330
1
100
AcDbSymbolTableRecord
100
AcDbBlockTableRecord
  2
crank link 1
 70
    0
280
    1
281
    0
  0
BLOCK_RECORD
  5
6A
330
1
100
AcDbSymbolTableRecord
100
AcDbBlockTableRecord
  2
crank link 2
 70
    0
280
    1
281
    0
  0
BLOCK_RECORD
  5
6D
330
1
100
AcDbSymbolTableRecord
100
AcDbBlockTableRecord
  2
york
 70
    0
280
    1
281
    0
  0
BLOCK_RECORD
  5
70
330
1
100
AcDbSymbolTableRecord
100
AcDbBlockTableRecord
  2
pressure jaw
 70
    0
280
    1
281
    0
  0
BLOCK_RECORD
  5
73
330
1
100
AcDbSymbolTableRecord
100
AcDbBlockTableRecord
  2
cutter jaw
 70
    0
280
    1
281
    0
  0
BLOCK_RECORD
  5
76
330
1
100
AcDbSymbolTableRecord
100
AcDbBlockTableRecord
  2
jaw slider rail-0
 70
    0
280
    1
281
    0
  0
BLOCK_RECORD
  5
79
330
1
100
AcDbSymbolTableRecord
100
AcDbBlockTableRecord
  2
york rod
 70
    0
280
    1
281
    0
  0
BLOCK_RECORD
  5
7C
330
1
100
AcDbSymbolTableRecord
100
AcDbBlockTableRecord
  2
jaw rod
 70
    0
280
    1
281
    0
  0
BLOCK_RECORD
  5
7F
330
1
100
AcDbSymbolTableRecord
100
AcDbBlockTableRecord
  2
volumn flap
 70
    0
280
    1
281
    0
  0
ENDTAB
  0
ENDSEC
  0
SECTION
  2
BLOCKS
  0
BLOCK
  5
20
330
1F
100
AcDbEntity
  8
0
100
AcDbBlockBegin
  2
*Model_Space
 70
    0
 10
0
 20
0
 30
0
  3
*Model_Space
  1

  0
ENDBLK
  5
21
330
1F
100
AcDbEntity
  8
0
100
AcDbBlockEnd
  0
BLOCK
  5
1C
330
1B
100
AcDbEntity
  8
0
100
AcDbBlockBegin
  2
*Paper_Space
 70
    0
 10
0
 20
0
 30
0
  3
*Paper_Space
  1

  0
ENDBLK
  5
1D
330
1F
100
AcDbEntity
  8
0
100
AcDbBlockEnd
  0
BLOCK
  5
56
330
55
100
AcDbEntity
  8
0
100
AcDbBlockBegin
  2
*D2
 70
    1
 10
0
 20
0
  3
*D2
  1

  0
LINE
  5
82
100
AcDbEntity
  8
Dims
  6
CONTINUOUS
 62
    7
370
    0
100
AcDbLine
 10
684.262828607029
 20
-313.8675250802894
 11
721.0256495547203
 21
-320.1923114798922
  0
LINE
  5
83
100
AcDbEntity
  8
Dims
  6
CONTINUOUS
 62
    7
370
    0
100
AcDbLine
 10
721.0256495547203
 20
-320.1923114798922
 11
741.9765045034046
 21
-318.6111148799915
  0
LINE
  5
84
100
AcDbEntity
  8
Dims
  6
CONTINUOUS
 62
    7
370
    0
100
AcDbLine
 10
741.9765045034046
 20
-318.6111148799915
 11
747.510692603057
 21
-325.3312004295695
  0
LINE
  5
85
100
AcDbEntity
  8
Dims
  6
CONTINUOUS
 62
    7
370
    0
100
AcDbLine
 10
747.510692603057
 20
-325.3312004295695
 11
781.9017186508974
 21
-326.5170978794951
  0
SOLID
  5
86
100
AcDbEntity
  8
Dims
  6
CONTINUOUS
 62
    7
370
    0
100
AcDbTrace
 10
684.262828607029
 20
-313.8675250802894
 30
0
 11
690.5987911116016
 21
-313.9015819078941
 31
0
 12
690.2458815458083
 22
-315.9528687590678
 32
0
 13
690.2458815458083
 23
-315.9528687590678
 33
0
  0
ENDBLK
  5
57
330
55
100
AcDbEntity
  8
0
100
AcDbBlockEnd
  0
BLOCK
  5
59
330
58
100
AcDbEntity
  8
0
100
AcDbBlockBegin
  2
*D3
 70
    1
 10
0
 20
0
  3
*D3
  1

  0
LINE
  5
87
100
AcDbEntity
  8
Dims
  6
ByBlock
 62
    0
370
   -2
100
AcDbLine
 10
0
 20
-650
 11
-100
 21
-650
  0
SOLID
  5
88
100
AcDbEntity
  8
Dims
  6
ByBlock
 62
    0
370
   -2
100
AcDbTrace
 10
0
 20
-650
 30
0
 11
-6.25
 21
-651.0407116444321
 31
0
 12
-6.25
 22
-648.9592883555679
 32
0
 13
-6.25
 23
-648.9592883555679
 33
0
  0
SOLID
  5
89
100
AcDbEntity
  8
Dims
  6
ByBlock
 62
    0
370
   -2
100
AcDbTrace
 10
-100
 20
-650
 30
0
 11
-93.75
 21
-648.9592883555679
 31
0
 12
-93.75
 22
-651.0407116444321
 32
0
 13
-93.75
 23
-651.0407116444321
 33
0
  0
MTEXT
  5
8A
100
AcDbEntity
  8
Dims
  6
CONTINUOUS
 62
    0
370
   -2
100
AcDbMText
 10
-50
 20
-645.3125
 30
0
 40
6.25
 41
11.11111111111111
 71
    5
 72
    1
  1
100
  7
standard
210
0
220
0
230
1
 50
360
 73
    2
 44
1
  0
LINE
  5
8B
100
AcDbEntity
  8
Dims
  6
ByBlock
 62
    0
370
   -2
100
AcDbLine
 10
9.567553118338697e-17
 20
-798.4375
 11
1.913510623667739e-16
 21
-646.875
  0
LINE
  5
8C
100
AcDbEntity
  8
Dims
  6
ByBlock
 62
    0
370
   -2
100
AcDbLine
 10
-100
 20
-795.9774999999998
 11
-100
 21
-646.875
  0
ENDBLK
  5
5A
330
58
100
AcDbEntity
  8
0
100
AcDbBlockEnd
  0
BLOCK
  5
5C
330
5B
100
AcDbEntity
  8
0
100
AcDbBlockBegin
  2
*D1
 70
    1
 10
0
 20
0
  3
*D1
  1

  0
LINE
  5
8D
100
AcDbEntity
  8
Dims
  6
CONTINUOUS
 62
    7
370
    0
100
AcDbLine
 10
699.0897059619047
 20
-187.5481886608326
 11
763.4795473005012
 21
-313.26168841714
  0
LINE
  5
8E
100
AcDbEntity
  8
Dims
  6
CONTINUOUS
 62
    7
370
    0
100
AcDbLine
 10
763.4795473005012
 20
-313.26168841714
 11
821.7370227973265
 21
-321.4381762061682
  0
SOLID
  5
8F
100
AcDbEntity
  8
Dims
  6
CONTINUOUS
 62
    7
370
    0
100
AcDbTrace
 10
699.0897059619047
 20
-187.5481886608326
 30
0
 11
702.8652086420479
 21
-192.6365243650769
 31
0
 12
701.0126516543321
 22
-193.5853950173216
 32
0
 13
701.0126516543321
 23
-193.5853950173216
 33
0
  0
ENDBLK
  5
5D
330
5B
100
AcDbEntity
  8
0
100
AcDbBlockEnd
  0
BLOCK
  5
5F
330
5E
100
AcDbEntity
  8
0
100
AcDbBlockBegin
  2
slider
 70
    0
 10
0
 20
0
  3
slider
  1

  0
LWPOLYLINE
  5
90
100
AcDbEntity
  8
Links
  6
ByLayer
 62
  256
370
   -1
100
AcDbPolyline
 90
    4
 70
    1
 43
0
 10
-30
 20
50
 10
30
 20
50
 10
30
 20
-50
 10
-30
 20
-50
  0
CIRCLE
  5
91
100
AcDbEntity
  8
Links
  6
ByLayer
 62
  256
370
   -1
100
AcDbCircle
 10
0
 20
0
 40
10
  0
ENDBLK
  5
60
330
5E
100
AcDbEntity
  8
0
100
AcDbBlockEnd
  0
BLOCK
  5
62
330
61
100
AcDbEntity
  8
0
100
AcDbBlockBegin
  2
york slider rail
 70
    0
 10
0
 20
0
  3
york slider rail
  1

  0
LINE
  5
92
100
AcDbEntity
  8
Links
  6
ByLayer
 62
  256
370
   -1
100
AcDbLine
 10
0
 20
0
 11
0
 21
-600
  0
LINE
  5
93
100
AcDbEntity
  8
Links
  6
ByLayer
 62
  256
370
   -1
100
AcDbLine
 10
0
 20
0
 11
-14.14213562373095
 21
-14.14213562373095
  0
LINE
  5
94
100
AcDbEntity
  8
Links
  6
ByLayer
 62
  256
370
   -1
100
AcDbLine
 10
0
 20
-20
 11
-14.14213562373095
 21
-34.14213562373095
  0
LINE
  5
95
100
AcDbEntity
  8
Links
  6
ByLayer
 62
  256
370
   -1
100
AcDbLine
 10
0
 20
-40
 11
-14.14213562373095
 21
-54.14213562373095
  0
LINE
  5
96
100
AcDbEntity
  8
Links
  6
ByLayer
 62
  256
370
   -1
100
AcDbLine
 10
0
 20
-60
 11
-14.14213562373095
 21
-74.14213562373095
  0
LINE
  5
97
100
AcDbEntity
  8
Links
  6
ByLayer
 62
  256
370
   -1
100
AcDbLine
 10
0
 20
-80
 11
-14.14213562373095
 21
-94.14213562373095
  0
LINE
  5
98
100
AcDbEntity
  8
Links
  6
ByLayer
 62
  256
370
   -1
100
AcDbLine
 10
0
 20
-100
 11
-14.14213562373095
 21
-114.142135623731
  0
LINE
  5
99
100
AcDbEntity
  8
Links
  6
ByLayer
 62
  256
370
   -1
100
AcDbLine
 10
0
 20
-120
 11
-14.14213562373095
 21
-134.142135623731
  0
LINE
  5
9A
100
AcDbEntity
  8
Links
  6
ByLayer
 62
  256
370
   -1
100
AcDbLine
 10
0
 20
-140
 11
-14.14213562373095
 21
-154.142135623731
  0
LINE
  5
9B
100
AcDbEntity
  8
Links
  6
ByLayer
 62
  256
370
   -1
100
AcDbLine
 10
0
 20
-160
 11
-14.14213562373095
 21
-174.142135623731
  0
LINE
  5
9C
100
AcDbEntity
  8
Links
  6
ByLayer
 62
  256
370
   -1
100
AcDbLine
 10
0
 20
-180
 11
-14.14213562373095
 21
-194.142135623731
  0
LINE
  5
9D
100
AcDbEntity
  8
Links
  6
ByLayer
 62
  256
370
   -1
100
AcDbLine
 10
0
 20
-200
 11
-14.14213562373095
 21
-214.142135623731
  0
LINE
  5
9E
100
AcDbEntity
  8
Links
  6
ByLayer
 62
  256
370
   -1
100
AcDbLine
 10
0
 20
-220
 11
-14.14213562373095
 21
-234.142135623731
  0
LINE
  5
9F
100
AcDbEntity
  8
Links
  6
ByLayer
 62
  256
370
   -1
100
AcDbLine
 10
0
 20
-240
 11
-14.14213562373095
 21
-254.142135623731
  0
LINE
  5
A0
100
AcDbEntity
  8
Links
  6
ByLayer
 62
  256
370
   -1
100
AcDbLine
 10
0
 20
-260
 11
-14.14213562373095
 21
-274.142135623731
  0
LINE
  5
A1
100
AcDbEntity
  8
Links
  6
ByLayer
 62
  256
370
   -1
100
AcDbLine
 10
0
 20
-280
 11
-14.14213562373095
 21
-294.142135623731
  0
LINE
  5
A2
100
AcDbEntity
  8
Links
  6
ByLayer
 62
  256
370
   -1
100
AcDbLine
 10
0
 20
-300
 11
-14.14213562373095
 21
-314.142135623731
  0
LINE
  5
A3
100
AcDbEntity
  8
Links
  6
ByLayer
 62
  256
370
   -1
100
AcDbLine
 10
0
 20
-320
 11
-14.14213562373095
 21
-334.142135623731
  0
LINE
  5
A4
100
AcDbEntity
  8
Links
  6
ByLayer
 62
  256
370
   -1
100
AcDbLine
 10
0
 20
-340
 11
-14.14213562373095
 21
-354.142135623731
  0
LINE
  5
A5
100
AcDbEntity
  8
Links
  6
ByLayer
 62
  256
370
   -1
100
AcDbLine
 10
0
 20
-360
 11
-14.14213562373095
 21
-374.142135623731
  0
LINE
  5
A6
100
AcDbEntity
  8
Links
  6
ByLayer
 62
  256
370
   -1
100
AcDbLine
 10
0
 20
-380
 11
-14.14213562373095
 21
-394.142135623731
  0
LINE
  5
A7
100
AcDbEntity
  8
Links
  6
ByLayer
 62
  256
370
   -1
100
AcDbLine
 10
0
 20
-400
 11
-14.14213562373095
 21
-414.142135623731
  0
LINE
  5
A8
100
AcDbEntity
  8
Links
  6
ByLayer
 62
  256
370
   -1
100
AcDbLine
 10
0
 20
-420
 11
-14.14213562373095
 21
-434.142135623731
  0
LINE
  5
A9
100
AcDbEntity
  8
Links
  6
ByLayer
 62
  256
370
   -1
100
AcDbLine
 10
0
 20
-440
 11
-14.14213562373095
 21
-454.142135623731
  0
LINE
  5
AA
100
AcDbEntity
  8
Links
  6
ByLayer
 62
  256
370
   -1
100
AcDbLine
 10
0
 20
-460
 11
-14.14213562373095
 21
-474.142135623731
  0
LINE
  5
AB
100
AcDbEntity
  8
Links
  6
ByLayer
 62
  256
370
   -1
100
AcDbLine
 10
0
 20
-480
 11
-14.14213562373095
 21
-494.142135623731
  0
LINE
  5
AC
100
AcDbEntity
  8
Links
  6
ByLayer
 62
  256
370
   -1
100
AcDbLine
 10
0
 20
-500
 11
-14.14213562373095
 21
-514.142135623731
  0
LINE
  5
AD
100
AcDbEntity
  8
Links
  6
ByLayer
 62
  256
370
   -1
100
AcDbLine
 10
0
 20
-520
 11
-14.14213562373095
 21
-534.142135623731
  0
LINE
  5
AE
100
AcDbEntity
  8
Links
  6
ByLayer
 62
  256
370
   -1
100
AcDbLine
 10
0
 20
-540
 11
-14.14213562373095
 21
-554.142135623731
  0
LINE
  5
AF
100
AcDbEntity
  8
Links
  6
ByLayer
 62
  256
370
   -1
100
AcDbLine
 10
0
 20
-560
 11
-14.14213562373095
 21
-574.142135623731
  0
LINE
  5
B0
100
AcDbEntity
  8
Links
  6
ByLayer
 62
  256
370
   -1
100
AcDbLine
 10
0
 20
-580
 11
-14.14213562373095
 21
-594.142135623731
  0
ENDBLK
  5
63
330
61
100
AcDbEntity
  8
0
100
AcDbBlockEnd
  0
BLOCK
  5
65
330
64
100
AcDbEntity
  8
0
100
AcDbBlockBegin
  2
jaw slider rail
 70
    0
 10
0
 20
0
  3
jaw slider rail
  1

  0
LINE
  5
B1
100
AcDbEntity
  8
Links
  6
ByLayer
 62
  256
370
   -1
100
AcDbLine
 10
0
 20
0
 11
0
 21
-600
  0
LINE
  5
B2
100
AcDbEntity
  8
Links
  6
ByLayer
 62
  256
370
   -1
100
AcDbLine
 10
14.14213562373095
 20
-5.857864376269049
 11
0
 21
-20
  0
LINE
  5
B3
100
AcDbEntity
  8
Links
  6
ByLayer
 62
  256
370
   -1
100
AcDbLine
 10
14.14213562373095
 20
-25.85786437626905
 11
0
 21
-40
  0
LINE
  5
B4
100
AcDbEntity
  8
Links
  6
ByLayer
 62
  256
370
   -1
100
AcDbLine
 10
14.14213562373095
 20
-45.85786437626905
 11
0
 21
-60
  0
LINE
  5
B5
100
AcDbEntity
  8
Links
  6
ByLayer
 62
  256
370
   -1
100
AcDbLine
 10
14.14213562373095
 20
-65.85786437626905
 11
0
 21
-80
  0
LINE
  5
B6
100
AcDbEntity
  8
Links
  6
ByLayer
 62
  256
370
   -1
100
AcDbLine
 10
14.14213562373095
 20
-85.85786437626905
 11
0
 21
-100
  0
LINE
  5
B7
100
AcDbEntity
  8
Links
  6
ByLayer
 62
  256
370
   -1
100
AcDbLine
 10
14.14213562373095
 20
-105.857864376269
 11
0
 21
-120
  0
LINE
  5
B8
100
AcDbEntity
  8
Links
  6
ByLayer
 62
  256
370
   -1
100
AcDbLine
 10
14.14213562373095
 20
-125.857864376269
 11
0
 21
-140
  0
LINE
  5
B9
100
AcDbEntity
  8
Links
  6
ByLayer
 62
  256
370
   -1
100
AcDbLine
 10
14.14213562373095
 20
-145.857864376269
 11
0
 21
-160
  0
LINE
  5
BA
100
AcDbEntity
  8
Links
  6
ByLayer
 62
  256
370
   -1
100
AcDbLine
 10
14.14213562373095
 20
-165.857864376269
 11
0
 21
-180
  0
LINE
  5
BB
100
AcDbEntity
  8
Links
  6
ByLayer
 62
  256
370
   -1
100
AcDbLine
 10
14.14213562373095
 20
-185.857864376269
 11
0
 21
-200
  0
LINE
  5
BC
100
AcDbEntity
  8
Links
  6
ByLayer
 62
  256
370
   -1
100
AcDbLine
 10
14.14213562373095
 20
-205.857864376269
 11
0
 21
-220
  0
LINE
  5
BD
100
AcDbEntity
  8
Links
  6
ByLayer
 62
  256
370
   -1
100
AcDbLine
 10
14.14213562373095
 20
-225.857864376269
 11
0
 21
-240
  0
LINE
  5
BE
100
AcDbEntity
  8
Links
  6
ByLayer
 62
  256
370
   -1
100
AcDbLine
 10
14.14213562373095
 20
-245.857864376269
 11
0
 21
-260
  0
LINE
  5
BF
100
AcDbEntity
  8
Links
  6
ByLayer
 62
  256
370
   -1
100
AcDbLine
 10
14.14213562373095
 20
-265.857864376269
 11
0
 21
-280
  0
LINE
  5
C0
100
AcDbEntity
  8
Links
  6
ByLayer
 62
  256
370
   -1
100
AcDbLine
 10
14.14213562373095
 20
-285.857864376269
 11
0
 21
-300
  0
LINE
  5
C1
100
AcDbEntity
  8
Links
  6
ByLayer
 62
  256
370
   -1
100
AcDbLine
 10
14.14213562373095
 20
-305.857864376269
 11
0
 21
-320
  0
LINE
  5
C2
100
AcDbEntity
  8
Links
  6
ByLayer
 62
  256
370
   -1
100
AcDbLine
 10
14.14213562373095
 20
-325.857864376269
 11
0
 21
-340
  0
LINE
  5
C3
100
AcDbEntity
  8
Links
  6
ByLayer
 62
  256
370
   -1
100
AcDbLine
 10
14.14213562373095
 20
-345.857864376269
 11
0
 21
-360
  0
LINE
  5
C4
100
AcDbEntity
  8
Links
  6
ByLayer
 62
  256
370
   -1
100
AcDbLine
 10
14.14213562373095
 20
-365.857864376269
 11
0
 21
-380
  0
LINE
  5
C5
100
AcDbEntity
  8
Links
  6
ByLayer
 62
  256
370
   -1
100
AcDbLine
 10
14.14213562373095
 20
-385.857864376269
 11
0
 21
-400
  0
LINE
  5
C6
100
AcDbEntity
  8
Links
  6
ByLayer
 62
  256
370
   -1
100
AcDbLine
 10
14.14213562373095
 20
-405.857864376269
 11
0
 21
-420
  0
LINE
  5
C7
100
AcDbEntity
  8
Links
  6
ByLayer
 62
  256
370
   -1
100
AcDbLine
 10
14.14213562373095
 20
-425.857864376269
 11
0
 21
-440
  0
LINE
  5
C8
100
AcDbEntity
  8
Links
  6
ByLayer
 62
  256
370
   -1
100
AcDbLine
 10
14.14213562373095
 20
-445.857864376269
 11
0
 21
-460
  0
LINE
  5
C9
100
AcDbEntity
  8
Links
  6
ByLayer
 62
  256
370
   -1
100
AcDbLine
 10
14.14213562373095
 20
-465.857864376269
 11
0
 21
-480
  0
LINE
  5
CA
100
AcDbEntity
  8
Links
  6
ByLayer
 62
  256
370
   -1
100
AcDbLine
 10
14.14213562373095
 20
-485.857864376269
 11
0
 21
-500
  0
LINE
  5
CB
100
AcDbEntity
  8
Links
  6
ByLayer
 62
  256
370
   -1
100
AcDbLine
 10
14.14213562373095
 20
-505.857864376269
 11
0
 21
-520
  0
LINE
  5
CC
100
AcDbEntity
  8
Links
  6
ByLayer
 62
  256
370
   -1
100
AcDbLine
 10
14.14213562373095
 20
-525.857864376269
 11
0
 21
-540
  0
LINE
  5
CD
100
AcDbEntity
  8
Links
  6
ByLayer
 62
  256
370
   -1
100
AcDbLine
 10
14.14213562373095
 20
-545.857864376269
 11
0
 21
-560
  0
LINE
  5
CE
100
AcDbEntity
  8
Links
  6
ByLayer
 62
  256
370
   -1
100
AcDbLine
 10
14.14213562373095
 20
-565.857864376269
 11
0
 21
-580
  0
LINE
  5
CF
100
AcDbEntity
  8
Links
  6
ByLayer
 62
  256
370
   -1
100
AcDbLine
 10
14.14213562373095
 20
-585.857864376269
 11
0
 21
-600
  0
ENDBLK
  5
66
330
64
100
AcDbEntity
  8
0
100
AcDbBlockEnd
  0
BLOCK
  5
68
330
67
100
AcDbEntity
  8
0
100
AcDbBlockBegin
  2
crank link 1
 70
    0
 10
0
 20
0
  3
crank link 1
  1

  0
CIRCLE
  5
D0
100
AcDbEntity
  8
Links
  6
ByLayer
 62
  256
370
   -1
100
AcDbCircle
 10
0
 20
0
 40
10
  0
CIRCLE
  5
D1
100
AcDbEntity
  8
Links
  6
ByLayer
 62
  256
370
   -1
100
AcDbCircle
 10
153.9692620785908
 20
-17.84562509340287
 40
10
  0
LINE
  5
D2
100
AcDbEntity
  8
Links
  6
ByLayer
 62
  256
370
   -1
100
AcDbLine
 10
-2.302645204660223
 20
-19.86700342431436
 11
151.6666007762163
 21
-37.71262665193069
  0
LINE
  5
D3
100
AcDbEntity
  8
Links
  6
ByLayer
 62
  256
370
   -1
100
AcDbLine
 10
2.302672837828425
 20
19.86700022152479
 11
156.2719210014372
 21
2.021376740921369
  0
ARC
  5
D4
100
AcDbEntity
  8
Links
  6
ByLayer
 62
  256
370
   -1
100
AcDbCircle
 10
0
 20
0
 40
20
100
AcDbArc
 50
83.38873317011644
 51
83.38866663437686
  0
CIRCLE
  5
D5
100
AcDbEntity
  8
Links
  6
ByLayer
 62
  256
370
   -1
100
AcDbCircle
 10
153.9692620785908
 20
-17.84562509340287
 40
20
  0
LINE
  5
D6
100
AcDbEntity
  8
Center line
  6
ByLayer
 62
  256
370
   -1
100
AcDbLine
 10
0
 20
0
 11
153.9692620785908
 21
-17.84562509340287
  0
DIMENSION
  5
D7
100
AcDbEntity
  8
Dims
  6
ByLayer
 62
  256
370
   -1
100
AcDbDimension
 10
149.0462274792291
 20
-60.32079760676564
 30
0
 11
72.60128268267776
 21
-46.74165656978424
 31
0
 70
   33
 71
    5
 72
    0
  3
Standard
 53
0
210
0
220
0
230
1
100
AcDbAlignedDimension
 13
0
 23
0
 33
0
 14
153.9692620785908
 24
-17.84562509340287
 34
0
  0
ENDBLK
  5
69
330
67
100
AcDbEntity
  8
0
100
AcDbBlockEnd
  0
BLOCK
  5
6B
330
6A
100
AcDbEntity
  8
0
100
AcDbBlockBegin
  2
crank link 2
 70
    0
 10
0
 20
0
  3
crank link 2
  1

  0
CIRCLE
  5
D8
100
AcDbEntity
  8
Links
  6
ByLayer
 62
  256
370
   -1
100
AcDbCircle
 10
0
 20
0
 40
10
  0
ARC
  5
D9
100
AcDbEntity
  8
Links
  6
ByLayer
 62
  256
370
   -1
100
AcDbCircle
 10
0
 20
0
 40
20
100
AcDbArc
 50
96.61132845570748
 51
96.61132845570748
  0
LINE
  5
DA
100
AcDbEntity
  8
Links
  6
ByLayer
 62
  256
370
   -1
100
AcDbLine
 10
-156.2719177726561
 20
2.021377115149221
 11
-2.30266130237456
 21
19.86700155852782
  0
LINE
  5
DB
100
AcDbEntity
  8
Links
  6
ByLayer
 62
  256
370
   -1
100
AcDbLine
 10
-151.6665869610993
 20
-37.71262505070604
 11
2.30266130237456
 21
-19.86700155852782
  0
CIRCLE
  5
DC
100
AcDbEntity
  8
Links
  6
ByLayer
 62
  256
370
   -1
100
AcDbCircle
 10
-153.9692620785907
 20
-17.84562509340287
 40
10
  0
CIRCLE
  5
DD
100
AcDbEntity
  8
Links
  6
ByLayer
 62
  256
370
   -1
100
AcDbCircle
 10
-153.9692620785907
 20
-17.84562509340287
 40
20
  0
LINE
  5
DE
100
AcDbEntity
  8
Center line
  6
ByLayer
 62
  256
370
   -1
100
AcDbLine
 10
-153.9692620785907
 20
-17.84562509340287
 11
0
 21
0
  0
DIMENSION
  5
DF
100
AcDbEntity
  8
Dims
  6
ByLayer
 62
  256
370
   -1
100
AcDbDimension
 10
7.07782715667719
 20
-61.06638566761419
 30
0
 11
-70.44649012536226
 21
-65.33286972403567
 31
0
 70
   33
 71
    5
 72
    0
  3
Standard
 53
0
210
0
220
0
230
1
100
AcDbAlignedDimension
 13
-153.9692620785907
 23
-17.84562509340287
 33
0
 14
0
 24
0
 34
0
  0
ENDBLK
  5
6C
330
6A
100
AcDbEntity
  8
0
100
AcDbBlockEnd
  0
BLOCK
  5
6E
330
6D
100
AcDbEntity
  8
0
100
AcDbBlockBegin
  2
york
 70
    0
 10
0
 20
0
  3
york
  1

  0
LINE
  5
E0
100
AcDbEntity
  8
Center line
  6
ByLayer
 62
  256
370
   -1
100
AcDbLine
 10
0
 20
0
 11
120
 21
0
  0
LINE
  5
E1
100
AcDbEntity
  8
Center line
  6
ByLayer
 62
  256
370
   -1
100
AcDbLine
 10
-5
 20
237.54
 11
0
 21
0
  0
CIRCLE
  5
E2
100
AcDbEntity
  8
Links
  6
ByLayer
 62
  256
370
   -1
100
AcDbCircle
 10
0
 20
0
 40
10
  0
CIRCLE
  5
E3
100
AcDbEntity
  8
Links
  6
ByLayer
 62
  256
370
   -1
100
AcDbCircle
 10
120
 20
0
 40
10
  0
CIRCLE
  5
E4
100
AcDbEntity
  8
Links
  6
ByLayer
 62
  256
370
   -1
100
AcDbCircle
 10
-5
 20
237.54
 40
10
  0
LINE
  5
E5
100
AcDbEntity
  8
Links
  6
ByLayer
 62
  256
370
   -1
100
AcDbLine
 10
1.224646799147353e-15
 20
-20
 11
120
 21
-20
  0
LINE
  5
E6
100
AcDbEntity
  8
Links
  6
ByLayer
 62
  256
370
   -1
100
AcDbLine
 10
-24.99557079044922
 20
237.1191095580344
 11
-19.99557083133763
 21
-0.4208884994387745
  0
ARC
  5
E7
100
AcDbEntity
  8
Links
  6
ByLayer
 62
  256
370
   -1
100
AcDbCircle
 10
-7.105427357601002e-15
 20
-1.665334536937735e-15
 40
19.99999999999999
100
AcDbArc
 50
181.2058457493895
 51
270
  0
LINE
  5
E8
100
AcDbEntity
  8
Links
  6
ByLayer
 62
  256
370
   -1
100
AcDbLine
 10
12.69901090915311
 20
246.8537002763498
 11
137.6990109091531
 21
9.313700276349833
  0
ARC
  5
E9
100
AcDbEntity
  8
Links
  6
ByLayer
 62
  256
370
   -1
100
AcDbCircle
 10
-5.000000000000046
 20
237.5399999999999
 40
20.00000000000005
100
AcDbArc
 50
27.75457864389112
 51
181.2058513155514
  0
ARC
  5
EA
100
AcDbEntity
  8
Links
  6
ByLayer
 62
  256
370
   -1
100
AcDbCircle
 10
120
 20
0
 40
20
100
AcDbArc
 50
270
 51
27.75455986089304
  0
LINE
  5
EB
100
AcDbEntity
  8
Links
  6
ByLayer
 62
  256
370
   -1
100
AcDbLine
 10
74.02725532441897
 20
444.5908028112797
 11
59.88511970068802
 21
430.4486671875487
  0
LINE
  5
EC
100
AcDbEntity
  8
Links
  6
ByLayer
 62
  256
370
   -1
100
AcDbLine
 10
74.02725532441897
 20
424.5908028112797
 11
59.88511970068802
 21
410.4486671875487
  0
LINE
  5
ED
100
AcDbEntity
  8
Links
  6
ByLayer
 62
  256
370
   -1
100
AcDbLine
 10
74.02725532441897
 20
404.5908028112797
 11
59.88511970068802
 21
390.4486671875487
  0
LINE
  5
EE
100
AcDbEntity
  8
Links
  6
ByLayer
 62
  256
370
   -1
100
AcDbLine
 10
74.02725532441897
 20
384.5908028112797
 11
59.88511970068802
 21
370.4486671875487
  0
LINE
  5
EF
100
AcDbEntity
  8
Links
  6
ByLayer
 62
  256
370
   -1
100
AcDbLine
 10
74.02725532441897
 20
364.5908028112797
 11
59.88511970068802
 21
350.4486671875487
  0
LINE
  5
F0
100
AcDbEntity
  8
Links
  6
ByLayer
 62
  256
370
   -1
100
AcDbLine
 10
74.02725532441897
 20
344.5908028112797
 11
59.88511970068802
 21
330.4486671875487
  0
LINE
  5
F1
100
AcDbEntity
  8
Links
  6
ByLayer
 62
  256
370
   -1
100
AcDbLine
 10
74.02725532441897
 20
324.5908028112797
 11
59.88511970068802
 21
310.4486671875487
  0
LINE
  5
F2
100
AcDbEntity
  8
Links
  6
ByLayer
 62
  256
370
   -1
100
AcDbLine
 10
74.02725532441897
 20
304.5908028112797
 11
59.88511970068802
 21
290.4486671875487
  0
LINE
  5
F3
100
AcDbEntity
  8
Links
  6
ByLayer
 62
  256
370
   -1
100
AcDbLine
 10
74.02725532441897
 20
284.5908028112797
 11
59.88511970068802
 21
270.4486671875487
  0
LINE
  5
F4
100
AcDbEntity
  8
Links
  6
ByLayer
 62
  256
370
   -1
100
AcDbLine
 10
74.02725532441897
 20
264.5908028112797
 11
59.88511970068802
 21
250.4486671875487
  0
LINE
  5
F5
100
AcDbEntity
  8
Links
  6
ByLayer
 62
  256
370
   -1
100
AcDbLine
 10
74.02725532441897
 20
244.5908028112797
 11
59.88511970068802
 21
230.4486671875487
  0
LINE
  5
F6
100
AcDbEntity
  8
Links
  6
ByLayer
 62
  256
370
   -1
100
AcDbLine
 10
74.02725532441897
 20
224.5908028112797
 11
59.88511970068802
 21
210.4486671875487
  0
LINE
  5
F7
100
AcDbEntity
  8
Links
  6
ByLayer
 62
  256
370
   -1
100
AcDbLine
 10
74.02725532441897
 20
204.5908028112797
 11
59.88511970068802
 21
190.4486671875487
  0
LINE
  5
F8
100
AcDbEntity
  8
Links
  6
ByLayer
 62
  256
370
   -1
100
AcDbLine
 10
74.02725532441897
 20
184.5908028112797
 11
59.88511970068802
 21
170.4486671875487
  0
LINE
  5
F9
100
AcDbEntity
  8
Links
  6
ByLayer
 62
  256
370
   -1
100
AcDbLine
 10
74.02725532441897
 20
-35.40919718872027
 11
59.88511970068802
 21
-49.55133281245128
  0
LINE
  5
FA
100
AcDbEntity
  8
Links
  6
ByLayer
 62
  256
370
   -1
100
AcDbLine
 10
74.02725532441897
 20
-55.40919718872027
 11
59.88511970068802
 21
-69.55133281245128
  0
LINE
  5
FB
100
AcDbEntity
  8
Links
  6
ByLayer
 62
  256
370
   -1
100
AcDbLine
 10
74.02725532441897
 20
-75.40919718872033
 11
59.88511970068802
 21
-89.55133281245128
  0
LINE
  5
FC
100
AcDbEntity
  8
Links
  6
ByLayer
 62
  256
370
   -1
100
AcDbLine
 10
74.02725532441897
 20
-95.40919718872033
 11
59.88511970068802
 21
-109.5513328124513
  0
LINE
  5
FD
100
AcDbEntity
  8
Links
  6
ByLayer
 62
  256
370
   -1
100
AcDbLine
 10
74.02725532441897
 20
-115.4091971887203
 11
59.88511970068802
 21
-129.5513328124513
  0
LINE
  5
FE
100
AcDbEntity
  8
Links
  6
ByLayer
 62
  256
370
   -1
100
AcDbLine
 10
74.02725532441897
 20
-135.4091971887203
 11
59.88511970068802
 21
-149.5513328124513
  0
LINE
  5
FF
100
AcDbEntity
  8
Links
  6
ByLayer
 62
  256
370
   -1
100
AcDbLine
 10
59.88511970068802
 20
450.4486671875487
 11
59.88511970068802
 21
157.1849940176202
  0
LINE
  5
100
100
AcDbEntity
  8
Links
  6
ByLayer
 62
  256
370
   -1
100
AcDbLine
 10
74.02725532441897
 20
164.5908028112797
 11
62.20773473284703
 21
152.7712822197078
  0
LINE
  5
101
100
AcDbEntity
  8
Links
  6
ByLayer
 62
  256
370
   -1
100
AcDbLine
 10
59.88511970068802
 20
-149.5513328124513
 11
60
 21
-20
  0
LINE
  5
102
100
AcDbEntity
  8
Links
  6
ByLayer
 62
  256
370
   -1
100
AcDbLine
 10
69.43645251313924
 20
-20
 11
59.88511970068802
 21
-29.55133281245128
  0
LINE
  5
103
100
AcDbEntity
  8
Links
  6
ByLayer
 62
  256
370
   -1
100
AcDbLine
 10
74.02725532441897
 20
144.5908028112797
 11
69.10352554213705
 21
139.6670730289978
  0
DIMENSION
  5
104
100
AcDbEntity
  8
Dims
  6
ByLayer
 62
  256
370
   -1
100
AcDbDimension
 10
120
 20
-180
 30
0
 11
59.99999999999997
 21
-175.3125
 31
0
 70
   33
 71
    5
 72
    0
  3
Standard
 53
0
210
0
220
0
230
1
100
AcDbAlignedDimension
 13
0
 23
0
 33
0
 14
120
 24
0
 34
0
  0
DIMENSION
  5
105
100
AcDbEntity
  8
Dims
  6
ByLayer
 62
  256
370
   -1
100
AcDbDimension
 10
60
 20
280
 30
0
 11
27.5
 21
284.6875
 31
0
 70
   32
 71
    5
 72
    0
  3
Standard
 53
0
210
0
220
0
230
1
100
AcDbAlignedDimension
 13
-5
 23
237.54
 33
0
 14
60
 24
240
 34
0
100
AcDbRotatedDimension
  0
DIMENSION
  5
106
100
AcDbEntity
  8
Dims
  6
ByLayer
 62
  256
370
   -1
100
AcDbDimension
 10
-60
 20
237.54
 30
0
 11
-64.6875
 21
118.77
 31
0
 70
   32
 71
    5
 72
    0
  3
Standard
 53
0
210
0
220
0
230
1
100
AcDbAlignedDimension
 13
0
 23
0
 33
0
 14
-5
 24
237.54
 34
0
 50
90
100
AcDbRotatedDimension
  0
ENDBLK
  5
6F
330
6D
100
AcDbEntity
  8
0
100
AcDbBlockEnd
  0
BLOCK
  5
71
330
70
100
AcDbEntity
  8
0
100
AcDbBlockBegin
  2
pressure jaw
 70
    0
 10
0
 20
0
  3
pressure jaw
  1

  0
LINE
  5
107
100
AcDbEntity
  8
Links
  6
ByLayer
 62
  256
370
   -1
100
AcDbLine
 10
59.38
 20
180.4399999999999
 11
59.38
 21
164.4399999999999
  0
LINE
  5
108
100
AcDbEntity
  8
Center line
  6
ByLayer
 62
  256
370
   -1
100
AcDbLine
 10
59.38
 20
180.4399999999999
 11
0
 21
0
  0
LINE
  5
109
100
AcDbEntity
  8
Center line
  6
ByLayer
 62
  256
370
   -1
100
AcDbLine
 10
59.38
 20
164.4399999999999
 11
0
 21
0
  0
LINE
  5
10A
100
AcDbEntity
  8
Center line
  6
ByLayer
 62
  256
370
   -1
100
AcDbLine
 10
0
 20
0
 11
-93.96926207859079
 21
-34.20201433256682
  0
CIRCLE
  5
10B
100
AcDbEntity
  8
Links
  6
ByLayer
 62
  256
370
   -1
100
AcDbCircle
 10
-93.96926207859079
 20
-34.20201433256682
 40
10
  0
CIRCLE
  5
10C
100
AcDbEntity
  8
Links
  6
ByLayer
 62
  256
370
   -1
100
AcDbCircle
 10
0
 20
0
 40
10
  0
ARC
  5
10D
100
AcDbEntity
  8
Links
  6
ByLayer
 62
  256
370
   -1
100
AcDbCircle
 10
-93.96926207859075
 20
-34.2020143325668
 40
20.00000000000005
100
AcDbArc
 50
110
 51
289.9999999999998
  0
ARC
  5
10E
100
AcDbEntity
  8
Links
  6
ByLayer
 62
  256
370
   -1
100
AcDbCircle
 10
0
 20
0
 40
60
100
AcDbArc
 50
-45
 51
30
  0
LINE
  5
10F
100
AcDbEntity
  8
Links
  6
ByLayer
 62
  256
370
   -1
100
AcDbLine
 10
-1.046064098569246
 20
-21.664291644532
 11
42.42640687119285
 21
-42.42640687119285
  0
LINE
  5
110
100
AcDbEntity
  8
Links
  6
ByLayer
 62
  256
370
   -1
100
AcDbLine
 10
-87.12885921207743
 20
-52.99586674828504
 11
-1.046064098569261
 21
-21.664291644532
  0
DIMENSION
  5
111
100
AcDbEntity
  8
Dims
  6
ByLayer
 62
  256
370
   -1
100
AcDbDimension
 10
2.963650389371366
 20
199.0057439585408
 30
0
 11
-31.17894552848999
 21
110.2510240826964
 31
0
 70
   33
 71
    5
 72
    0
  3
Standard
 53
0
210
0
220
0
230
1
100
AcDbAlignedDimension
 13
0
 23
0
 33
0
 14
59.38
 24
180.4399999999999
 34
0
  0
DIMENSION
  5
112
100
AcDbEntity
  8
Dims
  6
ByLayer
 62
  256
370
   -1
100
AcDbDimension
 10
-41.77480482062421
 20
15.08506391540174
 30
0
 11
-16.49366074200159
 21
98.89712098552697
 31
0
 70
   33
 71
    5
 72
    0
  3
Standard
 53
0
210
0
220
0
230
1
100
AcDbAlignedDimension
 13
59.38
 23
164.4399999999999
 33
0
 14
0
 24
0
 34
0
  0
DIMENSION
  5
113
100
AcDbEntity
  8
Dims
  6
ByLayer
 62
  256
370
   -1
100
AcDbDimension
 10
-77.32058466158746
 20
-79.94387959956759
 30
0
 11
-31.93917304413115
 21
-58.43806327335024
 31
0
 70
   33
 71
    5
 72
    0
  3
Standard
 53
0
210
0
220
0
230
1
100
AcDbAlignedDimension
 13
0
 23
0
 33
0
 14
-93.96926207859079
 24
-34.20201433256682
 34
0
  0
LINE
  5
114
100
AcDbEntity
  8
Center line
  6
ByLayer
 62
  256
370
   -1
100
AcDbLine
 10
0
 20
0
 11
30
 21
0
  0
DIMENSION
  5
115
100
AcDbEntity
  8
Dims
  6
ByLayer
 62
  256
370
   -1
100
AcDbDimension
 10
-93.96926207859079
 20
-34.20201433256682
 30
0
 11
0
 21
0
 31
0
 70
   34
 71
    5
 72
    0
  3
Standard
 53
0
210
0
220
0
230
1
100
AcDb2LineAngularDimension
 13
0
 23
0
 33
0
 14
30
 24
0
 34
0
 15
0
 25
0
 35
0
 16
10
 26
-90
 36
0
  0
DIMENSION
  5
116
100
AcDbEntity
  8
Dims
  6
ByLayer
 62
  256
370
   -1
100
AcDbDimension
 10
30
 20
0
 30
0
 11
0
 21
0
 31
0
 70
   34
 71
    5
 72
    0
  3
Standard
 53
0
210
0
220
0
230
1
100
AcDb2LineAngularDimension
 13
0
 23
0
 33
0
 14
59.38
 24
164.4399999999999
 34
0
 15
0
 25
0
 35
0
 16
70
 26
50
 36
0
  0
DIMENSION
  5
117
100
AcDbEntity
  8
Dims
  6
ByLayer
 62
  256
370
   -1
100
AcDbDimension
 10
30
 20
0
 30
0
 11
0
 21
0
 31
0
 70
   34
 71
    5
 72
    0
  3
Standard
 53
0
210
0
220
0
230
1
100
AcDb2LineAngularDimension
 13
0
 23
0
 33
0
 14
59.38
 24
180.4399999999999
 34
0
 15
0
 25
0
 35
0
 16
90
 26
80
 36
0
  0
LINE
  5
118
100
AcDbEntity
  8
Links
  6
ByLayer
 62
  256
370
   -1
100
AcDbLine
 10
40
 20
210
 11
20
 21
210
  0
LINE
  5
119
100
AcDbEntity
  8
Links
  6
ByLayer
 62
  256
370
   -1
100
AcDbLine
 10
20
 20
210
 11
20
 21
240
  0
LINE
  5
11A
100
AcDbEntity
  8
Links
  6
ByLayer
 62
  256
370
   -1
100
AcDbLine
 10
20
 20
240
 11
-25
 21
240
  0
LINE
  5
11B
100
AcDbEntity
  8
Links
  6
ByLayer
 62
  256
370
   -1
100
AcDbLine
 10
-25
 20
240
 11
-25
 21
200
  0
LINE
  5
11C
100
AcDbEntity
  8
Links
  6
ByLayer
 62
  256
370
   -1
100
AcDbLine
 10
-25
 20
200
 11
-40
 21
200
  0
LINE
  5
11D
100
AcDbEntity
  8
Links
  6
ByLayer
 62
  256
370
   -1
100
AcDbLine
 10
-40
 20
200
 11
-40
 21
150
  0
LINE
  5
11E
100
AcDbEntity
  8
Links
  6
ByLayer
 62
  256
370
   -1
100
AcDbLine
 10
-10
 20
17.64385310685627
 11
-100.8096649451041
 21
-15.4081619168486
  0
LINE
  5
11F
100
AcDbEntity
  8
Links
  6
ByLayer
 62
  256
370
   -1
100
AcDbLine
 10
-10
 20
150
 11
-10
 21
17.64385310685627
  0
LINE
  5
120
100
AcDbEntity
  8
Links
  6
ByLayer
 62
  256
370
   -1
100
AcDbLine
 10
59.38
 20
164.4399999999999
 11
20
 21
164.4399999999999
  0
LINE
  5
121
100
AcDbEntity
  8
Links
  6
ByLayer
 62
  256
370
   -1
100
AcDbLine
 10
20
 20
24.05967450655066
 11
51.96152422706632
 21
30
  0
LINE
  5
122
100
AcDbEntity
  8
Links
  6
ByLayer
 62
  256
370
   -1
100
AcDbLine
 10
40
 20
180.4399999999999
 11
40
 21
210
  0
LINE
  5
123
100
AcDbEntity
  8
Links
  6
ByLayer
 62
  256
370
   -1
100
AcDbLine
 10
59.38
 20
180.4399999999999
 11
40
 21
180.4399999999999
  0
LINE
  5
124
100
AcDbEntity
  8
Links
  6
ByLayer
 62
  256
370
   -1
100
AcDbLine
 10
20
 20
24.05967450655066
 11
20
 21
164.4399999999999
  0
LINE
  5
125
100
AcDbEntity
  8
Links
  6
ByLayer
 62
  256
370
   -1
100
AcDbLine
 10
-40
 20
150
 11
-10
 21
150
  0
CIRCLE
  5
126
100
AcDbEntity
  8
Links
  6
ByLayer
 62
  256
370
   -1
100
AcDbCircle
 10
30
 20
197.81
 40
5
  0
ENDBLK
  5
72
330
70
100
AcDbEntity
  8
0
100
AcDbBlockEnd
  0
BLOCK
  5
74
330
73
100
AcDbEntity
  8
0
100
AcDbBlockBegin
  2
cutter jaw
 70
    0
 10
0
 20
0
  3
cutter jaw
  1

  0
IMAGE
  5
129
100
AcDbEntity
  8
ref flap
  6
ByLayer
 62
  256
370
   -1
100
AcDbRasterImage
 10
-117.5233173715088
 20
30.76238671499084
 30
0
 11
0.2173229887153258
 21
0
 31
0
 12
1.330719512556801e-17
 22
0.2173229887153258
 32
0
 13
1484
 23
1676
340
127
 70
    1
280
    0
281
   50
282
   50
283
    0
360
128
  0
IMAGE
  5
12B
100
AcDbEntity
  8
ref flap
  6
ByLayer
 62
  256
370
   -1
100
AcDbRasterImage
 10
-117.5233173715088
 20
30.76238671499084
 30
0
 11
0.2173229887153258
 21
0
 31
0
 12
1.330719512556801e-17
 22
0.2173229887153258
 32
0
 13
1484
 23
1676
340
127
 70
    1
280
    0
281
   50
282
   50
283
    0
360
12A
  0
LINE
  5
12C
100
AcDbEntity
  8
Links
  6
ByLayer
 62
  256
370
   -1
100
AcDbLine
 10
-58.76
 20
164.4399999999999
 11
-58.76
 21
180.4399999999999
  0
LINE
  5
12D
100
AcDbEntity
  8
Center line
  6
ByLayer
 62
  256
370
   -1
100
AcDbLine
 10
-58.76
 20
164.4399999999999
 11
0
 21
0
  0
LINE
  5
12E
100
AcDbEntity
  8
Center line
  6
ByLayer
 62
  256
370
   -1
100
AcDbLine
 10
0
 20
0
 11
-58.76
 21
180.4399999999999
  0
CIRCLE
  5
12F
100
AcDbEntity
  8
Links
  6
ByLayer
 62
  256
370
   -1
100
AcDbCircle
 10
0
 20
0
 40
10
  0
CIRCLE
  5
130
100
AcDbEntity
  8
Links
  6
ByLayer
 62
  256
370
   -1
100
AcDbCircle
 10
93.96926207859079
 20
-34.20201433256682
 40
10
  0
LINE
  5
131
100
AcDbEntity
  8
Links
  6
ByLayer
 62
  256
370
   -1
100
AcDbLine
 10
-58.76
 20
164.4399999999999
 11
-28.76
 21
164.4399999999999
  0
LINE
  5
132
100
AcDbEntity
  8
Center line
  6
ByLayer
 62
  256
370
   -1
100
AcDbLine
 10
0
 20
0
 11
93.96926207859079
 21
-34.20201433256682
  0
ARC
  5
133
100
AcDbEntity
  8
Links
  6
ByLayer
 62
  256
370
   -1
100
AcDbCircle
 10
93.96926207859079
 20
-34.20201433256682
 40
20
100
AcDbArc
 50
250
 51
70.00000000000001
  0
ARC
  5
134
100
AcDbEntity
  8
Links
  6
ByLayer
 62
  256
370
   -1
100
AcDbCircle
 10
0
 20
0
 40
60
100
AcDbArc
 50
150
 51
225
  0
LINE
  5
135
100
AcDbEntity
  8
Links
  6
ByLayer
 62
  256
370
   -1
100
AcDbLine
 10
-21.31876918281417
 20
24.30477915615972
 11
-51.96152422706632
 21
30
  0
LINE
  5
136
100
AcDbEntity
  8
Links
  6
ByLayer
 62
  256
370
   -1
100
AcDbLine
 10
87.12885921207742
 20
-52.99586674828499
 11
1.046064098569289
 21
-21.66429164453197
  0
LINE
  5
137
100
AcDbEntity
  8
Links
  6
ByLayer
 62
  256
370
   -1
100
AcDbLine
 10
1.046064098569282
 20
-21.66429164453197
 11
-42.42640687119286
 21
-42.42640687119285
  0
LINE
  5
138
100
AcDbEntity
  8
Center line
  6
ByLayer
 62
  256
370
   -1
100
AcDbLine
 10
0
 20
0
 11
-30
 21
0
  0
DIMENSION
  5
139
100
AcDbEntity
  8
Dims
  6
ByLayer
 62
  256
370
   -1
100
AcDbDimension
 10
77.02518935680482
 20
-80.75547152927078
 30
0
 11
31.64377773934847
 21
-59.24965520305342
 31
0
 70
   33
 71
    5
 72
    0
  3
Standard
 53
0
210
0
220
0
230
1
100
AcDbAlignedDimension
 13
0
 23
0
 33
0
 14
93.96926207859079
 24
-34.20201433256682
 34
0
  0
DIMENSION
  5
13A
100
AcDbEntity
  8
Dims
  6
ByLayer
 62
  256
370
   -1
100
AcDbDimension
 10
6.430496928922154
 20
201.6691819970264
 30
0
 11
40.26761882123988
 21
112.9006366766574
 31
0
 70
   33
 71
    5
 72
    0
  3
Standard
 53
0
210
0
220
0
230
1
100
AcDbAlignedDimension
 13
0
 23
0
 33
0
 14
-58.76
 24
180.4399999999999
 34
0
  0
DIMENSION
  5
13B
100
AcDbEntity
  8
Dims
  6
ByLayer
 62
  256
370
   -1
100
AcDbDimension
 10
-58.76
 20
164.4399999999999
 30
0
 11
0
 21
0
 31
0
 70
   34
 71
    5
 72
    0
  3
Standard
 53
0
210
0
220
0
230
1
100
AcDb2LineAngularDimension
 13
0
 23
0
 33
0
 14
-30
 24
0
 34
0
 15
0
 25
0
 35
0
 16
-100
 26
80
 36
0
  0
DIMENSION
  5
13C
100
AcDbEntity
  8
Dims
  6
ByLayer
 62
  256
370
   -1
100
AcDbDimension
 10
-58.76
 20
180.4399999999999
 30
0
 11
0
 21
0
 31
0
 70
   34
 71
    5
 72
    0
  3
Standard
 53
0
210
0
220
0
230
1
100
AcDb2LineAngularDimension
 13
0
 23
0
 33
0
 14
-30
 24
0
 34
0
 15
0
 25
0
 35
0
 16
-120
 26
110
 36
0
  0
DIMENSION
  5
13D
100
AcDbEntity
  8
Dims
  6
ByLayer
 62
  256
370
   -1
100
AcDbDimension
 10
93.96926207859079
 20
-34.20201433256682
 30
0
 11
0
 21
0
 31
0
 70
   34
 71
    5
 72
    0
  3
Standard
 53
0
210
0
220
0
230
1
100
AcDb2LineAngularDimension
 13
0
 23
0
 33
0
 14
-30
 24
0
 34
0
 15
0
 25
0
 35
0
 16
-50
 26
-70
 36
0
  0
DIMENSION
  5
13E
100
AcDbEntity
  8
Dims
  6
ByLayer
 62
  256
370
   -1
100
AcDbDimension
 10
-10.59052648711976
 20
181.6525897811775
 30
0
 11
23.20362143954102
 21
101.0099148369461
 31
0
 70
   33
 71
    5
 72
    0
  3
Standard
 53
0
210
0
220
0
230
1
100
AcDbAlignedDimension
 13
0
 23
0
 33
0
 14
-58.76
 24
164.4399999999999
 34
0
  0
CIRCLE
  5
13F
100
AcDbEntity
  8
Links
  6
ByLayer
 62
  256
370
   -1
100
AcDbCircle
 10
-30
 20
197.81
 40
5
  0
LINE
  5
140
100
AcDbEntity
  8
Links
  6
ByLayer
 62
  256
370
   -1
100
AcDbLine
 10
-40
 20
210
 11
-20
 21
210
  0
LINE
  5
141
100
AcDbEntity
  8
Links
  6
ByLayer
 62
  256
370
   -1
100
AcDbLine
 10
-20
 20
210
 11
-20
 21
240
  0
LINE
  5
142
100
AcDbEntity
  8
Links
  6
ByLayer
 62
  256
370
   -1
100
AcDbLine
 10
-20
 20
240
 11
25
 21
240
  0
LINE
  5
143
100
AcDbEntity
  8
Links
  6
ByLayer
 62
  256
370
   -1
100
AcDbLine
 10
25
 20
240
 11
25
 21
150
  0
LINE
  5
144
100
AcDbEntity
  8
Links
  6
ByLayer
 62
  256
370
   -1
100
AcDbLine
 10
-20
 20
150
 11
-28.76000000000001
 21
164.4399999999999
  0
LINE
  5
145
100
AcDbEntity
  8
Links
  6
ByLayer
 62
  256
370
   -1
100
AcDbLine
 10
19.39660445996335
 20
14.22376878025652
 11
100.8096649451042
 21
-15.40816191684865
  0
LINE
  5
146
100
AcDbEntity
  8
Links
  6
ByLayer
 62
  256
370
   -1
100
AcDbLine
 10
-58.76
 20
180.4399999999999
 11
-40
 21
180.4399999999999
  0
LINE
  5
147
100
AcDbEntity
  8
Links
  6
ByLayer
 62
  256
370
   -1
100
AcDbLine
 10
-40
 20
180.4399999999999
 11
-40
 21
210
  0
LINE
  5
148
100
AcDbEntity
  8
Links
  6
ByLayer
 62
  256
370
   -1
100
AcDbLine
 10
-21.31876918281417
 20
24.30477915615972
 11
-20
 21
150
  0
LINE
  5
149
100
AcDbEntity
  8
Links
  6
ByLayer
 62
  256
370
   -1
100
AcDbLine
 10
19.39660445996335
 20
14.22376878025652
 11
-3.552713678800501e-15
 21
150
  0
LINE
  5
14A
100
AcDbEntity
  8
Links
  6
ByLayer
 62
  256
370
   -1
100
AcDbLine
 10
25
 20
150
 11
-3.552713678800501e-15
 21
150
  0
ENDBLK
  5
75
330
73
100
AcDbEntity
  8
0
100
AcDbBlockEnd
  0
BLOCK
  5
77
330
76
100
AcDbEntity
  8
0
100
AcDbBlockBegin
  2
jaw slider rail-0
 70
    0
 10
0
 20
0
  3
jaw slider rail-0
  1

  0
LINE
  5
14B
100
AcDbEntity
  8
Links
  6
ByLayer
 62
  256
370
   -1
100
AcDbLine
 10
0
 20
0
 11
0
 21
-600
  0
LINE
  5
14C
100
AcDbEntity
  8
Links
  6
ByLayer
 62
  256
370
   -1
100
AcDbLine
 10
14.14213562373095
 20
-5.857864376269049
 11
0
 21
-20
  0
LINE
  5
14D
100
AcDbEntity
  8
Links
  6
ByLayer
 62
  256
370
   -1
100
AcDbLine
 10
14.14213562373095
 20
-25.85786437626905
 11
0
 21
-40
  0
LINE
  5
14E
100
AcDbEntity
  8
Links
  6
ByLayer
 62
  256
370
   -1
100
AcDbLine
 10
14.14213562373095
 20
-45.85786437626905
 11
0
 21
-60
  0
LINE
  5
14F
100
AcDbEntity
  8
Links
  6
ByLayer
 62
  256
370
   -1
100
AcDbLine
 10
14.14213562373095
 20
-65.85786437626905
 11
0
 21
-80
  0
LINE
  5
150
100
AcDbEntity
  8
Links
  6
ByLayer
 62
  256
370
   -1
100
AcDbLine
 10
14.14213562373095
 20
-85.85786437626905
 11
0
 21
-100
  0
LINE
  5
151
100
AcDbEntity
  8
Links
  6
ByLayer
 62
  256
370
   -1
100
AcDbLine
 10
14.14213562373095
 20
-105.857864376269
 11
0
 21
-120
  0
LINE
  5
152
100
AcDbEntity
  8
Links
  6
ByLayer
 62
  256
370
   -1
100
AcDbLine
 10
14.14213562373095
 20
-125.857864376269
 11
0
 21
-140
  0
LINE
  5
153
100
AcDbEntity
  8
Links
  6
ByLayer
 62
  256
370
   -1
100
AcDbLine
 10
14.14213562373095
 20
-145.857864376269
 11
0
 21
-160
  0
LINE
  5
154
100
AcDbEntity
  8
Links
  6
ByLayer
 62
  256
370
   -1
100
AcDbLine
 10
14.14213562373095
 20
-165.857864376269
 11
0
 21
-180
  0
LINE
  5
155
100
AcDbEntity
  8
Links
  6
ByLayer
 62
  256
370
   -1
100
AcDbLine
 10
14.14213562373095
 20
-185.857864376269
 11
0
 21
-200
  0
LINE
  5
156
100
AcDbEntity
  8
Links
  6
ByLayer
 62
  256
370
   -1
100
AcDbLine
 10
14.14213562373095
 20
-205.857864376269
 11
0
 21
-220
  0
LINE
  5
157
100
AcDbEntity
  8
Links
  6
ByLayer
 62
  256
370
   -1
100
AcDbLine
 10
14.14213562373095
 20
-225.857864376269
 11
0
 21
-240
  0
LINE
  5
158
100
AcDbEntity
  8
Links
  6
ByLayer
 62
  256
370
   -1
100
AcDbLine
 10
14.14213562373095
 20
-245.857864376269
 11
0
 21
-260
  0
LINE
  5
159
100
AcDbEntity
  8
Links
  6
ByLayer
 62
  256
370
   -1
100
AcDbLine
 10
14.14213562373095
 20
-265.857864376269
 11
0
 21
-280
  0
LINE
  5
15A
100
AcDbEntity
  8
Links
  6
ByLayer
 62
  256
370
   -1
100
AcDbLine
 10
14.14213562373095
 20
-285.857864376269
 11
0
 21
-300
  0
LINE
  5
15B
100
AcDbEntity
  8
Links
  6
ByLayer
 62
  256
370
   -1
100
AcDbLine
 10
14.14213562373095
 20
-305.857864376269
 11
0
 21
-320
  0
LINE
  5
15C
100
AcDbEntity
  8
Links
  6
ByLayer
 62
  256
370
   -1
100
AcDbLine
 10
14.14213562373095
 20
-325.857864376269
 11
0
 21
-340
  0
LINE
  5
15D
100
AcDbEntity
  8
Links
  6
ByLayer
 62
  256
370
   -1
100
AcDbLine
 10
14.14213562373095
 20
-345.857864376269
 11
0
 21
-360
  0
LINE
  5
15E
100
AcDbEntity
  8
Links
  6
ByLayer
 62
  256
370
   -1
100
AcDbLine
 10
14.14213562373095
 20
-365.857864376269
 11
0
 21
-380
  0
LINE
  5
15F
100
AcDbEntity
  8
Links
  6
ByLayer
 62
  256
370
   -1
100
AcDbLine
 10
14.14213562373095
 20
-385.857864376269
 11
0
 21
-400
  0
LINE
  5
160
100
AcDbEntity
  8
Links
  6
ByLayer
 62
  256
370
   -1
100
AcDbLine
 10
14.14213562373095
 20
-405.857864376269
 11
0
 21
-420
  0
LINE
  5
161
100
AcDbEntity
  8
Links
  6
ByLayer
 62
  256
370
   -1
100
AcDbLine
 10
14.14213562373095
 20
-425.857864376269
 11
0
 21
-440
  0
LINE
  5
162
100
AcDbEntity
  8
Links
  6
ByLayer
 62
  256
370
   -1
100
AcDbLine
 10
14.14213562373095
 20
-445.857864376269
 11
0
 21
-460
  0
LINE
  5
163
100
AcDbEntity
  8
Links
  6
ByLayer
 62
  256
370
   -1
100
AcDbLine
 10
14.14213562373095
 20
-465.857864376269
 11
0
 21
-480
  0
LINE
  5
164
100
AcDbEntity
  8
Links
  6
ByLayer
 62
  256
370
   -1
100
AcDbLine
 10
14.14213562373095
 20
-485.857864376269
 11
0
 21
-500
  0
LINE
  5
165
100
AcDbEntity
  8
Links
  6
ByLayer
 62
  256
370
   -1
100
AcDbLine
 10
14.14213562373095
 20
-505.857864376269
 11
0
 21
-520
  0
LINE
  5
166
100
AcDbEntity
  8
Links
  6
ByLayer
 62
  256
370
   -1
100
AcDbLine
 10
14.14213562373095
 20
-525.857864376269
 11
0
 21
-540
  0
LINE
  5
167
100
AcDbEntity
  8
Links
  6
ByLayer
 62
  256
370
   -1
100
AcDbLine
 10
14.14213562373095
 20
-545.857864376269
 11
0
 21
-560
  0
LINE
  5
168
100
AcDbEntity
  8
Links
  6
ByLayer
 62
  256
370
   -1
100
AcDbLine
 10
14.14213562373095
 20
-565.857864376269
 11
0
 21
-580
  0
LINE
  5
169
100
AcDbEntity
  8
Links
  6
ByLayer
 62
  256
370
   -1
100
AcDbLine
 10
14.14213562373095
 20
-585.857864376269
 11
0
 21
-600
  0
ENDBLK
  5
78
330
76
100
AcDbEntity
  8
0
100
AcDbBlockEnd
  0
BLOCK
  5
7A
330
79
100
AcDbEntity
  8
0
100
AcDbBlockBegin
  2
york rod
 70
    0
 10
0
 20
0
  3
york rod
  1

  0
CIRCLE
  5
16A
100
AcDbEntity
  8
Links
  6
ByLayer
 62
  256
370
   -1
100
AcDbCircle
 10
-0.1148802993119347
 20
1154.08424292346
 40
10
  0
LINE
  5
16B
100
AcDbEntity
  8
Links
  6
ByLayer
 62
  256
370
   -1
100
AcDbLine
 10
-19.99999990091314
 20
-0.001990847712363575
 11
-20.11488020022507
 21
1154.082252075748
  0
LINE
  5
16C
100
AcDbEntity
  8
Links
  6
ByLayer
 62
  256
370
   -1
100
AcDbLine
 10
19.8851196016012
 20
1154.086233771172
 11
19.99999990091318
 21
0.001990847712363575
  0
CIRCLE
  5
16D
100
AcDbEntity
  8
Links
  6
ByLayer
 62
  256
370
   -1
100
AcDbCircle
 10
0
 20
0
 40
10
  0
LINE
  5
16E
100
AcDbEntity
  8
Center line
  6
ByLayer
 62
  256
370
   -1
100
AcDbLine
 10
-0.1148802993119347
 20
1154.08424292346
 11
0
 21
0
  0
ARC
  5
16F
100
AcDbEntity
  8
Links
  6
ByLayer
 62
  256
370
   -1
100
AcDbCircle
 10
-0.1148802993119347
 20
1154.08424292346
 40
20
100
AcDbArc
 50
0.005703358587674139
 51
180.0057033585877
  0
ARC
  5
170
100
AcDbEntity
  8
Links
  6
ByLayer
 62
  256
370
   -1
100
AcDbCircle
 10
0
 20
-2.374030434781851e-15
 40
20
100
AcDbArc
 50
180
 51
0
  0
ENDBLK
  5
7B
330
79
100
AcDbEntity
  8
0
100
AcDbBlockEnd
  0
BLOCK
  5
7D
330
7C
100
AcDbEntity
  8
0
100
AcDbBlockBegin
  2
jaw rod
 70
    0
 10
0
 20
0
  3
jaw rod
  1

  0
CIRCLE
  5
171
100
AcDbEntity
  8
Links
  6
ByLayer
 62
  256
370
   -1
100
AcDbCircle
 10
-0.1148802993120341
 20
1364.274981546755
 40
10
  0
LINE
  5
172
100
AcDbEntity
  8
Links
  6
ByLayer
 62
  256
370
   -1
100
AcDbLine
 10
19.88511962978126
 20
1364.276665669098
 11
19.9999999290933
 21
0.001684122342794581
  0
LINE
  5
173
100
AcDbEntity
  8
Links
  6
ByLayer
 62
  256
370
   -1
100
AcDbLine
 10
-19.9999999290933
 20
-0.001684122342794581
 11
-20.11488022840533
 21
1364.273297424412
  0
CIRCLE
  5
174
100
AcDbEntity
  8
Links
  6
ByLayer
 62
  256
370
   -1
100
AcDbCircle
 10
0
 20
0
 40
10
  0
LINE
  5
175
100
AcDbEntity
  8
Center line
  6
ByLayer
 62
  256
370
   -1
100
AcDbLine
 10
-0.1148802993120341
 20
1364.274981546755
 11
0
 21
0
  0
ARC
  5
176
100
AcDbEntity
  8
Links
  6
ByLayer
 62
  256
370
   -1
100
AcDbCircle
 10
-0.1148802993120341
 20
1364.274981546755
 40
20
100
AcDbArc
 50
0.004824655126343962
 51
180.004824655127
  0
ARC
  5
177
100
AcDbEntity
  8
Links
  6
ByLayer
 62
  256
370
   -1
100
AcDbCircle
 10
0
 20
9.356664748549903e-16
 40
20
100
AcDbArc
 50
180.004824655127
 51
360
  0
ENDBLK
  5
7E
330
7C
100
AcDbEntity
  8
0
100
AcDbBlockEnd
  0
BLOCK
  5
80
330
7F
100
AcDbEntity
  8
0
100
AcDbBlockBegin
  2
volumn flap
 70
    0
 10
0
 20
0
  3
volumn flap
  1

  0
CIRCLE
  5
178
100
AcDbEntity
  8
Links
  6
ByLayer
 62
  256
370
   -1
100
AcDbCircle
 10
7.105427357601002e-15
 20
0
 40
5
  0
CIRCLE
  5
179
100
AcDbEntity
  8
Links
  6
ByLayer
 62
  256
370
   -1
100
AcDbCircle
 10
-20.49999999999999
 20
52.70500000000004
 40
5
  0
CIRCLE
  5
17A
100
AcDbEntity
  8
Links
  6
ByLayer
 62
  256
370
   -1
100
AcDbCircle
 10
-20.49999999999999
 20
52.70500000000004
 40
8
  0
LINE
  5
17B
100
AcDbEntity
  8
Links
  6
ByLayer
 62
  256
370
   -1
100
AcDbLine
 10
6.631053578739184
 20
7.485260746018866
 11
-4.676125772157643
 21
17.50208108725928
  0
LINE
  5
17C
100
AcDbEntity
  8
Links
  6
ByLayer
 62
  256
370
   -1
100
AcDbLine
 10
-8.565574813475116
 20
-5.160516264363537
 11
-28.99999999999999
 21
28.75713629963366
  0
ARC
  5
17D
100
AcDbEntity
  8
Links
  6
ByLayer
 62
  256
370
   -1
100
AcDbCircle
 10
0
 20
0
 40
10.00000000000001
100
AcDbArc
 50
211.0677730970728
 51
48.46286272823795
  0
LINE
  5
17E
100
AcDbEntity
  8
Center line
  6
ByLayer
 62
  256
370
   -1
100
AcDbLine
 10
-20.49999999999999
 20
52.70500000000004
 11
0
 21
0
  0
DIMENSION
  5
17F
100
AcDbEntity
  8
Dims
  6
ByLayer
 62
  256
370
   -1
100
AcDbDimension
 10
30.88566928956093
 20
12.01320976066782
 30
0
 11
25.00434006828769
 21
40.06493660753055
 31
0
 70
   33
 71
    5
 72
    0
  3
Standard
 53
0
210
0
220
0
230
1
100
AcDbAlignedDimension
 13
-20.49999999999999
 23
52.70500000000004
 33
0
 14
7.105427357601002e-15
 24
0
 34
0
  0
DIMENSION
  5
180
100
AcDbEntity
  8
Dims
  6
ByLayer
 62
  256
370
   -1
100
AcDbDimension
 10
5.880780558453649e-15
 20
-20
 30
0
 11
-10.24999999999999
 21
-15.3125
 31
0
 70
   32
 71
    5
 72
    0
  3
Standard
 53
0
210
0
220
0
230
1
100
AcDbAlignedDimension
 13
-20.49999999999999
 23
52.70500000000004
 33
0
 14
7.105427357601002e-15
 24
0
 34
0
100
AcDbRotatedDimension
  0
DIMENSION
  5
181
100
AcDbEntity
  8
Dims
  6
ByLayer
 62
  256
370
   -1
100
AcDbDimension
 10
-50
 20
52.70500000000005
 30
0
 11
-54.6875
 21
26.35250000000002
 31
0
 70
   32
 71
    5
 72
    0
  3
Standard
 53
0
210
0
220
0
230
1
100
AcDbAlignedDimension
 13
7.105427357601002e-15
 23
0
 33
0
 14
-20.49999999999999
 24
52.70500000000004
 34
0
 50
90
100
AcDbRotatedDimension
  0
LINE
  5
182
100
AcDbEntity
  8
Center line
  6
ByLayer
 62
  256
370
   -1
100
AcDbLine
 10
0
 20
0
 11
-20
 21
0
  0
DIMENSION
  5
183
100
AcDbEntity
  8
Dims
  6
ByLayer
 62
  256
370
   -1
100
AcDbDimension
 10
-20.49999999999999
 20
52.70500000000004
 30
0
 11
0
 21
0
 31
0
 70
   34
 71
    5
 72
    0
  3
Standard
 53
0
210
0
220
0
230
1
100
AcDb2LineAngularDimension
 13
-1.562499999999993
 23
1.913510623667739e-16
 33
0
 14
-53.12500000000001
 24
3.827021247335479e-16
 34
0
 15
0
 25
0
 35
0
 16
-50
 26
60
 36
0
  0
LINE
  5
184
100
AcDbEntity
  8
Links
  6
ByLayer
 62
  256
370
   -1
100
AcDbLine
 10
-28.99999999999999
 20
87.73000000000002
 11
-4.676125772157643
 21
87.73000000000002
  0
LINE
  5
185
100
AcDbEntity
  8
Links
  6
ByLayer
 62
  256
370
   -1
100
AcDbLine
 10
-4.676125772157643
 20
87.73000000000003
 11
-4.676125772157643
 21
17.50208108725928
  0
LINE
  5
186
100
AcDbEntity
  8
Links
  6
ByLayer
 62
  256
370
   -1
100
AcDbLine
 10
-28.99999999999999
 20
87.73000000000003
 11
-28.99999999999999
 21
28.75713629963366
  0
ENDBLK
  5
81
330
7F
100
AcDbEntity
  8
0
100
AcDbBlockEnd
  0
ENDSEC
  0
SECTION
  2
ENTITIES
  0
IMAGE
  5
189
100
AcDbEntity
  8
Center line
  6
ByLayer
 62
  256
370
   -1
100
AcDbRasterImage
 10
-171.2919777646404
 20
-1125.711829078795
 30
0
 11
0.2281997889151953
 21
0
 31
0
 12
1.397320705305478e-17
 22
0.2281997889151953
 32
0
 13
1670
 23
1800
340
187
 70
    1
280
    0
281
   50
282
   50
283
    0
360
188
  0
IMAGE
  5
18C
100
AcDbEntity
  8
ref flap
  6
ByLayer
 62
  256
370
   -1
100
AcDbRasterImage
 10
-137.8706
 20
-922.9141
 30
0
 11
0.1360236259686515
 21
0
 31
0
 12
8.329044907546291e-18
 22
0.1360236259686515
 32
0
 13
1828
 23
1780
340
18A
 70
    1
280
    0
281
   50
282
   50
283
    0
360
18B
  0
IMAGE
  5
18E
100
AcDbEntity
  8
ref flap
  6
ByLayer
 62
  256
370
   -1
100
AcDbRasterImage
 10
-151.4925794500996
 20
-882.5755989524423
 30
0
 11
0.2173229887153258
 21
0
 31
0
 12
1.330719512556801e-17
 22
0.2173229887153258
 32
0
 13
1484
 23
1676
340
127
 70
    1
280
    0
281
   50
282
   50
283
    0
360
18D
  0
IMAGE
  5
191
100
AcDbEntity
  8
ref flap
  6
ByLayer
 62
  256
370
   -1
100
AcDbRasterImage
 10
502.2748921260716
 20
-282.979
 30
0
 11
0.192551195519819
 21
0
 31
0
 12
1.179036026326713e-17
 22
0.192551195519819
 32
0
 13
1842
 23
1858
340
18F
 70
    1
280
    0
281
   50
282
   50
283
    0
360
190
  0
IMAGE
  5
194
100
AcDbEntity
  8
ref Drive
  6
ByLayer
 62
  256
370
   -1
100
AcDbRasterImage
 10
-284.3
 20
-282.979
 30
0
 11
0.672286232586386
 21
0
 31
0
 12
4.116565914238753e-17
 22
0.672286232586386
 32
0
 13
1170
 23
1876
340
192
 70
    1
280
    0
281
   50
282
   50
283
    0
360
193
  0
INSERT
  5
195
100
AcDbEntity
  8
Links
  6
ByLayer
 62
  256
370
   -1
100
AcDbBlockReference
  2
slider
 10
-65.11488029931198
 20
444.0842429234602
 30
0
 41
1
 42
1
 43
0
 50
0
 70
    1
 71
    1
 44
0
 45
0
  0
INSERT
  5
196
100
AcDbEntity
  8
Links
  6
ByLayer
 62
  256
370
   -1
100
AcDbBlockReference
  2
slider
 10
-0.1148802993119773
 20
364.6873421207853
 30
0
 41
1
 42
1
 43
0
 50
0
 70
    1
 71
    1
 44
0
 45
0
  0
INSERT
  5
197
100
AcDbEntity
  8
Links
  6
ByLayer
 62
  256
370
   -1
100
AcDbBlockReference
  2
york slider rail
 10
-65.11488029931198
 20
600.4486671875487
 30
0
 41
1
 42
1
 43
0
 50
0
 70
    1
 71
    1
 44
0
 45
0
  0
INSERT
  5
198
100
AcDbEntity
  8
Links
  6
ByLayer
 62
  256
370
   -1
100
AcDbBlockReference
  2
jaw slider rail
 10
-0.1148802993119773
 20
600.4486671875487
 30
0
 41
1
 42
1
 43
0
 50
0
 70
    1
 71
    1
 44
0
 45
0
  0
LINE
  5
199
100
AcDbEntity
  8
Center line
  6
ByLayer
 62
  256
370
   -1
100
AcDbLine
 10
0
 20
0
 11
0
 21
-1100
  0
INSERT
  5
19A
100
AcDbEntity
  8
Links
  6
ByLayer
 62
  256
370
   -1
100
AcDbBlockReference
  2
crank link 1
 10
-153.9692620785908
 20
-981.7420143325668
 30
0
 41
1
 42
1
 43
0
 50
0
 70
    1
 71
    1
 44
0
 45
0
  0
INSERT
  5
19B
100
AcDbEntity
  8
Links
  6
ByLayer
 62
  256
370
   -1
100
AcDbBlockReference
  2
pressure jaw
 10
-60
 20
-947.54
 30
0
 41
1
 42
1
 43
0
 50
0
 70
    1
 71
    1
 44
0
 45
0
  0
INSERT
  5
19C
100
AcDbEntity
  8
Links
  6
ByLayer
 62
  256
370
   -1
100
AcDbBlockReference
  2
cutter jaw
 10
60
 20
-947.54
 30
0
 41
1
 42
1
 43
0
 50
0
 70
    1
 71
    1
 44
0
 45
0
  0
INSERT
  5
19D
100
AcDbEntity
  8
Links
  6
ByLayer
 62
  256
370
   -1
100
AcDbBlockReference
  2
york rod
 10
-65.00000000000004
 20
-710
 30
0
 41
1
 42
1
 43
0
 50
0
 70
    1
 71
    1
 44
0
 45
0
  0
INSERT
  5
19E
100
AcDbEntity
  8
Links
  6
ByLayer
 62
  256
370
   -1
100
AcDbBlockReference
  2
jaw rod
 10
5.684341886080801e-14
 20
-999.5876394259697
 30
0
 41
1
 42
1
 43
0
 50
0
 70
    1
 71
    1
 44
0
 45
0
  0
INSERT
  5
19F
100
AcDbEntity
  8
Links
  6
ByLayer
 62
  256
370
   -1
100
AcDbBlockReference
  2
volumn flap
 10
29.99999999999999
 20
-749.73
 30
0
 41
1
 42
1
 43
0
 50
0
 70
    1
 71
    1
 44
0
 45
0
  0
INSERT
  5
1A0
100
AcDbEntity
  8
Links
  6
ByLayer
 62
  256
370
   -1
100
AcDbBlockReference
  2
volumn flap
 10
-29.99999999999999
 20
-749.73
 30
0
 41
-1
 42
1
 43
0
 50
0
 70
    1
 71
    1
 44
0
 45
0
  0
LEADER
  5
1A1
100
AcDbEntity
  8
Dims
  6
ByLayer
 62
  256
370
   -1
100
AcDbLeader
  3
Standard
 71
    1
 72
    0
 73
    3
 74
    0
 75
    0
 40
1
 41
10
 76
3
 76
3
 10
699.0897059619047
 20
-187.5481886608326
 30
0
 10
763.4795473005012
 20
-313.26168841714
 30
0
 10
821.7370227973265
 20
-321.4381762061682
 30
0
  0
LEADER
  5
1A2
100
AcDbEntity
  8
Dims
  6
ByLayer
 62
  256
370
   -1
100
AcDbLeader
  3
Standard
 71
    1
 72
    0
 73
    3
 74
    0
 75
    0
 40
1
 41
10
 76
5
 76
5
 10
684.262828607029
 20
-313.8675250802894
 30
0
 10
721.0256495547203
 20
-320.1923114798922
 30
0
 10
741.9765045034046
 20
-318.6111148799915
 30
0
 10
747.510692603057
 20
-325.3312004295695
 30
0
 10
781.9017186508974
 20
-326.5170978794951
 30
0
  0
INSERT
  5
1A3
100
AcDbEntity
  8
Links
  6
ByLayer
 62
  256
370
   -1
100
AcDbBlockReference
  2
crank link 2
 10
153.969
 20
-981.742
 30
0
 41
1
 42
1
 43
0
 50
0
 70
    1
 71
    1
 44
0
 45
0
  0
INSERT
  5
1A4
100
AcDbEntity
  8
Links
  6
ByLayer
 62
  256
370
   -1
100
AcDbBlockReference
  2
york
 10
-60
 20
-947.54
 30
0
 41
1
 42
1
 43
0
 50
0
 70
    1
 71
    1
 44
0
 45
0
  0
LINE
  5
1A5
100
AcDbEntity
  8
Products
  6
ByLayer
 62
  256
370
   -1
100
AcDbLine
 10
20.5
 20
-767.1
 11
20.5
 21
-661.1
  0
LINE
  5
1A6
100
AcDbEntity
  8
Products
  6
ByLayer
 62
  256
370
   -1
100
AcDbLine
 10
-20.5
 20
-767.1
 11
-20.5
 21
-661.1
  0
LINE
  5
1A7
100
AcDbEntity
  8
Products
  6
ByLayer
 62
  256
370
   -1
100
AcDbLine
 10
-20.5
 20
-661.1
 11
-32.59090268251523
 21
-644.545240191354
  0
LINE
  5
1A8
100
AcDbEntity
  8
Products
  6
ByLayer
 62
  256
370
   -1
100
AcDbLine
 10
-20.5
 20
-767.1
 11
20.5
 21
-767.1
  0
LINE
  5
1A9
100
AcDbEntity
  8
Products
  6
ByLayer
 62
  256
370
   -1
100
AcDbLine
 10
20.5
 20
-661.1
 11
32.59090268251523
 21
-644.545240191354
  0
LINE
  5
1AA
100
AcDbEntity
  8
Products
  6
ByLayer
 62
  256
370
   -1
100
AcDbLine
 10
-32.59090268251523
 20
-644.545240191354
 11
-32.59090268251523
 21
-628.545240191354
  0
LINE
  5
1AB
100
AcDbEntity
  8
Products
  6
ByLayer
 62
  256
370
   -1
100
AcDbLine
 10
-32.59090268251523
 20
-628.545240191354
 11
-32.59090268251523
 21
-608.045240191354
  0
LINE
  5
1AC
100
AcDbEntity
  8
Products
  6
ByLayer
 62
  256
370
   -1
100
AcDbLine
 10
-32.59090268251523
 20
-608.045240191354
 11
-32.59090268251523
 21
-502.045240191354
  0
LINE
  5
1AD
100
AcDbEntity
  8
Products
  6
ByLayer
 62
  256
370
   -1
100
AcDbLine
 10
32.59090268251523
 20
-644.545240191354
 11
32.59090268251523
 21
-628.545240191354
  0
LINE
  5
1AE
100
AcDbEntity
  8
Products
  6
ByLayer
 62
  256
370
   -1
100
AcDbLine
 10
32.59090268251523
 20
-628.545240191354
 11
32.59090268251523
 21
-608.045240191354
  0
LINE
  5
1AF
100
AcDbEntity
  8
Products
  6
ByLayer
 62
  256
370
   -1
100
AcDbLine
 10
32.59090268251523
 20
-608.045240191354
 11
32.59090268251523
 21
-502.045240191354
  0
LINE
  5
1B0
100
AcDbEntity
  8
Products
  6
ByLayer
 62
  256
370
   -1
100
AcDbLine
 10
469.5
 20
-767.1
 11
530.5
 21
-767.1
  0
LINE
  5
1B1
100
AcDbEntity
  8
Products
  6
ByLayer
 62
  256
370
   -1
100
AcDbLine
 10
469.5
 20
-767.1
 11
469.5
 21
-661.1
  0
LWPOLYLINE
  5
1B2
100
AcDbEntity
  8
Products
  6
ByLayer
 62
  256
370
   -1
100
AcDbPolyline
 90
    4
 70
    1
 43
0
 10
449
 20
-783.1
 10
551
 20
-783.1
 10
551
 20
-767.1
 10
449
 20
-767.1
  0
LINE
  5
1B3
100
AcDbEntity
  8
Products
  6
ByLayer
 62
  256
370
   -1
100
AcDbLine
 10
469.5
 20
-661.1
 11
467.5239776167967
 21
-630.6640782045099
  0
LINE
  5
1B4
100
AcDbEntity
  8
Products
  6
ByLayer
 62
  256
370
   -1
100
AcDbLine
 10
467.5239776167967
 20
-630.6640782045092
 11
467.5239776167967
 21
-564.9539073789027
  0
LINE
  5
1B5
100
AcDbEntity
  8
Products
  6
ByLayer
 62
  256
370
   -1
100
AcDbLine
 10
530.5
 20
-767.1
 11
530.5
 21
-661.1
  0
LINE
  5
1B6
100
AcDbEntity
  8
Products
  6
ByLayer
 62
  256
370
   -1
100
AcDbLine
 10
530.5
 20
-661.1
 11
532.4760223832033
 21
-630.6640782045099
  0
LINE
  5
1B7
100
AcDbEntity
  8
Products
  6
ByLayer
 62
  256
370
   -1
100
AcDbLine
 10
532.4760223832034
 20
-630.6640782045092
 11
532.4760223832033
 21
-564.9539073789027
  0
LINE
  5
1B8
100
AcDbEntity
  8
Center line
  6
ByLayer
 62
  256
370
   -1
100
AcDbLine
 10
500
 20
-510
 11
500
 21
-830
  0
LINE
  5
1B9
100
AcDbEntity
  8
Center line
  6
ByLayer
 62
  256
370
   -1
100
AcDbLine
 10
0
 20
-480
 11
0
 21
-820
  0
DIMENSION
  5
1BA
100
AcDbEntity
  8
Dims
  6
ByLayer
 62
  256
370
   -1
100
AcDbDimension
  2
*D3
 10
-100
 20
-650
 30
0
 11
-50
 21
-645.3125
 31
0
 70
   32
 71
    5
 72
    0
  3
Standard
 53
0
210
0
220
0
230
1
100
AcDbAlignedDimension
 13
0
 23
-800
 33
0
 14
-100
 24
-797.5399999999998
 34
0
100
AcDbRotatedDimension
  0
ENDSEC
  0
SECTION
  2
OBJECTS
  0
DICTIONARY
  5
C
330
0
100
AcDbDictionary
281
    1
  3
ACAD_GROUP
350
D
  3
ACAD_IMAGE_DICT
350
1BB
  0
DICTIONARY
  5
D
330
C
100
AcDbDictionary
281
    1
  0
IMAGEDEF_REACTOR
  5
128
330
129
100
AcDbRasterImageDefReactor
 90
    2
330
129
  0
IMAGEDEF_REACTOR
  5
12A
330
12B
100
AcDbRasterImageDefReactor
 90
    2
330
12B
  0
IMAGEDEF_REACTOR
  5
18D
330
18E
100
AcDbRasterImageDefReactor
 90
    2
330
18E
  0
IMAGEDEF_REACTOR
  5
188
330
189
100
AcDbRasterImageDefReactor
 90
    2
330
189
  0
IMAGEDEF_REACTOR
  5
18B
330
18C
100
AcDbRasterImageDefReactor
 90
    2
330
18C
  0
IMAGEDEF_REACTOR
  5
190
330
191
100
AcDbRasterImageDefReactor
 90
    2
330
191
  0
IMAGEDEF_REACTOR
  5
193
330
194
100
AcDbRasterImageDefReactor
 90
    2
330
194
  0
DICTIONARY
  5
1BB
330
C
100
AcDbDictionary
281
    1
  3
Screen Shot 2019-04-09 at 12.24.58
350
127
  3
Screen Shot 2019-04-09 at 12.25.32
350
187
  3
Screen Shot 2019-04-09 at 12.18.34
350
18A
  3
Screen Shot 2019-04-09 at 12.33.27
350
18F
  3
Screen Shot 2019-04-09 at 12.13.37
350
192
  0
IMAGEDEF
  5
127
102
{ACAD_REACTORS
330
128
330
12A
330
18D
102
}
100
AcDbRasterImageDef
 90
    0
  1
/Users/johnqu/Desktop/Screen Shot 2019-04-09 at 12.24.58.png
 10
1484
 20
1676
 11
1
 21
1
280
    1
281
    0
  0
IMAGEDEF
  5
187
102
{ACAD_REACTORS
330
188
102
}
100
AcDbRasterImageDef
 90
    0
  1
/Users/johnqu/Desktop/Screen Shot 2019-04-09 at 12.25.32.png
 10
1670
 20
1800
 11
1
 21
1
280
    1
281
    0
  0
IMAGEDEF
  5
18A
102
{ACAD_REACTORS
330
18B
102
}
100
AcDbRasterImageDef
 90
    0
  1
/Users/johnqu/Projects/My Tetra A3/Refs/Screen Shot 2019-04-09 at 12.18.34.png
 10
1828
 20
1780
 11
1
 21
1
280
    1
281
    0
  0
IMAGEDEF
  5
18F
102
{ACAD_REACTORS
330
190
102
}
100
AcDbRasterImageDef
 90
    0
  1
/Users/johnqu/Desktop/Screen Shot 2019-04-09 at 12.33.27.png
 10
1842
 20
1858
 11
1
 21
1
280
    1
281
    0
  0
IMAGEDEF
  5
192
102
{ACAD_REACTORS
330
193
102
}
100
AcDbRasterImageDef
 90
    0
  1
/Users/johnqu/Desktop/Screen Shot 2019-04-09 at 12.13.37.png
 10
1170
 20
1876
 11
1
 21
1
280
    1
281
    0
  0
ENDSEC
  0
EOF
